<?xml version="1.0" encoding="UTF-8"?><svg xmlns="http://www.w3.org/2000/svg" viewBox="0 0 1027.59 556.68"><defs><style>.cls-1{stroke-dasharray:0 0 3.97 3.97;}.cls-1,.cls-2,.cls-3,.cls-4,.cls-5,.cls-6,.cls-7,.cls-8,.cls-9,.cls-10,.cls-11,.cls-12,.cls-13{fill:none;}.cls-1,.cls-2,.cls-3,.cls-4,.cls-5,.cls-7,.cls-8,.cls-9,.cls-10,.cls-11,.cls-12,.cls-14,.cls-15,.cls-16,.cls-17,.cls-13{stroke-miterlimit:10;}.cls-1,.cls-2,.cls-3,.cls-4,.cls-5,.cls-7,.cls-8,.cls-9,.cls-10,.cls-11,.cls-12,.cls-14,.cls-16,.cls-17,.cls-13{stroke:#3553a4;}.cls-2{stroke-dasharray:0 0 4 4;}.cls-3{stroke-dasharray:0 0 4 4;}.cls-4{stroke-dasharray:0 0 4 4;}.cls-5{fill-rule:evenodd;}.cls-6,.cls-18,.cls-19,.cls-20,.cls-21{stroke-width:0px;}.cls-22{font-family:IBMPlexSans, 'IBM Plex Sans';font-size:14px;}.cls-22,.cls-23,.cls-21{fill:#010101;}.cls-7{stroke-dasharray:0 0 4 4;}.cls-8{stroke-dasharray:0 0 4 4;}.cls-9{stroke-dasharray:0 0 4 4;}.cls-10{stroke-dasharray:0 0 4 4;}.cls-11{stroke-dasharray:0 0 3.99 3.99;}.cls-12{stroke-dasharray:0 0 3.99 3.99;}.cls-14,.cls-20{fill:#fff;}.cls-15{stroke:#eef5fb;}.cls-15,.cls-16{fill:#eef4fb;}.cls-17,.cls-18{fill:#3553a4;}.cls-23{font-family:IBMPlexSans-SemiBold, 'IBM Plex Sans';font-size:16px;font-weight:600;}.cls-19{fill:#3654a4;}</style></defs><g id="Background"><rect class="cls-15" x="2.18" y=".5" width="476.31" height="555.55"/><rect class="cls-18" y=".63" width="48" height="48"/><polygon class="cls-14" points="27.74 306.79 430.86 308.2 431.76 546.67 27.74 546.67 27.74 306.79"/><polyline class="cls-5" points="29.24 302.79 436.24 302.79 436.24 541.7"/><polyline class="cls-5" points="33.45 298.79 440.24 298.79 440.24 537.11"/><polygon class="cls-20" points="45.87 367.34 229.55 367.51 229.58 415.51 45.9 415.34 45.87 367.34"/><polyline class="cls-13" points="45.87 369.34 45.87 367.34 47.87 367.34"/><line class="cls-12" x1="51.86" y1="367.34" x2="225.55" y2="367.5"/><polyline class="cls-13" points="227.55 367.5 229.55 367.51 229.55 369.51"/><line class="cls-10" x1="229.55" y1="373.51" x2="229.58" y2="411.51"/><polyline class="cls-13" points="229.58 413.51 229.58 415.51 227.58 415.5"/><line class="cls-12" x1="223.59" y1="415.5" x2="49.9" y2="415.34"/><polyline class="cls-13" points="47.9 415.34 45.9 415.34 45.9 413.34"/><line class="cls-10" x1="45.9" y1="409.34" x2="45.87" y2="371.34"/><rect class="cls-20" x="45.9" y="423.53" width="183.71" height="48"/><polyline class="cls-13" points="229.61 469.53 229.61 471.53 227.61 471.53"/><line class="cls-11" x1="223.62" y1="471.53" x2="49.9" y2="471.53"/><polyline class="cls-13" points="47.9 471.53 45.9 471.53 45.9 469.53"/><line class="cls-8" x1="45.9" y1="465.53" x2="45.9" y2="427.53"/><polyline class="cls-13" points="45.9 425.53 45.9 423.53 47.9 423.53"/><line class="cls-11" x1="51.9" y1="423.53" x2="225.61" y2="423.53"/><polyline class="cls-13" points="227.61 423.53 229.61 423.53 229.61 425.53"/><line class="cls-8" x1="229.61" y1="429.53" x2="229.61" y2="467.53"/><rect class="cls-20" x="45.9" y="479.73" width="183.71" height="48"/><polyline class="cls-13" points="229.61 525.73 229.61 527.73 227.61 527.73"/><line class="cls-11" x1="223.62" y1="527.73" x2="49.9" y2="527.73"/><polyline class="cls-13" points="47.9 527.73 45.9 527.73 45.9 525.73"/><line class="cls-8" x1="45.9" y1="521.73" x2="45.9" y2="483.73"/><polyline class="cls-13" points="45.9 481.73 45.9 479.73 47.9 479.73"/><line class="cls-11" x1="51.9" y1="479.73" x2="225.61" y2="479.73"/><polyline class="cls-13" points="227.61 479.73 229.61 479.73 229.61 481.73"/><line class="cls-8" x1="229.61" y1="485.73" x2="229.61" y2="523.73"/><rect class="cls-20" x="238.83" y="423.53" width="183.71" height="48"/><polyline class="cls-13" points="422.54 469.53 422.54 471.53 420.54 471.53"/><line class="cls-11" x1="416.54" y1="471.53" x2="242.83" y2="471.53"/><polyline class="cls-13" points="240.83 471.53 238.83 471.53 238.83 469.53"/><line class="cls-8" x1="238.83" y1="465.53" x2="238.83" y2="427.53"/><polyline class="cls-13" points="238.83 425.53 238.83 423.53 240.83 423.53"/><line class="cls-11" x1="244.82" y1="423.53" x2="418.54" y2="423.53"/><polyline class="cls-13" points="420.54 423.53 422.54 423.53 422.54 425.53"/><line class="cls-8" x1="422.54" y1="429.53" x2="422.54" y2="467.53"/><rect class="cls-20" x="238.83" y="479.73" width="183.71" height="48"/><polyline class="cls-13" points="422.54 525.73 422.54 527.73 420.54 527.73"/><line class="cls-11" x1="416.54" y1="527.73" x2="242.83" y2="527.73"/><polyline class="cls-13" points="240.83 527.73 238.83 527.73 238.83 525.73"/><line class="cls-8" x1="238.83" y1="521.73" x2="238.83" y2="483.73"/><polyline class="cls-13" points="238.83 481.73 238.83 479.73 240.83 479.73"/><line class="cls-11" x1="244.82" y1="479.73" x2="418.54" y2="479.73"/><polyline class="cls-13" points="420.54 479.73 422.54 479.73 422.54 481.73"/><line class="cls-8" x1="422.54" y1="485.73" x2="422.54" y2="523.73"/><rect class="cls-18" x="28.41" y="306.79" width="48" height="48"/><path class="cls-20" d="m47.58,320.79l3.42,3.41.58.59h12.83v16h-24v-20h7.17m0-2h-7.17c-1.1,0-2,.9-2,2v20c0,1.1.9,2,2,2h24c1.1,0,2-.9,2-2v-16c0-1.1-.9-2-2-2h-12l-3.41-3.41c-.38-.38-.89-.59-1.42-.59Z"/><rect class="cls-20" x="16.16" y="17.21" width="1.65" height="3.31"/><rect class="cls-20" x="16.16" y="22.17" width="1.65" height="3.31"/><rect class="cls-20" x="21.12" y="17.21" width="1.65" height="3.31"/><rect class="cls-20" x="21.12" y="22.17" width="1.65" height="3.31"/><rect class="cls-20" x="16.16" y="27.13" width="1.65" height="3.31"/><rect class="cls-20" x="21.12" y="27.13" width="1.65" height="3.31"/><path class="cls-20" d="m34.35,22.17c0-.91-.74-1.65-1.65-1.65h-4.96v-6.61c0-.91-.74-1.65-1.65-1.65h-13.23c-.91,0-1.65.74-1.65,1.65v21.49h23.15v-13.23ZM12.86,13.91h13.23v19.84h-13.23V13.91Zm14.88,19.84v-11.57h4.96v11.57h-4.96Z"/><rect class="cls-17" x="45.9" y="423.53" width="3" height="48"/><rect class="cls-17" x="45.9" y="479.73" width="3" height="48"/><rect class="cls-17" x="238.83" y="423.53" width="3" height="48"/><rect class="cls-17" x="238.83" y="479.73" width="3" height="48"/><rect class="cls-14" x="28.49" y="66.41" width="403.27" height="220.4"/><polygon class="cls-20" points="45.24 121.05 421.54 120.64 421.46 168.64 45.15 169.05 45.24 121.05"/><polyline class="cls-13" points="45.23 123.05 45.24 121.05 47.24 121.05"/><line class="cls-3" x1="51.24" y1="121.04" x2="417.54" y2="120.64"/><polyline class="cls-13" points="419.54 120.64 421.54 120.64 421.54 122.64"/><line class="cls-7" x1="421.53" y1="126.64" x2="421.47" y2="164.64"/><polyline class="cls-13" points="421.47 166.64 421.46 168.64 419.46 168.64"/><line class="cls-3" x1="415.46" y1="168.65" x2="49.16" y2="169.05"/><polyline class="cls-13" points="47.15 169.05 45.15 169.05 45.16 167.05"/><line class="cls-7" x1="45.16" y1="163.05" x2="45.23" y2="125.05"/><polygon class="cls-20" points="45.24 177.45 421.56 177.04 421.48 225.04 45.15 225.45 45.24 177.45"/><polyline class="cls-13" points="45.23 179.45 45.24 177.45 47.24 177.45"/><line class="cls-2" x1="51.24" y1="177.44" x2="417.56" y2="177.04"/><polyline class="cls-13" points="419.56 177.04 421.56 177.04 421.56 179.04"/><line class="cls-7" x1="421.55" y1="183.04" x2="421.48" y2="221.04"/><polyline class="cls-13" points="421.48 223.04 421.48 225.04 419.48 225.04"/><line class="cls-2" x1="415.47" y1="225.04" x2="49.16" y2="225.44"/><polyline class="cls-13" points="47.15 225.45 45.15 225.45 45.16 223.45"/><line class="cls-7" x1="45.16" y1="219.45" x2="45.23" y2="181.45"/><rect class="cls-16" x="45.83" y="367.34" width="48" height="48"/><rect class="cls-16" x="43.83" y="121.05" width="48" height="48"/><rect class="cls-16" x="43.83" y="177.45" width="48" height="48"/><path id="_Path_" class="cls-20" d="m385.63,123.44v5.5c0,1.5-.9,2.8-2.3,3.5l-1.7.8-1.7-.8c-1.4-.6-2.3-2-2.3-3.5v-5.5h8m2-2h-12v7.5c0,2.2,1.3,4.3,3.4,5.3l2.6,1.2,2.6-1.2c2.1-1,3.4-3,3.4-5.3v-7.5h0Z"/><path class="cls-20" d="m371.63,130.44h-8.5c-4.1,0-7.5-3.4-7.5-7.5,0-3.7,2.7-6.7,6.2-7.4.9-4.7,5-8.1,9.8-8.1,5.5,0,10,4.5,10,10h-2c0-4.4-3.6-8-8-8-4.1,0-7.5,3.1-8,7.1v.9h-.9c-2.9.2-5.1,2.6-5.1,5.5s2.5,5.5,5.5,5.5h8.5v2Z"/><path class="cls-18" d="m61.85,389.3h10.97v2.04h-10.97v-2.04Zm0,5.09h12.97v2.04h-12.97v-2.04Z"/><path class="cls-18" d="m81.8,379.12h-23.94c-1.1,0-1.99.91-1.99,2.04v20.36c0,1.12.89,2.04,1.99,2.04h23.94c1.1,0,1.99-.91,1.99-2.04v-20.36c0-1.12-.89-2.04-1.99-2.04Zm0,2.04v2.04h-23.94v-2.04h23.94Zm-23.94,20.36v-16.28h23.94v16.28h-23.94Z"/><path class="cls-18" d="m59.85,143.02h10.97v2.04h-10.97v-2.04Zm0,5.09h12.97v2.04h-12.97v-2.04Z"/><path class="cls-18" d="m79.8,132.84h-23.94c-1.1,0-1.99.91-1.99,2.04v20.36c0,1.12.89,2.04,1.99,2.04h23.94c1.1,0,1.99-.91,1.99-2.04v-20.36c0-1.12-.89-2.04-1.99-2.04Zm0,2.04v2.04h-23.94v-2.04h23.94Zm-23.94,20.36v-16.28h23.94v16.28h-23.94Z"/><path class="cls-18" d="m61.66,209.64l3.99-3.99-1.32-1.32-3.99,3.99-.74-.74c-.37-.37-.96-.37-1.32,0h0s-3.75,3.75-3.75,3.75c-.37.37-.37.96,0,1.32,0,0,0,0,0,0l2.81,2.81c.37.37.96.37,1.32,0,0,0,0,0,0,0l3.75-3.75c.37-.37.37-.96,0-1.32,0,0,0,0,0,0l-.74-.74Zm-3.66,3.83l-1.48-1.48,2.42-2.42,1.48,1.48-2.42,2.42Z"/><path class="cls-18" d="m75.79,214.79c-3.1,0-5.61-2.52-5.62-5.62,0-.49.07-.98.2-1.45l-8.11-8.11c-.47.13-.96.2-1.45.2-3.09.01-5.61-2.48-5.62-5.57,0-.72.13-1.43.4-2.09l.52-1.33,3.1,3.1c.37.35.95.35,1.32,0,.37-.36.37-.96,0-1.32,0,0,0,0,0,0l-3.1-3.1,1.33-.52c2.87-1.14,6.13.26,7.27,3.14.26.66.4,1.37.4,2.09,0,.49-.07.98-.2,1.45l8.11,8.11c.47-.13.96-.2,1.45-.2,3.09-.01,5.61,2.48,5.62,5.57,0,.72-.13,1.43-.4,2.09l-.52,1.33-3.1-3.1c-.37-.35-.95-.35-1.32,0-.37.36-.37.96,0,1.32,0,0,0,0,0,0l3.1,3.1-1.33.52c-.65.26-1.34.39-2.04.4Zm-13.05-17.34l9.79,9.79-.22.57c-.76,1.91.17,4.07,2.07,4.84.37.15.77.24,1.17.26l-.82-.82c-1.1-1.1-1.1-2.87,0-3.97h0c1.11-1.06,2.86-1.06,3.97,0l.82.82c-.12-2.05-1.88-3.62-3.93-3.51-.4.02-.8.11-1.17.26l-.57.22-9.79-9.79.22-.57c.76-1.91-.16-4.07-2.07-4.84-.37-.15-.77-.24-1.17-.26l.82.82c1.1,1.1,1.1,2.87,0,3.97h0c-1.11,1.06-2.86,1.06-3.97,0l-.82-.82c.12,2.05,1.87,3.62,3.93,3.51.4-.02.8-.11,1.17-.26l.57-.22Z"/><path class="cls-18" d="m80.59,189.37c-1.11-1.06-2.86-1.06-3.97,0l-7,7,1.32,1.32,7-7c.37-.35.95-.35,1.32,0,.36.37.36.96,0,1.32l-7,7,1.32,1.32,7-7c1.1-1.1,1.1-2.88,0-3.97Z"/><rect class="cls-17" x=".51" y="48.63" width="3" height="507.55"/><rect class="cls-15" x="550.78" y="1.55" width="476.31" height="535.55"/><rect class="cls-18" x="549.72" y=".63" width="48" height="48"/><polygon class="cls-14" points="580.32 238.6 983.44 240.31 984.34 527.73 580.32 527.73 580.32 238.6"/><polyline class="cls-5" points="581.82 234.6 988.82 234.6 988.82 518.79"/><polyline class="cls-5" points="586.03 230.6 992.82 230.6 992.82 506.7"/><rect class="cls-20" x="594.01" y="302.02" width="183.71" height="48"/><polyline class="cls-13" points="777.72 348.02 777.72 350.02 775.72 350.02"/><line class="cls-11" x1="771.72" y1="350.02" x2="598.01" y2="350.02"/><polyline class="cls-13" points="596.01 350.02 594.01 350.02 594.01 348.02"/><line class="cls-8" x1="594.01" y1="344.02" x2="594.01" y2="306.02"/><polyline class="cls-13" points="594.01 304.02 594.01 302.02 596.01 302.02"/><line class="cls-11" x1="600" y1="302.02" x2="773.72" y2="302.02"/><polyline class="cls-13" points="775.72 302.02 777.72 302.02 777.72 304.02"/><line class="cls-8" x1="777.72" y1="308.02" x2="777.72" y2="346.02"/><rect class="cls-20" x="594.01" y="358.22" width="183.71" height="48"/><polyline class="cls-13" points="777.72 404.22 777.72 406.22 775.72 406.22"/><line class="cls-11" x1="771.72" y1="406.22" x2="598.01" y2="406.22"/><polyline class="cls-13" points="596.01 406.22 594.01 406.22 594.01 404.22"/><line class="cls-8" x1="594.01" y1="400.22" x2="594.01" y2="362.22"/><polyline class="cls-13" points="594.01 360.22 594.01 358.22 596.01 358.22"/><line class="cls-11" x1="600" y1="358.22" x2="773.72" y2="358.22"/><polyline class="cls-13" points="775.72 358.22 777.72 358.22 777.72 360.22"/><line class="cls-8" x1="777.72" y1="364.22" x2="777.72" y2="402.22"/><rect class="cls-20" x="786.94" y="302.02" width="183.71" height="48"/><polyline class="cls-13" points="970.64 348.02 970.64 350.02 968.64 350.02"/><line class="cls-11" x1="964.65" y1="350.02" x2="790.93" y2="350.02"/><polyline class="cls-13" points="788.94 350.02 786.94 350.02 786.94 348.02"/><line class="cls-8" x1="786.94" y1="344.02" x2="786.94" y2="306.02"/><polyline class="cls-13" points="786.94 304.02 786.94 302.02 788.94 302.02"/><line class="cls-11" x1="792.93" y1="302.02" x2="966.65" y2="302.02"/><polyline class="cls-13" points="968.64 302.02 970.64 302.02 970.64 304.02"/><line class="cls-8" x1="970.64" y1="308.02" x2="970.64" y2="346.02"/><rect class="cls-20" x="786.94" y="358.22" width="183.71" height="48"/><polyline class="cls-13" points="970.64 404.22 970.64 406.22 968.64 406.22"/><line class="cls-11" x1="964.65" y1="406.22" x2="790.93" y2="406.22"/><polyline class="cls-13" points="788.94 406.22 786.94 406.22 786.94 404.22"/><line class="cls-8" x1="786.94" y1="400.22" x2="786.94" y2="362.22"/><polyline class="cls-13" points="786.94 360.22 786.94 358.22 788.94 358.22"/><line class="cls-11" x1="792.93" y1="358.22" x2="966.65" y2="358.22"/><polyline class="cls-13" points="968.64 358.22 970.64 358.22 970.64 360.22"/><line class="cls-8" x1="970.64" y1="364.22" x2="970.64" y2="402.22"/><rect class="cls-18" x="580.91" y="238.6" width="48" height="48"/><path class="cls-20" d="m600.08,252.6l3.42,3.41.58.59h12.83v16h-24v-20h7.17m0-2h-7.17c-1.1,0-2,.9-2,2v20c0,1.1.9,2,2,2h24c1.1,0,2-.9,2-2v-16c0-1.1-.9-2-2-2h-12l-3.41-3.41c-.38-.38-.89-.59-1.42-.59Z"/><rect class="cls-20" x="565.88" y="17.21" width="1.65" height="3.31"/><rect class="cls-20" x="565.88" y="22.17" width="1.65" height="3.31"/><rect class="cls-20" x="570.84" y="17.21" width="1.65" height="3.31"/><rect class="cls-20" x="570.84" y="22.17" width="1.65" height="3.31"/><rect class="cls-20" x="565.88" y="27.13" width="1.65" height="3.31"/><rect class="cls-20" x="570.84" y="27.13" width="1.65" height="3.31"/><path class="cls-20" d="m584.07,22.17c0-.91-.74-1.65-1.65-1.65h-4.96v-6.61c0-.91-.74-1.65-1.65-1.65h-13.23c-.91,0-1.65.74-1.65,1.65v21.49h23.15v-13.23Zm-21.49-8.27h13.23v19.84h-13.23V13.91Zm14.88,19.84v-11.57h4.96v11.57h-4.96Z"/><rect class="cls-17" x="594.01" y="302.02" width="3" height="48"/><rect class="cls-17" x="594.01" y="358.22" width="3" height="48"/><rect class="cls-17" x="786.94" y="302.02" width="3" height="48"/><rect class="cls-17" x="786.94" y="358.22" width="3" height="48"/><rect class="cls-14" x="581.21" y="77.41" width="403.13" height="128.98"/><polygon class="cls-20" points="596.96 136.05 970.56 135.65 970.48 183.65 596.88 184.05 596.96 136.05"/><polyline class="cls-13" points="596.95 138.05 596.96 136.05 598.96 136.05"/><line class="cls-1" x1="602.93" y1="136.04" x2="966.57" y2="135.65"/><polyline class="cls-13" points="968.56 135.65 970.56 135.65 970.56 137.65"/><line class="cls-9" x1="970.55" y1="141.65" x2="970.49" y2="179.65"/><polyline class="cls-13" points="970.49 181.65 970.48 183.65 968.48 183.65"/><line class="cls-1" x1="964.51" y1="183.66" x2="600.86" y2="184.05"/><polyline class="cls-13" points="598.88 184.05 596.88 184.05 596.88 182.05"/><line class="cls-9" x1="596.89" y1="178.05" x2="596.95" y2="140.05"/><rect class="cls-16" x="596.21" y="136.05" width="48" height="48"/><path id="_Path_-2" class="cls-20" d="m937.35,118.44v5.5c0,1.5-.9,2.8-2.3,3.5l-1.7.8-1.7-.8c-1.4-.6-2.3-2-2.3-3.5v-5.5h8m2-2h-12v7.5c0,2.2,1.3,4.3,3.4,5.3l2.6,1.2,2.6-1.2c2.1-1,3.4-3,3.4-5.3v-7.5h0Z"/><path class="cls-20" d="m923.35,125.44h-8.5c-4.1,0-7.5-3.4-7.5-7.5,0-3.7,2.7-6.7,6.2-7.4.9-4.7,5-8.1,9.8-8.1,5.5,0,10,4.5,10,10h-2c0-4.4-3.6-8-8-8-4.1,0-7.5,3.1-8,7.1v.9h-.9c-2.9.2-5.1,2.6-5.1,5.5s2.5,5.5,5.5,5.5h8.5v2Z"/><path class="cls-18" d="m614.05,168.24l3.99-3.99-1.32-1.32-3.99,3.99-.74-.74c-.37-.37-.96-.37-1.32,0h0s-3.75,3.75-3.75,3.75c-.37.37-.37.96,0,1.32,0,0,0,0,0,0l2.81,2.81c.37.37.96.37,1.32,0,0,0,0,0,0,0l3.75-3.75c.37-.37.37-.96,0-1.32,0,0,0,0,0,0l-.74-.74Zm-3.66,3.83l-1.48-1.48,2.42-2.42,1.48,1.48-2.42,2.42Z"/><path class="cls-18" d="m628.17,173.39c-3.1,0-5.61-2.52-5.62-5.62,0-.49.07-.98.2-1.45l-8.11-8.11c-.47.13-.96.2-1.45.2-3.09.01-5.61-2.48-5.62-5.57,0-.72.13-1.43.4-2.09l.52-1.33,3.1,3.1c.37.35.95.35,1.32,0,.37-.36.37-.96,0-1.32,0,0,0,0,0,0l-3.1-3.1,1.33-.52c2.87-1.14,6.13.26,7.27,3.14.26.66.4,1.37.4,2.09,0,.49-.07.98-.2,1.45l8.11,8.11c.47-.13.96-.2,1.45-.2,3.09-.01,5.61,2.48,5.62,5.57,0,.72-.13,1.43-.4,2.09l-.52,1.33-3.1-3.1c-.37-.35-.95-.35-1.32,0-.37.36-.37.96,0,1.32,0,0,0,0,0,0l3.1,3.1-1.33.52c-.65.26-1.34.39-2.04.4Zm-13.05-17.34l9.79,9.79-.22.57c-.76,1.91.17,4.07,2.07,4.84.37.15.77.24,1.17.26l-.82-.82c-1.1-1.1-1.1-2.87,0-3.97h0c1.11-1.06,2.86-1.06,3.97,0l.82.82c-.12-2.05-1.88-3.62-3.93-3.51-.4.02-.8.11-1.17.26l-.57.22-9.79-9.79.22-.57c.76-1.91-.16-4.07-2.07-4.84-.37-.15-.77-.24-1.17-.26l.82.82c1.1,1.1,1.1,2.87,0,3.97h0c-1.11,1.06-2.86,1.06-3.97,0l-.82-.82c.12,2.05,1.87,3.62,3.93,3.51.4-.02.8-.11,1.17-.26l.57-.22Z"/><path class="cls-18" d="m632.97,147.97c-1.11-1.06-2.86-1.06-3.97,0l-7,7,1.32,1.32,7-7c.37-.35.95-.35,1.32,0,.36.37.36.96,0,1.32l-7,7,1.32,1.32,7-7c1.1-1.1,1.1-2.88,0-3.97Z"/><rect class="cls-17" x="550.71" y="48.63" width="3.51" height="488.47"/><rect class="cls-20" x="594.01" y="414.42" width="183.71" height="48"/><polyline class="cls-13" points="777.72 460.42 777.72 462.42 775.72 462.42"/><line class="cls-11" x1="771.72" y1="462.42" x2="598.01" y2="462.42"/><polyline class="cls-13" points="596.01 462.42 594.01 462.42 594.01 460.42"/><line class="cls-8" x1="594.01" y1="456.42" x2="594.01" y2="418.42"/><polyline class="cls-13" points="594.01 416.42 594.01 414.42 596.01 414.42"/><line class="cls-11" x1="600" y1="414.42" x2="773.72" y2="414.42"/><polyline class="cls-13" points="775.72 414.42 777.72 414.42 777.72 416.42"/><line class="cls-8" x1="777.72" y1="420.42" x2="777.72" y2="458.42"/><rect class="cls-20" x="786.94" y="414.42" width="183.71" height="48"/><polyline class="cls-13" points="970.64 460.42 970.64 462.42 968.64 462.42"/><line class="cls-11" x1="964.65" y1="462.42" x2="790.93" y2="462.42"/><polyline class="cls-13" points="788.94 462.42 786.94 462.42 786.94 460.42"/><line class="cls-8" x1="786.94" y1="456.42" x2="786.94" y2="418.42"/><polyline class="cls-13" points="786.94 416.42 786.94 414.42 788.94 414.42"/><line class="cls-11" x1="792.93" y1="414.42" x2="966.65" y2="414.42"/><polyline class="cls-13" points="968.64 414.42 970.64 414.42 970.64 416.42"/><line class="cls-8" x1="970.64" y1="420.42" x2="970.64" y2="458.42"/><rect class="cls-17" x="594.01" y="414.42" width="3" height="48"/><rect class="cls-17" x="786.94" y="414.42" width="3" height="48"/><rect class="cls-18" x="28.41" y="66.41" width="48" height="48"/><path class="cls-20" d="m47.58,80.41l3.42,3.41.58.59h12.83v16h-24v-20h7.17m0-2h-7.17c-1.1,0-2,.9-2,2v20c0,1.1.9,2,2,2h24c1.1,0,2-.9,2-2v-16c0-1.1-.9-2-2-2h-12l-3.41-3.41c-.38-.38-.89-.59-1.42-.59Z"/><rect class="cls-18" x="580.91" y="77.19" width="48" height="48"/><path class="cls-20" d="m600.08,91.19l3.42,3.41.58.59h12.83v16h-24v-20h7.17m0-2h-7.17c-1.1,0-2,.9-2,2v20c0,1.1.9,2,2,2h24c1.1,0,2-.9,2-2v-16c0-1.1-.9-2-2-2h-12l-3.41-3.41c-.38-.38-.89-.59-1.42-.59Z"/></g><g id="Text"><text class="cls-23" transform="translate(56.4 33.04)"><tspan x="0" y="0">Production enterprise</tspan></text><text class="cls-22" transform="translate(84.49 335.49)"><tspan x="0" y="0">Business unit account group</tspan></text><text class="cls-22" transform="translate(99.57 397.78)"><tspan x="0" y="0">BU admin account</tspan></text><text class="cls-22" transform="translate(62.04 451.94)"><tspan x="0" y="0">Workload account</tspan></text><text class="cls-22" transform="translate(62.04 508.14)"><tspan x="0" y="0">Workload account</tspan></text><text class="cls-22" transform="translate(254.97 451.94)"><tspan x="0" y="0">Workload account</tspan></text><text class="cls-22" transform="translate(254.97 508.14)"><tspan x="0" y="0">Workload account</tspan></text><text class="cls-22" transform="translate(84.49 94.77)"><tspan x="0" y="0">Admin account group</tspan></text><text class="cls-22" transform="translate(97.57 149.46)"><tspan x="0" y="0">Central admin account</tspan></text><text class="cls-22" transform="translate(97.57 197.86)"><tspan x="0" y="0">Network and services </tspan><tspan x="0" y="18">hub account</tspan></text><text class="cls-23" transform="translate(606.12 33.04)"><tspan x="0" y="0">Nonproduction enterprise</tspan></text><text class="cls-22" transform="translate(637.21 267.28)"><tspan x="0" y="0">Business unit account group</tspan></text><text class="cls-22" transform="translate(610.14 330.43)"><tspan x="0" y="0">Workload account</tspan></text><text class="cls-22" transform="translate(610.14 386.63)"><tspan x="0" y="0">Workload account</tspan></text><text class="cls-22" transform="translate(803.07 330.43)"><tspan x="0" y="0">Workload account</tspan></text><text class="cls-22" transform="translate(803.07 386.63)"><tspan x="0" y="0">Workload account</tspan></text><text class="cls-22" transform="translate(637.21 105.77)"><tspan x="0" y="0">Admin account group</tspan></text><text class="cls-22" transform="translate(649.95 156.46)"><tspan x="0" y="0">Network and services </tspan><tspan x="0" y="18" xml:space="preserve">hub  account</tspan></text><text class="cls-22" transform="translate(610.14 434.18)"><tspan x="0" y="0">Infrastructure as code </tspan><tspan x="0" y="18">development account</tspan></text><text class="cls-22" transform="translate(803.07 433.83)"><tspan x="0" y="0" xml:space="preserve">Infrastructure as code  </tspan><tspan x="0" y="18">test account</tspan></text><polygon class="cls-20" points="45.23 232.27 421.56 231.86 421.48 279.86 45.15 280.27 45.23 232.27"/><polyline class="cls-13" points="45.23 234.27 45.23 232.27 47.23 232.27"/><line class="cls-4" x1="51.23" y1="232.27" x2="417.56" y2="231.87"/><polyline class="cls-13" points="419.56 231.87 421.56 231.86 421.55 233.86"/><line class="cls-7" x1="421.55" y1="237.86" x2="421.48" y2="275.86"/><polyline class="cls-13" points="421.48 277.86 421.48 279.86 419.48 279.87"/><line class="cls-4" x1="415.47" y1="279.87" x2="49.15" y2="280.27"/><polyline class="cls-13" points="47.15 280.27 45.15 280.27 45.15 278.27"/><line class="cls-7" x1="45.16" y1="274.27" x2="45.22" y2="236.27"/><rect class="cls-16" x="43.83" y="232.28" width="48" height="48"/><text class="cls-22" transform="translate(97.57 262.04)"><tspan x="0" y="0">Backup account</tspan></text><g id="data-backup"><circle class="cls-21" cx="61.82" cy="248.6" r="1"/><circle class="cls-21" cx="61.82" cy="256.6" r="1"/><circle class="cls-21" cx="61.82" cy="264.6" r="1"/><path class="cls-19" d="m66.82,267.6h-8v-6h8v-2h-8v-6h18v-8c0-1.1-.9-2-2-2h-16c-1.1,0-2,.9-2,2v22c0,1.1.9,2,2,2h8v-2Zm-8-22h16v6h-16v-6Z"/><path class="cls-19" d="m82.82,258.6v2.41c-1.98-3.32-6.28-4.4-9.6-2.41-3.32,1.98-4.4,6.28-2.41,9.6,1.26,2.11,3.55,3.41,6.01,3.41v-2c-2.76,0-5-2.23-5.01-4.99,0-2.76,2.23-5,4.99-5.01,1.99,0,3.79,1.18,4.59,3h-2.58v2h6v-6h-2Z"/><rect id="_Transparent_Rectangle_" class="cls-6" x="54.82" y="241.6" width="32" height="32"/></g><polygon class="cls-20" points="237.92 367.34 421.6 367.51 421.63 415.51 237.95 415.34 237.92 367.34"/><polyline class="cls-13" points="237.92 369.34 237.92 367.34 239.92 367.34"/><line class="cls-12" x1="243.91" y1="367.34" x2="417.6" y2="367.5"/><polyline class="cls-13" points="419.6 367.5 421.6 367.51 421.6 369.51"/><line class="cls-10" x1="421.6" y1="373.51" x2="421.63" y2="411.51"/><polyline class="cls-13" points="421.63 413.51 421.63 415.51 419.63 415.5"/><line class="cls-12" x1="415.64" y1="415.5" x2="241.95" y2="415.34"/><polyline class="cls-13" points="239.95 415.34 237.95 415.34 237.95 413.34"/><line class="cls-10" x1="237.95" y1="409.34" x2="237.92" y2="371.34"/><rect class="cls-16" x="237.88" y="367.34" width="48" height="48"/><text class="cls-22" transform="translate(291.62 397.78)"><tspan x="0" y="0">Backup account</tspan></text><g id="data-backup-2"><circle class="cls-21" cx="252.88" cy="382.42" r="1"/><circle class="cls-21" cx="252.88" cy="390.42" r="1"/><circle class="cls-21" cx="252.88" cy="398.42" r="1"/><path class="cls-19" d="m257.88,401.42h-8v-6h8v-2h-8v-6h18v-8c0-1.1-.9-2-2-2h-16c-1.1,0-2,.9-2,2v22c0,1.1.9,2,2,2h8v-2Zm-8-22h16v6h-16v-6Z"/><path class="cls-19" d="m273.88,392.42v2.41c-1.98-3.32-6.28-4.4-9.6-2.41-3.32,1.98-4.4,6.28-2.41,9.6,1.26,2.11,3.55,3.41,6.01,3.41v-2c-2.76,0-5-2.23-5.01-4.99,0-2.76,2.23-5,4.99-5.01,1.99,0,3.79,1.18,4.59,3h-2.58v2h6v-6h-2Z"/><rect id="_Transparent_Rectangle_-2" class="cls-6" x="245.88" y="375.42" width="32" height="32"/></g><polygon class="cls-20" points="595.71 470.62 779.39 470.79 779.43 518.79 595.75 518.62 595.71 470.62"/><polyline class="cls-13" points="595.71 472.62 595.71 470.62 597.71 470.62"/><line class="cls-12" x1="601.7" y1="470.62" x2="775.39" y2="470.78"/><polyline class="cls-13" points="777.39 470.78 779.39 470.79 779.39 472.79"/><line class="cls-10" x1="779.4" y1="476.79" x2="779.42" y2="514.79"/><polyline class="cls-13" points="779.42 516.79 779.43 518.79 777.43 518.78"/><line class="cls-12" x1="773.43" y1="518.78" x2="599.74" y2="518.62"/><polyline class="cls-13" points="597.75 518.62 595.75 518.62 595.74 516.62"/><line class="cls-10" x1="595.74" y1="512.62" x2="595.71" y2="474.62"/><rect class="cls-16" x="595.67" y="470.62" width="48" height="48"/><text class="cls-22" transform="translate(649.41 501.06)"><tspan x="0" y="0">Backup account</tspan></text><g id="data-backup-3"><circle class="cls-21" cx="610.67" cy="485.7" r="1"/><circle class="cls-21" cx="610.67" cy="493.7" r="1"/><circle class="cls-21" cx="610.67" cy="501.7" r="1"/><path class="cls-19" d="m615.67,504.7h-8v-6h8v-2h-8v-6h18v-8c0-1.1-.9-2-2-2h-16c-1.1,0-2,.9-2,2v22c0,1.1.9,2,2,2h8v-2Zm-8-22h16v6h-16v-6Z"/><path class="cls-19" d="m631.67,495.7v2.41c-1.98-3.32-6.28-4.4-9.6-2.41-3.32,1.98-4.4,6.28-2.41,9.6,1.26,2.11,3.55,3.41,6.01,3.41v-2c-2.76,0-5-2.23-5.01-4.99,0-2.76,2.23-5,4.99-5.01,1.99,0,3.79,1.18,4.59,3h-2.58v2h6v-6h-2Z"/><rect id="_Transparent_Rectangle_-3" class="cls-6" x="603.67" y="478.7" width="32" height="32"/></g></g></svg>