<svg xmlns="http://www.w3.org/2000/svg" width="1027.0435" height="556.5523" viewBox="0 0 1027.0435 556.5523"><defs><style>.cls-1,.cls-10{fill:#eef4fb;}.cls-1{stroke:#eef5fb;}.cls-1,.cls-10,.cls-11,.cls-3,.cls-4,.cls-6,.cls-7,.cls-8,.cls-9{stroke-miterlimit:10;}.cls-11,.cls-2,.cls-9{fill:#3553a4;}.cls-3,.cls-5{fill:#fff;}.cls-10,.cls-3,.cls-4,.cls-6,.cls-7,.cls-8,.cls-9{stroke:#3553a4;}.cls-4,.cls-6,.cls-7,.cls-8{fill:none;}.cls-4{fill-rule:evenodd;}.cls-7{stroke-dasharray:4 4;}.cls-8{stroke-dasharray:3.9935 3.9935;}.cls-11{stroke:#4267b1;}.cls-12{font-size:16px;font-family:IBMPlexSans-SemiBold, IBM Plex Sans;font-weight:600;}.cls-12,.cls-13{fill:#010101;}.cls-13{font-size:14px;font-family:IBMPlexSans, IBM Plex Sans;}</style></defs><g id="Background"><rect class="cls-1" x="0.5119" y="0.5" width="476.3103" height="555.5523"/><rect class="cls-2" y="0.5" width="48" height="48"/><polygon class="cls-3" points="27.737 281.655 430.856 283.069 431.759 521.536 27.737 521.536 27.737 281.655"/><polyline class="cls-4" points="29.237 277.655 436.237 277.655 436.237 516.564"/><polyline class="cls-4" points="33.453 273.655 440.237 273.655 440.237 511.975"/><rect class="cls-5" x="45.9037" y="342.2046" width="240" height="48"/><polyline class="cls-6" points="45.904 344.205 45.904 342.205 47.904 342.205"/><line class="cls-7" x1="51.9037" y1="342.2046" x2="281.9037" y2="342.2046"/><polyline class="cls-6" points="283.904 342.205 285.904 342.205 285.904 344.205"/><line class="cls-7" x1="285.9037" y1="348.2046" x2="285.9037" y2="386.2046"/><polyline class="cls-6" points="285.904 388.205 285.904 390.205 283.904 390.205"/><line class="cls-7" x1="279.9037" y1="390.2046" x2="49.9037" y2="390.2046"/><polyline class="cls-6" points="47.904 390.205 45.904 390.205 45.904 388.205"/><line class="cls-7" x1="45.9037" y1="384.2046" x2="45.9037" y2="346.2046"/><rect class="cls-5" x="45.9037" y="398.4017" width="183.706" height="48"/><polyline class="cls-6" points="229.61 444.402 229.61 446.402 227.61 446.402"/><line class="cls-8" x1="223.6163" y1="446.4016" x2="49.9005" y2="446.4016"/><polyline class="cls-6" points="47.904 446.402 45.904 446.402 45.904 444.402"/><line class="cls-7" x1="45.9037" y1="440.4016" x2="45.9037" y2="402.4016"/><polyline class="cls-6" points="45.904 400.402 45.904 398.402 47.904 398.402"/><line class="cls-8" x1="51.8972" y1="398.4016" x2="225.613" y2="398.4016"/><polyline class="cls-6" points="227.61 398.402 229.61 398.402 229.61 400.402"/><line class="cls-7" x1="229.6098" y1="404.4016" x2="229.6098" y2="442.4016"/><rect class="cls-5" x="45.9037" y="454.5989" width="183.706" height="48"/><polyline class="cls-6" points="229.61 500.599 229.61 502.599 227.61 502.599"/><line class="cls-8" x1="223.6163" y1="502.5989" x2="49.9005" y2="502.5989"/><polyline class="cls-6" points="47.904 502.599 45.904 502.599 45.904 500.599"/><line class="cls-7" x1="45.9037" y1="496.5989" x2="45.9037" y2="458.5989"/><polyline class="cls-6" points="45.904 456.599 45.904 454.599 47.904 454.599"/><line class="cls-8" x1="51.8972" y1="454.5989" x2="225.613" y2="454.5989"/><polyline class="cls-6" points="227.61 454.599 229.61 454.599 229.61 456.599"/><line class="cls-7" x1="229.6098" y1="460.5989" x2="229.6098" y2="498.5989"/><rect class="cls-5" x="238.8315" y="398.4017" width="183.706" height="48"/><polyline class="cls-6" points="422.538 444.402 422.538 446.402 420.538 446.402"/><line class="cls-8" x1="416.544" y1="446.4016" x2="242.8282" y2="446.4016"/><polyline class="cls-6" points="240.831 446.402 238.831 446.402 238.831 444.402"/><line class="cls-7" x1="238.8315" y1="440.4016" x2="238.8315" y2="402.4016"/><polyline class="cls-6" points="238.831 400.402 238.831 398.402 240.831 398.402"/><line class="cls-8" x1="244.825" y1="398.4016" x2="418.5408" y2="398.4016"/><polyline class="cls-6" points="420.538 398.402 422.538 398.402 422.538 400.402"/><line class="cls-7" x1="422.5375" y1="404.4016" x2="422.5375" y2="442.4016"/><rect class="cls-5" x="238.8315" y="454.5989" width="183.706" height="48"/><polyline class="cls-6" points="422.538 500.599 422.538 502.599 420.538 502.599"/><line class="cls-8" x1="416.544" y1="502.5989" x2="242.8282" y2="502.5989"/><polyline class="cls-6" points="240.831 502.599 238.831 502.599 238.831 500.599"/><line class="cls-7" x1="238.8315" y1="496.5989" x2="238.8315" y2="458.5989"/><polyline class="cls-6" points="238.831 456.599 238.831 454.599 240.831 454.599"/><line class="cls-8" x1="244.825" y1="454.5989" x2="418.5408" y2="454.5989"/><polyline class="cls-6" points="420.538 454.599 422.538 454.599 422.538 456.599"/><line class="cls-7" x1="422.5375" y1="460.5989" x2="422.5375" y2="498.5989"/><rect class="cls-2" x="28.4085" y="281.6554" width="48" height="48"/><path class="cls-5" d="M326.3067,309.349l3.42,3.41.58.59h12.83v16h-24v-20h7.17m0-2h-7.17a2,2,0,0,0-2,2v20a2,2,0,0,0,2,2h24a2,2,0,0,0,2-2v-16a2,2,0,0,0-2-2h-12l-3.41-3.41A1.9993,1.9993,0,0,0,326.3067,307.349Z" transform="translate(-278.7282 -13.6936)"/><rect class="cls-5" x="16.1632" y="17.0799" width="1.6534" height="3.3067"/><rect class="cls-5" x="16.1632" y="22.0399" width="1.6534" height="3.3067"/><rect class="cls-5" x="21.1233" y="17.0799" width="1.6534" height="3.3067"/><rect class="cls-5" x="21.1233" y="22.0399" width="1.6534" height="3.3067"/><rect class="cls-5" x="16.1632" y="27" width="1.6534" height="3.3067"/><rect class="cls-5" x="21.1233" y="27" width="1.6534" height="3.3067"/><path class="cls-5" d="M313.0784,35.7335A1.6534,1.6534,0,0,0,311.425,34.08h-4.96V27.4667a1.6533,1.6533,0,0,0-1.6533-1.6533H291.5847a1.6533,1.6533,0,0,0-1.6533,1.6533V48.96h23.147Zm-21.4937-8.2668h13.2269v19.84H291.5847Zm14.88,19.84V35.7335h4.96V47.307Z" transform="translate(-278.7282 -13.6936)"/><rect class="cls-9" x="45.9037" y="398.4017" width="3" height="48"/><rect class="cls-9" x="45.9037" y="454.5989" width="3" height="48"/><rect class="cls-9" x="238.8315" y="398.4017" width="3" height="48"/><rect class="cls-9" x="238.8315" y="454.5989" width="3" height="48"/><rect class="cls-3" x="28.4867" y="77.2803" width="267.72" height="176.1676"/><rect class="cls-5" x="45.1537" y="131.9204" width="240" height="48"/><polyline class="cls-6" points="45.154 133.92 45.154 131.92 47.154 131.92"/><line class="cls-7" x1="51.1537" y1="131.9204" x2="281.1537" y2="131.9204"/><polyline class="cls-6" points="283.154 131.92 285.154 131.92 285.154 133.92"/><line class="cls-7" x1="285.1537" y1="137.9204" x2="285.1537" y2="175.9204"/><polyline class="cls-6" points="285.154 177.92 285.154 179.92 283.154 179.92"/><line class="cls-7" x1="279.1537" y1="179.9204" x2="49.1537" y2="179.9204"/><polyline class="cls-6" points="47.154 179.92 45.154 179.92 45.154 177.92"/><line class="cls-7" x1="45.1537" y1="173.9204" x2="45.1537" y2="135.9204"/><rect class="cls-5" x="45.1537" y="188.3182" width="240" height="48"/><polyline class="cls-6" points="45.154 190.318 45.154 188.318 47.154 188.318"/><line class="cls-7" x1="51.1537" y1="188.3181" x2="281.1537" y2="188.3181"/><polyline class="cls-6" points="283.154 188.318 285.154 188.318 285.154 190.318"/><line class="cls-7" x1="285.1537" y1="194.3181" x2="285.1537" y2="232.3181"/><polyline class="cls-6" points="285.154 234.318 285.154 236.318 283.154 236.318"/><line class="cls-7" x1="279.1537" y1="236.3181" x2="49.1537" y2="236.3181"/><polyline class="cls-6" points="47.154 236.318 45.154 236.318 45.154 234.318"/><line class="cls-7" x1="45.1537" y1="230.3181" x2="45.1537" y2="192.3181"/><rect class="cls-10" x="45.8313" y="342.2046" width="48" height="48"/><rect class="cls-10" x="43.8313" y="131.9204" width="48" height="48"/><rect class="cls-10" x="43.8313" y="188.3182" width="48" height="48"/><rect class="cls-3" x="302.6986" y="77.2803" width="136.7275" height="176.1676"/><rect class="cls-11" x="347.0623" y="107.7624" width="48" height="48"/><path id="_Path_" data-name="&lt;Path&gt;" class="cls-5" d="M664.3589,148v5.5a3.9337,3.9337,0,0,1-2.3,3.5l-1.7.8-1.7-.8a3.8251,3.8251,0,0,1-2.3-3.5V148h8m2-2h-12v7.5a5.9235,5.9235,0,0,0,3.4,5.3l2.6,1.2,2.6-1.2a5.8149,5.8149,0,0,0,3.4-5.3V146Z" transform="translate(-278.7282 -13.6936)"/><path class="cls-5" d="M650.3589,155h-8.5a7.5074,7.5074,0,0,1-1.3-14.9,9.99,9.99,0,0,1,19.8,1.9h-2a8.0269,8.0269,0,0,0-16-.9v.9h-.9a5.4759,5.4759,0,0,0-5.1,5.5,5.5488,5.5488,0,0,0,5.5,5.5h8.5Z" transform="translate(-278.7282 -13.6936)"/><path class="cls-2" d="M340.5806,377.8626h10.971v2.0355h-10.971Zm0,5.0889h12.9658v2.0355H340.5806Z" transform="translate(-278.7282 -13.6936)"/><path class="cls-2" d="M360.5279,367.6848H336.5912a2.0154,2.0154,0,0,0-1.9947,2.0355v20.3556a2.0154,2.0154,0,0,0,1.9947,2.0356h23.9367a2.0154,2.0154,0,0,0,1.9947-2.0356V369.72A2.0154,2.0154,0,0,0,360.5279,367.6848Zm0,2.0355v2.0356H336.5912V369.72Zm-23.9367,20.3556V373.7915h23.9367v16.2844Z" transform="translate(-278.7282 -13.6936)"/><path class="cls-2" d="M338.5806,167.5784h10.971v2.0356h-10.971Zm0,5.0889h12.9658v2.0356H338.5806Z" transform="translate(-278.7282 -13.6936)"/><path class="cls-2" d="M358.5279,157.4006H334.5912a2.0154,2.0154,0,0,0-1.9947,2.0356v20.3556a2.0154,2.0154,0,0,0,1.9947,2.0356h23.9367a2.0154,2.0154,0,0,0,1.9947-2.0356V159.4362A2.0154,2.0154,0,0,0,358.5279,157.4006Zm0,2.0356v2.0356H334.5912v-2.0356Zm-23.9367,20.3556V163.5073h23.9367v16.2845Z" transform="translate(-278.7282 -13.6936)"/><path class="cls-2" d="M340.3931,234.2l3.9859-3.9856-1.324-1.3241-3.9859,3.9857-.7425-.7424a.9357.9357,0,0,0-1.3233-.0006l-.0006.0006-3.7453,3.7452a.9359.9359,0,0,0-.0006,1.3234l.0006.0006,2.809,2.8089a.9357.9357,0,0,0,1.3234,0l.0005,0,3.7452-3.7453a.9357.9357,0,0,0,.0006-1.3233l-.0006-.0006Zm-3.6648,3.8257-1.4849-1.4849,2.4212-2.4212,1.4849,1.4849Z" transform="translate(-278.7282 -13.6936)"/><path class="cls-2" d="M354.5181,239.35a5.6241,5.6241,0,0,1-5.6178-5.6178,5.4659,5.4659,0,0,1,.1975-1.4484l-8.1122-8.112a5.4739,5.4739,0,0,1-1.4484.1973,5.595,5.595,0,0,1-5.2219-7.6623l.5222-1.3314,3.1015,3.1015a.9579.9579,0,0,0,1.3234,0,.9353.9353,0,0,0,.0013-1.3228l-.0013-.0012-3.1018-3.1028,1.3326-.5216a5.5966,5.5966,0,0,1,7.6619,5.2228,5.4665,5.4665,0,0,1-.1975,1.4484l8.1122,8.1116a5.4858,5.4858,0,0,1,1.4483-.197,5.5949,5.5949,0,0,1,5.2219,7.6624l-.5216,1.3313-3.102-3.1015a.9582.9582,0,0,0-1.3235,0,.9353.9353,0,0,0-.0016,1.3228l.0012.0012,3.1015,3.1019-1.3314.5224A5.5811,5.5811,0,0,1,354.5181,239.35Zm-13.05-17.3438,9.7946,9.7948-.224.5706a3.7223,3.7223,0,0,0,3.2451,5.0985l-.8157-.8156a2.8083,2.8083,0,0,1-.0008-3.9714l.0008-.0008a2.8765,2.8765,0,0,1,3.9725.0005l.8152.8153a3.7228,3.7228,0,0,0-5.099-3.2451l-.5706.2234-9.7937-9.7938.2239-.5706a3.7222,3.7222,0,0,0-3.2449-5.0986l.8151.8156a2.8081,2.8081,0,0,1,.0009,3.9713l-.0009.0009a2.8764,2.8764,0,0,1-3.9724-.0005l-.8152-.8153a3.7218,3.7218,0,0,0,5.0985,3.2448Z" transform="translate(-278.7282 -13.6936)"/><path class="cls-2" d="M359.3145,213.929a2.876,2.876,0,0,0-3.972,0l-7.004,7.0036,1.324,1.3239,7.0036-7.0036a.9592.9592,0,0,1,1.324,0,.9382.9382,0,0,1,0,1.3244l-7.0035,7.0036,1.3239,1.324,7.0036-7.0031A2.8118,2.8118,0,0,0,359.3145,213.929Z" transform="translate(-278.7282 -13.6936)"/><rect class="cls-9" x="0.5119" y="48.5" width="3" height="507.5523"/><rect class="cls-1" x="550.2332" y="0.5" width="476.3103" height="502.0989"/><rect class="cls-2" x="549.7213" y="0.5" width="48" height="48"/><polygon class="cls-3" points="580.316 238.471 983.436 239.884 984.338 478.351 580.316 478.351 580.316 238.471"/><polyline class="cls-4" points="581.816 234.471 988.816 234.471 988.816 473.38"/><polyline class="cls-4" points="586.033 230.471 992.816 230.471 992.816 468.79"/><rect class="cls-5" x="594.0104" y="301.8926" width="183.706" height="48"/><polyline class="cls-6" points="777.716 347.893 777.716 349.893 775.716 349.893"/><line class="cls-8" x1="771.723" y1="349.8926" x2="598.0072" y2="349.8926"/><polyline class="cls-6" points="596.01 349.893 594.01 349.893 594.01 347.893"/><line class="cls-7" x1="594.0104" y1="343.8926" x2="594.0104" y2="305.8926"/><polyline class="cls-6" points="594.01 303.893 594.01 301.893 596.01 301.893"/><line class="cls-8" x1="600.0039" y1="301.8926" x2="773.7197" y2="301.8926"/><polyline class="cls-6" points="775.716 301.893 777.716 301.893 777.716 303.893"/><line class="cls-7" x1="777.7165" y1="307.8926" x2="777.7165" y2="345.8926"/><rect class="cls-5" x="594.0104" y="358.0898" width="183.706" height="48"/><polyline class="cls-6" points="777.716 404.09 777.716 406.09 775.716 406.09"/><line class="cls-8" x1="771.723" y1="406.0899" x2="598.0072" y2="406.0899"/><polyline class="cls-6" points="596.01 406.09 594.01 406.09 594.01 404.09"/><line class="cls-7" x1="594.0104" y1="400.0899" x2="594.0104" y2="362.0899"/><polyline class="cls-6" points="594.01 360.09 594.01 358.09 596.01 358.09"/><line class="cls-8" x1="600.0039" y1="358.0899" x2="773.7197" y2="358.0899"/><polyline class="cls-6" points="775.716 358.09 777.716 358.09 777.716 360.09"/><line class="cls-7" x1="777.7165" y1="364.0899" x2="777.7165" y2="402.0899"/><rect class="cls-5" x="786.9382" y="301.8926" width="183.706" height="48"/><polyline class="cls-6" points="970.644 347.893 970.644 349.893 968.644 349.893"/><line class="cls-8" x1="964.6507" y1="349.8926" x2="790.9349" y2="349.8926"/><polyline class="cls-6" points="788.938 349.893 786.938 349.893 786.938 347.893"/><line class="cls-7" x1="786.9382" y1="343.8926" x2="786.9382" y2="305.8926"/><polyline class="cls-6" points="786.938 303.893 786.938 301.893 788.938 301.893"/><line class="cls-8" x1="792.9317" y1="301.8926" x2="966.6475" y2="301.8926"/><polyline class="cls-6" points="968.644 301.893 970.644 301.893 970.644 303.893"/><line class="cls-7" x1="970.6442" y1="307.8926" x2="970.6442" y2="345.8926"/><rect class="cls-5" x="786.9382" y="358.0898" width="183.706" height="48"/><polyline class="cls-6" points="970.644 404.09 970.644 406.09 968.644 406.09"/><line class="cls-8" x1="964.6507" y1="406.0899" x2="790.9349" y2="406.0899"/><polyline class="cls-6" points="788.938 406.09 786.938 406.09 786.938 404.09"/><line class="cls-7" x1="786.9382" y1="400.0899" x2="786.9382" y2="362.0899"/><polyline class="cls-6" points="786.938 360.09 786.938 358.09 788.938 358.09"/><line class="cls-8" x1="792.9317" y1="358.0899" x2="966.6475" y2="358.0899"/><polyline class="cls-6" points="968.644 358.09 970.644 358.09 970.644 360.09"/><line class="cls-7" x1="970.6442" y1="364.0899" x2="970.6442" y2="402.0899"/><rect class="cls-2" x="580.91" y="238.4708" width="48" height="48"/><path class="cls-5" d="M878.8083,266.1644l3.42,3.41.58.59h12.83v16h-24v-20h7.17m0-2h-7.17a2,2,0,0,0-2,2v20a2,2,0,0,0,2,2h24a2,2,0,0,0,2-2v-16a2,2,0,0,0-2-2h-12l-3.41-3.41A2,2,0,0,0,878.8083,264.1644Z" transform="translate(-278.7282 -13.6936)"/><rect class="cls-5" x="565.8845" y="17.0799" width="1.6534" height="3.3067"/><rect class="cls-5" x="565.8845" y="22.0399" width="1.6534" height="3.3067"/><rect class="cls-5" x="570.8446" y="17.0799" width="1.6534" height="3.3067"/><rect class="cls-5" x="570.8446" y="22.0399" width="1.6534" height="3.3067"/><rect class="cls-5" x="565.8845" y="27" width="1.6534" height="3.3067"/><rect class="cls-5" x="570.8446" y="27" width="1.6534" height="3.3067"/><path class="cls-5" d="M862.8,35.7335a1.6534,1.6534,0,0,0-1.6534-1.6533h-4.96V27.4667a1.6533,1.6533,0,0,0-1.6533-1.6533H841.306a1.6533,1.6533,0,0,0-1.6533,1.6533V48.96H862.8ZM841.306,27.4667h13.2269v19.84H841.306Zm14.88,19.84V35.7335h4.96V47.307Z" transform="translate(-278.7282 -13.6936)"/><rect class="cls-9" x="594.0104" y="301.8926" width="3" height="48"/><rect class="cls-9" x="594.0104" y="358.0898" width="3" height="48"/><rect class="cls-9" x="786.9382" y="301.8926" width="3" height="48"/><rect class="cls-9" x="786.9382" y="358.0898" width="3" height="48"/><rect class="cls-3" x="581.208" y="77.2803" width="267.72" height="128.9831"/><rect class="cls-5" x="596.8751" y="135.9204" width="240" height="48"/><polyline class="cls-6" points="596.875 137.92 596.875 135.92 598.875 135.92"/><line class="cls-7" x1="602.8751" y1="135.9204" x2="832.875" y2="135.9204"/><polyline class="cls-6" points="834.875 135.92 836.875 135.92 836.875 137.92"/><line class="cls-7" x1="836.875" y1="141.9204" x2="836.875" y2="179.9204"/><polyline class="cls-6" points="836.875 181.92 836.875 183.92 834.875 183.92"/><line class="cls-7" x1="830.875" y1="183.9204" x2="600.8751" y2="183.9204"/><polyline class="cls-6" points="598.875 183.92 596.875 183.92 596.875 181.92"/><line class="cls-7" x1="596.8751" y1="177.9204" x2="596.8751" y2="139.9204"/><rect class="cls-10" x="596.2138" y="135.9204" width="48" height="48"/><rect class="cls-3" x="854.4199" y="77.2803" width="136.7275" height="128.9831"/><rect class="cls-11" x="898.7836" y="91.7624" width="48" height="48"/><path id="_Path_2" data-name="&lt;Path&gt;" class="cls-5" d="M1216.08,132v5.5a3.9337,3.9337,0,0,1-2.3,3.5l-1.7.8-1.7-.8a3.8251,3.8251,0,0,1-2.3-3.5V132h8m2-2h-12v7.5a5.9235,5.9235,0,0,0,3.4,5.3l2.6,1.2,2.6-1.2a5.8149,5.8149,0,0,0,3.4-5.3V130Z" transform="translate(-278.7282 -13.6936)"/><path class="cls-5" d="M1202.08,139h-8.5a7.5074,7.5074,0,0,1-1.3-14.9,9.99,9.99,0,0,1,19.8,1.9h-2a8.0269,8.0269,0,0,0-16-.9v.9h-.9a5.4759,5.4759,0,0,0-5.1,5.5,5.5488,5.5488,0,0,0,5.5,5.5h8.5Z" transform="translate(-278.7282 -13.6936)"/><path class="cls-2" d="M892.7756,181.8023l3.9859-3.9857-1.3239-1.324-3.986,3.9856-.7425-.7424a.9357.9357,0,0,0-1.3233-.0006l-.0006.0006-3.7452,3.7453a.9357.9357,0,0,0-.0006,1.3233l.0006.0006,2.8089,2.8089a.9359.9359,0,0,0,1.3235,0l0,0,3.7452-3.7452a.9358.9358,0,0,0,.0006-1.3234l-.0006,0Zm-3.6647,3.8256-1.4849-1.4849,2.4212-2.4212,1.4848,1.4849Z" transform="translate(-278.7282 -13.6936)"/><path class="cls-2" d="M906.9007,186.9519a5.6241,5.6241,0,0,1-5.6179-5.6178,5.4665,5.4665,0,0,1,.1975-1.4484l-8.1122-8.1119a5.4779,5.4779,0,0,1-1.4483.1973,5.5951,5.5951,0,0,1-5.222-7.6624l.5222-1.3313,3.1015,3.1015a.9582.9582,0,0,0,1.3235,0,.9354.9354,0,0,0,.0012-1.3228l-.0012-.0012-3.1019-3.1029,1.3326-.5216a5.5964,5.5964,0,0,1,7.6619,5.2228,5.4659,5.4659,0,0,1-.1975,1.4484l8.1122,8.1117a5.4778,5.4778,0,0,1,1.4484-.197,5.5948,5.5948,0,0,1,5.2218,7.6623l-.5216,1.3314-3.102-3.1016a.9581.9581,0,0,0-1.3234,0,.9354.9354,0,0,0-.0017,1.3229l.0012.0012,3.1015,3.1019-1.3313.5223A5.5778,5.5778,0,0,1,906.9007,186.9519Zm-13.05-17.3438,9.7946,9.7949-.224.5706a3.7222,3.7222,0,0,0,3.2451,5.0984l-.8156-.8156a2.8081,2.8081,0,0,1-.0009-3.9713l.0009-.0009a2.8764,2.8764,0,0,1,3.9724,0l.8152.8153a3.7228,3.7228,0,0,0-5.099-3.245l-.57.2233-9.7938-9.7938.224-.5705a3.7222,3.7222,0,0,0-3.245-5.0987l.8152.8156a2.8083,2.8083,0,0,1,.0008,3.9714l-.0008.0008a2.8765,2.8765,0,0,1-3.9725,0l-.8151-.8153a3.722,3.722,0,0,0,5.0984,3.2449Z" transform="translate(-278.7282 -13.6936)"/><path class="cls-2" d="M911.697,161.5312a2.876,2.876,0,0,0-3.972,0l-7.004,7.0036,1.3241,1.3239,7.0035-7.0035a.9592.9592,0,0,1,1.3241,0,.9382.9382,0,0,1,0,1.3244l-7.0036,7.0036,1.3239,1.324,7.0036-7.0031A2.812,2.812,0,0,0,911.697,161.5312Z" transform="translate(-278.7282 -13.6936)"/><rect class="cls-9" x="550.2332" y="48.5" width="3" height="454.0989"/><rect class="cls-5" x="594.0104" y="414.2869" width="183.706" height="48"/><polyline class="cls-6" points="777.716 460.287 777.716 462.287 775.716 462.287"/><line class="cls-8" x1="771.723" y1="462.2869" x2="598.0072" y2="462.2869"/><polyline class="cls-6" points="596.01 462.287 594.01 462.287 594.01 460.287"/><line class="cls-7" x1="594.0104" y1="456.2869" x2="594.0104" y2="418.2869"/><polyline class="cls-6" points="594.01 416.287 594.01 414.287 596.01 414.287"/><line class="cls-8" x1="600.0039" y1="414.2869" x2="773.7197" y2="414.2869"/><polyline class="cls-6" points="775.716 414.287 777.716 414.287 777.716 416.287"/><line class="cls-7" x1="777.7165" y1="420.2869" x2="777.7165" y2="458.2869"/><rect class="cls-5" x="786.9382" y="414.2869" width="183.706" height="48"/><polyline class="cls-6" points="970.644 460.287 970.644 462.287 968.644 462.287"/><line class="cls-8" x1="964.6507" y1="462.2869" x2="790.9349" y2="462.2869"/><polyline class="cls-6" points="788.938 462.287 786.938 462.287 786.938 460.287"/><line class="cls-7" x1="786.9382" y1="456.2869" x2="786.9382" y2="418.2869"/><polyline class="cls-6" points="786.938 416.287 786.938 414.287 788.938 414.287"/><line class="cls-8" x1="792.9317" y1="414.2869" x2="966.6475" y2="414.2869"/><polyline class="cls-6" points="968.644 414.287 970.644 414.287 970.644 416.287"/><line class="cls-7" x1="970.6442" y1="420.2869" x2="970.6442" y2="458.2869"/><rect class="cls-9" x="594.0104" y="414.2869" width="3" height="48"/><rect class="cls-9" x="786.9382" y="414.2869" width="3" height="48"/><rect class="cls-2" x="28.4085" y="77.2803" width="48" height="48"/><path class="cls-5" d="M326.3067,104.9739l3.42,3.41.58.59h12.83v16h-24v-20h7.17m0-2h-7.17a2,2,0,0,0-2,2v20a2,2,0,0,0,2,2h24a2,2,0,0,0,2-2v-16a2,2,0,0,0-2-2h-12l-3.41-3.41A2,2,0,0,0,326.3067,102.9739Z" transform="translate(-278.7282 -13.6936)"/><rect class="cls-2" x="580.91" y="77.0566" width="48" height="48"/><path class="cls-5" d="M878.8083,104.75l3.42,3.41.58.59h12.83v16h-24v-20h7.17m0-2h-7.17a2,2,0,0,0-2,2v20a2,2,0,0,0,2,2h24a2,2,0,0,0,2-2v-16a2,2,0,0,0-2-2h-12l-3.41-3.41A2,2,0,0,0,878.8083,102.75Z" transform="translate(-278.7282 -13.6936)"/></g><g id="Text"><text class="cls-12" transform="translate(56.4036 32.9124)">Production enterprise account</text><text class="cls-13" transform="translate(84.4866 310.3069)">Business unit account group</text><text class="cls-13" transform="translate(99.5711 372.6463)">BU admin account</text><text class="cls-13" transform="translate(62.0384 426.8079)">Workload account</text><text class="cls-13" transform="translate(62.0384 483.0051)">Workload account</text><text class="cls-13" transform="translate(254.9661 426.8079)">Workload account</text><text class="cls-13" transform="translate(254.9661 483.0051)">Workload account</text><text class="cls-13" transform="translate(84.4871 105.6394)">Admin account group</text><text class="cls-13" transform="translate(97.5711 160.3264)">Central admin account</text><text class="cls-13" transform="translate(97.5716 208.7244)">Network and services <tspan x="0" y="18">hub account</tspan></text><text class="cls-13" transform="translate(331.9607 174.1282)">Security and <tspan x="1.9321" y="16">Compliance </tspan><tspan x="18.0669" y="32">Center</tspan></text><text class="cls-12" transform="translate(606.1248 32.9124)">Development enterprise account</text><text class="cls-13" transform="translate(637.2083 267.1438)">Business unit account group</text><text class="cls-13" transform="translate(610.1448 330.2991)">Workload account</text><text class="cls-13" transform="translate(610.1448 386.4959)">Workload account</text><text class="cls-13" transform="translate(803.0725 330.2991)">Workload account</text><text class="cls-13" transform="translate(803.0725 386.4959)">Workload account</text><text class="cls-13" transform="translate(637.2083 105.6394)">Admin account group</text><text class="cls-13" transform="translate(649.9544 156.3264)">Network and services <tspan x="0" y="18" xml:space="preserve">hub  account</tspan></text><text class="cls-13" transform="translate(883.6824 158.1282)">Security and <tspan x="1.9321" y="16">Compliance </tspan><tspan x="18.0669" y="32">Center</tspan></text><text class="cls-13" transform="translate(610.1448 434.0488)">Infrastructure as code <tspan x="0" y="18">development account</tspan></text><text class="cls-13" transform="translate(803.0735 433.6931)"><tspan xml:space="preserve">Infrastructure as code  </tspan><tspan x="0" y="18">test account</tspan></text></g></svg>