<svg xmlns="http://www.w3.org/2000/svg" width="1027.04" height="556.55" viewBox="0 0 1027.04 556.55"><defs><style>.cls-1,.cls-10{fill:#eef4fb;}.cls-1{stroke:#eef5fb;}.cls-1,.cls-10,.cls-11,.cls-3,.cls-4,.cls-6,.cls-7,.cls-8,.cls-9{stroke-miterlimit:10;}.cls-11,.cls-2,.cls-9{fill:#3553a4;}.cls-3,.cls-5{fill:#fff;}.cls-10,.cls-3,.cls-4,.cls-6,.cls-7,.cls-8,.cls-9{stroke:#3553a4;}.cls-4,.cls-6,.cls-7,.cls-8{fill:none;}.cls-4{fill-rule:evenodd;}.cls-7{stroke-dasharray:4 4;}.cls-8{stroke-dasharray:3.99 3.99;}.cls-11{stroke:#4267b1;}.cls-12{font-size:16px;}.cls-12,.cls-13{fill:#010101;font-family:IBMPlexSans-SemiBold, IBM Plex Sans;font-weight:600;}.cls-13{font-size:14px;}</style></defs><g id="Background"><rect class="cls-1" x="0.51" y="0.5" width="476.31" height="555.55"/><rect class="cls-2" y="0.5" width="48" height="48"/><polygon class="cls-3" points="27.74 281.65 430.86 283.07 431.76 521.54 27.74 521.54 27.74 281.65"/><polyline class="cls-4" points="29.24 277.65 436.24 277.65 436.24 516.56"/><polyline class="cls-4" points="33.45 273.65 440.24 273.65 440.24 511.98"/><rect class="cls-5" x="45.9" y="342.2" width="240" height="48"/><polyline class="cls-6" points="45.9 344.2 45.9 342.2 47.9 342.2"/><line class="cls-7" x1="51.9" y1="342.2" x2="281.9" y2="342.2"/><polyline class="cls-6" points="283.9 342.2 285.9 342.2 285.9 344.2"/><line class="cls-7" x1="285.9" y1="348.2" x2="285.9" y2="386.2"/><polyline class="cls-6" points="285.9 388.2 285.9 390.2 283.9 390.2"/><line class="cls-7" x1="279.9" y1="390.2" x2="49.9" y2="390.2"/><polyline class="cls-6" points="47.9 390.2 45.9 390.2 45.9 388.2"/><line class="cls-7" x1="45.9" y1="384.2" x2="45.9" y2="346.2"/><rect class="cls-5" x="45.9" y="398.4" width="183.71" height="48"/><polyline class="cls-6" points="229.61 444.4 229.61 446.4 227.61 446.4"/><line class="cls-8" x1="223.62" y1="446.4" x2="49.9" y2="446.4"/><polyline class="cls-6" points="47.9 446.4 45.9 446.4 45.9 444.4"/><line class="cls-7" x1="45.9" y1="440.4" x2="45.9" y2="402.4"/><polyline class="cls-6" points="45.9 400.4 45.9 398.4 47.9 398.4"/><line class="cls-8" x1="51.9" y1="398.4" x2="225.61" y2="398.4"/><polyline class="cls-6" points="227.61 398.4 229.61 398.4 229.61 400.4"/><line class="cls-7" x1="229.61" y1="404.4" x2="229.61" y2="442.4"/><rect class="cls-5" x="45.9" y="454.6" width="183.71" height="48"/><polyline class="cls-6" points="229.61 500.6 229.61 502.6 227.61 502.6"/><line class="cls-8" x1="223.62" y1="502.6" x2="49.9" y2="502.6"/><polyline class="cls-6" points="47.9 502.6 45.9 502.6 45.9 500.6"/><line class="cls-7" x1="45.9" y1="496.6" x2="45.9" y2="458.6"/><polyline class="cls-6" points="45.9 456.6 45.9 454.6 47.9 454.6"/><line class="cls-8" x1="51.9" y1="454.6" x2="225.61" y2="454.6"/><polyline class="cls-6" points="227.61 454.6 229.61 454.6 229.61 456.6"/><line class="cls-7" x1="229.61" y1="460.6" x2="229.61" y2="498.6"/><rect class="cls-5" x="238.83" y="398.4" width="183.71" height="48"/><polyline class="cls-6" points="422.54 444.4 422.54 446.4 420.54 446.4"/><line class="cls-8" x1="416.54" y1="446.4" x2="242.83" y2="446.4"/><polyline class="cls-6" points="240.83 446.4 238.83 446.4 238.83 444.4"/><line class="cls-7" x1="238.83" y1="440.4" x2="238.83" y2="402.4"/><polyline class="cls-6" points="238.83 400.4 238.83 398.4 240.83 398.4"/><line class="cls-8" x1="244.82" y1="398.4" x2="418.54" y2="398.4"/><polyline class="cls-6" points="420.54 398.4 422.54 398.4 422.54 400.4"/><line class="cls-7" x1="422.54" y1="404.4" x2="422.54" y2="442.4"/><rect class="cls-5" x="238.83" y="454.6" width="183.71" height="48"/><polyline class="cls-6" points="422.54 500.6 422.54 502.6 420.54 502.6"/><line class="cls-8" x1="416.54" y1="502.6" x2="242.83" y2="502.6"/><polyline class="cls-6" points="240.83 502.6 238.83 502.6 238.83 500.6"/><line class="cls-7" x1="238.83" y1="496.6" x2="238.83" y2="458.6"/><polyline class="cls-6" points="238.83 456.6 238.83 454.6 240.83 454.6"/><line class="cls-8" x1="244.82" y1="454.6" x2="418.54" y2="454.6"/><polyline class="cls-6" points="420.54 454.6 422.54 454.6 422.54 456.6"/><line class="cls-7" x1="422.54" y1="460.6" x2="422.54" y2="498.6"/><rect class="cls-2" x="28.41" y="281.66" width="48" height="48"/><path class="cls-5" d="M326.31,309.35l3.42,3.41.58.59h12.83v16h-24v-20h7.17m0-2h-7.17a2,2,0,0,0-2,2v20a2,2,0,0,0,2,2h24a2,2,0,0,0,2-2v-16a2,2,0,0,0-2-2h-12l-3.41-3.41A2,2,0,0,0,326.31,307.35Z" transform="translate(-278.73 -13.69)"/><rect class="cls-5" x="16.16" y="17.08" width="1.65" height="3.31"/><rect class="cls-5" x="16.16" y="22.04" width="1.65" height="3.31"/><rect class="cls-5" x="21.12" y="17.08" width="1.65" height="3.31"/><rect class="cls-5" x="21.12" y="22.04" width="1.65" height="3.31"/><rect class="cls-5" x="16.16" y="27" width="1.65" height="3.31"/><rect class="cls-5" x="21.12" y="27" width="1.65" height="3.31"/><path class="cls-5" d="M313.08,35.73a1.65,1.65,0,0,0-1.65-1.65h-5V27.47a1.65,1.65,0,0,0-1.65-1.66H291.58a1.65,1.65,0,0,0-1.65,1.66V49h23.15Zm-21.5-8.26h13.23V47.31H291.58Zm14.88,19.84V35.73h5V47.31Z" transform="translate(-278.73 -13.69)"/><rect class="cls-9" x="45.9" y="398.4" width="3" height="48"/><rect class="cls-9" x="45.9" y="454.6" width="3" height="48"/><rect class="cls-9" x="238.83" y="398.4" width="3" height="48"/><rect class="cls-9" x="238.83" y="454.6" width="3" height="48"/><rect class="cls-3" x="28.49" y="77.28" width="267.72" height="176.17"/><rect class="cls-5" x="45.15" y="131.92" width="240" height="48"/><polyline class="cls-6" points="45.15 133.92 45.15 131.92 47.15 131.92"/><line class="cls-7" x1="51.15" y1="131.92" x2="281.15" y2="131.92"/><polyline class="cls-6" points="283.15 131.92 285.15 131.92 285.15 133.92"/><line class="cls-7" x1="285.15" y1="137.92" x2="285.15" y2="175.92"/><polyline class="cls-6" points="285.15 177.92 285.15 179.92 283.15 179.92"/><line class="cls-7" x1="279.15" y1="179.92" x2="49.15" y2="179.92"/><polyline class="cls-6" points="47.15 179.92 45.15 179.92 45.15 177.92"/><line class="cls-7" x1="45.15" y1="173.92" x2="45.15" y2="135.92"/><rect class="cls-5" x="45.15" y="188.32" width="240" height="48"/><polyline class="cls-6" points="45.15 190.32 45.15 188.32 47.15 188.32"/><line class="cls-7" x1="51.15" y1="188.32" x2="281.15" y2="188.32"/><polyline class="cls-6" points="283.15 188.32 285.15 188.32 285.15 190.32"/><line class="cls-7" x1="285.15" y1="194.32" x2="285.15" y2="232.32"/><polyline class="cls-6" points="285.15 234.32 285.15 236.32 283.15 236.32"/><line class="cls-7" x1="279.15" y1="236.32" x2="49.15" y2="236.32"/><polyline class="cls-6" points="47.15 236.32 45.15 236.32 45.15 234.32"/><line class="cls-7" x1="45.15" y1="230.32" x2="45.15" y2="192.32"/><rect class="cls-10" x="45.83" y="342.2" width="48" height="48"/><rect class="cls-10" x="43.83" y="131.92" width="48" height="48"/><rect class="cls-10" x="43.83" y="188.32" width="48" height="48"/><rect class="cls-3" x="302.7" y="77.28" width="136.73" height="176.17"/><rect class="cls-11" x="347.06" y="107.76" width="48" height="48"/><path id="_Path_" data-name="&lt;Path&gt;" class="cls-5" d="M664.36,148v5.5a3.93,3.93,0,0,1-2.3,3.5l-1.7.8-1.7-.8a3.83,3.83,0,0,1-2.3-3.5V148h8m2-2h-12v7.5a5.92,5.92,0,0,0,3.4,5.3l2.6,1.2,2.6-1.2a5.81,5.81,0,0,0,3.4-5.3V146Z" transform="translate(-278.73 -13.69)"/><path class="cls-5" d="M650.36,155h-8.5a7.51,7.51,0,0,1-1.3-14.9,10,10,0,0,1,19.8,1.9h-2a8,8,0,0,0-16-.9v.9h-.9a5.48,5.48,0,0,0-5.1,5.5,5.55,5.55,0,0,0,5.5,5.5h8.5Z" transform="translate(-278.73 -13.69)"/><path class="cls-2" d="M340.58,377.86h11v2h-11Zm0,5.09h13v2h-13Z" transform="translate(-278.73 -13.69)"/><path class="cls-2" d="M360.53,367.68H336.59a2,2,0,0,0-2,2v20.36a2,2,0,0,0,2,2h23.94a2,2,0,0,0,2-2V369.72A2,2,0,0,0,360.53,367.68Zm0,2v2H336.59v-2Zm-23.94,20.36V373.79h23.94v16.29Z" transform="translate(-278.73 -13.69)"/><path class="cls-2" d="M338.58,167.58h11v2h-11Zm0,5.09h13v2h-13Z" transform="translate(-278.73 -13.69)"/><path class="cls-2" d="M358.53,157.4H334.59a2,2,0,0,0-2,2v20.35a2,2,0,0,0,2,2h23.94a2,2,0,0,0,2-2V159.44A2,2,0,0,0,358.53,157.4Zm0,2v2H334.59v-2Zm-23.94,20.35V163.51h23.94v16.28Z" transform="translate(-278.73 -13.69)"/><path class="cls-2" d="M340.39,234.2l4-4-1.32-1.32-4,4-.74-.75a1,1,0,0,0-1.33,0h0l-3.74,3.75a.92.92,0,0,0,0,1.32h0l2.81,2.81a.92.92,0,0,0,1.32,0h0l3.75-3.74a1,1,0,0,0,0-1.33h0ZM336.73,238l-1.49-1.49,2.42-2.42,1.49,1.48Z" transform="translate(-278.73 -13.69)"/><path class="cls-2" d="M354.52,239.35a5.62,5.62,0,0,1-5.62-5.62,5.51,5.51,0,0,1,.2-1.45L341,224.17a5.51,5.51,0,0,1-1.45.2,5.6,5.6,0,0,1-5.62-5.57,5.51,5.51,0,0,1,.4-2.09l.52-1.33,3.1,3.1a1,1,0,0,0,1.32,0,.94.94,0,0,0,0-1.33h0l-3.1-3.1,1.33-.52a5.6,5.6,0,0,1,7.27,3.13,5.79,5.79,0,0,1,.4,2.09,5.9,5.9,0,0,1-.2,1.45l8.11,8.11a5.46,5.46,0,0,1,1.45-.2,5.61,5.61,0,0,1,5.62,5.58,5.79,5.79,0,0,1-.4,2.09l-.52,1.33-3.1-3.1a1,1,0,0,0-1.33,0,.94.94,0,0,0,0,1.32h0l3.1,3.1-1.33.52A5.49,5.49,0,0,1,354.52,239.35Zm-13-17.34,9.79,9.79-.22.57a3.72,3.72,0,0,0,2.07,4.84,3.67,3.67,0,0,0,1.17.26l-.81-.82a2.8,2.8,0,0,1,0-4h0a2.88,2.88,0,0,1,4,0l.82.82a3.74,3.74,0,0,0-3.93-3.51,3.9,3.9,0,0,0-1.17.26l-.57.23-9.8-9.8.23-.57a3.73,3.73,0,0,0-2.08-4.84,3.9,3.9,0,0,0-1.17-.26l.82.82a2.82,2.82,0,0,1,0,4h0a2.89,2.89,0,0,1-4,0l-.81-.81a3.72,3.72,0,0,0,3.93,3.5,3.67,3.67,0,0,0,1.17-.26Z" transform="translate(-278.73 -13.69)"/><path class="cls-2" d="M359.31,213.93a2.88,2.88,0,0,0-4,0l-7,7,1.32,1.33,7-7a.94.94,0,1,1,1.32,1.33l-7,7,1.32,1.32,7-7A2.8,2.8,0,0,0,359.31,213.93Z" transform="translate(-278.73 -13.69)"/><rect class="cls-9" x="0.51" y="48.5" width="3" height="507.55"/><rect class="cls-1" x="550.23" y="0.5" width="476.31" height="502.1"/><rect class="cls-2" x="549.72" y="0.5" width="48" height="48"/><polygon class="cls-3" points="580.32 238.47 983.44 239.88 984.34 478.35 580.32 478.35 580.32 238.47"/><polyline class="cls-4" points="581.82 234.47 988.82 234.47 988.82 473.38"/><polyline class="cls-4" points="586.03 230.47 992.82 230.47 992.82 468.79"/><rect class="cls-5" x="594.01" y="301.89" width="183.71" height="48"/><polyline class="cls-6" points="777.72 347.89 777.72 349.89 775.72 349.89"/><line class="cls-8" x1="771.72" y1="349.89" x2="598.01" y2="349.89"/><polyline class="cls-6" points="596.01 349.89 594.01 349.89 594.01 347.89"/><line class="cls-7" x1="594.01" y1="343.89" x2="594.01" y2="305.89"/><polyline class="cls-6" points="594.01 303.89 594.01 301.89 596.01 301.89"/><line class="cls-8" x1="600" y1="301.89" x2="773.72" y2="301.89"/><polyline class="cls-6" points="775.72 301.89 777.72 301.89 777.72 303.89"/><line class="cls-7" x1="777.72" y1="307.89" x2="777.72" y2="345.89"/><rect class="cls-5" x="594.01" y="358.09" width="183.71" height="48"/><polyline class="cls-6" points="777.72 404.09 777.72 406.09 775.72 406.09"/><line class="cls-8" x1="771.72" y1="406.09" x2="598.01" y2="406.09"/><polyline class="cls-6" points="596.01 406.09 594.01 406.09 594.01 404.09"/><line class="cls-7" x1="594.01" y1="400.09" x2="594.01" y2="362.09"/><polyline class="cls-6" points="594.01 360.09 594.01 358.09 596.01 358.09"/><line class="cls-8" x1="600" y1="358.09" x2="773.72" y2="358.09"/><polyline class="cls-6" points="775.72 358.09 777.72 358.09 777.72 360.09"/><line class="cls-7" x1="777.72" y1="364.09" x2="777.72" y2="402.09"/><rect class="cls-5" x="786.94" y="301.89" width="183.71" height="48"/><polyline class="cls-6" points="970.64 347.89 970.64 349.89 968.64 349.89"/><line class="cls-8" x1="964.65" y1="349.89" x2="790.93" y2="349.89"/><polyline class="cls-6" points="788.94 349.89 786.94 349.89 786.94 347.89"/><line class="cls-7" x1="786.94" y1="343.89" x2="786.94" y2="305.89"/><polyline class="cls-6" points="786.94 303.89 786.94 301.89 788.94 301.89"/><line class="cls-8" x1="792.93" y1="301.89" x2="966.65" y2="301.89"/><polyline class="cls-6" points="968.64 301.89 970.64 301.89 970.64 303.89"/><line class="cls-7" x1="970.64" y1="307.89" x2="970.64" y2="345.89"/><rect class="cls-5" x="786.94" y="358.09" width="183.71" height="48"/><polyline class="cls-6" points="970.64 404.09 970.64 406.09 968.64 406.09"/><line class="cls-8" x1="964.65" y1="406.09" x2="790.93" y2="406.09"/><polyline class="cls-6" points="788.94 406.09 786.94 406.09 786.94 404.09"/><line class="cls-7" x1="786.94" y1="400.09" x2="786.94" y2="362.09"/><polyline class="cls-6" points="786.94 360.09 786.94 358.09 788.94 358.09"/><line class="cls-8" x1="792.93" y1="358.09" x2="966.65" y2="358.09"/><polyline class="cls-6" points="968.64 358.09 970.64 358.09 970.64 360.09"/><line class="cls-7" x1="970.64" y1="364.09" x2="970.64" y2="402.09"/><rect class="cls-2" x="580.91" y="238.47" width="48" height="48"/><path class="cls-5" d="M878.81,266.16l3.42,3.41.58.59h12.83v16h-24v-20h7.17m0-2h-7.17a2,2,0,0,0-2,2v20a2,2,0,0,0,2,2h24a2,2,0,0,0,2-2v-16a2,2,0,0,0-2-2h-12l-3.41-3.41A2,2,0,0,0,878.81,264.16Z" transform="translate(-278.73 -13.69)"/><rect class="cls-5" x="565.88" y="17.08" width="1.65" height="3.31"/><rect class="cls-5" x="565.88" y="22.04" width="1.65" height="3.31"/><rect class="cls-5" x="570.84" y="17.08" width="1.65" height="3.31"/><rect class="cls-5" x="570.84" y="22.04" width="1.65" height="3.31"/><rect class="cls-5" x="565.88" y="27" width="1.65" height="3.31"/><rect class="cls-5" x="570.84" y="27" width="1.65" height="3.31"/><path class="cls-5" d="M862.8,35.73a1.65,1.65,0,0,0-1.65-1.65h-5V27.47a1.66,1.66,0,0,0-1.66-1.66H841.31a1.66,1.66,0,0,0-1.66,1.66V49H862.8Zm-21.49-8.26h13.22V47.31H841.31Zm14.88,19.84V35.73h5V47.31Z" transform="translate(-278.73 -13.69)"/><rect class="cls-9" x="594.01" y="301.89" width="3" height="48"/><rect class="cls-9" x="594.01" y="358.09" width="3" height="48"/><rect class="cls-9" x="786.94" y="301.89" width="3" height="48"/><rect class="cls-9" x="786.94" y="358.09" width="3" height="48"/><rect class="cls-3" x="581.21" y="77.28" width="267.72" height="128.98"/><rect class="cls-5" x="596.88" y="135.92" width="240" height="48"/><polyline class="cls-6" points="596.88 137.92 596.88 135.92 598.88 135.92"/><line class="cls-7" x1="602.88" y1="135.92" x2="832.88" y2="135.92"/><polyline class="cls-6" points="834.88 135.92 836.88 135.92 836.88 137.92"/><line class="cls-7" x1="836.88" y1="141.92" x2="836.88" y2="179.92"/><polyline class="cls-6" points="836.88 181.92 836.88 183.92 834.88 183.92"/><line class="cls-7" x1="830.88" y1="183.92" x2="600.88" y2="183.92"/><polyline class="cls-6" points="598.88 183.92 596.88 183.92 596.88 181.92"/><line class="cls-7" x1="596.88" y1="177.92" x2="596.88" y2="139.92"/><rect class="cls-10" x="596.21" y="135.92" width="48" height="48"/><rect class="cls-3" x="854.42" y="77.28" width="136.73" height="128.98"/><rect class="cls-11" x="898.78" y="91.76" width="48" height="48"/><path id="_Path_2" data-name="&lt;Path&gt;" class="cls-5" d="M1216.08,132v5.5a3.93,3.93,0,0,1-2.3,3.5l-1.7.8-1.7-.8a3.83,3.83,0,0,1-2.3-3.5V132h8m2-2h-12v7.5a5.92,5.92,0,0,0,3.4,5.3l2.6,1.2,2.6-1.2a5.81,5.81,0,0,0,3.4-5.3V130Z" transform="translate(-278.73 -13.69)"/><path class="cls-5" d="M1202.08,139h-8.5a7.51,7.51,0,0,1-1.3-14.9,10,10,0,0,1,19.8,1.9h-2a8,8,0,0,0-16-.9v.9h-.9a5.48,5.48,0,0,0-5.1,5.5,5.55,5.55,0,0,0,5.5,5.5h8.5Z" transform="translate(-278.73 -13.69)"/><path class="cls-2" d="M892.78,181.8l4-4-1.32-1.33-4,4-.74-.74a.92.92,0,0,0-1.32,0h0l-3.75,3.74a.92.92,0,0,0,0,1.32h0l2.81,2.81a.92.92,0,0,0,1.32,0h0l3.75-3.74a.94.94,0,0,0,0-1.32h0Zm-3.67,3.83-1.48-1.49,2.42-2.42,1.48,1.49Z" transform="translate(-278.73 -13.69)"/><path class="cls-2" d="M906.9,187a5.62,5.62,0,0,1-5.62-5.62,5.38,5.38,0,0,1,.2-1.44l-8.11-8.12a5.46,5.46,0,0,1-1.45.2,5.6,5.6,0,0,1-5.62-5.57,5.51,5.51,0,0,1,.4-2.09l.52-1.33,3.1,3.1a1,1,0,0,0,1.32,0,.93.93,0,0,0,0-1.32h0l-3.1-3.1,1.34-.52a5.59,5.59,0,0,1,7.26,3.14,5.5,5.5,0,0,1,.2,3.53l8.11,8.11a5.45,5.45,0,0,1,1.45-.19,5.58,5.58,0,0,1,5.22,7.66l-.52,1.33-3.1-3.1a.94.94,0,0,0-1.33,1.32h0l3.11,3.1-1.33.53A5.57,5.57,0,0,1,906.9,187Zm-13-17.34,9.8,9.79-.23.57a3.73,3.73,0,0,0,2.08,4.84,3.56,3.56,0,0,0,1.17.26l-.82-.81a2.8,2.8,0,0,1,0-4h0a2.88,2.88,0,0,1,4,0l.82.82a3.74,3.74,0,0,0-3.93-3.51,4.23,4.23,0,0,0-1.17.26l-.57.23-9.79-9.8.22-.57a3.72,3.72,0,0,0-2.07-4.83,3.67,3.67,0,0,0-1.18-.26l.82.81a2.8,2.8,0,0,1,0,4h0a2.88,2.88,0,0,1-4,0l-.82-.81a3.72,3.72,0,0,0,3.93,3.5,3.61,3.61,0,0,0,1.17-.26Z" transform="translate(-278.73 -13.69)"/><path class="cls-2" d="M911.7,161.53a2.89,2.89,0,0,0-4,0l-7,7,1.33,1.33,7-7a.94.94,0,0,1,1.32,0,.92.92,0,0,1,0,1.32l-7,7,1.32,1.33,7-7A2.82,2.82,0,0,0,911.7,161.53Z" transform="translate(-278.73 -13.69)"/><rect class="cls-9" x="550.23" y="48.5" width="3" height="454.1"/><rect class="cls-5" x="594.01" y="414.29" width="183.71" height="48"/><polyline class="cls-6" points="777.72 460.29 777.72 462.29 775.72 462.29"/><line class="cls-8" x1="771.72" y1="462.29" x2="598.01" y2="462.29"/><polyline class="cls-6" points="596.01 462.29 594.01 462.29 594.01 460.29"/><line class="cls-7" x1="594.01" y1="456.29" x2="594.01" y2="418.29"/><polyline class="cls-6" points="594.01 416.29 594.01 414.29 596.01 414.29"/><line class="cls-8" x1="600" y1="414.29" x2="773.72" y2="414.29"/><polyline class="cls-6" points="775.72 414.29 777.72 414.29 777.72 416.29"/><line class="cls-7" x1="777.72" y1="420.29" x2="777.72" y2="458.29"/><rect class="cls-5" x="786.94" y="414.29" width="183.71" height="48"/><polyline class="cls-6" points="970.64 460.29 970.64 462.29 968.64 462.29"/><line class="cls-8" x1="964.65" y1="462.29" x2="790.93" y2="462.29"/><polyline class="cls-6" points="788.94 462.29 786.94 462.29 786.94 460.29"/><line class="cls-7" x1="786.94" y1="456.29" x2="786.94" y2="418.29"/><polyline class="cls-6" points="786.94 416.29 786.94 414.29 788.94 414.29"/><line class="cls-8" x1="792.93" y1="414.29" x2="966.65" y2="414.29"/><polyline class="cls-6" points="968.64 414.29 970.64 414.29 970.64 416.29"/><line class="cls-7" x1="970.64" y1="420.29" x2="970.64" y2="458.29"/><rect class="cls-9" x="594.01" y="414.29" width="3" height="48"/><rect class="cls-9" x="786.94" y="414.29" width="3" height="48"/><rect class="cls-2" x="28.41" y="77.28" width="48" height="48"/><path class="cls-5" d="M326.31,105l3.42,3.41.58.59h12.83v16h-24V105h7.17m0-2h-7.17a2,2,0,0,0-2,2v20a2,2,0,0,0,2,2h24a2,2,0,0,0,2-2V109a2,2,0,0,0-2-2h-12l-3.41-3.41A2,2,0,0,0,326.31,103Z" transform="translate(-278.73 -13.69)"/><rect class="cls-2" x="580.91" y="77.06" width="48" height="48"/><path class="cls-5" d="M878.81,104.75l3.42,3.41.58.59h12.83v16h-24v-20h7.17m0-2h-7.17a2,2,0,0,0-2,2v20a2,2,0,0,0,2,2h24a2,2,0,0,0,2-2v-16a2,2,0,0,0-2-2h-12l-3.41-3.41A2,2,0,0,0,878.81,102.75Z" transform="translate(-278.73 -13.69)"/></g><g id="Text"><text class="cls-12" transform="translate(56.4 32.91)">Production enterprise account</text><text class="cls-13" transform="translate(84.49 310.31)">Business unit account group</text><text class="cls-13" transform="translate(99.57 372.65)">BU admin account</text><text class="cls-13" transform="translate(62.04 426.81)">Workload account</text><text class="cls-13" transform="translate(62.04 483.01)">Workload account</text><text class="cls-13" transform="translate(254.97 426.81)">Workload account</text><text class="cls-13" transform="translate(254.97 483.01)">Workload account</text><text class="cls-13" transform="translate(84.49 105.64)">Admin account group</text><text class="cls-13" transform="translate(97.57 160.33)">Central admin account</text><text class="cls-13" transform="translate(97.57 208.72)">Network and services <tspan x="0" y="18">hub account</tspan></text><text class="cls-13" transform="translate(330.32 174.13)">Security and <tspan x="2.37" y="16">Compliance </tspan><tspan x="18.95" y="32">Center</tspan></text><text class="cls-12" transform="translate(606.12 32.91)">Development enterprise account</text><text class="cls-13" transform="translate(637.21 267.14)">Business unit account group</text><text class="cls-13" transform="translate(610.14 330.3)">Workload account</text><text class="cls-13" transform="translate(610.14 386.5)">Workload account</text><text class="cls-13" transform="translate(803.07 330.3)">Workload account</text><text class="cls-13" transform="translate(803.07 386.5)">Workload account</text><text class="cls-13" transform="translate(637.21 105.64)">Admin account group</text><text class="cls-13" transform="translate(649.95 156.33)">Network and services <tspan x="0" y="18" xml:space="preserve">hub  account</tspan></text><text class="cls-13" transform="translate(882.04 158.13)">Security and <tspan x="2.37" y="16">Compliance </tspan><tspan x="18.95" y="32">Center</tspan></text><text class="cls-13" transform="translate(610.14 434.05)">Infrastructure as code <tspan x="0" y="18">development account</tspan></text><text class="cls-13" transform="translate(803.07 433.69)"><tspan xml:space="preserve">Infrastructure as code  </tspan><tspan x="0" y="18">test account</tspan></text></g></svg>