<svg xmlns="http://www.w3.org/2000/svg" width="1027.5934" height="556.6847" viewBox="0 0 1027.5934 556.6847"><defs><style>.cls-1,.cls-12{fill:#eef4fb;}.cls-1{stroke:#eef5fb;}.cls-1,.cls-10,.cls-11,.cls-12,.cls-13,.cls-3,.cls-4,.cls-6,.cls-7,.cls-8,.cls-9{stroke-miterlimit:10;}.cls-11,.cls-13,.cls-2{fill:#3553a4;}.cls-3,.cls-5{fill:#fff;}.cls-10,.cls-11,.cls-12,.cls-3,.cls-4,.cls-6,.cls-7,.cls-8,.cls-9{stroke:#3553a4;}.cls-10,.cls-18,.cls-4,.cls-6,.cls-7,.cls-8,.cls-9{fill:none;}.cls-4{fill-rule:evenodd;}.cls-7{stroke-dasharray:3.9929 3.9929;}.cls-8{stroke-dasharray:4 4;}.cls-9{stroke-dasharray:3.9935 3.9935;}.cls-10{stroke-dasharray:4 4;}.cls-13{stroke:#4267b1;}.cls-14{font-size:16px;font-family:IBMPlexSans-SemiBold, IBM Plex Sans;font-weight:600;}.cls-14,.cls-15,.cls-16{fill:#010101;}.cls-15{font-size:14px;font-family:IBMPlexSans, IBM Plex Sans;}.cls-17{fill:#3654a4;}</style></defs><g id="Background"><rect class="cls-1" x="2.1763" y="0.5" width="476.3103" height="555.5523"/><rect class="cls-2" y="0.6324" width="48" height="48"/><polygon class="cls-3" points="27.737 306.788 430.856 308.201 431.759 546.668 27.737 546.668 27.737 306.788"/><polyline class="cls-4" points="29.237 302.788 436.237 302.788 436.237 541.697"/><polyline class="cls-4" points="33.453 298.788 440.237 298.788 440.237 537.107"/><polygon class="cls-5" points="45.87 367.336 229.55 367.506 229.584 415.506 45.904 415.336 45.87 367.336"/><polyline class="cls-6" points="45.871 369.336 45.87 367.336 47.87 367.338"/><line class="cls-7" x1="51.8627" y1="367.342" x2="225.5534" y2="367.5023"/><polyline class="cls-6" points="227.55 367.504 229.55 367.506 229.551 369.506"/><line class="cls-8" x1="229.554" y1="373.506" x2="229.5809" y2="411.506"/><polyline class="cls-6" points="229.582 413.506 229.584 415.506 227.584 415.504"/><line class="cls-7" x1="223.5908" y1="415.5005" x2="49.9002" y2="415.3402"/><polyline class="cls-6" points="47.904 415.338 45.904 415.336 45.902 413.336"/><line class="cls-8" x1="45.8995" y1="409.3365" x2="45.8727" y2="371.3365"/><rect class="cls-5" x="45.9037" y="423.5341" width="183.706" height="48"/><polyline class="cls-6" points="229.61 469.534 229.61 471.534 227.61 471.534"/><line class="cls-9" x1="223.6163" y1="471.534" x2="49.9005" y2="471.534"/><polyline class="cls-6" points="47.904 471.534 45.904 471.534 45.904 469.534"/><line class="cls-10" x1="45.9037" y1="465.534" x2="45.9037" y2="427.534"/><polyline class="cls-6" points="45.904 425.534 45.904 423.534 47.904 423.534"/><line class="cls-9" x1="51.8972" y1="423.534" x2="225.613" y2="423.534"/><polyline class="cls-6" points="227.61 423.534 229.61 423.534 229.61 425.534"/><line class="cls-10" x1="229.6098" y1="429.534" x2="229.6098" y2="467.534"/><rect class="cls-5" x="45.9037" y="479.7312" width="183.706" height="48"/><polyline class="cls-6" points="229.61 525.731 229.61 527.731 227.61 527.731"/><line class="cls-9" x1="223.6163" y1="527.7312" x2="49.9005" y2="527.7312"/><polyline class="cls-6" points="47.904 527.731 45.904 527.731 45.904 525.731"/><line class="cls-10" x1="45.9037" y1="521.7312" x2="45.9037" y2="483.7312"/><polyline class="cls-6" points="45.904 481.731 45.904 479.731 47.904 479.731"/><line class="cls-9" x1="51.8972" y1="479.7312" x2="225.613" y2="479.7312"/><polyline class="cls-6" points="227.61 479.731 229.61 479.731 229.61 481.731"/><line class="cls-10" x1="229.6098" y1="485.7312" x2="229.6098" y2="523.7312"/><rect class="cls-5" x="238.8315" y="423.5341" width="183.706" height="48"/><polyline class="cls-6" points="422.538 469.534 422.538 471.534 420.538 471.534"/><line class="cls-9" x1="416.544" y1="471.534" x2="242.8282" y2="471.534"/><polyline class="cls-6" points="240.831 471.534 238.831 471.534 238.831 469.534"/><line class="cls-10" x1="238.8315" y1="465.534" x2="238.8315" y2="427.534"/><polyline class="cls-6" points="238.831 425.534 238.831 423.534 240.831 423.534"/><line class="cls-9" x1="244.825" y1="423.534" x2="418.5408" y2="423.534"/><polyline class="cls-6" points="420.538 423.534 422.538 423.534 422.538 425.534"/><line class="cls-10" x1="422.5375" y1="429.534" x2="422.5375" y2="467.534"/><rect class="cls-5" x="238.8315" y="479.7312" width="183.706" height="48"/><polyline class="cls-6" points="422.538 525.731 422.538 527.731 420.538 527.731"/><line class="cls-9" x1="416.544" y1="527.7312" x2="242.8282" y2="527.7312"/><polyline class="cls-6" points="240.831 527.731 238.831 527.731 238.831 525.731"/><line class="cls-10" x1="238.8315" y1="521.7312" x2="238.8315" y2="483.7312"/><polyline class="cls-6" points="238.831 481.731 238.831 479.731 240.831 479.731"/><line class="cls-9" x1="244.825" y1="479.7312" x2="418.5408" y2="479.7312"/><polyline class="cls-6" points="420.538 479.731 422.538 479.731 422.538 481.731"/><line class="cls-10" x1="422.5375" y1="485.7312" x2="422.5375" y2="523.7312"/><rect class="cls-2" x="28.4085" y="306.7877" width="48" height="48"/><path class="cls-5" d="M326.3067,334.349l3.42,3.41.58.59h12.83v16h-24v-20h7.17m0-2h-7.17a2,2,0,0,0-2,2v20a2,2,0,0,0,2,2h24a2,2,0,0,0,2-2v-16a2,2,0,0,0-2-2h-12l-3.41-3.41A1.9993,1.9993,0,0,0,326.3067,332.349Z" transform="translate(-278.7282 -13.5612)"/><rect class="cls-5" x="16.1632" y="17.2122" width="1.6534" height="3.3067"/><rect class="cls-5" x="16.1632" y="22.1723" width="1.6534" height="3.3067"/><rect class="cls-5" x="21.1233" y="17.2122" width="1.6534" height="3.3067"/><rect class="cls-5" x="21.1233" y="22.1723" width="1.6534" height="3.3067"/><rect class="cls-5" x="16.1632" y="27.1324" width="1.6534" height="3.3067"/><rect class="cls-5" x="21.1233" y="27.1324" width="1.6534" height="3.3067"/><path class="cls-5" d="M313.0784,35.7335A1.6534,1.6534,0,0,0,311.425,34.08h-4.96V27.4667a1.6533,1.6533,0,0,0-1.6533-1.6533H291.5847a1.6533,1.6533,0,0,0-1.6533,1.6533V48.96h23.147Zm-21.4937-8.2668h13.2269v19.84H291.5847Zm14.88,19.84V35.7335h4.96V47.307Z" transform="translate(-278.7282 -13.5612)"/><rect class="cls-11" x="45.9037" y="423.5341" width="3" height="48"/><rect class="cls-11" x="45.9037" y="479.7312" width="3" height="48"/><rect class="cls-11" x="238.8315" y="423.5341" width="3" height="48"/><rect class="cls-11" x="238.8315" y="479.7312" width="3" height="48"/><rect class="cls-3" x="28.4867" y="66.4127" width="267.72" height="220.3992"/><rect class="cls-5" x="45.1537" y="121.0528" width="240" height="48"/><polyline class="cls-6" points="45.154 123.053 45.154 121.053 47.154 121.053"/><line class="cls-10" x1="51.1537" y1="121.0528" x2="281.1537" y2="121.0528"/><polyline class="cls-6" points="283.154 121.053 285.154 121.053 285.154 123.053"/><line class="cls-10" x1="285.1537" y1="127.0528" x2="285.1537" y2="165.0528"/><polyline class="cls-6" points="285.154 167.053 285.154 169.053 283.154 169.053"/><line class="cls-10" x1="279.1537" y1="169.0528" x2="49.1537" y2="169.0528"/><polyline class="cls-6" points="47.154 169.053 45.154 169.053 45.154 167.053"/><line class="cls-10" x1="45.1537" y1="163.0528" x2="45.1537" y2="125.0528"/><rect class="cls-5" x="45.1537" y="177.4505" width="240" height="48"/><polyline class="cls-6" points="45.154 179.45 45.154 177.45 47.154 177.45"/><line class="cls-10" x1="51.1537" y1="177.4505" x2="281.1537" y2="177.4505"/><polyline class="cls-6" points="283.154 177.45 285.154 177.45 285.154 179.45"/><line class="cls-10" x1="285.1537" y1="183.4505" x2="285.1537" y2="221.4505"/><polyline class="cls-6" points="285.154 223.45 285.154 225.45 283.154 225.45"/><line class="cls-10" x1="279.1537" y1="225.4505" x2="49.1537" y2="225.4505"/><polyline class="cls-6" points="47.154 225.45 45.154 225.45 45.154 223.45"/><line class="cls-10" x1="45.1537" y1="219.4505" x2="45.1537" y2="181.4505"/><rect class="cls-12" x="45.8313" y="367.3369" width="48" height="48"/><rect class="cls-12" x="43.8313" y="121.0528" width="48" height="48"/><rect class="cls-12" x="43.8313" y="177.4505" width="48" height="48"/><rect class="cls-3" x="302.6986" y="66.4127" width="136.7275" height="176.1676"/><rect class="cls-13" x="347.0623" y="96.8948" width="48" height="48"/><path id="_Path_" data-name="&lt;Path&gt;" class="cls-5" d="M664.3589,137v5.5a3.9337,3.9337,0,0,1-2.3,3.5l-1.7.8-1.7-.8a3.8251,3.8251,0,0,1-2.3-3.5V137h8m2-2h-12v7.5a5.9235,5.9235,0,0,0,3.4,5.3l2.6,1.2,2.6-1.2a5.8149,5.8149,0,0,0,3.4-5.3V135Z" transform="translate(-278.7282 -13.5612)"/><path class="cls-5" d="M650.3589,144h-8.5a7.5074,7.5074,0,0,1-1.3-14.9,9.99,9.99,0,0,1,19.8,1.9h-2a8.0269,8.0269,0,0,0-16-.9v.9h-.9a5.4759,5.4759,0,0,0-5.1,5.5,5.5488,5.5488,0,0,0,5.5,5.5h8.5Z" transform="translate(-278.7282 -13.5612)"/><path class="cls-2" d="M340.5806,402.8626h10.971v2.0355h-10.971Zm0,5.0889h12.9658v2.0355H340.5806Z" transform="translate(-278.7282 -13.5612)"/><path class="cls-2" d="M360.5279,392.6848H336.5912a2.0154,2.0154,0,0,0-1.9947,2.0355v20.3556a2.0154,2.0154,0,0,0,1.9947,2.0356h23.9367a2.0154,2.0154,0,0,0,1.9947-2.0356V394.72A2.0154,2.0154,0,0,0,360.5279,392.6848Zm0,2.0355v2.0356H336.5912V394.72Zm-23.9367,20.3556V398.7915h23.9367v16.2844Z" transform="translate(-278.7282 -13.5612)"/><path class="cls-2" d="M338.5806,156.5784h10.971v2.0356h-10.971Zm0,5.0889h12.9658v2.0356H338.5806Z" transform="translate(-278.7282 -13.5612)"/><path class="cls-2" d="M358.5279,146.4006H334.5912a2.0154,2.0154,0,0,0-1.9947,2.0356v20.3556a2.0154,2.0154,0,0,0,1.9947,2.0356h23.9367a2.0154,2.0154,0,0,0,1.9947-2.0356V148.4362A2.0154,2.0154,0,0,0,358.5279,146.4006Zm0,2.0356v2.0356H334.5912v-2.0356Zm-23.9367,20.3556V152.5073h23.9367v16.2845Z" transform="translate(-278.7282 -13.5612)"/><path class="cls-2" d="M340.3931,223.2l3.9859-3.9856-1.324-1.3241-3.9859,3.9857-.7425-.7424a.9357.9357,0,0,0-1.3233-.0006l-.0006.0006-3.7453,3.7452a.9359.9359,0,0,0-.0006,1.3234l.0006.0006,2.809,2.8089a.9357.9357,0,0,0,1.3234,0l.0005,0,3.7452-3.7453a.9357.9357,0,0,0,.0006-1.3233l-.0006-.0006Zm-3.6648,3.8257-1.4849-1.4849,2.4212-2.4212,1.4849,1.4849Z" transform="translate(-278.7282 -13.5612)"/><path class="cls-2" d="M354.5181,228.35a5.6241,5.6241,0,0,1-5.6178-5.6178,5.4659,5.4659,0,0,1,.1975-1.4484l-8.1122-8.112a5.4739,5.4739,0,0,1-1.4484.1973,5.595,5.595,0,0,1-5.2219-7.6623l.5222-1.3314,3.1015,3.1015a.9579.9579,0,0,0,1.3234,0,.9353.9353,0,0,0,.0013-1.3228l-.0013-.0012-3.1018-3.1028,1.3326-.5216a5.5966,5.5966,0,0,1,7.6619,5.2228,5.4665,5.4665,0,0,1-.1975,1.4484l8.1122,8.1116a5.4858,5.4858,0,0,1,1.4483-.197,5.5949,5.5949,0,0,1,5.2219,7.6624l-.5216,1.3313-3.102-3.1015a.9582.9582,0,0,0-1.3235,0,.9353.9353,0,0,0-.0016,1.3228l.0012.0012,3.1015,3.1019-1.3314.5224A5.5811,5.5811,0,0,1,354.5181,228.35Zm-13.05-17.3438,9.7946,9.7948-.224.5706a3.7223,3.7223,0,0,0,3.2451,5.0985l-.8157-.8156a2.8083,2.8083,0,0,1-.0008-3.9714l.0008-.0008a2.8765,2.8765,0,0,1,3.9725.0005l.8152.8153a3.7228,3.7228,0,0,0-5.099-3.2451l-.5706.2234-9.7937-9.7938.2239-.5706a3.7222,3.7222,0,0,0-3.2449-5.0986l.8151.8156a2.8081,2.8081,0,0,1,.0009,3.9713l-.0009.0009a2.8764,2.8764,0,0,1-3.9724-.0005l-.8152-.8153a3.7218,3.7218,0,0,0,5.0985,3.2448Z" transform="translate(-278.7282 -13.5612)"/><path class="cls-2" d="M359.3145,202.929a2.876,2.876,0,0,0-3.972,0l-7.004,7.0036,1.324,1.3239,7.0036-7.0036a.9592.9592,0,0,1,1.324,0,.9382.9382,0,0,1,0,1.3244l-7.0035,7.0036,1.3239,1.324,7.0036-7.0031A2.8118,2.8118,0,0,0,359.3145,202.929Z" transform="translate(-278.7282 -13.5612)"/><rect class="cls-11" x="0.5119" y="48.6324" width="3" height="507.5523"/><rect class="cls-1" x="550.783" y="1.5538" width="476.3103" height="535.5536"/><rect class="cls-2" x="549.7213" y="0.6324" width="48" height="48"/><polygon class="cls-3" points="580.316 238.603 983.436 240.307 984.338 527.731 580.316 527.731 580.316 238.603"/><polyline class="cls-4" points="581.816 234.603 988.816 234.603 988.816 518.786"/><polyline class="cls-4" points="586.033 230.603 992.816 230.603 992.816 506.701"/><rect class="cls-5" x="594.0104" y="302.025" width="183.706" height="48"/><polyline class="cls-6" points="777.716 348.025 777.716 350.025 775.716 350.025"/><line class="cls-9" x1="771.723" y1="350.025" x2="598.0072" y2="350.025"/><polyline class="cls-6" points="596.01 350.025 594.01 350.025 594.01 348.025"/><line class="cls-10" x1="594.0104" y1="344.025" x2="594.0104" y2="306.025"/><polyline class="cls-6" points="594.01 304.025 594.01 302.025 596.01 302.025"/><line class="cls-9" x1="600.0039" y1="302.025" x2="773.7197" y2="302.025"/><polyline class="cls-6" points="775.716 302.025 777.716 302.025 777.716 304.025"/><line class="cls-10" x1="777.7165" y1="308.025" x2="777.7165" y2="346.025"/><rect class="cls-5" x="594.0104" y="358.2221" width="183.706" height="48"/><polyline class="cls-6" points="777.716 404.222 777.716 406.222 775.716 406.222"/><line class="cls-9" x1="771.723" y1="406.2222" x2="598.0072" y2="406.2222"/><polyline class="cls-6" points="596.01 406.222 594.01 406.222 594.01 404.222"/><line class="cls-10" x1="594.0104" y1="400.2222" x2="594.0104" y2="362.2222"/><polyline class="cls-6" points="594.01 360.222 594.01 358.222 596.01 358.222"/><line class="cls-9" x1="600.0039" y1="358.2222" x2="773.7197" y2="358.2222"/><polyline class="cls-6" points="775.716 358.222 777.716 358.222 777.716 360.222"/><line class="cls-10" x1="777.7165" y1="364.2222" x2="777.7165" y2="402.2222"/><rect class="cls-5" x="786.9382" y="302.025" width="183.706" height="48"/><polyline class="cls-6" points="970.644 348.025 970.644 350.025 968.644 350.025"/><line class="cls-9" x1="964.6507" y1="350.025" x2="790.9349" y2="350.025"/><polyline class="cls-6" points="788.938 350.025 786.938 350.025 786.938 348.025"/><line class="cls-10" x1="786.9382" y1="344.025" x2="786.9382" y2="306.025"/><polyline class="cls-6" points="786.938 304.025 786.938 302.025 788.938 302.025"/><line class="cls-9" x1="792.9317" y1="302.025" x2="966.6475" y2="302.025"/><polyline class="cls-6" points="968.644 302.025 970.644 302.025 970.644 304.025"/><line class="cls-10" x1="970.6442" y1="308.025" x2="970.6442" y2="346.025"/><rect class="cls-5" x="786.9382" y="358.2221" width="183.706" height="48"/><polyline class="cls-6" points="970.644 404.222 970.644 406.222 968.644 406.222"/><line class="cls-9" x1="964.6507" y1="406.2222" x2="790.9349" y2="406.2222"/><polyline class="cls-6" points="788.938 406.222 786.938 406.222 786.938 404.222"/><line class="cls-10" x1="786.9382" y1="400.2222" x2="786.9382" y2="362.2222"/><polyline class="cls-6" points="786.938 360.222 786.938 358.222 788.938 358.222"/><line class="cls-9" x1="792.9317" y1="358.2222" x2="966.6475" y2="358.2222"/><polyline class="cls-6" points="968.644 358.222 970.644 358.222 970.644 360.222"/><line class="cls-10" x1="970.6442" y1="364.2222" x2="970.6442" y2="402.2222"/><rect class="cls-2" x="580.91" y="238.6032" width="48" height="48"/><path class="cls-5" d="M878.8083,266.1644l3.42,3.41.58.59h12.83v16h-24v-20h7.17m0-2h-7.17a2,2,0,0,0-2,2v20a2,2,0,0,0,2,2h24a2,2,0,0,0,2-2v-16a2,2,0,0,0-2-2h-12l-3.41-3.41A2,2,0,0,0,878.8083,264.1644Z" transform="translate(-278.7282 -13.5612)"/><rect class="cls-5" x="565.8845" y="17.2122" width="1.6534" height="3.3067"/><rect class="cls-5" x="565.8845" y="22.1723" width="1.6534" height="3.3067"/><rect class="cls-5" x="570.8446" y="17.2122" width="1.6534" height="3.3067"/><rect class="cls-5" x="570.8446" y="22.1723" width="1.6534" height="3.3067"/><rect class="cls-5" x="565.8845" y="27.1324" width="1.6534" height="3.3067"/><rect class="cls-5" x="570.8446" y="27.1324" width="1.6534" height="3.3067"/><path class="cls-5" d="M862.8,35.7335a1.6534,1.6534,0,0,0-1.6534-1.6533h-4.96V27.4667a1.6533,1.6533,0,0,0-1.6533-1.6533H841.306a1.6533,1.6533,0,0,0-1.6533,1.6533V48.96H862.8ZM841.306,27.4667h13.2269v19.84H841.306Zm14.88,19.84V35.7335h4.96V47.307Z" transform="translate(-278.7282 -13.5612)"/><rect class="cls-11" x="594.0104" y="302.025" width="3" height="48"/><rect class="cls-11" x="594.0104" y="358.2221" width="3" height="48"/><rect class="cls-11" x="786.9382" y="302.025" width="3" height="48"/><rect class="cls-11" x="786.9382" y="358.2221" width="3" height="48"/><rect class="cls-3" x="581.208" y="77.4127" width="267.72" height="128.9831"/><rect class="cls-5" x="596.8751" y="136.0528" width="240" height="48"/><polyline class="cls-6" points="596.875 138.053 596.875 136.053 598.875 136.053"/><line class="cls-10" x1="602.8751" y1="136.0528" x2="832.875" y2="136.0528"/><polyline class="cls-6" points="834.875 136.053 836.875 136.053 836.875 138.053"/><line class="cls-10" x1="836.875" y1="142.0528" x2="836.875" y2="180.0528"/><polyline class="cls-6" points="836.875 182.053 836.875 184.053 834.875 184.053"/><line class="cls-10" x1="830.875" y1="184.0528" x2="600.8751" y2="184.0528"/><polyline class="cls-6" points="598.875 184.053 596.875 184.053 596.875 182.053"/><line class="cls-10" x1="596.8751" y1="178.0528" x2="596.8751" y2="140.0528"/><rect class="cls-12" x="596.2138" y="136.0528" width="48" height="48"/><rect class="cls-3" x="854.4199" y="77.4127" width="136.7275" height="128.9831"/><rect class="cls-13" x="898.7836" y="91.8948" width="48" height="48"/><path id="_Path_2" data-name="&lt;Path&gt;" class="cls-5" d="M1216.08,132v5.5a3.9337,3.9337,0,0,1-2.3,3.5l-1.7.8-1.7-.8a3.8251,3.8251,0,0,1-2.3-3.5V132h8m2-2h-12v7.5a5.9235,5.9235,0,0,0,3.4,5.3l2.6,1.2,2.6-1.2a5.8149,5.8149,0,0,0,3.4-5.3V130Z" transform="translate(-278.7282 -13.5612)"/><path class="cls-5" d="M1202.08,139h-8.5a7.5074,7.5074,0,0,1-1.3-14.9,9.99,9.99,0,0,1,19.8,1.9h-2a8.0269,8.0269,0,0,0-16-.9v.9h-.9a5.4759,5.4759,0,0,0-5.1,5.5,5.5488,5.5488,0,0,0,5.5,5.5h8.5Z" transform="translate(-278.7282 -13.5612)"/><path class="cls-2" d="M892.7756,181.8023l3.9859-3.9857-1.3239-1.324-3.986,3.9856-.7425-.7424a.9357.9357,0,0,0-1.3233-.0006l-.0006.0006-3.7452,3.7453a.9357.9357,0,0,0-.0006,1.3233l.0006.0006,2.8089,2.8089a.9359.9359,0,0,0,1.3235,0l0,0,3.7452-3.7452a.9358.9358,0,0,0,.0006-1.3234l-.0006,0Zm-3.6647,3.8256-1.4849-1.4849,2.4212-2.4212,1.4848,1.4849Z" transform="translate(-278.7282 -13.5612)"/><path class="cls-2" d="M906.9007,186.9519a5.6241,5.6241,0,0,1-5.6179-5.6178,5.4665,5.4665,0,0,1,.1975-1.4484l-8.1122-8.1119a5.4779,5.4779,0,0,1-1.4483.1973,5.5951,5.5951,0,0,1-5.222-7.6624l.5222-1.3313,3.1015,3.1015a.9582.9582,0,0,0,1.3235,0,.9354.9354,0,0,0,.0012-1.3228l-.0012-.0012-3.1019-3.1029,1.3326-.5216a5.5964,5.5964,0,0,1,7.6619,5.2228,5.4659,5.4659,0,0,1-.1975,1.4484l8.1122,8.1117a5.4778,5.4778,0,0,1,1.4484-.197,5.5948,5.5948,0,0,1,5.2218,7.6623l-.5216,1.3314-3.102-3.1016a.9581.9581,0,0,0-1.3234,0,.9354.9354,0,0,0-.0017,1.3229l.0012.0012,3.1015,3.1019-1.3313.5223A5.5778,5.5778,0,0,1,906.9007,186.9519Zm-13.05-17.3438,9.7946,9.7949-.224.5706a3.7222,3.7222,0,0,0,3.2451,5.0984l-.8156-.8156a2.8081,2.8081,0,0,1-.0009-3.9713l.0009-.0009a2.8764,2.8764,0,0,1,3.9724,0l.8152.8153a3.7228,3.7228,0,0,0-5.099-3.245l-.57.2233-9.7938-9.7938.224-.5705a3.7222,3.7222,0,0,0-3.245-5.0987l.8152.8156a2.8083,2.8083,0,0,1,.0008,3.9714l-.0008.0008a2.8765,2.8765,0,0,1-3.9725,0l-.8151-.8153a3.722,3.722,0,0,0,5.0984,3.2449Z" transform="translate(-278.7282 -13.5612)"/><path class="cls-2" d="M911.697,161.5312a2.876,2.876,0,0,0-3.972,0l-7.004,7.0036,1.3241,1.3239,7.0035-7.0035a.9592.9592,0,0,1,1.3241,0,.9382.9382,0,0,1,0,1.3244l-7.0036,7.0036,1.3239,1.324,7.0036-7.0031A2.812,2.812,0,0,0,911.697,161.5312Z" transform="translate(-278.7282 -13.5612)"/><rect class="cls-11" x="550.711" y="48.6324" width="3.5119" height="488.475"/><rect class="cls-5" x="594.0104" y="414.4193" width="183.706" height="48"/><polyline class="cls-6" points="777.716 460.419 777.716 462.419 775.716 462.419"/><line class="cls-9" x1="771.723" y1="462.4192" x2="598.0072" y2="462.4192"/><polyline class="cls-6" points="596.01 462.419 594.01 462.419 594.01 460.419"/><line class="cls-10" x1="594.0104" y1="456.4192" x2="594.0104" y2="418.4192"/><polyline class="cls-6" points="594.01 416.419 594.01 414.419 596.01 414.419"/><line class="cls-9" x1="600.0039" y1="414.4192" x2="773.7197" y2="414.4192"/><polyline class="cls-6" points="775.716 414.419 777.716 414.419 777.716 416.419"/><line class="cls-10" x1="777.7165" y1="420.4192" x2="777.7165" y2="458.4192"/><rect class="cls-5" x="786.9382" y="414.4193" width="183.706" height="48"/><polyline class="cls-6" points="970.644 460.419 970.644 462.419 968.644 462.419"/><line class="cls-9" x1="964.6507" y1="462.4192" x2="790.9349" y2="462.4192"/><polyline class="cls-6" points="788.938 462.419 786.938 462.419 786.938 460.419"/><line class="cls-10" x1="786.9382" y1="456.4192" x2="786.9382" y2="418.4192"/><polyline class="cls-6" points="786.938 416.419 786.938 414.419 788.938 414.419"/><line class="cls-9" x1="792.9317" y1="414.4192" x2="966.6475" y2="414.4192"/><polyline class="cls-6" points="968.644 414.419 970.644 414.419 970.644 416.419"/><line class="cls-10" x1="970.6442" y1="420.4192" x2="970.6442" y2="458.4192"/><rect class="cls-11" x="594.0104" y="414.4193" width="3" height="48"/><rect class="cls-11" x="786.9382" y="414.4193" width="3" height="48"/><rect class="cls-2" x="28.4085" y="66.4127" width="48" height="48"/><path class="cls-5" d="M326.3067,93.9739l3.42,3.41.58.59h12.83v16h-24v-20h7.17m0-2h-7.17a2,2,0,0,0-2,2v20a2,2,0,0,0,2,2h24a2,2,0,0,0,2-2v-16a2,2,0,0,0-2-2h-12l-3.41-3.41A2,2,0,0,0,326.3067,91.9739Z" transform="translate(-278.7282 -13.5612)"/><rect class="cls-2" x="580.91" y="77.1889" width="48" height="48"/><path class="cls-5" d="M878.8083,104.75l3.42,3.41.58.59h12.83v16h-24v-20h7.17m0-2h-7.17a2,2,0,0,0-2,2v20a2,2,0,0,0,2,2h24a2,2,0,0,0,2-2v-16a2,2,0,0,0-2-2h-12l-3.41-3.41A2,2,0,0,0,878.8083,102.75Z" transform="translate(-278.7282 -13.5612)"/></g><g id="Text"><text class="cls-14" transform="translate(56.4036 33.0447)">Production enterprise</text><text class="cls-15" transform="translate(84.4866 335.49)">Business unit account group</text><text class="cls-15" transform="translate(99.5711 397.7786)">BU admin account</text><text class="cls-15" transform="translate(62.0384 451.9402)">Workload account</text><text class="cls-15" transform="translate(62.0384 508.1375)">Workload account</text><text class="cls-15" transform="translate(254.9661 451.9402)">Workload account</text><text class="cls-15" transform="translate(254.9661 508.1375)">Workload account</text><text class="cls-15" transform="translate(84.4871 94.7718)">Admin account group</text><text class="cls-15" transform="translate(97.5711 149.4588)">Central admin account</text><text class="cls-15" transform="translate(97.5716 197.8567)">Network and services <tspan x="0" y="18">hub account</tspan></text><text class="cls-15" transform="translate(331.9607 163.325)">Security and <tspan x="1.9321" y="16">Compliance </tspan><tspan x="18.0669" y="32">Center</tspan></text><text class="cls-14" transform="translate(606.1248 33.0447)">Nonproduction enterprise</text><text class="cls-15" transform="translate(637.2083 267.2762)">Business unit account group</text><text class="cls-15" transform="translate(610.1448 330.4314)">Workload account</text><text class="cls-15" transform="translate(610.1448 386.6282)">Workload account</text><text class="cls-15" transform="translate(803.0725 330.4314)">Workload account</text><text class="cls-15" transform="translate(803.0725 386.6282)">Workload account</text><text class="cls-15" transform="translate(637.2083 105.7718)">Admin account group</text><text class="cls-15" transform="translate(649.9544 156.4588)">Network and services <tspan x="0" y="18" xml:space="preserve">hub  account</tspan></text><text class="cls-15" transform="translate(883.6824 158.2605)">Security and <tspan x="1.9321" y="16">Compliance </tspan><tspan x="18.0669" y="32">Center</tspan></text><text class="cls-15" transform="translate(610.1448 434.1812)">Infrastructure as code <tspan x="0" y="18">development account</tspan></text><text class="cls-15" transform="translate(803.0735 433.8255)"><tspan xml:space="preserve">Infrastructure as code  </tspan><tspan x="0" y="18">test account</tspan></text><rect class="cls-5" x="45.1479" y="232.2762" width="240" height="48"/><polyline class="cls-6" points="45.148 234.276 45.148 232.276 47.148 232.276"/><line class="cls-10" x1="51.1479" y1="232.2762" x2="281.1479" y2="232.2762"/><polyline class="cls-6" points="283.148 232.276 285.148 232.276 285.148 234.276"/><line class="cls-10" x1="285.1479" y1="238.2762" x2="285.1479" y2="276.2762"/><polyline class="cls-6" points="285.148 278.276 285.148 280.276 283.148 280.276"/><line class="cls-10" x1="279.1479" y1="280.2762" x2="49.1479" y2="280.2762"/><polyline class="cls-6" points="47.148 280.276 45.148 280.276 45.148 278.276"/><line class="cls-10" x1="45.1479" y1="274.2762" x2="45.1479" y2="236.2762"/><rect class="cls-12" x="43.8255" y="232.2762" width="48" height="48"/><text class="cls-15" transform="translate(97.5657 262.0408)">Backup account</text><g id="data-backup"><circle class="cls-16" cx="61.8234" cy="248.6032" r="1"/><circle class="cls-16" cx="61.8234" cy="256.6032" r="1"/><circle class="cls-16" cx="61.8234" cy="264.6032" r="1"/><path class="cls-17" d="M345.5516,281.1644h-8v-6h8v-2h-8v-6h18v-8a2,2,0,0,0-2-2h-16a2,2,0,0,0-2,2v22a2,2,0,0,0,2,2h8Zm-8-22h16v6h-16Z" transform="translate(-278.7282 -13.5612)"/><path class="cls-17" d="M361.5516,272.1644v2.4131a6.996,6.996,0,1,0-6,10.5869v-2a5,5,0,1,1,4.5762-7h-2.5762v2h6v-6Z" transform="translate(-278.7282 -13.5612)"/><rect id="_Transparent_Rectangle_" data-name=" Transparent Rectangle " class="cls-18" x="54.8234" y="241.6032" width="32" height="32"/></g><polygon class="cls-5" points="237.919 367.336 421.599 367.506 421.633 415.506 237.953 415.336 237.919 367.336"/><polyline class="cls-6" points="237.92 369.336 237.919 367.336 239.919 367.338"/><line class="cls-7" x1="243.9118" y1="367.342" x2="417.6024" y2="367.5023"/><polyline class="cls-6" points="419.599 367.504 421.599 367.506 421.6 369.506"/><line class="cls-8" x1="421.6031" y1="373.506" x2="421.6299" y2="411.506"/><polyline class="cls-6" points="421.631 413.506 421.633 415.506 419.633 415.504"/><line class="cls-7" x1="415.6399" y1="415.5005" x2="241.9492" y2="415.3402"/><polyline class="cls-6" points="239.953 415.338 237.953 415.336 237.951 413.336"/><line class="cls-8" x1="237.9485" y1="409.3365" x2="237.9217" y2="371.3365"/><rect class="cls-12" x="237.8803" y="367.3369" width="48" height="48"/><text class="cls-15" transform="translate(291.6202 397.7786)">Backup account</text><g id="data-backup-2" data-name="data-backup"><circle class="cls-16" cx="252.8803" cy="382.4212" r="1"/><circle class="cls-16" cx="252.8803" cy="390.4212" r="1"/><circle class="cls-16" cx="252.8803" cy="398.4212" r="1"/><path class="cls-17" d="M536.6086,414.9825h-8v-6h8v-2h-8v-6h18v-8a2,2,0,0,0-2-2h-16a2,2,0,0,0-2,2v22a2,2,0,0,0,2,2h8Zm-8-22h16v6h-16Z" transform="translate(-278.7282 -13.5612)"/><path class="cls-17" d="M552.6086,405.9825v2.4131a6.996,6.996,0,1,0-6,10.5869v-2a5,5,0,1,1,4.5762-7h-2.5762v2h6v-6Z" transform="translate(-278.7282 -13.5612)"/><rect id="_Transparent_Rectangle_2" data-name=" Transparent Rectangle " class="cls-18" x="245.8803" y="375.4212" width="32" height="32"/></g><polygon class="cls-5" points="595.711 470.616 779.391 470.786 779.425 518.786 595.745 518.616 595.711 470.616"/><polyline class="cls-6" points="595.713 472.616 595.711 470.616 597.711 470.618"/><line class="cls-7" x1="601.7041" y1="470.622" x2="775.3947" y2="470.7823"/><polyline class="cls-6" points="777.391 470.784 779.391 470.786 779.393 472.786"/><line class="cls-8" x1="779.3954" y1="476.786" x2="779.4222" y2="514.786"/><polyline class="cls-6" points="779.424 516.786 779.425 518.786 777.425 518.784"/><line class="cls-7" x1="773.4322" y1="518.7805" x2="599.7415" y2="518.6201"/><polyline class="cls-6" points="597.745 518.618 595.745 518.616 595.744 516.616"/><line class="cls-8" x1="595.7408" y1="512.6165" x2="595.714" y2="474.6165"/><rect class="cls-12" x="595.6727" y="470.6169" width="48" height="48"/><text class="cls-15" transform="translate(649.4124 501.0586)">Backup account</text><g id="data-backup-3" data-name="data-backup"><circle class="cls-16" cx="610.6727" cy="485.7012" r="1"/><circle class="cls-16" cx="610.6727" cy="493.7012" r="1"/><circle class="cls-16" cx="610.6727" cy="501.7012" r="1"/><path class="cls-17" d="M894.4009,518.2625h-8v-6h8v-2h-8v-6h18v-8a2,2,0,0,0-2-2h-16a2,2,0,0,0-2,2v22a2,2,0,0,0,2,2h8Zm-8-22h16v6h-16Z" transform="translate(-278.7282 -13.5612)"/><path class="cls-17" d="M910.4009,509.2625v2.4131a6.996,6.996,0,1,0-6,10.5869v-2a5,5,0,1,1,4.5762-7h-2.5762v2h6v-6Z" transform="translate(-278.7282 -13.5612)"/><rect id="_Transparent_Rectangle_3" data-name=" Transparent Rectangle " class="cls-18" x="603.6727" y="478.7012" width="32" height="32"/></g></g></svg>