<?xml version="1.0" encoding="UTF-8"?><svg id="Layer_1" xmlns="http://www.w3.org/2000/svg" viewBox="0 0 979.1 464.51"><defs><style>.cls-1,.cls-2,.cls-3,.cls-4,.cls-5,.cls-6,.cls-7{fill:none;}.cls-1,.cls-3,.cls-8,.cls-9,.cls-10,.cls-11,.cls-12,.cls-13,.cls-4,.cls-5,.cls-6,.cls-7{stroke-miterlimit:10;}.cls-1,.cls-3,.cls-8,.cls-9,.cls-11,.cls-12,.cls-4,.cls-5,.cls-6,.cls-7{stroke:#3553a4;}.cls-1,.cls-8{fill-rule:evenodd;}.cls-2,.cls-14,.cls-15,.cls-16,.cls-17{stroke-width:0px;}.cls-18{font-family:IBMPlexSans, 'IBM Plex Sans';font-size:14px;}.cls-18,.cls-19,.cls-17{fill:#010101;}.cls-3{stroke-dasharray:0 0 4 4;}.cls-8,.cls-9,.cls-16{fill:#fff;}.cls-10{stroke:#eef5fb;}.cls-10,.cls-11{fill:#eef4fb;}.cls-12,.cls-13,.cls-14{fill:#3553a4;}.cls-13{stroke:#4267b1;}.cls-19{font-family:IBMPlexSans-SemiBold, 'IBM Plex Sans';font-size:16px;font-weight:600;}.cls-4{stroke-dasharray:0 0 4.03 4.03;}.cls-6{stroke-dasharray:0 0 4.04 4.04;}.cls-7{stroke-dasharray:0 0 4.04 4.04;}.cls-15{fill:#3654a4;}</style></defs><rect class="cls-10" x="2.92" y=".88" width="975.67" height="463.13"/><polyline class="cls-8" points="356.1 260.97 675.35 260.97 675.35 440.74"/><rect class="cls-14" width="48" height="48"/><text class="cls-19" transform="translate(56.4 32.41)"><tspan x="0" y="0">Central administration account</tspan></text><rect class="cls-12" x=".51" y="48" width="3" height="415.13"/><path class="cls-16" d="m16.02,22.94h10.97v2.04h-10.97v-2.04Zm0,5.09h12.97v2.04h-12.97v-2.04Z"/><path class="cls-16" d="m35.97,12.77H12.03c-1.1,0-1.99.91-1.99,2.04v20.36c0,1.12.89,2.04,1.99,2.04h23.94c1.1,0,1.99-.91,1.99-2.04V14.8c0-1.12-.89-2.04-1.99-2.04Zm0,2.04v2.04H12.03v-2.04h23.94Zm-23.94,20.36v-16.28h23.94v16.28H12.03Z"/><polygon class="cls-9" points="694.98 178.48 964.04 178.76 964.65 226.48 694.98 226.48 694.98 178.48"/><text class="cls-18" transform="translate(749.73 207.92)"><tspan x="0" y="0">Catalog</tspan></text><rect class="cls-12" x="694.57" y="178.48" width="48" height="48"/><path class="cls-16" d="m727.41,188.48h-18c-1.1,0-2,.9-2,2v4h-2v2h2v5h-2v2h2v5h-2v2h2v4c0,1.1.9,2,2,2h18c1.1,0,2-.9,2-2v-24c0-1.1-.9-2-2-2Zm0,26h-18v-4h2v-2h-2v-5h2v-2h-2v-5h2v-2h-2v-4h18v24Z"/><rect class="cls-16" x="715.41" y="194.48" width="8" height="2"/><rect class="cls-16" x="715.41" y="201.48" width="8" height="2"/><rect class="cls-16" x="715.41" y="208.48" width="8" height="2"/><polygon class="cls-9" points="695.18 242.54 964.04 242.82 964.65 290.54 695.18 290.54 695.18 242.54"/><polygon class="cls-9" points="695.18 306.61 964.04 306.89 964.65 354.61 695.18 354.61 695.18 306.61"/><text class="cls-18" transform="translate(749.93 271.81)"><tspan x="0" y="0">Schematics agent</tspan></text><text class="cls-18" transform="translate(749.93 336.03)"><tspan x="0" y="0">Security and Compliance Center</tspan></text><rect class="cls-12" x="694.77" y="242.54" width="48" height="48"/><path class="cls-16" d="m729.61,269.54c0-2.21-1.79-4-4-4h-14c-1.1,0-2-.9-2-2v-3.14c1.4-.36,2.49-1.46,2.86-2.86h12.28c.55,2.14,2.73,3.43,4.87,2.87,2.14-.55,3.43-2.73,2.87-4.87-.55-2.14-2.73-3.43-4.87-2.87-1.41.36-2.51,1.46-2.87,2.87h-12.28c-.55-2.14-2.72-3.42-4.86-2.87-2.14.55-3.42,2.72-2.87,4.86.36,1.41,1.46,2.51,2.87,2.87v3.14c0,2.21,1.79,4,4,4h14c1.1,0,2,.9,2,2v3h-3v3h-12.14c-.55-2.14-2.73-3.43-4.87-2.87-2.14.55-3.43,2.73-2.87,4.87s2.73,3.43,4.87,2.87c1.41-.36,2.51-1.46,2.87-2.87h12.14v3h8v-8h-3v-3Zm-1-15c1.1,0,2,.9,2,2s-.9,2-2,2-2-.9-2-2c0-1.1.9-2,2-2Zm-22,2c0-1.1.9-2,2-2s2,.9,2,2-.9,2-2,2c-1.1,0-2-.9-2-2Zm2,22c-1.1,0-2-.9-2-2s.9-2,2-2,2,.9,2,2c0,1.1-.9,2-2,2Zm22-4v4h-4v-4h4Z"/><rect class="cls-9" x="23.67" y="270.17" width="309.41" height="176.17"/><text class="cls-18" transform="translate(79.67 298.53)"><tspan x="0" y="0">Network and services project</tspan></text><rect class="cls-16" x="40.38" y="328.75" width="282.81" height="48"/><polyline class="cls-5" points="40.39 330.82 40.4 328.82 42.4 328.81"/><line class="cls-7" x1="46.44" y1="328.81" x2="319.18" y2="328.69"/><polyline class="cls-5" points="321.2 328.69 323.2 328.69 323.2 330.69"/><line class="cls-3" x1="323.2" y1="334.69" x2="323.18" y2="372.69"/><polyline class="cls-5" points="323.18 374.69 323.18 376.69 321.18 376.69"/><line class="cls-7" x1="317.14" y1="376.69" x2="44.39" y2="376.81"/><polyline class="cls-5" points="42.37 376.82 40.37 376.82 40.37 374.82"/><line class="cls-3" x1="40.37" y1="370.82" x2="40.39" y2="332.82"/><text class="cls-18" transform="translate(92.76 357.22)"><tspan x="0" y="0">Network and services accounts</tspan></text><rect class="cls-16" x="40.35" y="385.15" width="282.81" height="48"/><polyline class="cls-5" points="40.36 387.21 40.37 385.21 42.37 385.21"/><line class="cls-7" x1="46.41" y1="385.21" x2="319.15" y2="385.09"/><polyline class="cls-5" points="321.17 385.09 323.17 385.08 323.17 387.08"/><line class="cls-3" x1="323.17" y1="391.08" x2="323.15" y2="429.09"/><polyline class="cls-5" points="323.15 431.09 323.15 433.09 321.15 433.09"/><line class="cls-7" x1="317.11" y1="433.09" x2="44.36" y2="433.21"/><polyline class="cls-5" points="42.34 433.21 40.34 433.21 40.34 431.21"/><line class="cls-3" x1="40.34" y1="427.21" x2="40.36" y2="389.21"/><text class="cls-18" transform="translate(92.76 413.62)"><tspan x="0" y="0">Hyper Protect Crypto Services</tspan></text><rect class="cls-11" x="39.02" y="328.81" width="48" height="48"/><rect class="cls-11" x="39.02" y="385.21" width="48" height="48"/><rect class="cls-14" x="23.59" y="270.17" width="48" height="48"/><path class="cls-16" d="m40.76,303.53l3.99-3.99-1.32-1.32-3.99,3.99-.74-.74c-.37-.37-.96-.37-1.32,0h0s-3.75,3.75-3.75,3.75c-.37.37-.37.96,0,1.32,0,0,0,0,0,0l2.81,2.81c.37.37.96.37,1.32,0,0,0,0,0,0,0l3.75-3.75c.37-.37.37-.96,0-1.32,0,0,0,0,0,0l-.74-.74Zm-3.66,3.83l-1.48-1.48,2.42-2.42,1.48,1.48-2.42,2.42Z"/><path class="cls-16" d="m54.89,308.68c-3.1,0-5.61-2.52-5.62-5.62,0-.49.07-.98.2-1.45l-8.11-8.11c-.47.13-.96.2-1.45.2-3.09.01-5.61-2.48-5.62-5.57,0-.72.13-1.43.4-2.09l.52-1.33,3.1,3.1c.37.35.95.35,1.32,0,.37-.36.37-.96,0-1.32,0,0,0,0,0,0l-3.1-3.1,1.33-.52c2.87-1.14,6.13.26,7.27,3.14.26.66.4,1.37.4,2.09,0,.49-.07.98-.2,1.45l8.11,8.11c.47-.13.96-.2,1.45-.2,3.09-.01,5.61,2.48,5.62,5.57,0,.72-.13,1.43-.4,2.09l-.52,1.33-3.1-3.1c-.37-.35-.95-.35-1.32,0-.37.36-.37.96,0,1.32,0,0,0,0,0,0l3.1,3.1-1.33.52c-.65.26-1.34.39-2.04.4Zm-13.05-17.34l9.79,9.79-.22.57c-.76,1.91.17,4.07,2.07,4.84.37.15.77.24,1.17.26l-.82-.82c-1.1-1.1-1.1-2.87,0-3.97h0c1.11-1.06,2.86-1.06,3.97,0l.82.82c-.12-2.05-1.88-3.62-3.93-3.51-.4.02-.8.11-1.17.26l-.57.22-9.79-9.79.22-.57c.76-1.91-.16-4.07-2.07-4.84-.37-.15-.77-.24-1.17-.26l.82.82c1.1,1.1,1.1,2.87,0,3.97h0c-1.11,1.06-2.86,1.06-3.97,0l-.82-.82c.12,2.05,1.87,3.62,3.93,3.51.4-.02.8-.11,1.17-.26l.57-.22Z"/><path class="cls-16" d="m59.68,283.26c-1.11-1.06-2.86-1.06-3.97,0l-7,7,1.32,1.32,7-7c.37-.35.95-.35,1.32,0,.36.37.36.96,0,1.32l-7,7,1.32,1.32,7-7c1.1-1.1,1.1-2.88,0-3.97Z"/><path class="cls-14" d="m69.72,421.35l-1.83-.87c-1.48-.7-2.53-2.27-2.53-3.92v-5.66h8.71v5.66c0,1.66-.96,3.22-2.53,3.92l-1.83.87Zm-2.61-8.71v3.92c0,1.05.61,1.92,1.48,2.35l1.13.52,1.13-.52c.87-.44,1.48-1.39,1.48-2.35v-3.92h-5.23Z"/><circle class="cls-14" cx="67.1" cy="403.92" r="1.74"/><path class="cls-14" d="m66.23,396.95c-4.36,0-7.84,3.49-7.84,7.84,0,.78.09,1.57.35,2.27l-9.06,9.06v5.23h5.23l8.71-8.71-1.22-1.22-2.44,2.44-1.22-1.22-1.22,1.22,1.22,1.22-1.39,1.39-1.22-1.22-1.22,1.22,1.22,1.22-1.92,1.92h-2.79v-2.79l8.54-8.54.7-.7-.26-1.05c-.17-.61-.26-1.13-.26-1.74,0-3.4,2.7-6.1,6.1-6.1s6.1,2.7,6.1,6.1c0,1.31-.44,2.53-1.13,3.49h2c.52-1.05.78-2.27.78-3.49.09-4.36-3.4-7.84-7.76-7.84Z"/><rect class="cls-9" x="352.48" y="270.17" width="315.51" height="176.17"/><text class="cls-18" transform="translate(408.48 298.53)"><tspan x="0" y="0">Business unit - infrastructure project</tspan></text><polygon class="cls-16" points="369.21 328.82 659.6 328.66 659.57 376.66 369.18 376.82 369.21 328.82"/><polyline class="cls-5" points="369.21 330.82 369.21 328.82 371.21 328.81"/><line class="cls-4" x1="375.24" y1="328.81" x2="655.58" y2="328.67"/><polyline class="cls-5" points="657.6 328.66 659.6 328.66 659.6 330.66"/><line class="cls-3" x1="659.59" y1="334.66" x2="659.57" y2="372.66"/><polyline class="cls-5" points="659.57 374.66 659.57 376.66 657.57 376.67"/><line class="cls-4" x1="653.53" y1="376.67" x2="373.2" y2="376.81"/><polyline class="cls-5" points="371.18 376.81 369.18 376.82 369.18 374.82"/><line class="cls-3" x1="369.18" y1="370.82" x2="369.21" y2="332.82"/><text class="cls-18" transform="translate(421.57 357.22)"><tspan x="0" y="0">Admin IaC</tspan></text><polygon class="cls-16" points="369.18 385.21 659.67 385.06 659.64 433.06 369.15 433.21 369.18 385.21"/><polyline class="cls-5" points="369.18 387.21 369.18 385.21 371.18 385.21"/><line class="cls-6" x1="375.21" y1="385.21" x2="655.65" y2="385.06"/><polyline class="cls-5" points="657.67 385.06 659.67 385.06 659.67 387.06"/><line class="cls-3" x1="659.67" y1="391.06" x2="659.64" y2="429.06"/><polyline class="cls-5" points="659.64 431.06 659.64 433.06 657.64 433.06"/><line class="cls-6" x1="653.6" y1="433.07" x2="373.17" y2="433.21"/><polyline class="cls-5" points="371.15 433.21 369.15 433.21 369.15 431.21"/><line class="cls-3" x1="369.15" y1="427.21" x2="369.18" y2="389.21"/><text class="cls-18" transform="translate(421.57 413.62)"><tspan x="0" y="0">Account groups and admin account</tspan></text><rect class="cls-11" x="367.83" y="328.81" width="48" height="48"/><rect class="cls-11" x="367.83" y="385.21" width="48" height="48"/><path class="cls-14" d="m383.85,350.78h10.97v2.04h-10.97v-2.04Zm0,5.09h12.97v2.04h-12.97v-2.04Z"/><path class="cls-14" d="m403.79,340.6h-23.94c-1.1,0-1.99.91-1.99,2.04v20.36c0,1.12.89,2.04,1.99,2.04h23.94c1.1,0,1.99-.91,1.99-2.04v-20.36c0-1.12-.89-2.04-1.99-2.04Zm0,2.04v2.04h-23.94v-2.04h23.94Zm-23.94,20.36v-16.28h23.94v16.28h-23.94Z"/><rect class="cls-14" x="352.4" y="270.17" width="48" height="48"/><polyline class="cls-1" points="354.34 264.97 671.79 264.97 671.79 443.43"/><path class="cls-14" d="m387,400.21l3.42,3.41.58.59h12.83v16h-24v-20h7.17m0-2h-7.17c-1.1,0-2,.9-2,2v20c0,1.1.9,2,2,2h24c1.1,0,2-.9,2-2v-16c0-1.1-.9-2-2-2h-12l-3.41-3.41c-.38-.38-.89-.59-1.42-.59Z"/><rect class="cls-16" x="376.93" y="305.64" width="12" height="2"/><rect class="cls-16" x="376.93" y="300.64" width="12" height="2"/><rect class="cls-16" x="376.93" y="295.64" width="12" height="2"/><path class="cls-16" d="m372.93,304.64h-4.5c-4.14,0-7.5-3.35-7.5-7.49,0-3.63,2.6-6.74,6.18-7.38,1.04-5.42,6.28-8.98,11.7-7.94,4.71.9,8.12,5.02,8.12,9.82h-2c0-4.42-3.58-8-8-8-4.08,0-7.51,3.07-7.95,7.13l-.09.83-.84.06c-3.03.2-5.32,2.82-5.11,5.85.19,2.89,2.6,5.13,5.49,5.13h4.5v2Z"/><path class="cls-14" d="m58.19,341.63l3.42,3.41.58.59h12.83v16h-24v-20h7.17m0-2h-7.17c-1.1,0-2,.9-2,2v20c0,1.1.9,2,2,2h24c1.1,0,2-.9,2-2v-16c0-1.1-.9-2-2-2h-12l-3.41-3.41c-.38-.38-.89-.59-1.42-.59Z"/><rect class="cls-9" x="27.12" y="71" width="309.41" height="176.17"/><text class="cls-18" transform="translate(83.12 99.36)"><tspan x="0" y="0">Central admin account project</tspan></text><rect class="cls-16" x="43.83" y="129.63" width="282.81" height="48"/><polyline class="cls-5" points="43.84 131.69 43.84 129.69 45.84 129.69"/><line class="cls-7" x1="49.88" y1="129.69" x2="322.63" y2="129.56"/><polyline class="cls-5" points="324.65 129.56 326.65 129.56 326.65 131.56"/><line class="cls-3" x1="326.64" y1="135.56" x2="326.62" y2="173.56"/><polyline class="cls-5" points="326.62 175.56 326.62 177.56 324.62 177.56"/><line class="cls-7" x1="320.58" y1="177.57" x2="47.84" y2="177.69"/><polyline class="cls-5" points="45.82 177.69 43.82 177.69 43.82 175.69"/><line class="cls-3" x1="43.82" y1="171.69" x2="43.84" y2="133.69"/><text class="cls-18" transform="translate(96.2 158.03)"><tspan x="0" y="0">Backup account for admin group</tspan></text><rect class="cls-16" x="43.8" y="186.45" width="282.81" height="48"/><polyline class="cls-5" points="43.81 188.51 43.81 186.51 45.81 186.51"/><line class="cls-7" x1="49.85" y1="186.51" x2="322.6" y2="186.38"/><polyline class="cls-5" points="324.62 186.38 326.62 186.38 326.62 188.38"/><line class="cls-3" x1="326.61" y1="192.38" x2="326.59" y2="230.38"/><polyline class="cls-5" points="326.59 232.38 326.59 234.38 324.59 234.38"/><line class="cls-7" x1="320.55" y1="234.38" x2="47.81" y2="234.51"/><polyline class="cls-5" points="45.79 234.51 43.79 234.51 43.79 232.51"/><line class="cls-3" x1="43.79" y1="228.51" x2="43.81" y2="190.51"/><text class="cls-18" transform="translate(96.2 214.85)"><tspan x="0" y="0">Account configuration</tspan></text><rect class="cls-11" x="42.6" y="129.63" width="48" height="48"/><rect class="cls-11" x="42.6" y="186.45" width="48" height="48"/><rect class="cls-14" x="27.04" y="71" width="48" height="48"/><path class="cls-16" d="m44.21,104.36l3.99-3.99-1.32-1.32-3.99,3.99-.74-.74c-.37-.37-.96-.37-1.32,0h0s-3.75,3.75-3.75,3.75c-.37.37-.37.96,0,1.32,0,0,0,0,0,0l2.81,2.81c.37.37.96.37,1.32,0,0,0,0,0,0,0l3.75-3.75c.37-.37.37-.96,0-1.32,0,0,0,0,0,0l-.74-.74Zm-3.66,3.83l-1.48-1.48,2.42-2.42,1.48,1.48-2.42,2.42Z"/><path class="cls-16" d="m58.33,109.51c-3.1,0-5.61-2.52-5.62-5.62,0-.49.07-.98.2-1.45l-8.11-8.11c-.47.13-.96.2-1.45.2-3.09.01-5.61-2.48-5.62-5.57,0-.72.13-1.43.4-2.09l.52-1.33,3.1,3.1c.37.35.95.35,1.32,0,.37-.36.37-.96,0-1.32,0,0,0,0,0,0l-3.1-3.1,1.33-.52c2.87-1.14,6.13.26,7.27,3.14.26.66.4,1.37.4,2.09,0,.49-.07.98-.2,1.45l8.11,8.11c.47-.13.96-.2,1.45-.2,3.09-.01,5.61,2.48,5.62,5.57,0,.72-.13,1.43-.4,2.09l-.52,1.33-3.1-3.1c-.37-.35-.95-.35-1.32,0-.37.36-.37.96,0,1.32,0,0,0,0,0,0l3.1,3.1-1.33.52c-.65.26-1.34.39-2.04.4Zm-13.05-17.34l9.79,9.79-.22.57c-.76,1.91.17,4.07,2.07,4.84.37.15.77.24,1.17.26l-.82-.82c-1.1-1.1-1.1-2.87,0-3.97h0c1.11-1.06,2.86-1.06,3.97,0l.82.82c-.12-2.05-1.88-3.62-3.93-3.51-.4.02-.8.11-1.17.26l-.57.22-9.79-9.79.22-.57c.76-1.91-.16-4.07-2.07-4.84-.37-.15-.77-.24-1.17-.26l.82.82c1.1,1.1,1.1,2.87,0,3.97h0c-1.11,1.06-2.86,1.06-3.97,0l-.82-.82c.12,2.05,1.87,3.62,3.93,3.51.4-.02.8-.11,1.17-.26l.57-.22Z"/><path class="cls-16" d="m63.13,84.09c-1.11-1.06-2.86-1.06-3.97,0l-7,7,1.32,1.32,7-7c.37-.35.95-.35,1.32,0,.36.37.36.96,0,1.32l-7,7,1.32,1.32,7-7c1.1-1.1,1.1-2.88,0-3.97Z"/><path class="cls-14" d="m66.39,216.45c-3.31,0-6-2.69-6-6s2.69-6,6-6,6,2.69,6,6c.04,3.28-2.59,5.96-5.87,6-.04,0-.09,0-.13,0Zm0-10c-2.16-.05-3.95,1.66-4,3.82,0,.06,0,.12,0,.18-.05,2.16,1.66,3.95,3.82,4,.06,0,.12,0,.18,0,2.16.05,3.95-1.66,4-3.82,0-.06,0-.12,0-.18.05-2.16-1.66-3.95-3.82-4-.06,0-.12,0-.18,0Z"/><path class="cls-14" d="m79.69,205.49l-2.36-4.09c-.48-.83-1.47-1.2-2.37-.89l-2.43.82c-.42-.28-.86-.54-1.31-.76l-.5-2.52c-.19-.94-1.01-1.61-1.96-1.61h-4.72c-.95,0-1.77.67-1.96,1.61l-.5,2.52c-.46.22-.9.47-1.33.75l-2.42-.82c-.9-.31-1.9.07-2.37.89l-2.36,4.09c-.48.83-.3,1.87.41,2.5l1.93,1.7c-.02.25-.04.5-.04.76s.01.51.03.77l-1.92,1.69c-.72.63-.89,1.68-.41,2.5l2.36,4.09c.48.83,1.47,1.2,2.37.89l2.43-.82c.42.28.86.54,1.31.76l.5,2.52c.19.93,1.01,1.61,1.96,1.61h4.36v-2h-4.36l-.71-3.55c-.98-.36-1.89-.9-2.69-1.57l-3.45,1.17-2.36-4.09,2.73-2.4c-.19-1.03-.19-2.09,0-3.13l-2.72-2.39,2.36-4.09,3.43,1.16c.81-.68,1.73-1.21,2.71-1.56l.71-3.55h4.72l.71,3.55c.98.36,1.89.9,2.69,1.57l3.45-1.17,2.36,4.09-2.8,2.45,1.32,1.5,2.8-2.45c.72-.63.89-1.68.41-2.5Z"/><polygon class="cls-14" points="73.39 220.63 70.8 218.04 69.39 219.45 73.39 223.45 80.39 216.45 78.98 215.04 73.39 220.63"/><rect class="cls-9" x="355.57" y="71" width="309.41" height="176.17"/><text class="cls-18" transform="translate(411.57 99.36)"><tspan x="0" y="0">Security and Compliance project</tspan></text><rect class="cls-16" x="372.28" y="129.63" width="282.81" height="48"/><polyline class="cls-5" points="372.29 131.69 372.29 129.69 374.29 129.69"/><line class="cls-7" x1="378.33" y1="129.69" x2="651.08" y2="129.56"/><polyline class="cls-5" points="653.1 129.56 655.1 129.56 655.1 131.56"/><line class="cls-3" x1="655.09" y1="135.56" x2="655.07" y2="173.56"/><polyline class="cls-5" points="655.07 175.56 655.07 177.56 653.07 177.56"/><line class="cls-7" x1="649.03" y1="177.57" x2="376.29" y2="177.69"/><polyline class="cls-5" points="374.27 177.69 372.27 177.69 372.27 175.69"/><line class="cls-3" x1="372.27" y1="171.69" x2="372.29" y2="133.69"/><text class="cls-18" transform="translate(424.65 158.03)"><tspan x="0" y="0">Security and Compliance Center</tspan></text><rect class="cls-11" x="371.05" y="129.63" width="48" height="48"/><rect class="cls-14" x="355.49" y="71" width="48" height="48"/><path class="cls-16" d="m372.66,104.36l3.99-3.99-1.32-1.32-3.99,3.99-.74-.74c-.37-.37-.96-.37-1.32,0h0s-3.75,3.75-3.75,3.75c-.37.37-.37.96,0,1.32,0,0,0,0,0,0l2.81,2.81c.37.37.96.37,1.32,0,0,0,0,0,0,0l3.75-3.75c.37-.37.37-.96,0-1.32,0,0,0,0,0,0l-.74-.74Zm-3.66,3.83l-1.48-1.48,2.42-2.42,1.48,1.48-2.42,2.42Z"/><path class="cls-16" d="m386.78,109.51c-3.1,0-5.61-2.52-5.62-5.62,0-.49.07-.98.2-1.45l-8.11-8.11c-.47.13-.96.2-1.45.2-3.09.01-5.61-2.48-5.62-5.57,0-.72.13-1.43.4-2.09l.52-1.33,3.1,3.1c.37.35.95.35,1.32,0,.37-.36.37-.96,0-1.32,0,0,0,0,0,0l-3.1-3.1,1.33-.52c2.87-1.14,6.13.26,7.27,3.14.26.66.4,1.37.4,2.09,0,.49-.07.98-.2,1.45l8.11,8.11c.47-.13.96-.2,1.45-.2,3.09-.01,5.61,2.48,5.62,5.57,0,.72-.13,1.43-.4,2.09l-.52,1.33-3.1-3.1c-.37-.35-.95-.35-1.32,0-.37.36-.37.96,0,1.32,0,0,0,0,0,0l3.1,3.1-1.33.52c-.65.26-1.34.39-2.04.4Zm-13.05-17.34l9.79,9.79-.22.57c-.76,1.91.17,4.07,2.07,4.84.37.15.77.24,1.17.26l-.82-.82c-1.1-1.1-1.1-2.87,0-3.97h0c1.11-1.06,2.86-1.06,3.97,0l.82.82c-.12-2.05-1.88-3.62-3.93-3.51-.4.02-.8.11-1.17.26l-.57.22-9.79-9.79.22-.57c.76-1.91-.16-4.07-2.07-4.84-.37-.15-.77-.24-1.17-.26l.82.82c1.1,1.1,1.1,2.87,0,3.97h0c-1.11,1.06-2.86,1.06-3.97,0l-.82-.82c.12,2.05,1.87,3.62,3.93,3.51.4-.02.8-.11,1.17-.26l.57-.22Z"/><path class="cls-16" d="m391.58,84.09c-1.11-1.06-2.86-1.06-3.97,0l-7,7,1.32,1.32,7-7c.37-.35.95-.35,1.32,0,.36.37.36.96,0,1.32l-7,7,1.32,1.32,7-7c1.1-1.1,1.1-2.88,0-3.97Z"/><path id="_Path_" class="cls-14" d="m409.05,155.63v5.5c0,1.5-.9,2.8-2.3,3.5l-1.7.8-1.7-.8c-1.4-.6-2.3-2-2.3-3.5v-5.5h8m2-2h-12v7.5c0,2.2,1.3,4.3,3.4,5.3l2.6,1.2,2.6-1.2c2.1-1,3.4-3,3.4-5.3v-7.5h0Z"/><path class="cls-14" d="m395.05,162.63h-8.5c-4.1,0-7.5-3.4-7.5-7.5,0-3.7,2.7-6.7,6.2-7.4.9-4.7,5-8.1,9.8-8.1,5.5,0,10,4.5,10,10h-2c0-4.4-3.6-8-8-8-4.1,0-7.5,3.1-8,7.1v.9h-.9c-2.9.2-5.1,2.6-5.1,5.5s2.5,5.5,5.5,5.5h8.5v2Z"/><g id="data-backup"><circle class="cls-17" cx="59.84" cy="144.67" r="1"/><circle class="cls-17" cx="59.84" cy="152.67" r="1"/><circle class="cls-17" cx="59.84" cy="160.67" r="1"/><path class="cls-15" d="m64.84,163.67h-8v-6h8v-2h-8v-6h18v-8c0-1.1-.9-2-2-2h-16c-1.1,0-2,.9-2,2v22c0,1.1.9,2,2,2h8v-2Zm-8-22h16v6h-16v-6Z"/><path class="cls-15" d="m80.84,154.67v2.41c-1.98-3.32-6.28-4.4-9.6-2.41-3.32,1.98-4.4,6.28-2.41,9.6,1.26,2.11,3.55,3.41,6.01,3.41v-2c-2.76,0-5-2.23-5.01-4.99,0-2.76,2.23-5,4.99-5.01,1.99,0,3.79,1.18,4.59,3h-2.58v2h6v-6h-2Z"/><rect id="_Transparent_Rectangle_" class="cls-2" x="52.84" y="137.67" width="32" height="32"/></g><rect class="cls-13" x="695.41" y="306.61" width="48" height="48"/><path id="_Path_-2" class="cls-16" d="m733.98,332.61v5.5c0,1.5-.9,2.8-2.3,3.5l-1.7.8-1.7-.8c-1.4-.6-2.3-2-2.3-3.5v-5.5h8m2-2h-12v7.5c0,2.2,1.3,4.3,3.4,5.3l2.6,1.2,2.6-1.2c2.1-1,3.4-3,3.4-5.3v-7.5h0Z"/><path class="cls-16" d="m719.98,339.61h-8.5c-4.1,0-7.5-3.4-7.5-7.5,0-3.7,2.7-6.7,6.2-7.4.9-4.7,5-8.1,9.8-8.1,5.5,0,10,4.5,10,10h-2c0-4.4-3.6-8-8-8-4.1,0-7.5,3.1-8,7.1v.9h-.9c-2.9.2-5.1,2.6-5.1,5.5s2.5,5.5,5.5,5.5h8.5v2Z"/></svg>