<svg id="Layer_1" data-name="Layer 1" xmlns="http://www.w3.org/2000/svg" width="926.3237" height="464.5107" viewBox="0 0 926.3237 464.5107"><defs><style>.cls-1,.cls-12{fill:#eef4fb;}.cls-1{stroke:#eef5fb;}.cls-1,.cls-10,.cls-11,.cls-12,.cls-13,.cls-14,.cls-15,.cls-2,.cls-5,.cls-7,.cls-9{stroke-miterlimit:10;}.cls-2,.cls-6,.cls-7{fill:#fff;}.cls-10,.cls-11,.cls-12,.cls-13,.cls-14,.cls-15,.cls-2,.cls-5,.cls-7,.cls-9{stroke:#3553a4;}.cls-15,.cls-2{fill-rule:evenodd;}.cls-3,.cls-5{fill:#3553a4;}.cls-4{font-size:16px;font-family:IBMPlexSans-SemiBold, IBM Plex Sans;font-weight:600;}.cls-16,.cls-4,.cls-8{fill:#010101;}.cls-8{font-size:14px;font-family:IBMPlexSans, IBM Plex Sans;}.cls-10,.cls-11,.cls-13,.cls-14,.cls-15,.cls-18,.cls-9{fill:none;}.cls-10{stroke-dasharray:4.0407 4.0407;}.cls-11{stroke-dasharray:4 4;}.cls-13{stroke-dasharray:4.0336 4.0336;}.cls-14{stroke-dasharray:4.0351 4.0351;}.cls-17{fill:#3654a4;}</style></defs><rect class="cls-1" x="2.9213" y="0.8804" width="922.9024" height="463.1303"/><polyline class="cls-2" points="356.099 260.967 675.349 260.967 675.349 440.743"/><rect class="cls-3" width="48" height="48"/><text class="cls-4" transform="translate(56.4031 32.4122)">Central administration account</text><rect class="cls-5" x="0.5119" y="48" width="3" height="415.1303"/><path class="cls-6" d="M130.5731,40.54h10.971v2.0356h-10.971Zm0,5.0889h12.9657v2.0356H130.5731Z" transform="translate(-114.552 -17.5954)"/><path class="cls-6" d="M150.52,30.3622H126.5836a2.0155,2.0155,0,0,0-1.9947,2.0356V52.7534a2.0155,2.0155,0,0,0,1.9947,2.0356H150.52a2.0155,2.0155,0,0,0,1.9948-2.0356V32.3978A2.0155,2.0155,0,0,0,150.52,30.3622Zm0,2.0356v2.0355H126.5836V32.3978ZM126.5836,52.7534V36.4689H150.52V52.7534Z" transform="translate(-114.552 -17.5954)"/><polygon class="cls-7" points="694.978 178.478 915.178 178.761 915.671 226.478 694.978 226.478 694.978 178.478"/><text class="cls-8" transform="translate(749.7276 207.9244)">Catalog</text><rect class="cls-5" x="694.5714" y="178.4783" width="48" height="48"/><path class="cls-6" d="M841.9632,206.0738h-18a2,2,0,0,0-2,2v4h-2v2h2v5h-2v2h2v5h-2v2h2v4a2,2,0,0,0,2,2h18a2,2,0,0,0,2-2v-24A2,2,0,0,0,841.9632,206.0738Zm0,26h-18v-4h2v-2h-2v-5h2v-2h-2v-5h2v-2h-2v-4h18Z" transform="translate(-114.552 -17.5954)"/><rect class="cls-6" x="715.4112" y="194.4783" width="8" height="2"/><rect class="cls-6" x="715.4112" y="201.4783" width="8" height="2"/><rect class="cls-6" x="715.4112" y="208.4783" width="8" height="2"/><polygon class="cls-7" points="695.181 242.542 915.381 242.825 915.874 290.542 695.181 290.542 695.181 242.542"/><text class="cls-8" transform="translate(749.9309 271.8107)">Schematics agent</text><rect class="cls-5" x="694.7746" y="242.542" width="48" height="48"/><path class="cls-6" d="M844.1663,287.1384a4.0057,4.0057,0,0,0-4.0009-4.001h-13.998a2.003,2.003,0,0,1-2.0011-2.0009v-3.1411a3.9949,3.9949,0,0,0,2.8581-2.858h12.284a4,4,0,1,0,0-2h-12.284a3.9916,3.9916,0,1,0-4.8581,4.858v3.1411a4.0055,4.0055,0,0,0,4.0011,4.0009h13.998a2.0031,2.0031,0,0,1,2.0009,2.001v2.999h-3v3H827.0244a4,4,0,1,0,0,2h12.1419v3h8v-8h-3Zm-1-15.001a2,2,0,1,1-2,2A2,2,0,0,1,843.1663,272.1374Zm-22,2a2,2,0,1,1,2,2A2,2,0,0,1,821.1663,274.1374Zm2,22a2,2,0,1,1,2-2A2,2,0,0,1,823.1663,296.1374Zm22-4v4h-4v-4Z" transform="translate(-114.552 -17.5954)"/><rect class="cls-7" x="23.6727" y="270.1739" width="309.4136" height="176.1676"/><text class="cls-8" transform="translate(79.6726 298.5333)">Network and services project</text><rect class="cls-6" x="40.3829" y="328.7513" width="282.8062" height="48.0003"/><polyline class="cls-9" points="40.395 330.816 40.396 328.816 42.396 328.815"/><line class="cls-10" x1="46.4365" y1="328.8129" x2="319.1817" y2="328.6887"/><polyline class="cls-9" points="321.202 328.688 323.202 328.687 323.201 330.687"/><line class="cls-11" x1="323.1988" y1="334.6868" x2="323.1784" y2="372.6871"/><polyline class="cls-9" points="323.177 374.687 323.176 376.687 321.176 376.688"/><line class="cls-10" x1="317.1356" y1="376.6899" x2="44.3904" y2="376.8142"/><polyline class="cls-9" points="42.37 376.815 40.37 376.816 40.371 374.816"/><line class="cls-11" x1="40.3732" y1="370.8159" x2="40.3937" y2="332.8157"/><text class="cls-8" transform="translate(92.7576 357.2205)">Network and services accounts</text><rect class="cls-6" x="40.3526" y="385.1494" width="282.8062" height="48.0003"/><polyline class="cls-9" points="40.364 387.214 40.366 385.214 42.366 385.213"/><line class="cls-10" x1="46.4062" y1="385.211" x2="319.1514" y2="385.0867"/><polyline class="cls-9" points="321.172 385.086 323.172 385.085 323.171 387.085"/><line class="cls-11" x1="323.1685" y1="391.085" x2="323.1481" y2="429.0852"/><polyline class="cls-9" points="323.147 431.085 323.146 433.085 321.146 433.086"/><line class="cls-10" x1="317.1053" y1="433.088" x2="44.3601" y2="433.2122"/><polyline class="cls-9" points="42.34 433.213 40.34 433.214 40.341 431.214"/><line class="cls-11" x1="40.343" y1="427.2141" x2="40.3634" y2="389.2138"/><text class="cls-8" transform="translate(92.7571 413.6182)">Hyper Protect Crypto Services</text><rect class="cls-12" x="39.0173" y="328.814" width="48" height="48"/><rect class="cls-12" x="39.0173" y="385.2117" width="48" height="48"/><rect class="cls-3" x="23.5945" y="270.1739" width="48" height="48"/><path class="cls-6" d="M155.3133,321.1225l3.9858-3.9857-1.3239-1.324-3.986,3.9856-.7425-.7424a.9357.9357,0,0,0-1.3233,0l-.0006,0-3.7452,3.7453a.9357.9357,0,0,0-.0006,1.3233l.0006.0006,2.8089,2.8089a.9359.9359,0,0,0,1.3235,0l0,0,3.7453-3.7452a.9357.9357,0,0,0,.0006-1.3233l-.0006-.0006Zm-3.6648,3.8256-1.4849-1.4849,2.4212-2.4212,1.4849,1.4849Z" transform="translate(-114.552 -17.5954)"/><path class="cls-6" d="M169.4383,326.2722a5.6243,5.6243,0,0,1-5.6179-5.6179,5.4693,5.4693,0,0,1,.1975-1.4483l-8.1121-8.112a5.4786,5.4786,0,0,1-1.4484.1973,5.5951,5.5951,0,0,1-5.222-7.6624l.5222-1.3313,3.1015,3.1015a.9582.9582,0,0,0,1.3235,0,.9354.9354,0,0,0,.0012-1.3228l-.0012-.0012-3.1019-3.1029,1.3326-.5216a5.5964,5.5964,0,0,1,7.6619,5.2228,5.47,5.47,0,0,1-.1974,1.4484l8.1121,8.1117a5.4824,5.4824,0,0,1,1.4484-.197,5.5948,5.5948,0,0,1,5.2218,7.6623l-.5216,1.3314-3.1019-3.1015a.958.958,0,0,0-1.3235,0,.9353.9353,0,0,0-.0017,1.3228l.0012.0012,3.1015,3.1019-1.3313.5223A5.58,5.58,0,0,1,169.4383,326.2722Zm-13.05-17.3439,9.7946,9.7949-.2239.5706a3.7219,3.7219,0,0,0,3.245,5.0984l-.8156-.8156a2.8081,2.8081,0,0,1-.0009-3.9713l.0009-.0009a2.8764,2.8764,0,0,1,3.9724,0l.8152.8153a3.7227,3.7227,0,0,0-5.0989-3.245l-.5706.2233-9.7938-9.7937.224-.5706a3.7222,3.7222,0,0,0-3.245-5.0987l.8152.8156a2.8082,2.8082,0,0,1,.0008,3.9714l-.0008.0008a2.8765,2.8765,0,0,1-3.9725,0l-.8151-.8153a3.7217,3.7217,0,0,0,5.0984,3.2449Z" transform="translate(-114.552 -17.5954)"/><path class="cls-6" d="M174.2346,300.8515a2.876,2.876,0,0,0-3.972,0l-7.0039,7.0035,1.324,1.324,7.0036-7.0036a.959.959,0,0,1,1.324,0,.9382.9382,0,0,1,0,1.3244l-7.0036,7.0036,1.324,1.324,7.0035-7.0031A2.8117,2.8117,0,0,0,174.2346,300.8515Z" transform="translate(-114.552 -17.5954)"/><path class="cls-3" d="M184.2684,438.9453l-1.83-.8714a4.4426,4.4426,0,0,1-2.5272-3.9216v-5.6645h8.7146v5.6645a4.2922,4.2922,0,0,1-2.5272,3.9216Zm-2.6144-8.7145v3.9215a2.6244,2.6244,0,0,0,1.4815,2.353l1.1329.5228,1.1329-.5228a2.7269,2.7269,0,0,0,1.4815-2.353v-3.9215Z" transform="translate(-114.552 -17.5954)"/><circle class="cls-3" cx="67.102" cy="403.9208" r="1.7429"/><path class="cls-3" d="M180.7826,414.5445a7.8105,7.8105,0,0,0-7.8431,7.8431,6.4985,6.4985,0,0,0,.3485,2.2658l-9.0631,9.0632v5.2287h5.2287l8.7146-8.7145-1.22-1.22-2.44,2.44-1.22-1.22-1.22,1.22,1.22,1.22-1.3943,1.3944-1.22-1.22-1.22,1.22,1.22,1.22-1.9172,1.9172h-2.7887v-2.7886l8.54-8.54.6971-.6972-.2614-1.0457a6.0972,6.0972,0,1,1,11.939-1.743,5.952,5.952,0,0,1-1.1329,3.4859h2.0043a7.8616,7.8616,0,0,0,.7843-3.4859A7.6831,7.6831,0,0,0,180.7826,414.5445Z" transform="translate(-114.552 -17.5954)"/><rect class="cls-7" x="352.4814" y="270.1739" width="315.5098" height="176.1676"/><text class="cls-8" transform="translate(408.4817 298.5333)">Business unit - infrastructure project</text><polygon class="cls-6" points="369.209 328.816 659.596 328.664 659.566 376.664 369.179 376.816 369.209 328.816"/><polyline class="cls-9" points="369.208 330.816 369.209 328.816 371.209 328.815"/><line class="cls-13" x1="375.2427" y1="328.8124" x2="655.5795" y2="328.666"/><polyline class="cls-9" points="657.596 328.665 659.596 328.664 659.595 330.664"/><line class="cls-11" x1="659.5925" y1="334.6639" x2="659.5685" y2="372.6641"/><polyline class="cls-9" points="659.567 374.664 659.566 376.664 657.566 376.665"/><line class="cls-13" x1="653.5324" y1="376.6673" x2="373.1956" y2="376.8137"/><polyline class="cls-9" points="371.179 376.815 369.179 376.816 369.18 374.816"/><line class="cls-11" x1="369.1826" y1="370.8158" x2="369.2066" y2="332.8156"/><text class="cls-8" transform="translate(421.5652 357.2205)">Admin IaC</text><polygon class="cls-6" points="369.179 385.214 659.669 385.062 659.639 433.062 369.148 433.214 369.179 385.214"/><polyline class="cls-9" points="369.178 387.214 369.179 385.214 371.179 385.213"/><line class="cls-14" x1="375.214" y1="385.2105" x2="655.6515" y2="385.0637"/><polyline class="cls-9" points="657.669 385.063 659.669 385.062 659.668 387.062"/><line class="cls-11" x1="659.6652" y1="391.0617" x2="659.6411" y2="429.062"/><polyline class="cls-9" points="659.64 431.062 659.639 433.062 657.639 433.063"/><line class="cls-14" x1="653.6035" y1="433.0651" x2="373.166" y2="433.2118"/><polyline class="cls-9" points="371.148 433.213 369.148 433.214 369.15 431.214"/><line class="cls-11" x1="369.1523" y1="427.2139" x2="369.1764" y2="389.2136"/><text class="cls-8" transform="translate(421.5657 413.6182)">Account groups and admin account</text><rect class="cls-12" x="367.8261" y="328.814" width="48" height="48"/><rect class="cls-12" x="367.8261" y="385.2117" width="48" height="48"/><path class="cls-3" d="M498.3991,368.3738H509.37v2.0356h-10.971Zm0,5.0889h12.9658v2.0356H498.3991Z" transform="translate(-114.552 -17.5954)"/><path class="cls-3" d="M518.3464,358.196H494.41a2.0154,2.0154,0,0,0-1.9947,2.0356v20.3556a2.0154,2.0154,0,0,0,1.9947,2.0356h23.9367a2.0155,2.0155,0,0,0,1.9947-2.0356V360.2316A2.0155,2.0155,0,0,0,518.3464,358.196Zm0,2.0356v2.0355H494.41v-2.0355ZM494.41,380.5872V364.3027h23.9367v16.2845Z" transform="translate(-114.552 -17.5954)"/><rect class="cls-3" x="352.4032" y="270.1739" width="48" height="48"/><polyline class="cls-15" points="354.337 264.967 671.79 264.967 671.79 443.43"/><path class="cls-3" d="M501.548,417.8071l3.42,3.41.58.59h12.83v16h-24v-20h7.17m0-2h-7.17a2,2,0,0,0-2,2v20a2,2,0,0,0,2,2h24a2,2,0,0,0,2-2v-16a2,2,0,0,0-2-2h-12l-3.41-3.41A2,2,0,0,0,501.548,415.8071Z" transform="translate(-114.552 -17.5954)"/><rect class="cls-6" x="376.9282" y="305.6381" width="12" height="2"/><rect class="cls-6" x="376.9282" y="300.6381" width="12" height="2"/><rect class="cls-6" x="376.9282" y="295.6381" width="12" height="2"/><path class="cls-6" d="M487.48,322.2335h-4.5a7.4964,7.4964,0,0,1-1.3218-14.876,10,10,0,0,1,19.8218,1.876h-2a7.999,7.999,0,0,0-15.9507-.87l-.09.8335-.8363.0565a5.4962,5.4962,0,0,0,.377,10.98h4.5Z" transform="translate(-114.552 -17.5954)"/><path class="cls-3" d="M172.7393,359.2248l3.42,3.41.58.59h12.83v16h-24v-20h7.17m0-2h-7.17a2,2,0,0,0-2,2v20a2,2,0,0,0,2,2h24a2,2,0,0,0,2-2v-16a2,2,0,0,0-2-2h-12l-3.41-3.41A2,2,0,0,0,172.7393,357.2248Z" transform="translate(-114.552 -17.5954)"/><rect class="cls-7" x="27.1183" y="71.0031" width="309.4136" height="176.1676"/><text class="cls-8" transform="translate(83.1184 99.3624)">Central admin account project</text><rect class="cls-6" x="43.8285" y="129.6274" width="282.8062" height="48.0003"/><polyline class="cls-9" points="43.84 131.692 43.841 129.692 45.841 129.691"/><line class="cls-10" x1="49.8821" y1="129.6891" x2="322.6273" y2="129.5648"/><polyline class="cls-9" points="324.648 129.564 326.648 129.563 326.647 131.563"/><line class="cls-11" x1="326.6444" y1="135.563" x2="326.624" y2="173.5633"/><polyline class="cls-9" points="326.623 175.563 326.622 177.563 324.622 177.564"/><line class="cls-10" x1="320.5812" y1="177.5661" x2="47.836" y2="177.6903"/><polyline class="cls-9" points="45.816 177.691 43.816 177.692 43.817 175.692"/><line class="cls-11" x1="43.8189" y1="171.6921" x2="43.8393" y2="133.6919"/><text class="cls-8" transform="translate(96.2034 158.0341)">Backup account for admin group</text><rect class="cls-6" x="43.7982" y="186.4454" width="282.8062" height="48.0003"/><polyline class="cls-9" points="43.81 188.51 43.811 186.51 45.811 186.509"/><line class="cls-10" x1="49.8518" y1="186.5071" x2="322.597" y2="186.3829"/><polyline class="cls-9" points="324.617 186.382 326.617 186.381 326.616 188.381"/><line class="cls-11" x1="326.6141" y1="192.3811" x2="326.5937" y2="230.3813"/><polyline class="cls-9" points="326.593 232.381 326.592 234.381 324.592 234.382"/><line class="cls-10" x1="320.5509" y1="234.3841" x2="47.8057" y2="234.5083"/><polyline class="cls-9" points="45.785 234.509 43.785 234.51 43.786 232.51"/><line class="cls-11" x1="43.7886" y1="228.5101" x2="43.809" y2="190.5099"/><text class="cls-8" transform="translate(96.2024 214.8522)">Account configuration</text><rect class="cls-12" x="42.6018" y="129.6276" width="48" height="48"/><rect class="cls-12" x="42.6018" y="186.4456" width="48" height="48"/><rect class="cls-3" x="27.0401" y="71.0031" width="48" height="48"/><path class="cls-6" d="M158.7589,121.9517l3.9858-3.9856-1.3239-1.3241-3.9859,3.9857-.7425-.7424a.9358.9358,0,0,0-1.3234-.0006l-.0006.0006-3.7452,3.7452a.9358.9358,0,0,0-.0006,1.3234l.0006.0006,2.8089,2.8089a.9358.9358,0,0,0,1.3235,0l.0005,0,3.7452-3.7453a.9357.9357,0,0,0,.0006-1.3233l-.0006-.0006Zm-3.6648,3.8257-1.4849-1.4849,2.4212-2.4212,1.4849,1.4849Z" transform="translate(-114.552 -17.5954)"/><path class="cls-6" d="M172.8839,127.1014a5.6241,5.6241,0,0,1-5.6178-5.6178,5.47,5.47,0,0,1,.1974-1.4484l-8.1121-8.112a5.4745,5.4745,0,0,1-1.4484.1973,5.5952,5.5952,0,0,1-5.222-7.6623l.5222-1.3314,3.1015,3.1015a.958.958,0,0,0,1.3235,0,.9353.9353,0,0,0,.0012-1.3228l-.0012-.0012-3.1019-3.1028,1.3327-.5216a5.5963,5.5963,0,0,1,7.6618,5.2228,5.47,5.47,0,0,1-.1974,1.4484l8.1121,8.1116a5.4871,5.4871,0,0,1,1.4484-.197,5.5951,5.5951,0,0,1,5.2219,7.6624l-.5217,1.3313-3.1019-3.1015a.9582.9582,0,0,0-1.3235,0,.9354.9354,0,0,0-.0017,1.3228l.0012.0012,3.1015,3.1019-1.3313.5224A5.5815,5.5815,0,0,1,172.8839,127.1014Zm-13.05-17.3438,9.7946,9.7948-.2239.5706a3.7222,3.7222,0,0,0,3.245,5.0985l-.8156-.8156a2.8082,2.8082,0,0,1-.0008-3.9714l.0008-.0008a2.8765,2.8765,0,0,1,3.9725.0005l.8151.8153a3.7227,3.7227,0,0,0-5.0989-3.2451l-.5706.2234-9.7938-9.7938.224-.5706a3.7222,3.7222,0,0,0-3.2449-5.0986l.8151.8156a2.808,2.808,0,0,1,.0008,3.9713l-.0008.0009a2.8765,2.8765,0,0,1-3.9725-.0005l-.8151-.8153a3.7218,3.7218,0,0,0,5.0985,3.2448Z" transform="translate(-114.552 -17.5954)"/><path class="cls-6" d="M177.68,101.6807a2.876,2.876,0,0,0-3.972,0l-7.0039,7.0036,1.324,1.3239,7.0036-7.0036a.9592.9592,0,0,1,1.324,0,.9382.9382,0,0,1,0,1.3244l-7.0036,7.0036,1.324,1.324,7.0035-7.0031A2.8117,2.8117,0,0,0,177.68,101.6807Z" transform="translate(-114.552 -17.5954)"/><path class="cls-3" d="M180.94,234.041a6,6,0,1,1,6-6,5.9364,5.9364,0,0,1-5.8721,6Q181.0041,234.0418,180.94,234.041Zm0-10a3.9124,3.9124,0,0,0-4,3.8226q-.002.0887,0,.1774a3.9122,3.9122,0,0,0,3.8226,4q.0887.0021.1774,0a3.9122,3.9122,0,0,0,4-3.8226q.0019-.0887,0-.1774a3.9123,3.9123,0,0,0-3.8226-4Q181.0289,224.0391,180.94,224.041Z" transform="translate(-114.552 -17.5954)"/><path class="cls-3" d="M194.2448,223.085l-2.3606-4.0878a1.9977,1.9977,0,0,0-2.3728-.8946l-2.4341.8233a11.035,11.035,0,0,0-1.312-.7583l-.5037-2.5186a2,2,0,0,0-1.9615-1.608h-4.72a2,2,0,0,0-1.9615,1.608l-.5037,2.5186a10.965,10.965,0,0,0-1.3267.7534l-2.4194-.8184a1.9977,1.9977,0,0,0-2.3728.8946l-2.3606,4.0878a2.0007,2.0007,0,0,0,.4119,2.5025l1.9309,1.6968c-.0171.2514-.0381.5014-.0381.7567,0,.2578.01.5127.0278.7656l-1.9206,1.688a2.0007,2.0007,0,0,0-.4119,2.5025l2.3606,4.0879a1.9977,1.9977,0,0,0,2.3728.8946l2.4341-.8233a10.9647,10.9647,0,0,0,1.312.7583l.5037,2.5186a2,2,0,0,0,1.9615,1.6078h4.36v-2h-4.36l-.71-3.5508a9.0959,9.0959,0,0,1-2.6948-1.5713l-3.4474,1.1661-2.36-4.0878,2.7253-2.3951a8.9263,8.9263,0,0,1-.007-3.1279l-2.7186-2.3892,2.3611-4.0878,3.4267,1.1591a9.0322,9.0322,0,0,1,2.7141-1.5644l.7106-3.5509h4.72l.71,3.5508a9.098,9.098,0,0,1,2.6948,1.5713l3.4468-1.166,2.36,4.0878-2.7978,2.4522,1.3185,1.5039,2.8-2.4536A2,2,0,0,0,194.2448,223.085Z" transform="translate(-114.552 -17.5954)"/><polygon class="cls-3" points="73.388 220.626 70.798 218.036 69.388 219.446 73.388 223.446 80.388 216.446 78.978 215.036 73.388 220.626"/><rect class="cls-7" x="355.5686" y="71.0031" width="309.4136" height="176.1676"/><text class="cls-8" transform="translate(411.5689 99.3624)">Security and Compliance project</text><rect class="cls-6" x="372.2788" y="129.6274" width="282.8062" height="48.0003"/><polyline class="cls-9" points="372.291 131.692 372.292 129.692 374.292 129.691"/><line class="cls-10" x1="378.3324" y1="129.6891" x2="651.0776" y2="129.5648"/><polyline class="cls-9" points="653.098 129.564 655.098 129.563 655.097 131.563"/><line class="cls-11" x1="655.0947" y1="135.563" x2="655.0743" y2="173.5633"/><polyline class="cls-9" points="655.073 175.563 655.072 177.563 653.072 177.564"/><line class="cls-10" x1="649.0315" y1="177.5661" x2="376.2863" y2="177.6903"/><polyline class="cls-9" points="374.266 177.691 372.266 177.692 372.267 175.692"/><line class="cls-11" x1="372.2692" y1="171.6921" x2="372.2896" y2="133.6919"/><text class="cls-8" transform="translate(424.6538 158.0341)">Security and Compliance Center</text><rect class="cls-6" x="372.2486" y="186.4454" width="282.8062" height="48.0003"/><polyline class="cls-9" points="372.26 188.51 372.261 186.51 374.261 186.509"/><line class="cls-10" x1="378.3021" y1="186.5071" x2="651.0474" y2="186.3829"/><polyline class="cls-9" points="653.068 186.382 655.068 186.381 655.067 188.381"/><line class="cls-11" x1="655.0644" y1="192.3811" x2="655.0441" y2="230.3813"/><polyline class="cls-9" points="655.043 232.381 655.042 234.381 653.042 234.382"/><line class="cls-10" x1="649.0012" y1="234.3841" x2="376.256" y2="234.5083"/><polyline class="cls-9" points="374.236 234.509 372.236 234.51 372.237 232.51"/><line class="cls-11" x1="372.2389" y1="228.5101" x2="372.2593" y2="190.5099"/><text class="cls-8" transform="translate(424.6528 214.8522)">Root configuration</text><rect class="cls-12" x="371.0521" y="129.6276" width="48" height="48"/><rect class="cls-12" x="371.0521" y="186.4456" width="48" height="48"/><rect class="cls-3" x="355.4905" y="71.0031" width="48" height="48"/><path class="cls-6" d="M487.2092,121.9517l3.9858-3.9856-1.3239-1.3241-3.9859,3.9857-.7425-.7424a.9358.9358,0,0,0-1.3234-.0006l-.0006.0006-3.7452,3.7452a.9359.9359,0,0,0-.0006,1.3234l.0006.0006,2.8089,2.8089a.9358.9358,0,0,0,1.3235,0l0,0,3.7452-3.7453a.9357.9357,0,0,0,.0006-1.3233l-.0006-.0006Zm-3.6648,3.8257-1.4849-1.4849,2.4212-2.4212,1.4849,1.4849Z" transform="translate(-114.552 -17.5954)"/><path class="cls-6" d="M501.3342,127.1014a5.6241,5.6241,0,0,1-5.6178-5.6178,5.47,5.47,0,0,1,.1974-1.4484l-8.1121-8.112a5.4739,5.4739,0,0,1-1.4484.1973,5.595,5.595,0,0,1-5.2219-7.6623l.5221-1.3314,3.1015,3.1015a.958.958,0,0,0,1.3235,0,.9353.9353,0,0,0,.0012-1.3228l-.0012-.0012-3.1019-3.1028,1.3327-.5216a5.5963,5.5963,0,0,1,7.6618,5.2228,5.47,5.47,0,0,1-.1974,1.4484l8.1121,8.1116a5.4871,5.4871,0,0,1,1.4484-.197,5.5951,5.5951,0,0,1,5.2219,7.6624l-.5216,1.3313-3.102-3.1015a.9582.9582,0,0,0-1.3235,0,.9354.9354,0,0,0-.0017,1.3228l.0012.0012,3.1016,3.1019-1.3314.5224A5.5815,5.5815,0,0,1,501.3342,127.1014Zm-13.05-17.3438,9.7946,9.7948-.2239.5706a3.7222,3.7222,0,0,0,3.245,5.0985l-.8156-.8156a2.8082,2.8082,0,0,1-.0008-3.9714l.0008-.0008a2.8765,2.8765,0,0,1,3.9725.0005l.8151.8153a3.7227,3.7227,0,0,0-5.0989-3.2451l-.5706.2234-9.7937-9.7938.2239-.5706a3.7222,3.7222,0,0,0-3.2449-5.0986l.8151.8156a2.808,2.808,0,0,1,.0008,3.9713l-.0008.0009a2.8765,2.8765,0,0,1-3.9725-.0005l-.8151-.8153a3.7218,3.7218,0,0,0,5.0985,3.2448Z" transform="translate(-114.552 -17.5954)"/><path class="cls-6" d="M506.1305,101.6807a2.876,2.876,0,0,0-3.972,0l-7.0039,7.0036,1.324,1.3239,7.0036-7.0036a.9592.9592,0,0,1,1.324,0,.9382.9382,0,0,1,0,1.3244l-7.0036,7.0036,1.324,1.324,7.0035-7.0031A2.8117,2.8117,0,0,0,506.1305,101.6807Z" transform="translate(-114.552 -17.5954)"/><path class="cls-3" d="M509.39,234.041a6,6,0,1,1,6-6,5.9364,5.9364,0,0,1-5.8721,6Q509.4544,234.0418,509.39,234.041Zm0-10a3.9124,3.9124,0,0,0-4,3.8226q-.002.0887,0,.1774a3.9123,3.9123,0,0,0,3.8226,4q.0886.0021.1774,0a3.9122,3.9122,0,0,0,4-3.8226q.0021-.0887,0-.1774a3.9123,3.9123,0,0,0-3.8226-4Q509.4792,224.0391,509.39,224.041Z" transform="translate(-114.552 -17.5954)"/><path class="cls-3" d="M522.6951,223.085l-2.3606-4.0878a1.9977,1.9977,0,0,0-2.3728-.8946l-2.4341.8233a11.035,11.035,0,0,0-1.312-.7583l-.5037-2.5186a2,2,0,0,0-1.9615-1.608h-4.72a2,2,0,0,0-1.9615,1.608l-.5037,2.5186a10.965,10.965,0,0,0-1.3267.7534l-2.4194-.8184a1.9977,1.9977,0,0,0-2.3728.8946l-2.3606,4.0878a2.0007,2.0007,0,0,0,.4119,2.5025l1.9309,1.6968c-.0171.2514-.0381.5014-.0381.7567,0,.2578.01.5127.0278.7656l-1.9206,1.688a2.0007,2.0007,0,0,0-.4119,2.5025l2.3606,4.0879a1.9977,1.9977,0,0,0,2.3728.8946l2.4341-.8233a10.9725,10.9725,0,0,0,1.312.7583l.5037,2.5186a2,2,0,0,0,1.9615,1.6078h4.36v-2h-4.36l-.71-3.5508a9.0959,9.0959,0,0,1-2.6948-1.5713l-3.4474,1.1661-2.36-4.0878,2.7253-2.3951a8.9263,8.9263,0,0,1-.007-3.1279l-2.7186-2.3892,2.3611-4.0878,3.4267,1.1591a9.0322,9.0322,0,0,1,2.7141-1.5644l.7106-3.5509h4.72l.71,3.5508a9.098,9.098,0,0,1,2.6948,1.5713l3.4468-1.166,2.36,4.0878-2.7978,2.4522,1.3185,1.5039,2.8-2.4536A2,2,0,0,0,522.6951,223.085Z" transform="translate(-114.552 -17.5954)"/><polygon class="cls-3" points="401.838 220.626 399.248 218.036 397.838 219.446 401.838 223.446 408.838 216.446 407.428 215.036 401.838 220.626"/><path id="_Path_" data-name="&lt;Path&gt;" class="cls-3" d="M523.6041,173.223v5.5a3.9337,3.9337,0,0,1-2.3,3.5l-1.7.8-1.7-.8a3.8251,3.8251,0,0,1-2.3-3.5v-5.5h8m2-2h-12v7.5a5.9235,5.9235,0,0,0,3.4,5.3l2.6,1.2,2.6-1.2a5.8149,5.8149,0,0,0,3.4-5.3v-7.5Z" transform="translate(-114.552 -17.5954)"/><path class="cls-3" d="M509.6041,180.223h-8.5a7.5074,7.5074,0,0,1-1.3-14.9,9.99,9.99,0,0,1,19.8,1.9h-2a8.0269,8.0269,0,0,0-16-.9v.9h-.9a5.4759,5.4759,0,0,0-5.1,5.5,5.5488,5.5488,0,0,0,5.5,5.5h8.5Z" transform="translate(-114.552 -17.5954)"/><g id="data-backup"><circle class="cls-16" cx="59.845" cy="144.6741" r="1"/><circle class="cls-16" cx="59.845" cy="152.6741" r="1"/><circle class="cls-16" cx="59.845" cy="160.6741" r="1"/><path class="cls-17" d="M179.3969,181.27h-8v-6h8v-2h-8v-6h18v-8a2,2,0,0,0-2-2h-16a2,2,0,0,0-2,2v22a2,2,0,0,0,2,2h8Zm-8-22h16v6h-16Z" transform="translate(-114.552 -17.5954)"/><path class="cls-17" d="M195.3969,172.27v2.4131a6.996,6.996,0,1,0-6,10.5869v-2a5,5,0,1,1,4.5762-7h-2.5762v2h6v-6Z" transform="translate(-114.552 -17.5954)"/><rect id="_Transparent_Rectangle_" data-name=" Transparent Rectangle " class="cls-18" x="52.845" y="137.6741" width="32" height="32"/></g></svg>