<svg id="Layer_1" data-name="Layer 1" xmlns="http://www.w3.org/2000/svg" viewBox="0 0 689.98 464.13"><defs><style>.cls-1,.cls-26{fill:#eef4fb;}.cls-1{stroke:#eef5fb;}.cls-1,.cls-11,.cls-19,.cls-2,.cls-20,.cls-21,.cls-26,.cls-29,.cls-30,.cls-31,.cls-32,.cls-33,.cls-34,.cls-35,.cls-9{stroke-miterlimit:10;}.cls-10,.cls-11,.cls-2{fill:#fff;}.cls-11,.cls-19,.cls-2,.cls-20,.cls-21,.cls-26,.cls-29,.cls-30,.cls-31,.cls-32,.cls-33,.cls-34,.cls-35,.cls-9{stroke:#3553a4;}.cls-2,.cls-31{fill-rule:evenodd;}.cls-3,.cls-9{fill:#3553a4;}.cls-4{font-size:16px;}.cls-12,.cls-4{fill:#010101;font-family:IBMPlexSans-SemiBold, IBM Plex Sans;font-weight:600;}.cls-5{letter-spacing:-0.01em;}.cls-6{letter-spacing:-0.01em;}.cls-7{letter-spacing:0em;}.cls-8{letter-spacing:0em;}.cls-12{font-size:14px;}.cls-13{letter-spacing:0em;}.cls-14{letter-spacing:-0.01em;}.cls-15{letter-spacing:-0.01em;}.cls-16{letter-spacing:0.01em;}.cls-17{letter-spacing:-0.01em;}.cls-18{letter-spacing:0em;}.cls-19,.cls-20,.cls-21,.cls-29,.cls-30,.cls-31,.cls-32,.cls-33,.cls-34,.cls-35{fill:none;}.cls-20{stroke-dasharray:4.04 4.04;}.cls-21{stroke-dasharray:4 4;}.cls-22{letter-spacing:-0.01em;}.cls-23{letter-spacing:0em;}.cls-24{letter-spacing:0em;}.cls-25{letter-spacing:0.01em;}.cls-27{letter-spacing:-0.01em;}.cls-28{letter-spacing:-0.01em;}.cls-29{stroke-dasharray:4.03 4.03;}.cls-30{stroke-dasharray:4.04 4.04;}.cls-32{stroke-dasharray:3.98 3.98;}.cls-33{stroke-dasharray:4.2 4.2;}.cls-34{stroke-dasharray:3.99 3.99;}.cls-35{stroke-dasharray:3.69 3.69;}.cls-36{letter-spacing:-0.01em;}</style></defs><rect class="cls-1" x="0.51" y="0.5" width="688.96" height="463.13"/><polyline class="cls-2" points="356.1 261.47 675.35 261.47 675.35 441.24"/><rect class="cls-3" y="0.5" width="48" height="48"/><text class="cls-4" transform="translate(56.4 32.91)">Cent<tspan class="cls-5" x="34.59" y="0">r</tspan><tspan x="40.7" y="0">al admini</tspan><tspan class="cls-6" x="109.12" y="0">s</tspan><tspan x="116.98" y="0">t</tspan><tspan class="cls-5" x="122.96" y="0">r</tspan><tspan class="cls-7" x="129.07" y="0">a</tspan><tspan x="137.95" y="0">tion a</tspan><tspan class="cls-8" x="179.49" y="0">cc</tspan><tspan x="195.74" y="0">ount</tspan></text><rect class="cls-9" x="0.51" y="48.5" width="3" height="415.13"/><path class="cls-10" d="M471.8,37.6h11v2h-11Zm0,5.08h13v2h-13Z" transform="translate(-455.78 -14.15)"/><path class="cls-10" d="M491.75,27.42H467.81a2,2,0,0,0-2,2V49.81a2,2,0,0,0,2,2h23.94a2,2,0,0,0,2-2V29.45A2,2,0,0,0,491.75,27.42Zm0,2v2H467.81v-2ZM467.81,49.81V33.52h23.94V49.81Z" transform="translate(-455.78 -14.15)"/><polygon class="cls-11" points="408.1 102.69 628.3 102.97 628.79 150.69 408.1 150.69 408.1 102.69"/><text class="cls-12" transform="translate(462.85 132.02)">C<tspan class="cls-13" x="8.99" y="0">a</tspan><tspan x="16.76" y="0">talog</tspan></text><rect class="cls-9" x="407.69" y="102.69" width="48" height="48"/><path class="cls-10" d="M896.31,126.84h-18a2,2,0,0,0-2,2v4h-2v2h2v5h-2v2h2v5h-2v2h2v4a2,2,0,0,0,2,2h18a2,2,0,0,0,2-2v-24A2,2,0,0,0,896.31,126.84Zm0,26h-18v-4h2v-2h-2v-5h2v-2h-2v-5h2v-2h-2v-4h18Z" transform="translate(-455.78 -14.15)"/><rect class="cls-10" x="428.53" y="118.69" width="8" height="2"/><rect class="cls-10" x="428.53" y="125.69" width="8" height="2"/><rect class="cls-10" x="428.53" y="132.69" width="8" height="2"/><polygon class="cls-11" points="408.3 166.75 628.5 167.03 628.99 214.75 408.3 214.75 408.3 166.75"/><text class="cls-12" transform="translate(463.05 195.91)">Schem<tspan class="cls-13" x="44.21" y="0">a</tspan><tspan x="51.98" y="0">tics a</tspan><tspan class="cls-14" x="86.38" y="0">g</tspan><tspan x="93.92" y="0">ent</tspan></text><rect class="cls-9" x="407.89" y="166.75" width="48" height="48"/><path class="cls-10" d="M898.51,207.9a4,4,0,0,0-4-4h-14a2,2,0,0,1-2-2v-3.14a4,4,0,0,0,2.86-2.86h12.28a4,4,0,1,0,0-2H881.37a4,4,0,1,0-4.86,4.86v3.14a4,4,0,0,0,4,4h14a2,2,0,0,1,2,2v3h-3v3H881.37a4,4,0,1,0,0,2h12.14v3h8v-8h-3Zm-1-15a2,2,0,1,1-2,2A2,2,0,0,1,897.51,192.9Zm-22,2a2,2,0,1,1,2,2A2,2,0,0,1,875.51,194.9Zm2,22a2,2,0,1,1,2-2A2,2,0,0,1,877.51,216.9Zm22-4v4h-4v-4Z" transform="translate(-455.78 -14.15)"/><rect class="cls-11" x="23.67" y="270.67" width="309.41" height="176.17"/><text class="cls-12" transform="translate(79.67 299.03)">Net<tspan class="cls-15" x="23.11" y="0">w</tspan><tspan x="34.45" y="0">ork and se</tspan><tspan class="cls-16" x="101.57" y="0">r</tspan><tspan x="107.18" y="0">vi</tspan><tspan class="cls-17" x="118.38" y="0">c</tspan><tspan class="cls-18" x="125.49" y="0">es p</tspan><tspan class="cls-17" x="152" y="0">r</tspan><tspan x="157.43" y="0">oject</tspan></text><rect class="cls-10" x="40.38" y="329.25" width="282.81" height="48"/><polyline class="cls-19" points="40.4 331.32 40.4 329.32 42.4 329.31"/><line class="cls-20" x1="46.44" y1="329.31" x2="319.18" y2="329.19"/><polyline class="cls-19" points="321.2 329.19 323.2 329.19 323.2 331.19"/><line class="cls-21" x1="323.2" y1="335.19" x2="323.18" y2="373.19"/><polyline class="cls-19" points="323.18 375.19 323.18 377.19 321.18 377.19"/><line class="cls-20" x1="317.14" y1="377.19" x2="44.39" y2="377.31"/><polyline class="cls-19" points="42.37 377.31 40.37 377.32 40.37 375.32"/><line class="cls-21" x1="40.37" y1="371.32" x2="40.39" y2="333.32"/><text class="cls-12" transform="translate(92.76 357.72)">Net<tspan class="cls-15" x="23.11" y="0">w</tspan><tspan x="34.45" y="0">ork and se</tspan><tspan class="cls-16" x="101.57" y="0">r</tspan><tspan x="107.18" y="0">vi</tspan><tspan class="cls-17" x="118.38" y="0">c</tspan><tspan class="cls-18" x="125.49" y="0">es a</tspan><tspan class="cls-17" x="151.42" y="0">cc</tspan><tspan x="165.64" y="0">ounts</tspan></text><rect class="cls-10" x="40.35" y="385.65" width="282.81" height="48"/><polyline class="cls-19" points="40.36 387.71 40.37 385.71 42.37 385.71"/><line class="cls-20" x1="46.41" y1="385.71" x2="319.15" y2="385.59"/><polyline class="cls-19" points="321.17 385.59 323.17 385.58 323.17 387.58"/><line class="cls-21" x1="323.17" y1="391.58" x2="323.15" y2="429.59"/><polyline class="cls-19" points="323.15 431.58 323.15 433.58 321.15 433.59"/><line class="cls-20" x1="317.11" y1="433.59" x2="44.36" y2="433.71"/><polyline class="cls-19" points="42.34 433.71 40.34 433.71 40.34 431.71"/><line class="cls-21" x1="40.34" y1="427.71" x2="40.36" y2="389.71"/><text class="cls-12" transform="translate(92.76 414.12)">Hyper <tspan class="cls-22" x="42.42" y="0">P</tspan><tspan class="cls-23" x="51.25" y="0">r</tspan><tspan class="cls-24" x="56.69" y="0">ot</tspan><tspan x="69.69" y="0">ect C</tspan><tspan class="cls-25" x="102.21" y="0">r</tspan><tspan x="107.83" y="0">y</tspan><tspan class="cls-14" x="115.16" y="0">p</tspan><tspan class="cls-24" x="123.48" y="0">t</tspan><tspan x="128.66" y="0">o Se</tspan><tspan class="cls-25" x="156.21" y="0">r</tspan><tspan x="161.82" y="0">vi</tspan><tspan class="cls-23" x="173.02" y="0">c</tspan><tspan x="180.13" y="0">es</tspan></text><rect class="cls-26" x="39.02" y="329.31" width="48" height="48"/><rect class="cls-26" x="39.02" y="385.71" width="48" height="48"/><rect class="cls-3" x="23.59" y="270.67" width="48" height="48"/><path class="cls-10" d="M496.54,318.18l4-4-1.33-1.32-4,4-.75-.74a.94.94,0,0,0-1.32,0h0l-3.75,3.75a.94.94,0,0,0,0,1.32h0l2.81,2.81a1,1,0,0,0,1.33,0h0l3.74-3.75a.92.92,0,0,0,0-1.32h0ZM492.87,322l-1.48-1.48,2.42-2.42,1.49,1.48Z" transform="translate(-455.78 -14.15)"/><path class="cls-10" d="M510.66,323.33a5.62,5.62,0,0,1-5.61-5.62,5.45,5.45,0,0,1,.19-1.45l-8.11-8.11a5.46,5.46,0,0,1-1.45.2,5.61,5.61,0,0,1-5.22-7.67l.52-1.33,3.11,3.1a.93.93,0,0,0,1.32-1.32h0l-3.1-3.1,1.33-.52a5.59,5.59,0,0,1,7.27,3.13,5.74,5.74,0,0,1,.39,2.09,5.46,5.46,0,0,1-.2,1.45l8.12,8.11a5.38,5.38,0,0,1,1.44-.2,5.6,5.6,0,0,1,5.62,5.57,5.5,5.5,0,0,1-.39,2.09l-.53,1.34-3.1-3.11a1,1,0,0,0-1.32,0,.94.94,0,0,0,0,1.33h0l3.1,3.1-1.33.52A5.75,5.75,0,0,1,510.66,323.33ZM497.61,306l9.8,9.8-.22.57a3.72,3.72,0,0,0,2.07,4.84,3.9,3.9,0,0,0,1.17.26l-.82-.82a2.82,2.82,0,0,1,0-4h0a2.89,2.89,0,0,1,4,0l.81.82a3.71,3.71,0,0,0-3.93-3.51,3.67,3.67,0,0,0-1.17.26l-.57.22-9.79-9.79.22-.57a3.71,3.71,0,0,0-2.07-4.84,3.61,3.61,0,0,0-1.17-.26l.81.82a2.8,2.8,0,0,1,0,4h0a2.88,2.88,0,0,1-4,0L492,303a3.72,3.72,0,0,0,3.92,3.51,3.9,3.9,0,0,0,1.17-.26Z" transform="translate(-455.78 -14.15)"/><path class="cls-10" d="M515.46,297.91a2.88,2.88,0,0,0-4,0l-7,7,1.33,1.32,7-7a1,1,0,0,1,1.33,0,.94.94,0,0,1,0,1.32l-7,7,1.33,1.32,7-7A2.8,2.8,0,0,0,515.46,297.91Z" transform="translate(-455.78 -14.15)"/><path class="cls-3" d="M525.49,436l-1.83-.87a4.45,4.45,0,0,1-2.52-3.92v-5.67h8.71v5.67a4.3,4.3,0,0,1-2.53,3.92Zm-2.61-8.71v3.92a2.63,2.63,0,0,0,1.48,2.35l1.13.52,1.14-.52a2.73,2.73,0,0,0,1.48-2.35v-3.92Z" transform="translate(-455.78 -14.15)"/><circle class="cls-3" cx="67.1" cy="404.42" r="1.74"/><path class="cls-3" d="M522,411.6a7.81,7.81,0,0,0-7.84,7.84,6.54,6.54,0,0,0,.34,2.27l-9.06,9.06V436h5.23l8.71-8.71-1.22-1.22-2.44,2.44-1.22-1.22-1.22,1.22,1.22,1.22-1.39,1.39-1.22-1.22-1.22,1.22,1.22,1.22L510,434.26h-2.79v-2.79l8.54-8.54.7-.7-.26-1a6.24,6.24,0,0,1-.26-1.75A6.1,6.1,0,1,1,527,422.93h2a7.93,7.93,0,0,0,.78-3.49A7.68,7.68,0,0,0,522,411.6Z" transform="translate(-455.78 -14.15)"/><rect class="cls-11" x="352.48" y="270.67" width="315.51" height="176.17"/><text class="cls-12" transform="translate(408.48 299.03)">Busine<tspan class="cls-27" x="44.41" y="0">s</tspan><tspan x="51.3" y="0">s unit - inf</tspan><tspan class="cls-5" x="116.38" y="0">r</tspan><tspan x="121.73" y="0">a</tspan><tspan class="cls-28" x="129.55" y="0">s</tspan><tspan x="136.43" y="0">tructu</tspan><tspan class="cls-23" x="176.05" y="0">r</tspan><tspan x="181.48" y="0">e p</tspan><tspan class="cls-23" x="200.99" y="0">r</tspan><tspan x="206.43" y="0">oject</tspan></text><polygon class="cls-10" points="369.21 329.32 659.6 329.16 659.57 377.16 369.18 377.32 369.21 329.32"/><polyline class="cls-19" points="369.21 331.32 369.21 329.32 371.21 329.31"/><line class="cls-29" x1="375.24" y1="329.31" x2="655.58" y2="329.17"/><polyline class="cls-19" points="657.6 329.17 659.6 329.16 659.6 331.16"/><line class="cls-21" x1="659.59" y1="335.16" x2="659.57" y2="373.16"/><polyline class="cls-19" points="659.57 375.16 659.57 377.16 657.57 377.17"/><line class="cls-29" x1="653.53" y1="377.17" x2="373.2" y2="377.31"/><polyline class="cls-19" points="371.18 377.31 369.18 377.32 369.18 375.32"/><line class="cls-21" x1="369.18" y1="371.32" x2="369.21" y2="333.32"/><text class="cls-12" transform="translate(421.57 357.72)">Admin IaC</text><polygon class="cls-10" points="369.18 389.71 659.67 389.56 659.64 437.56 369.15 437.71 369.18 389.71"/><polyline class="cls-19" points="369.18 391.71 369.18 389.71 371.18 389.71"/><line class="cls-30" x1="375.21" y1="389.71" x2="655.65" y2="389.56"/><polyline class="cls-19" points="657.67 389.56 659.67 389.56 659.67 391.56"/><line class="cls-21" x1="659.67" y1="395.56" x2="659.64" y2="433.56"/><polyline class="cls-19" points="659.64 435.56 659.64 437.56 657.64 437.56"/><line class="cls-30" x1="653.6" y1="437.57" x2="373.17" y2="437.71"/><polyline class="cls-19" points="371.15 437.71 369.15 437.71 369.15 435.71"/><line class="cls-21" x1="369.15" y1="431.71" x2="369.18" y2="393.71"/><text class="cls-12" transform="translate(421.57 418.12)">A<tspan class="cls-23" x="9.41" y="0">cc</tspan><tspan x="23.63" y="0">ount g</tspan><tspan class="cls-23" x="64.15" y="0">r</tspan><tspan x="69.58" y="0">oups and admin a</tspan><tspan class="cls-23" x="184.03" y="0">cc</tspan><tspan x="198.25" y="0">ount</tspan></text><rect class="cls-26" x="367.83" y="329.31" width="48" height="48"/><rect class="cls-26" x="367.83" y="389.71" width="48" height="48"/><path class="cls-3" d="M839.63,365.43h11v2h-11Zm0,5.09h13v2h-13Z" transform="translate(-455.78 -14.15)"/><path class="cls-3" d="M859.57,355.25H835.64a2,2,0,0,0-2,2v20.35a2,2,0,0,0,2,2h23.93a2,2,0,0,0,2-2V357.29A2,2,0,0,0,859.57,355.25Zm0,2v2H835.64v-2Zm-23.93,20.35V361.36h23.93v16.28Z" transform="translate(-455.78 -14.15)"/><rect class="cls-3" x="352.4" y="270.67" width="48" height="48"/><polyline class="cls-31" points="354.34 265.47 671.79 265.47 671.79 443.93"/><line class="cls-19" x1="376.23" y1="386.14" x2="378.23" y2="386.14"/><line class="cls-32" x1="382.2" y1="386.14" x2="658.63" y2="386.14"/><polyline class="cls-19" points="660.62 386.14 662.62 386.14 662.62 388.14"/><line class="cls-33" x1="662.62" y1="392.34" x2="662.62" y2="432.28"/><line class="cls-19" x1="662.62" y1="434.39" x2="662.62" y2="436.39"/><line class="cls-19" x1="378.69" y1="383.14" x2="380.69" y2="383.14"/><line class="cls-34" x1="384.68" y1="383.14" x2="661.74" y2="383.14"/><polyline class="cls-19" points="663.73 383.14 665.73 383.14 665.73 385.14"/><line class="cls-35" x1="665.73" y1="388.83" x2="665.73" y2="431.21"/><line class="cls-19" x1="665.73" y1="433.06" x2="665.73" y2="435.06"/><path class="cls-3" d="M842.77,417.86l3.42,3.41.58.59H859.6v16h-24v-20h7.17m0-2H835.6a2,2,0,0,0-2,2v20a2,2,0,0,0,2,2h24a2,2,0,0,0,2-2v-16a2,2,0,0,0-2-2h-12l-3.41-3.41A2,2,0,0,0,842.77,415.86Z" transform="translate(-455.78 -14.15)"/><rect class="cls-10" x="376.93" y="306.14" width="12" height="2"/><rect class="cls-10" x="376.93" y="301.14" width="12" height="2"/><rect class="cls-10" x="376.93" y="296.14" width="12" height="2"/><path class="cls-10" d="M828.71,319.29h-4.5a7.5,7.5,0,0,1-1.33-14.88,10,10,0,0,1,19.83,1.88h-2a8,8,0,0,0-16-.87l-.09.83-.84.06a5.5,5.5,0,0,0,.38,11h4.5Z" transform="translate(-455.78 -14.15)"/><path class="cls-3" d="M514,356.28l3.42,3.41.58.59H530.8v16h-24v-20H514m0-2H506.8a2,2,0,0,0-2,2v20a2,2,0,0,0,2,2h24a2,2,0,0,0,2-2v-16a2,2,0,0,0-2-2h-12l-3.41-3.41A2,2,0,0,0,514,354.28Z" transform="translate(-455.78 -14.15)"/><rect class="cls-11" x="27.12" y="71.5" width="309.41" height="176.17"/><text class="cls-12" transform="translate(83.12 99.86)">Security and Complian<tspan class="cls-23" x="146.52" y="0">c</tspan><tspan x="153.63" y="0">e p</tspan><tspan class="cls-23" x="173.15" y="0">r</tspan><tspan x="178.58" y="0">oject</tspan></text><rect class="cls-10" x="43.83" y="130.13" width="282.81" height="48"/><polyline class="cls-19" points="43.84 132.19 43.84 130.19 45.84 130.19"/><line class="cls-20" x1="49.88" y1="130.19" x2="322.63" y2="130.06"/><polyline class="cls-19" points="324.65 130.06 326.65 130.06 326.65 132.06"/><line class="cls-21" x1="326.64" y1="136.06" x2="326.62" y2="174.06"/><polyline class="cls-19" points="326.62 176.06 326.62 178.06 324.62 178.06"/><line class="cls-20" x1="320.58" y1="178.07" x2="47.84" y2="178.19"/><polyline class="cls-19" points="45.82 178.19 43.82 178.19 43.82 176.19"/><line class="cls-21" x1="43.82" y1="172.19" x2="43.84" y2="134.19"/><text class="cls-12" transform="translate(96.2 158.53)">Security and Complian<tspan class="cls-23" x="146.52" y="0">c</tspan><tspan x="153.63" y="0">e Cen</tspan><tspan class="cls-13" x="189.78" y="0">t</tspan><tspan x="194.96" y="0">er</tspan></text><rect class="cls-10" x="43.8" y="186.95" width="282.81" height="48"/><polyline class="cls-19" points="43.81 189.01 43.81 187.01 45.81 187.01"/><line class="cls-20" x1="49.85" y1="187.01" x2="322.6" y2="186.88"/><polyline class="cls-19" points="324.62 186.88 326.62 186.88 326.62 188.88"/><line class="cls-21" x1="326.61" y1="192.88" x2="326.59" y2="230.88"/><polyline class="cls-19" points="326.59 232.88 326.59 234.88 324.59 234.88"/><line class="cls-20" x1="320.55" y1="234.88" x2="47.81" y2="235.01"/><polyline class="cls-19" points="45.78 235.01 43.78 235.01 43.79 233.01"/><line class="cls-21" x1="43.79" y1="229.01" x2="43.81" y2="191.01"/><text class="cls-12" transform="translate(96.2 215.35)"><tspan class="cls-36">R</tspan><tspan x="9.09" y="0">o</tspan><tspan class="cls-13" x="16.97" y="0">o</tspan><tspan x="24.79" y="0">t </tspan><tspan class="cls-23" x="33.33" y="0">c</tspan><tspan x="40.44" y="0">onfi</tspan><tspan class="cls-24" x="65.29" y="0">g</tspan><tspan x="72.87" y="0">u</tspan><tspan class="cls-5" x="81.1" y="0">r</tspan><tspan class="cls-13" x="86.45" y="0">a</tspan><tspan x="94.22" y="0">tion</tspan></text><rect class="cls-26" x="42.6" y="130.13" width="48" height="48"/><rect class="cls-26" x="42.6" y="186.95" width="48" height="48"/><rect class="cls-3" x="27.04" y="71.5" width="48" height="48"/><path class="cls-10" d="M500,119l4-4-1.32-1.32-4,4-.74-.74a.92.92,0,0,0-1.32,0h0l-3.74,3.75a.92.92,0,0,0,0,1.32h0l2.81,2.81a.94.94,0,0,0,1.32,0h0l3.75-3.75a.94.94,0,0,0,0-1.32h0Zm-3.66,3.82-1.48-1.48,2.42-2.42,1.48,1.48Z" transform="translate(-455.78 -14.15)"/><path class="cls-10" d="M514.11,124.16a5.64,5.64,0,0,1-5.62-5.62,5.46,5.46,0,0,1,.2-1.45L500.58,109a5.9,5.9,0,0,1-1.45.2,5.59,5.59,0,0,1-5.22-7.67l.52-1.33,3.1,3.1a.94.94,0,0,0,1.33-1.32h0l-3.1-3.1,1.34-.53a5.59,5.59,0,0,1,7.26,3.14,5.53,5.53,0,0,1,.2,3.54l8.11,8.11a5.46,5.46,0,0,1,1.45-.2,5.6,5.6,0,0,1,5.62,5.57,5.51,5.51,0,0,1-.4,2.09l-.52,1.33-3.1-3.1a1,1,0,0,0-1.33,0,1,1,0,0,0,0,1.33h0l3.11,3.1-1.34.52A5.7,5.7,0,0,1,514.11,124.16Zm-13.05-17.35,9.79,9.8-.22.57A3.73,3.73,0,0,0,512.7,122a4,4,0,0,0,1.18.26l-.82-.82a2.8,2.8,0,0,1,0-4h0a2.88,2.88,0,0,1,4,0l.82.81a3.72,3.72,0,0,0-3.93-3.5,3.61,3.61,0,0,0-1.17.26l-.57.22-9.8-9.79.23-.57a3.73,3.73,0,0,0-2.08-4.84,3.56,3.56,0,0,0-1.17-.26l.82.82a2.8,2.8,0,0,1,0,4h0a2.88,2.88,0,0,1-4,0l-.82-.82a3.74,3.74,0,0,0,3.93,3.51,3.9,3.9,0,0,0,1.17-.26Z" transform="translate(-455.78 -14.15)"/><path class="cls-10" d="M518.91,98.74a2.87,2.87,0,0,0-4,0l-7,7,1.32,1.32,7-7a1,1,0,0,1,1.32,0,.92.92,0,0,1,0,1.32l-7,7,1.32,1.32,7-7A2.82,2.82,0,0,0,518.91,98.74Z" transform="translate(-455.78 -14.15)"/><path class="cls-3" d="M522.17,231.1a5.94,5.94,0,1,1,.12,0Zm0-10a3.91,3.91,0,0,0-4,3.82.54.54,0,0,0,0,.18,3.91,3.91,0,0,0,3.82,4h.18a3.93,3.93,0,0,0,4-3.83v-.17a3.91,3.91,0,0,0-3.83-4Z" transform="translate(-455.78 -14.15)"/><path class="cls-3" d="M535.47,220.14l-2.36-4.09a2,2,0,0,0-2.37-.89l-2.44.82a12.09,12.09,0,0,0-1.31-.76l-.5-2.52a2,2,0,0,0-2-1.6h-4.72a2,2,0,0,0-2,1.6l-.5,2.52A10.35,10.35,0,0,0,516,216l-2.42-.82a2,2,0,0,0-2.37.89l-2.36,4.09a2,2,0,0,0,.41,2.5l1.93,1.7c0,.25,0,.5,0,.76s0,.51,0,.76l-1.92,1.69a2,2,0,0,0-.41,2.5l2.36,4.09a2,2,0,0,0,2.37.89l2.44-.82a11.43,11.43,0,0,0,1.31.76l.5,2.52a2,2,0,0,0,2,1.61h4.36v-2h-4.36l-.71-3.55a9,9,0,0,1-2.7-1.58L513,233.14l-2.36-4.09,2.73-2.39a8.9,8.9,0,0,1,0-3.13l-2.72-2.39,2.36-4.09,3.43,1.16a9.21,9.21,0,0,1,2.72-1.56l.71-3.55h4.72l.71,3.55a8.88,8.88,0,0,1,2.69,1.57l3.45-1.17,2.36,4.09-2.8,2.45,1.32,1.51,2.8-2.46A2,2,0,0,0,535.47,220.14Z" transform="translate(-455.78 -14.15)"/><polygon class="cls-3" points="73.39 221.13 70.8 218.54 69.39 219.95 73.39 223.95 80.39 216.95 78.98 215.54 73.39 221.13"/><path id="_Path_" data-name="&lt;Path&gt;" class="cls-3" d="M536.38,170.28v5.5a3.93,3.93,0,0,1-2.3,3.5l-1.7.8-1.7-.8a3.83,3.83,0,0,1-2.3-3.5v-5.5h8m2-2h-12v7.5a5.92,5.92,0,0,0,3.4,5.3l2.6,1.2,2.6-1.2a5.81,5.81,0,0,0,3.4-5.3v-7.5Z" transform="translate(-455.78 -14.15)"/><path class="cls-3" d="M522.38,177.28h-8.5a7.51,7.51,0,0,1-1.3-14.9,10,10,0,0,1,19.8,1.9h-2a8,8,0,0,0-16-.9v.9h-.9a5.48,5.48,0,0,0-5.1,5.5,5.55,5.55,0,0,0,5.5,5.5h8.5Z" transform="translate(-455.78 -14.15)"/></svg>