<svg id="Layer_1" data-name="Layer 1" xmlns="http://www.w3.org/2000/svg" width="689.9759" height="464.1303" viewBox="0 0 689.9759 464.1303"><defs><style>.cls-1,.cls-12{fill:#eef4fb;}.cls-1{stroke:#eef5fb;}.cls-1,.cls-10,.cls-11,.cls-12,.cls-13,.cls-14,.cls-15,.cls-16,.cls-17,.cls-18,.cls-19,.cls-2,.cls-5,.cls-7,.cls-9{stroke-miterlimit:10;}.cls-2,.cls-6,.cls-7{fill:#fff;}.cls-10,.cls-11,.cls-12,.cls-13,.cls-14,.cls-15,.cls-16,.cls-17,.cls-18,.cls-19,.cls-2,.cls-5,.cls-7,.cls-9{stroke:#3553a4;}.cls-15,.cls-2{fill-rule:evenodd;}.cls-3,.cls-5{fill:#3553a4;}.cls-4{font-size:16px;font-family:IBMPlexSans-SemiBold, IBM Plex Sans;font-weight:600;}.cls-4,.cls-8{fill:#010101;}.cls-8{font-size:14px;font-family:IBMPlexSans, IBM Plex Sans;}.cls-10,.cls-11,.cls-13,.cls-14,.cls-15,.cls-16,.cls-17,.cls-18,.cls-19,.cls-9{fill:none;}.cls-10{stroke-dasharray:4.0407 4.0407;}.cls-11{stroke-dasharray:4 4;}.cls-13{stroke-dasharray:4.0336 4.0336;}.cls-14{stroke-dasharray:4.0351 4.0351;}.cls-16{stroke-dasharray:3.9773 3.9773;}.cls-17{stroke-dasharray:4.2041 4.2041;}.cls-18{stroke-dasharray:3.9865 3.9865;}.cls-19{stroke-dasharray:3.6857 3.6857;}</style></defs><rect class="cls-1" x="0.5119" y="0.5" width="688.964" height="463.1303"/><polyline class="cls-2" points="356.099 261.467 675.349 261.467 675.349 441.243"/><rect class="cls-3" y="0.5" width="48" height="48"/><text class="cls-4" transform="translate(56.4031 32.9122)">Central administration account</text><rect class="cls-5" x="0.5119" y="48.5" width="3" height="415.1303"/><path class="cls-6" d="M471.7991,37.595H482.77v2.0356h-10.971Zm0,5.0889h12.9657V44.72H471.7991Z" transform="translate(-455.778 -14.1504)"/><path class="cls-6" d="M491.7464,27.4172H467.81a2.0155,2.0155,0,0,0-1.9948,2.0356V49.8084a2.0154,2.0154,0,0,0,1.9948,2.0355h23.9367a2.0154,2.0154,0,0,0,1.9947-2.0355V29.4528A2.0155,2.0155,0,0,0,491.7464,27.4172Zm0,2.0356v2.0355H467.81V29.4528ZM467.81,49.8084V33.5239h23.9367V49.8084Z" transform="translate(-455.778 -14.1504)"/><polygon class="cls-7" points="408.097 102.686 628.298 102.969 628.79 150.686 408.097 150.686 408.097 102.686"/><text class="cls-8" transform="translate(462.8467 132.0208)">Catalog</text><rect class="cls-5" x="407.6907" y="102.6858" width="48" height="48"/><path class="cls-6" d="M896.3085,126.8362h-18a2,2,0,0,0-2,2v4h-2v2h2v5h-2v2h2v5h-2v2h2v4a2,2,0,0,0,2,2h18a2,2,0,0,0,2-2v-24A2,2,0,0,0,896.3085,126.8362Zm0,26h-18v-4h2v-2h-2v-5h2v-2h-2v-5h2v-2h-2v-4h18Z" transform="translate(-455.778 -14.1504)"/><rect class="cls-6" x="428.5305" y="118.6858" width="8" height="2"/><rect class="cls-6" x="428.5305" y="125.6858" width="8" height="2"/><rect class="cls-6" x="428.5305" y="132.6858" width="8" height="2"/><polygon class="cls-7" points="408.3 166.749 628.501 167.032 628.994 214.749 408.3 214.749 408.3 166.749"/><text class="cls-8" transform="translate(463.0501 195.909)">Schematics agent</text><rect class="cls-5" x="407.8939" y="166.7494" width="48" height="48"/><path class="cls-6" d="M898.5116,207.9009a4.0057,4.0057,0,0,0-4.0009-4.001h-13.998a2.0031,2.0031,0,0,1-2.0011-2.0009v-3.1411A3.995,3.995,0,0,0,881.37,195.9h12.284a4,4,0,1,0,0-2H881.37a3.9916,3.9916,0,1,0-4.8581,4.858v3.1411a4.0057,4.0057,0,0,0,4.0011,4.0009h13.998a2.0029,2.0029,0,0,1,2.0009,2.001V210.9h-3v3H881.37a4,4,0,1,0,0,2h12.1419v3h8v-8h-3Zm-1-15.001a2,2,0,1,1-2,2A2,2,0,0,1,897.5116,192.9Zm-22,2a2,2,0,1,1,2,2A2,2,0,0,1,875.5116,194.9Zm2,22a2,2,0,1,1,2-2A2,2,0,0,1,877.5116,216.9Zm22-4v4h-4v-4Z" transform="translate(-455.778 -14.1504)"/><rect class="cls-7" x="23.6727" y="270.6739" width="309.4136" height="176.1676"/><text class="cls-8" transform="translate(79.6727 299.0333)">Network and services project</text><rect class="cls-6" x="40.3829" y="329.2513" width="282.8062" height="48.0003"/><polyline class="cls-9" points="40.395 331.316 40.396 329.316 42.396 329.315"/><line class="cls-10" x1="46.4365" y1="329.3129" x2="319.1817" y2="329.1887"/><polyline class="cls-9" points="321.202 329.188 323.202 329.187 323.201 331.187"/><line class="cls-11" x1="323.1988" y1="335.1869" x2="323.1784" y2="373.1871"/><polyline class="cls-9" points="323.177 375.187 323.176 377.187 321.176 377.188"/><line class="cls-10" x1="317.1356" y1="377.1899" x2="44.3904" y2="377.3142"/><polyline class="cls-9" points="42.37 377.315 40.37 377.316 40.371 375.316"/><line class="cls-11" x1="40.3733" y1="371.3159" x2="40.3937" y2="333.3157"/><text class="cls-8" transform="translate(92.7576 357.7204)">Network and services accounts</text><rect class="cls-6" x="40.3526" y="385.6494" width="282.8062" height="48.0003"/><polyline class="cls-9" points="40.364 387.714 40.366 385.714 42.366 385.713"/><line class="cls-10" x1="46.4062" y1="385.711" x2="319.1514" y2="385.5867"/><polyline class="cls-9" points="321.172 385.586 323.172 385.585 323.171 387.585"/><line class="cls-11" x1="323.1685" y1="391.585" x2="323.1481" y2="429.5852"/><polyline class="cls-9" points="323.147 431.585 323.146 433.585 321.146 433.586"/><line class="cls-10" x1="317.1053" y1="433.588" x2="44.3601" y2="433.7122"/><polyline class="cls-9" points="42.34 433.713 40.34 433.714 40.341 431.714"/><line class="cls-11" x1="40.343" y1="427.7141" x2="40.3634" y2="389.7138"/><text class="cls-8" transform="translate(92.7571 414.1181)">Hyper Protect Crypto Services</text><rect class="cls-12" x="39.0173" y="329.314" width="48" height="48"/><rect class="cls-12" x="39.0173" y="385.7117" width="48" height="48"/><rect class="cls-3" x="23.5945" y="270.6739" width="48" height="48"/><path class="cls-6" d="M496.5393,318.1775l3.9859-3.9857-1.324-1.324-3.9859,3.9856-.7425-.7424a.9359.9359,0,0,0-1.3234-.0006l0,.0006-3.7453,3.7453a.9357.9357,0,0,0-.0006,1.3233l.0006.0006,2.8089,2.8089a.9359.9359,0,0,0,1.3235,0l0,0,3.7452-3.7452a.9357.9357,0,0,0,.0006-1.3233l-.0006-.0006Zm-3.6648,3.8256-1.4849-1.4849,2.4212-2.4212,1.4849,1.4849Z" transform="translate(-455.778 -14.1504)"/><path class="cls-6" d="M510.6643,323.3271a5.624,5.624,0,0,1-5.6178-5.6178,5.4665,5.4665,0,0,1,.1975-1.4484l-8.1122-8.1119a5.4781,5.4781,0,0,1-1.4484.1973,5.5951,5.5951,0,0,1-5.2219-7.6624l.5221-1.3313,3.1016,3.1015a.9581.9581,0,0,0,1.3234,0,.9353.9353,0,0,0,.0012-1.3228l-.0012-.0012-3.1019-3.1029,1.3327-.5216a5.5966,5.5966,0,0,1,7.6619,5.2228,5.47,5.47,0,0,1-.1975,1.4484l8.1121,8.1117a5.483,5.483,0,0,1,1.4484-.197,5.5948,5.5948,0,0,1,5.2219,7.6623l-.5216,1.3314-3.102-3.1015a.958.958,0,0,0-1.3235,0,.9354.9354,0,0,0-.0017,1.3228l.0013.0012L514.04,322.41l-1.3314.5223A5.577,5.577,0,0,1,510.6643,323.3271Zm-13.05-17.3438,9.7946,9.7949-.224.5706a3.7222,3.7222,0,0,0,3.245,5.0984l-.8156-.8156a2.8081,2.8081,0,0,1-.0008-3.9713l.0008-.0009a2.8765,2.8765,0,0,1,3.9725,0l.8151.8153a3.7227,3.7227,0,0,0-5.0989-3.245l-.5706.2233L498.939,304.66l.2239-.57a3.7223,3.7223,0,0,0-3.2449-5.0987l.8151.8156a2.8082,2.8082,0,0,1,.0009,3.9714l-.0009.0008a2.8764,2.8764,0,0,1-3.9724,0l-.8152-.8153a3.722,3.722,0,0,0,5.0985,3.2449Z" transform="translate(-455.778 -14.1504)"/><path class="cls-6" d="M515.4606,297.9065a2.876,2.876,0,0,0-3.972,0l-7.0039,7.0035,1.324,1.324,7.0036-7.0036a.959.959,0,0,1,1.324,0,.9382.9382,0,0,1,0,1.3244l-7.0035,7.0036,1.3239,1.324,7.0036-7.0031A2.8117,2.8117,0,0,0,515.4606,297.9065Z" transform="translate(-455.778 -14.1504)"/><path class="cls-3" d="M525.4944,436l-1.83-.8714a4.4424,4.4424,0,0,1-2.5272-3.9216v-5.6645h8.7145v5.6645a4.2922,4.2922,0,0,1-2.5272,3.9216Zm-2.6143-8.7146v3.9216a2.6242,2.6242,0,0,0,1.4814,2.3529l1.1329.5229,1.1329-.5229a2.7266,2.7266,0,0,0,1.4815-2.3529v-3.9216Z" transform="translate(-455.778 -14.1504)"/><circle class="cls-3" cx="67.102" cy="404.4208" r="1.7429"/><path class="cls-3" d="M522.0086,411.6a7.81,7.81,0,0,0-7.8431,7.8431,6.4966,6.4966,0,0,0,.3486,2.2658l-9.0632,9.0632V436H510.68l8.7145-8.7146-1.22-1.22-2.44,2.44-1.22-1.22-1.22,1.22,1.22,1.22L513.12,431.12l-1.22-1.22-1.22,1.22,1.22,1.22-1.9172,1.9172h-2.7887v-2.7887l8.54-8.54.6972-.6972-.2614-1.0458a6.0971,6.0971,0,1,1,11.9389-1.7429,5.9513,5.9513,0,0,1-1.1329,3.4859H528.98a7.863,7.863,0,0,0,.7843-3.4859A7.6832,7.6832,0,0,0,522.0086,411.6Z" transform="translate(-455.778 -14.1504)"/><rect class="cls-7" x="352.4814" y="270.6739" width="315.5098" height="176.1676"/><text class="cls-8" transform="translate(408.4817 299.0333)">Business unit - infrastructure project</text><polygon class="cls-6" points="369.209 329.316 659.596 329.164 659.566 377.164 369.179 377.316 369.209 329.316"/><polyline class="cls-9" points="369.208 331.316 369.209 329.316 371.209 329.314"/><line class="cls-13" x1="375.2427" y1="329.3124" x2="655.5795" y2="329.166"/><polyline class="cls-9" points="657.596 329.165 659.596 329.164 659.595 331.164"/><line class="cls-11" x1="659.5925" y1="335.1639" x2="659.5685" y2="373.1641"/><polyline class="cls-9" points="659.567 375.164 659.566 377.164 657.566 377.165"/><line class="cls-13" x1="653.5323" y1="377.1673" x2="373.1956" y2="377.3137"/><polyline class="cls-9" points="371.179 377.315 369.179 377.316 369.18 375.316"/><line class="cls-11" x1="369.1826" y1="371.3158" x2="369.2066" y2="333.3156"/><text class="cls-8" transform="translate(421.5652 357.7204)">Admin IaC</text><polygon class="cls-6" points="369.179 389.714 659.669 389.562 659.639 437.562 369.148 437.714 369.179 389.714"/><polyline class="cls-9" points="369.178 391.714 369.179 389.714 371.179 389.713"/><line class="cls-14" x1="375.2139" y1="389.7105" x2="655.6515" y2="389.5637"/><polyline class="cls-9" points="657.669 389.563 659.669 389.562 659.668 391.562"/><line class="cls-11" x1="659.6652" y1="395.5617" x2="659.6412" y2="433.562"/><polyline class="cls-9" points="659.64 435.562 659.639 437.562 657.639 437.563"/><line class="cls-14" x1="653.6035" y1="437.5651" x2="373.166" y2="437.7118"/><polyline class="cls-9" points="371.148 437.713 369.148 437.714 369.15 435.714"/><line class="cls-11" x1="369.1523" y1="431.7139" x2="369.1763" y2="393.7136"/><text class="cls-8" transform="translate(421.5657 418.1181)">Account groups and admin account</text><rect class="cls-12" x="367.8261" y="329.314" width="48" height="48"/><rect class="cls-12" x="367.8261" y="389.7117" width="48" height="48"/><path class="cls-3" d="M839.6252,365.4288h10.971v2.0356h-10.971Zm0,5.0889h12.9657v2.0356H839.6252Z" transform="translate(-455.778 -14.1504)"/><path class="cls-3" d="M859.5724,355.251H835.6357a2.0155,2.0155,0,0,0-1.9947,2.0356v20.3556a2.0154,2.0154,0,0,0,1.9947,2.0355h23.9367a2.0154,2.0154,0,0,0,1.9948-2.0355V357.2866A2.0155,2.0155,0,0,0,859.5724,355.251Zm0,2.0356v2.0355H835.6357v-2.0355Zm-23.9367,20.3556V361.3577h23.9367v16.2845Z" transform="translate(-455.778 -14.1504)"/><rect class="cls-3" x="352.4032" y="270.6739" width="48" height="48"/><polyline class="cls-15" points="354.337 265.467 671.79 265.467 671.79 443.93"/><line class="cls-9" x1="376.2252" y1="386.1408" x2="378.2252" y2="386.1408"/><line class="cls-16" x1="382.2026" y1="386.1408" x2="658.628" y2="386.1408"/><polyline class="cls-9" points="660.617 386.141 662.617 386.141 662.617 388.141"/><line class="cls-17" x1="662.6166" y1="392.3449" x2="662.6166" y2="432.2841"/><line class="cls-9" x1="662.6166" y1="434.3861" x2="662.6166" y2="436.3861"/><line class="cls-9" x1="378.6941" y1="383.1408" x2="380.6941" y2="383.1408"/><line class="cls-18" x1="384.6806" y1="383.1408" x2="661.7397" y2="383.1408"/><polyline class="cls-9" points="663.733 383.141 665.733 383.141 665.733 385.141"/><line class="cls-19" x1="665.733" y1="388.8265" x2="665.733" y2="431.2124"/><line class="cls-9" x1="665.733" y1="433.0552" x2="665.733" y2="435.0552"/><path class="cls-3" d="M842.7741,417.8621l3.42,3.41.58.59h12.83v16h-24v-20h7.17m0-2h-7.17a2,2,0,0,0-2,2v20a2,2,0,0,0,2,2h24a2,2,0,0,0,2-2v-16a2,2,0,0,0-2-2h-12l-3.41-3.41A2,2,0,0,0,842.7741,415.8621Z" transform="translate(-455.778 -14.1504)"/><rect class="cls-6" x="376.9282" y="306.1381" width="12" height="2"/><rect class="cls-6" x="376.9282" y="301.1381" width="12" height="2"/><rect class="cls-6" x="376.9282" y="296.1381" width="12" height="2"/><path class="cls-6" d="M828.7063,319.2885h-4.5a7.4964,7.4964,0,0,1-1.3218-14.876,10,10,0,0,1,19.8218,1.876h-2a7.999,7.999,0,0,0-15.9507-.87l-.09.8335-.8363.0565a5.4962,5.4962,0,0,0,.377,10.98h4.5Z" transform="translate(-455.778 -14.1504)"/><path class="cls-3" d="M513.9654,356.28l3.42,3.41.58.59h12.83v16h-24v-20h7.17m0-2h-7.17a2,2,0,0,0-2,2v20a2,2,0,0,0,2,2h24a2,2,0,0,0,2-2v-16a2,2,0,0,0-2-2h-12l-3.41-3.41A2,2,0,0,0,513.9654,354.28Z" transform="translate(-455.778 -14.1504)"/><rect class="cls-7" x="27.1183" y="71.5031" width="309.4136" height="176.1676"/><text class="cls-8" transform="translate(83.1185 99.8624)">Security and Compliance project</text><rect class="cls-6" x="43.8285" y="130.1274" width="282.8062" height="48.0003"/><polyline class="cls-9" points="43.84 132.192 43.841 130.192 45.841 130.191"/><line class="cls-10" x1="49.8821" y1="130.1891" x2="322.6272" y2="130.0648"/><polyline class="cls-9" points="324.648 130.064 326.648 130.063 326.647 132.063"/><line class="cls-11" x1="326.6445" y1="136.063" x2="326.6241" y2="174.0633"/><polyline class="cls-9" points="326.623 176.063 326.622 178.063 324.622 178.064"/><line class="cls-10" x1="320.5812" y1="178.0661" x2="47.836" y2="178.1903"/><polyline class="cls-9" points="45.816 178.191 43.816 178.192 43.817 176.192"/><line class="cls-11" x1="43.8189" y1="172.1921" x2="43.8393" y2="134.1918"/><text class="cls-8" transform="translate(96.2034 158.534)">Security and Compliance Center</text><rect class="cls-6" x="43.7982" y="186.9454" width="282.8062" height="48.0003"/><polyline class="cls-9" points="43.81 189.01 43.811 187.01 45.811 187.009"/><line class="cls-10" x1="49.8518" y1="187.0071" x2="322.597" y2="186.8829"/><polyline class="cls-9" points="324.617 186.882 326.617 186.881 326.616 188.881"/><line class="cls-11" x1="326.6142" y1="192.8811" x2="326.5938" y2="230.8813"/><polyline class="cls-9" points="326.593 232.881 326.592 234.881 324.592 234.882"/><line class="cls-10" x1="320.551" y1="234.8841" x2="47.8057" y2="235.0083"/><polyline class="cls-9" points="45.785 235.009 43.785 235.01 43.786 233.01"/><line class="cls-11" x1="43.7886" y1="229.0101" x2="43.809" y2="191.0099"/><text class="cls-8" transform="translate(96.2024 215.3521)">Root configuration</text><rect class="cls-12" x="42.6018" y="130.1276" width="48" height="48"/><rect class="cls-12" x="42.6018" y="186.9456" width="48" height="48"/><rect class="cls-3" x="27.0401" y="71.5031" width="48" height="48"/><path class="cls-6" d="M499.9849,119.0067l3.9859-3.9857-1.324-1.324-3.9859,3.9857-.7425-.7424a.9357.9357,0,0,0-1.3233-.0006l-.0006.0006-3.7453,3.7452a.9359.9359,0,0,0,0,1.3234l0,.0005,2.809,2.809a.9357.9357,0,0,0,1.3234,0l0,0,3.7452-3.7453a.9357.9357,0,0,0,.0006-1.3233l-.0006-.0006Zm-3.6648,3.8257-1.4849-1.4849,2.4212-2.4212,1.4849,1.4849Z" transform="translate(-455.778 -14.1504)"/><path class="cls-6" d="M514.11,124.1564a5.6241,5.6241,0,0,1-5.6178-5.6178,5.4659,5.4659,0,0,1,.1975-1.4484l-8.1122-8.112a5.4739,5.4739,0,0,1-1.4484.1973,5.595,5.595,0,0,1-5.2219-7.6623l.5222-1.3314,3.1015,3.1015a.9579.9579,0,0,0,1.3234,0,.9353.9353,0,0,0,.0013-1.3228l-.0013-.0012-3.1018-3.1028,1.3326-.5216a5.5966,5.5966,0,0,1,7.6619,5.2228,5.4652,5.4652,0,0,1-.1975,1.4483l8.1122,8.1117a5.4817,5.4817,0,0,1,1.4483-.197,5.5949,5.5949,0,0,1,5.2219,7.6624l-.5216,1.3313-3.102-3.1015a.9582.9582,0,0,0-1.3235,0,.9353.9353,0,0,0-.0016,1.3228l.0012.0012,3.1015,3.1019-1.3313.5224A5.5821,5.5821,0,0,1,514.11,124.1564Zm-13.05-17.3438,9.7946,9.7948-.224.5706a3.7223,3.7223,0,0,0,3.2451,5.0985l-.8157-.8156a2.8083,2.8083,0,0,1-.0008-3.9714l.0008-.0008a2.8765,2.8765,0,0,1,3.9725.0005l.8152.8153a3.7228,3.7228,0,0,0-5.099-3.2451l-.5706.2233-9.7937-9.7937.2239-.5706a3.7222,3.7222,0,0,0-3.2449-5.0986l.8151.8156a2.8081,2.8081,0,0,1,.0009,3.9713l-.0009.0009a2.8764,2.8764,0,0,1-3.9724-.0005l-.8152-.8154a3.7218,3.7218,0,0,0,5.0985,3.2449Z" transform="translate(-455.778 -14.1504)"/><path class="cls-6" d="M518.9063,98.7357a2.876,2.876,0,0,0-3.972,0l-7.004,7.0036,1.3241,1.3239,7.0035-7.0036a.9592.9592,0,0,1,1.324,0,.9382.9382,0,0,1,0,1.3244l-7.0035,7.0036,1.3239,1.324,7.0036-7.0031A2.8118,2.8118,0,0,0,518.9063,98.7357Z" transform="translate(-455.778 -14.1504)"/><path class="cls-3" d="M522.1662,231.096a6,6,0,1,1,6-6,5.9365,5.9365,0,0,1-5.8722,6Q522.23,231.0968,522.1662,231.096Zm0-10a3.9122,3.9122,0,0,0-4,3.8226q-.0021.0887,0,.1774a3.9122,3.9122,0,0,0,3.8225,4q.0888.0019.1775,0a3.9123,3.9123,0,0,0,4-3.8226q.0019-.0887,0-.1774a3.9124,3.9124,0,0,0-3.8226-4Q522.2548,221.0941,522.1662,221.096Z" transform="translate(-455.778 -14.1504)"/><path class="cls-3" d="M535.4709,220.14l-2.3606-4.0878a1.9978,1.9978,0,0,0-2.3729-.8946l-2.434.8233a11.0509,11.0509,0,0,0-1.312-.7583l-.5037-2.5186a2,2,0,0,0-1.9615-1.608h-4.72a2,2,0,0,0-1.9615,1.608l-.5037,2.5186a10.965,10.965,0,0,0-1.3267.7534l-2.4194-.8184a1.9977,1.9977,0,0,0-2.3728.8946l-2.3606,4.0878a2,2,0,0,0,.4119,2.5025l1.9309,1.6968c-.0171.2514-.0381.5014-.0381.7567,0,.2578.01.5127.0278.7656l-1.9206,1.688a2,2,0,0,0-.4119,2.5025l2.3606,4.0879a1.9977,1.9977,0,0,0,2.3728.8946l2.4341-.8233a10.9647,10.9647,0,0,0,1.312.7583l.5037,2.5186a2,2,0,0,0,1.9615,1.6078h4.36v-2h-4.36l-.71-3.5508a9.0933,9.0933,0,0,1-2.6948-1.5713L512.954,233.14l-2.36-4.0878,2.7253-2.3951a8.924,8.924,0,0,1-.007-3.1279l-2.7186-2.3892,2.3611-4.0878,3.4267,1.1591a9.03,9.03,0,0,1,2.7141-1.5644l.7106-3.5509h4.72l.71,3.5508a9.0993,9.0993,0,0,1,2.6948,1.5713l3.4468-1.166,2.36,4.0878-2.7978,2.4522,1.3185,1.5039,2.8-2.4536A2.0007,2.0007,0,0,0,535.4709,220.14Z" transform="translate(-455.778 -14.1504)"/><polygon class="cls-3" points="73.388 221.126 70.798 218.536 69.388 219.946 73.388 223.946 80.388 216.946 78.978 215.536 73.388 221.126"/><path id="_Path_" data-name="&lt;Path&gt;" class="cls-3" d="M536.38,170.278v5.5a3.9337,3.9337,0,0,1-2.3,3.5l-1.7.8-1.7-.8a3.8251,3.8251,0,0,1-2.3-3.5v-5.5h8m2-2h-12v7.5a5.9235,5.9235,0,0,0,3.4,5.3l2.6,1.2,2.6-1.2a5.8149,5.8149,0,0,0,3.4-5.3v-7.5Z" transform="translate(-455.778 -14.1504)"/><path class="cls-3" d="M522.38,177.278h-8.5a7.5074,7.5074,0,0,1-1.3-14.9,9.99,9.99,0,0,1,19.8,1.9h-2a8.0269,8.0269,0,0,0-16-.9v.9h-.9a5.4759,5.4759,0,0,0-5.1,5.5,5.5488,5.5488,0,0,0,5.5,5.5h8.5Z" transform="translate(-455.778 -14.1504)"/></svg>