<svg xmlns="http://www.w3.org/2000/svg" width="1014.1112" height="556.5523" viewBox="0 0 1014.1112 556.5523"><defs><style>.cls-1,.cls-9{fill:#eef4fb;}.cls-1{stroke:#eef5fb;}.cls-1,.cls-10,.cls-11,.cls-12,.cls-2,.cls-4,.cls-5,.cls-6,.cls-9{stroke-miterlimit:10;}.cls-2,.cls-4,.cls-8{fill:#fff;}.cls-10,.cls-11,.cls-12,.cls-2,.cls-4,.cls-5,.cls-6,.cls-9{stroke:#3553a4;}.cls-2,.cls-5{fill-rule:evenodd;}.cls-3,.cls-6{fill:#3553a4;}.cls-10,.cls-11,.cls-12,.cls-5,.cls-7{fill:none;}.cls-11{stroke-dasharray:3.9935 3.9935;}.cls-12{stroke-dasharray:4 4;}.cls-13{font-size:16px;font-family:IBMPlexSans-SemiBold, IBM Plex Sans;font-weight:600;}.cls-13,.cls-14{fill:#010101;}.cls-14{font-size:14px;font-family:IBMPlexSans, IBM Plex Sans;}</style></defs><g id="Background"><rect class="cls-1" x="0.5119" y="0.5" width="1013.0993" height="555.5523"/><polyline class="cls-2" points="41.138 129.344 998.797 129.344 998.797 520.652"/><rect class="cls-3" y="0.5" width="48" height="48"/><polygon class="cls-4" points="31.138 135.702 988.103 138.039 990.246 532.388 31.138 532.388 31.138 135.702"/><polyline class="cls-5" points="36.713 133.344 994.797 133.344 994.797 525.908"/><rect class="cls-3" x="31.1376" y="135.702" width="48" height="48"/><rect class="cls-6" x="0.5119" y="48.5" width="3" height="507.5523"/><polygon class="cls-4" points="287.634 58.65 507.834 58.933 508.327 106.65 287.634 106.65 287.634 58.65"/><rect class="cls-6" x="287.2271" y="58.6502" width="48" height="48"/><polygon class="cls-4" points="518.623 59.097 738.823 59.38 739.316 107.097 518.623 107.097 518.623 59.097"/><rect class="cls-6" x="518.2166" y="59.0968" width="48" height="48"/><rect id="_Transparent_Rectangle_" data-name="&lt;Transparent Rectangle&gt;" class="cls-7" x="524.8499" y="67.0969" width="32" height="32"/><path class="cls-8" d="M586.3554,100.7385h-5v-4h2v-2h-2v-5h2v-2h-2v-5h2v-2h-2v-4h18v16h2v-16a2.0059,2.0059,0,0,0-2-2h-18a2.0059,2.0059,0,0,0-2,2v4h-2v2h2v5h-2v2h2v5h-2v2h2v4a2.0059,2.0059,0,0,0,2,2h5Z" transform="translate(-278.7282 -5.427)"/><path class="cls-8" d="M594.3554,99.3092h-5a1,1,0,0,1-1-1v-5a1,1,0,0,1,1-1h5a1,1,0,0,1,1,1v5A1,1,0,0,1,594.3554,99.3092Zm-5-6v5h5v-5Z" transform="translate(-278.7282 -5.427)"/><path class="cls-8" d="M599.3554,96.3092v2h-2v-2h2m0-1h-2a1,1,0,0,0-1,1v2a1,1,0,0,0,1,1h2a1,1,0,0,0,1-1v-2A1,1,0,0,0,599.3554,95.3092Z" transform="translate(-278.7282 -5.427)"/><path class="cls-8" d="M599.3554,101.3092v2h-2v-2h2m0-1h-2a1,1,0,0,0-1,1v2a1,1,0,0,0,1,1h2a1,1,0,0,0,1-1v-2A1,1,0,0,0,599.3554,100.3092Z" transform="translate(-278.7282 -5.427)"/><path class="cls-8" d="M594.3554,101.3092v2h-2v-2h2m0-1h-2a1,1,0,0,0-1,1v2a1,1,0,0,0,1,1h2a1,1,0,0,0,1-1v-2A1,1,0,0,0,594.3554,100.3092Z" transform="translate(-278.7282 -5.427)"/><path class="cls-8" d="M817.9448,99.9531h-5v-4h2v-2h-2v-5h2v-2h-2v-5h2v-2h-2v-4h18v16h2v-16a2.0059,2.0059,0,0,0-2-2h-18a2.0059,2.0059,0,0,0-2,2v4h-2v2h2v5h-2v2h2v5h-2v2h2v4a2.0059,2.0059,0,0,0,2,2h5Z" transform="translate(-278.7282 -5.427)"/><rect class="cls-8" x="540.8499" y="86.3067" width="10" height="2"/><rect class="cls-8" x="540.8499" y="90.3067" width="10" height="2"/><rect class="cls-8" x="540.8499" y="94.3067" width="10" height="2"/><path class="cls-8" d="M295.4939,27.467h10.971v2.0355h-10.971Zm0,5.0889H308.46v2.0355H295.4939Z" transform="translate(-278.7282 -5.427)"/><path class="cls-8" d="M315.4412,17.2891H291.5045a2.0154,2.0154,0,0,0-1.9947,2.0356V39.68a2.0154,2.0154,0,0,0,1.9947,2.0356h23.9367a2.0154,2.0154,0,0,0,1.9947-2.0356V19.3247A2.0154,2.0154,0,0,0,315.4412,17.2891Zm0,2.0356V21.36H291.5045V19.3247ZM291.5045,39.68V23.3958h23.9367V39.68Z" transform="translate(-278.7282 -5.427)"/><path class="cls-8" d="M325.8659,152.8559v4h-4v-4Zm2-2h-8v8h8Zm8,2v4h-4v-4Zm2-2h-8v8h8Zm8,2v4h-4v-4Zm2-2h-8v8h8Zm-22,12v4h-4v-4Zm2-2h-8v8h8Zm8,2v4h-4v-4Zm2-2h-8v8h8Zm8,2v4h-4v-4Zm2-2h-8v8h8Zm-22,12v4h-4v-4Zm2-2h-8v8h8Zm8,2v4h-4v-4Zm2-2h-8v8h8Zm8,2v4h-4v-4Zm2-2h-8v8h8Z" transform="translate(-278.7282 -5.427)"/><polyline class="cls-5" points="63.106 198.347 493.52 198.347 493.52 510.695"/><polyline class="cls-5" points="67.829 194.347 497.52 194.347 497.52 506.173"/><rect class="cls-9" x="537.4254" y="200.7203" width="426.7581" height="309.9744"/><rect class="cls-3" x="537.3472" y="200.7203" width="48" height="48"/><path class="cls-8" d="M835.2454,220.1473l3.42,3.41.58.59h12.83v16h-24v-20h7.17m0-2h-7.17a2,2,0,0,0-2,2v20a2,2,0,0,0,2,2h24a2,2,0,0,0,2-2v-16a2,2,0,0,0-2-2h-12l-3.41-3.41A2,2,0,0,0,835.2454,218.1473Z" transform="translate(-278.7282 -5.427)"/><polygon class="cls-4" points="555.113 383.023 953.069 383.547 953.174 497.966 555.218 497.441 555.113 383.023"/><rect class="cls-9" x="555.0108" y="383.016" width="48" height="48"/><rect class="cls-8" x="565.4344" y="440.3138" width="183.706" height="48"/><polyline class="cls-10" points="749.14 486.314 749.14 488.314 747.14 488.314"/><line class="cls-11" x1="743.1469" y1="488.3138" x2="569.4311" y2="488.3138"/><polyline class="cls-10" points="567.434 488.314 565.434 488.314 565.434 486.314"/><line class="cls-12" x1="565.4344" y1="482.3138" x2="565.4344" y2="444.3138"/><polyline class="cls-10" points="565.434 442.314 565.434 440.314 567.434 440.314"/><line class="cls-11" x1="571.4278" y1="440.3138" x2="745.1436" y2="440.3138"/><polyline class="cls-10" points="747.14 440.314 749.14 440.314 749.14 442.314"/><line class="cls-12" x1="749.1404" y1="446.3138" x2="749.1404" y2="484.3138"/><rect class="cls-6" x="564.5236" y="440.3138" width="3" height="48"/><rect class="cls-8" x="759.313" y="440.3138" width="183.706" height="48"/><polyline class="cls-10" points="943.019 486.314 943.019 488.314 941.019 488.314"/><line class="cls-11" x1="937.0255" y1="488.3138" x2="763.3097" y2="488.3138"/><polyline class="cls-10" points="761.313 488.314 759.313 488.314 759.313 486.314"/><line class="cls-12" x1="759.3129" y1="482.3138" x2="759.3129" y2="444.3138"/><polyline class="cls-10" points="759.313 442.314 759.313 440.314 761.313 440.314"/><line class="cls-11" x1="765.3064" y1="440.3138" x2="939.0223" y2="440.3138"/><polyline class="cls-10" points="941.019 440.314 943.019 440.314 943.019 442.314"/><line class="cls-12" x1="943.019" y1="446.3138" x2="943.019" y2="484.3138"/><rect class="cls-6" x="758.5732" y="440.3138" width="3" height="48"/><polygon class="cls-4" points="554.524 258.4 952.48 258.924 952.584 373.343 554.628 372.819 554.524 258.4"/><rect class="cls-9" x="554.4216" y="258.3934" width="48" height="48"/><rect class="cls-8" x="564.8451" y="315.6912" width="183.706" height="48"/><polyline class="cls-10" points="748.551 361.691 748.551 363.691 746.551 363.691"/><line class="cls-11" x1="742.5577" y1="363.6912" x2="568.8418" y2="363.6912"/><polyline class="cls-10" points="566.845 363.691 564.845 363.691 564.845 361.691"/><line class="cls-12" x1="564.8451" y1="357.6912" x2="564.8451" y2="319.6912"/><polyline class="cls-10" points="564.845 317.691 564.845 315.691 566.845 315.691"/><line class="cls-11" x1="570.8387" y1="315.6912" x2="744.5545" y2="315.6912"/><polyline class="cls-10" points="746.551 315.691 748.551 315.691 748.551 317.691"/><line class="cls-12" x1="748.5512" y1="321.6912" x2="748.5512" y2="359.6912"/><rect class="cls-6" x="563.9344" y="315.6912" width="3" height="48"/><rect class="cls-8" x="758.7237" y="315.6912" width="183.706" height="48"/><polyline class="cls-10" points="942.43 361.691 942.43 363.691 940.43 363.691"/><line class="cls-11" x1="936.4363" y1="363.6912" x2="762.7205" y2="363.6912"/><polyline class="cls-10" points="760.724 363.691 758.724 363.691 758.724 361.691"/><line class="cls-12" x1="758.7238" y1="357.6912" x2="758.7238" y2="319.6912"/><polyline class="cls-10" points="758.724 317.691 758.724 315.691 760.724 315.691"/><line class="cls-11" x1="764.7172" y1="315.6912" x2="938.433" y2="315.6912"/><polyline class="cls-10" points="940.43 315.691 942.43 315.691 942.43 317.691"/><line class="cls-12" x1="942.4297" y1="321.6912" x2="942.4297" y2="359.6912"/><rect class="cls-6" x="757.984" y="315.6912" width="3" height="48"/><rect class="cls-9" x="60.8943" y="204.576" width="426.7581" height="309.9744"/><rect class="cls-3" x="60.8161" y="204.576" width="48" height="48"/><path class="cls-8" d="M358.7144,224.003l3.42,3.41.58.59h12.83v16h-24v-20h7.17m0-2h-7.17a2,2,0,0,0-2,2v20a2,2,0,0,0,2,2h24a2,2,0,0,0,2-2v-16a2,2,0,0,0-2-2h-12l-3.41-3.41A2,2,0,0,0,358.7144,222.003Z" transform="translate(-278.7282 -5.427)"/><polygon class="cls-4" points="78.582 386.878 476.538 387.402 476.643 501.821 78.687 501.297 78.582 386.878"/><rect class="cls-9" x="78.4798" y="386.8716" width="48" height="48"/><rect class="cls-8" x="88.9033" y="444.1694" width="183.706" height="48"/><polyline class="cls-10" points="272.609 490.169 272.609 492.169 270.609 492.169"/><line class="cls-11" x1="266.6159" y1="492.1695" x2="92.9" y2="492.1695"/><polyline class="cls-10" points="90.903 492.169 88.903 492.169 88.903 490.169"/><line class="cls-12" x1="88.9033" y1="486.1695" x2="88.9033" y2="448.1695"/><polyline class="cls-10" points="88.903 446.169 88.903 444.169 90.903 444.169"/><line class="cls-11" x1="94.8968" y1="444.1695" x2="268.6126" y2="444.1695"/><polyline class="cls-10" points="270.609 444.169 272.609 444.169 272.609 446.169"/><line class="cls-12" x1="272.6093" y1="450.1695" x2="272.6093" y2="488.1695"/><rect class="cls-6" x="87.9925" y="444.1694" width="3" height="48"/><rect class="cls-8" x="282.7819" y="444.1694" width="183.706" height="48"/><polyline class="cls-10" points="466.488 490.169 466.488 492.169 464.488 492.169"/><line class="cls-11" x1="460.4944" y1="492.1695" x2="286.7786" y2="492.1695"/><polyline class="cls-10" points="284.782 492.169 282.782 492.169 282.782 490.169"/><line class="cls-12" x1="282.7819" y1="486.1695" x2="282.7819" y2="448.1695"/><polyline class="cls-10" points="282.782 446.169 282.782 444.169 284.782 444.169"/><line class="cls-11" x1="288.7753" y1="444.1695" x2="462.4911" y2="444.1695"/><polyline class="cls-10" points="464.488 444.169 466.488 444.169 466.488 446.169"/><line class="cls-12" x1="466.488" y1="450.1695" x2="466.488" y2="488.1695"/><rect class="cls-6" x="282.0422" y="444.1694" width="3" height="48"/><polygon class="cls-4" points="77.992 262.256 475.949 262.78 476.053 377.199 78.097 376.674 77.992 262.256"/><rect class="cls-9" x="77.8906" y="262.249" width="48" height="48"/><rect class="cls-8" x="88.3141" y="319.5468" width="183.706" height="48"/><polyline class="cls-10" points="272.02 365.547 272.02 367.547 270.02 367.547"/><line class="cls-11" x1="266.0266" y1="367.5468" x2="92.3108" y2="367.5468"/><polyline class="cls-10" points="90.314 367.547 88.314 367.547 88.314 365.547"/><line class="cls-12" x1="88.3141" y1="361.5468" x2="88.3141" y2="323.5468"/><polyline class="cls-10" points="88.314 321.547 88.314 319.547 90.314 319.547"/><line class="cls-11" x1="94.3075" y1="319.5468" x2="268.0234" y2="319.5468"/><polyline class="cls-10" points="270.02 319.547 272.02 319.547 272.02 321.547"/><line class="cls-12" x1="272.0201" y1="325.5468" x2="272.0201" y2="363.5468"/><rect class="cls-6" x="87.4033" y="319.5468" width="3" height="48"/><path class="cls-3" d="M371.6279,287.5692h10.971v2.0356h-10.971Zm0,5.0889h12.9657v2.0356H371.6279Z" transform="translate(-278.7282 -5.427)"/><path class="cls-3" d="M391.5752,277.3914H367.6385a2.0154,2.0154,0,0,0-1.9948,2.0355v20.3557a2.0154,2.0154,0,0,0,1.9948,2.0355h23.9367a2.0154,2.0154,0,0,0,1.9947-2.0355V279.4269A2.0154,2.0154,0,0,0,391.5752,277.3914Zm0,2.0355v2.0356H367.6385v-2.0356Zm-23.9367,20.3557V283.4981h23.9367v16.2845Z" transform="translate(-278.7282 -5.427)"/><path class="cls-3" d="M371.6279,413.4984h10.971v2.0355h-10.971Zm0,5.0889h12.9657v2.0355H371.6279Z" transform="translate(-278.7282 -5.427)"/><path class="cls-3" d="M391.5752,403.3206H367.6385a2.0154,2.0154,0,0,0-1.9948,2.0355v20.3556a2.0155,2.0155,0,0,0,1.9948,2.0356h23.9367a2.0155,2.0155,0,0,0,1.9947-2.0356V405.3561A2.0154,2.0154,0,0,0,391.5752,403.3206Zm0,2.0355v2.0356H367.6385v-2.0356Zm-23.9367,20.3556V409.4272h23.9367v16.2845Z" transform="translate(-278.7282 -5.427)"/><path class="cls-3" d="M848.5544,411.4984h10.971v2.0355h-10.971Zm0,5.0889H861.52v2.0355H848.5544Z" transform="translate(-278.7282 -5.427)"/><path class="cls-3" d="M868.5017,401.3206H844.565a2.0154,2.0154,0,0,0-1.9947,2.0355v20.3556a2.0154,2.0154,0,0,0,1.9947,2.0356h23.9367a2.0154,2.0154,0,0,0,1.9947-2.0356V403.3561A2.0154,2.0154,0,0,0,868.5017,401.3206Zm0,2.0355v2.0356H844.565v-2.0356ZM844.565,423.7117V407.4272h23.9367v16.2845Z" transform="translate(-278.7282 -5.427)"/><path class="cls-3" d="M848.5544,285.5692h10.971v2.0356h-10.971Zm0,5.0889H861.52v2.0356H848.5544Z" transform="translate(-278.7282 -5.427)"/><path class="cls-3" d="M868.5017,275.3914H844.565a2.0154,2.0154,0,0,0-1.9947,2.0355v20.3557a2.0154,2.0154,0,0,0,1.9947,2.0355h23.9367a2.0154,2.0154,0,0,0,1.9947-2.0355V277.4269A2.0154,2.0154,0,0,0,868.5017,275.3914Zm0,2.0355v2.0356H844.565v-2.0356ZM844.565,297.7826V281.4981h23.9367v16.2845Z" transform="translate(-278.7282 -5.427)"/></g><g id="Text"><text class="cls-13" transform="translate(56.4034 32.9123)">Business unit administration account </text><text class="cls-14" transform="translate(86.5611 166.6506)">Application - infrastructure sets</text><text class="cls-14" transform="translate(342.3836 87.7453)">Application catalog</text><text class="cls-14" transform="translate(573.3731 88.073)">Infrastructure catalog</text><text class="cls-14" transform="translate(593.4256 229.0793)">Shared infrastructure project</text><text class="cls-14" transform="translate(607.4212 411.4223)">Prod Environment - Production account</text><text class="cls-14" transform="translate(577.9983 469.3642)">Prod infrastructure</text><text class="cls-14" transform="translate(771.137 468.9923)">App onboarding</text><text class="cls-14" transform="translate(606.8318 286.7995)">Dev environment - development account</text><text class="cls-14" transform="translate(577.409 344.7417)">Dev tools</text><text class="cls-14" transform="translate(770.5476 344.3697)">App onboarding</text><text class="cls-14" transform="translate(116.8946 232.935)">Application development project</text><text class="cls-14" transform="translate(130.8904 415.2781)">Infrastructure onboard - projects in admin account</text><text class="cls-14" transform="translate(101.4673 473.2199)">Dev infra onboard</text><text class="cls-14" transform="translate(294.6062 472.848)">Prod infra onboard</text><text class="cls-14" transform="translate(130.3006 290.6553)">Network and services - development account</text><text class="cls-14" transform="translate(100.878 348.5974)">Development tools</text></g></svg>