<svg xmlns="http://www.w3.org/2000/svg" width="1067.56" height="480.94" viewBox="0 0 1067.56 480.94"><defs><style>.cls-1,.cls-11{fill:#eef4fb;}.cls-1{stroke:#eef5fb;}.cls-1,.cls-10,.cls-11,.cls-13,.cls-14,.cls-15,.cls-16,.cls-17,.cls-18,.cls-2,.cls-3,.cls-5,.cls-6,.cls-8,.cls-9{stroke-miterlimit:10;}.cls-12,.cls-2,.cls-5,.cls-7{fill:#fff;}.cls-10,.cls-11,.cls-13,.cls-14,.cls-15,.cls-16,.cls-17,.cls-18,.cls-2,.cls-3,.cls-5,.cls-6,.cls-8,.cls-9{stroke:#3553a4;}.cls-12,.cls-2,.cls-3{fill-rule:evenodd;}.cls-10,.cls-13,.cls-14,.cls-15,.cls-16,.cls-17,.cls-18,.cls-3,.cls-8,.cls-9{fill:none;}.cls-4,.cls-6{fill:#3553a4;}.cls-9{stroke-dasharray:4 4;}.cls-10{stroke-dasharray:3.99 3.99;}.cls-13{stroke-dasharray:4 4;}.cls-14{stroke-dasharray:4.1 4.1;}.cls-15{stroke-dasharray:4.01 4.01;}.cls-16{stroke-dasharray:4.08 4.08;}.cls-17{stroke-dasharray:4 4;}.cls-18{stroke-dasharray:4.02 4.02;}.cls-19{font-size:16px;}.cls-19,.cls-20{fill:#010101;font-family:IBMPlexSans-SemiBold, IBM Plex Sans;font-weight:600;}.cls-20{font-size:14px;}</style></defs><g id="Background"><rect class="cls-1" x="0.51" y="0.5" width="1066.55" height="479.94"/><polyline class="cls-2" points="183.77 245.61 904.65 245.61 904.65 457"/><polyline class="cls-3" points="179.69 249.61 900.65 249.61 900.65 459.52"/><rect class="cls-4" y="0.5" width="48" height="48"/><polygon class="cls-5" points="38.71 76.16 702.48 76.96 703.97 211.49 38.71 211.49 38.71 76.16"/><rect class="cls-4" x="38.46" y="75.41" width="48" height="48"/><rect class="cls-6" x="0.51" y="48.5" width="3" height="431.94"/><path class="cls-7" d="M272.56,29.46h11v2h-11Zm0,5.09h13v2h-13Z" transform="translate(-255.8 -7.42)"/><path class="cls-7" d="M292.51,19.28H268.58a2,2,0,0,0-2,2V41.67a2,2,0,0,0,2,2h23.93a2,2,0,0,0,2-2V21.32A2,2,0,0,0,292.51,19.28Zm0,2v2H268.58v-2ZM268.58,41.67V25.39h23.93V41.67Z" transform="translate(-255.8 -7.42)"/><polygon class="cls-7" points="65.11 142.03 369.4 141.83 369.36 189.68 65.07 189.88 65.11 142.03"/><polyline class="cls-8" points="65.11 144.03 65.11 142.03 67.11 142.02"/><line class="cls-9" x1="71.11" y1="142.02" x2="365.4" y2="141.83"/><polyline class="cls-8" points="367.4 141.83 369.4 141.83 369.4 143.83"/><line class="cls-10" x1="369.4" y1="147.82" x2="369.37" y2="185.69"/><polyline class="cls-8" points="369.36 187.68 369.36 189.68 367.36 189.68"/><line class="cls-9" x1="363.36" y1="189.69" x2="69.07" y2="189.88"/><polyline class="cls-8" points="67.07 189.88 65.07 189.88 65.07 187.88"/><line class="cls-10" x1="65.08" y1="183.89" x2="65.11" y2="146.02"/><rect class="cls-11" x="65.06" y="142.02" width="48" height="48"/><polygon class="cls-7" points="382.66 141.12 686.95 140.92 686.91 188.77 382.62 188.97 382.66 141.12"/><polyline class="cls-8" points="382.66 143.12 382.66 141.12 384.66 141.12"/><line class="cls-9" x1="388.66" y1="141.11" x2="682.95" y2="140.92"/><polyline class="cls-8" points="684.95 140.92 686.95 140.92 686.95 142.92"/><line class="cls-10" x1="686.94" y1="146.91" x2="686.91" y2="184.78"/><polyline class="cls-8" points="686.91 186.77 686.91 188.77 684.91 188.77"/><line class="cls-9" x1="680.91" y1="188.78" x2="386.62" y2="188.97"/><polyline class="cls-8" points="384.62 188.97 382.62 188.97 382.62 186.97"/><line class="cls-10" x1="382.63" y1="182.98" x2="382.66" y2="145.11"/><rect class="cls-11" x="382.61" y="141.11" width="48" height="48"/><polygon class="cls-5" points="739.61 116.83 1048.67 117.12 1049.37 164.83 739.61 164.83 739.61 116.83"/><rect class="cls-4" x="739.16" y="117.01" width="48" height="48"/><path class="cls-7" d="M1030,150.51a4,4,0,0,0-4-4h-14a2,2,0,0,1-2-2v-3.14a4,4,0,0,0,2.86-2.86h12.28a4,4,0,1,0,0-2h-12.28a4,4,0,1,0-4.86,4.86v3.14a4,4,0,0,0,4,4h14a2,2,0,0,1,2,2v3h-3v3h-12.14a4,4,0,1,0,0,2H1025v3h8v-8h-3Zm-1-15a2,2,0,1,1-2,2A2,2,0,0,1,1029,135.51Zm-22,2a2,2,0,1,1,2,2A2,2,0,0,1,1007,137.51Zm2,22a2,2,0,1,1,2-2A2,2,0,0,1,1009,159.51Zm22-4v4h-4v-4Z" transform="translate(-255.8 -7.42)"/><path class="cls-7" d="M322.26,110.83v-3a4,4,0,1,0-8,0v3a2,2,0,0,0-2,2v6a2,2,0,0,0,2,2h8a2,2,0,0,0,2-2v-6A2,2,0,0,0,322.26,110.83Zm-6-3a2,2,0,1,1,4,0v3h-4Zm-2,11v-6h8v6Z" transform="translate(-255.8 -7.42)"/><path class="cls-7" d="M328.09,101a10,10,0,0,0-19.66,0h0a7.5,7.5,0,0,0,1.32,14.88h.51v-2h-.51a5.5,5.5,0,0,1-1-10.91l1.35-.25.26-1.34a8,8,0,0,1,15.73,0l.26,1.34,1.35.25a5.5,5.5,0,0,1-1,10.91h-.51v2h.51A7.5,7.5,0,0,0,328.09,101Z" transform="translate(-255.8 -7.42)"/><path class="cls-4" d="M336.49,187.05h-6v-6h6Zm-4-2h2v-2h-2Z" transform="translate(-255.8 -7.42)"/><path class="cls-4" d="M347.49,187.05h-6v-6h6Zm-4-2h2v-2h-2Z" transform="translate(-255.8 -7.42)"/><path class="cls-4" d="M358.49,187.05h-6v-6h6Zm-4-2h2v-2h-2Z" transform="translate(-255.8 -7.42)"/><path class="cls-4" d="M344.49,167.05a4,4,0,1,1,4-4A4,4,0,0,1,344.49,167.05Zm0-6a2,2,0,1,0,2,2A2,2,0,0,0,344.49,161.05Z" transform="translate(-255.8 -7.42)"/><path class="cls-4" d="M354.49,173.05h-5a4,4,0,0,1-4-4h-2a4,4,0,0,1-4,4h-5a2,2,0,0,0-2,2v4h2v-4h5a6,6,0,0,0,4-1.54v5.54h2v-5.54a6,6,0,0,0,4,1.54h5v4h2v-4A2,2,0,0,0,354.49,173.05Z" transform="translate(-255.8 -7.42)"/><polygon class="cls-5" points="176.07 252.12 896.34 253.36 897.95 462.74 176.07 462.74 176.07 252.12"/><rect class="cls-4" x="176.07" y="252.14" width="48" height="48"/><path class="cls-7" d="M454.87,286h-10a2,2,0,0,1-2-2V274a2,2,0,0,1,2-2h10a2,2,0,0,1,2,2v10A2,2,0,0,1,454.87,286Zm-10-12v10h10V274Z" transform="translate(-255.8 -7.42)"/><path class="cls-7" d="M464.87,280v4h-4v-4h4m0-2h-4a2,2,0,0,0-2,2v4a2,2,0,0,0,2,2h4a2,2,0,0,0,2-2v-4A2,2,0,0,0,464.87,278Z" transform="translate(-255.8 -7.42)"/><path class="cls-7" d="M464.87,290v4h-4v-4h4m0-2h-4a2,2,0,0,0-2,2v4a2,2,0,0,0,2,2h4a2,2,0,0,0,2-2v-4A2,2,0,0,0,464.87,288Z" transform="translate(-255.8 -7.42)"/><path class="cls-7" d="M454.87,290v4h-4v-4h4m0-2h-4a2,2,0,0,0-2,2v4a2,2,0,0,0,2,2h4a2,2,0,0,0,2-2v-4A2,2,0,0,0,454.87,288Z" transform="translate(-255.8 -7.42)"/><path class="cls-4" d="M673.94,159.24a2,2,0,0,0-1.53-.71h-2.69a1.49,1.49,0,0,0-1.34.83l-.59,1.17h-1.38V160a1.5,1.5,0,0,0-1.5-1.5h-5a1.5,1.5,0,0,0-1.5,1.5v.5H657l-.59-1.17a1.49,1.49,0,0,0-1.34-.83h-2.69a2,2,0,0,0-2,2,1.84,1.84,0,0,0,0,.33l.7,4.17a3,3,0,0,0,3,2.5h.31v12a3,3,0,0,0-3,3v4h22v-4a3,3,0,0,0-3-3v-12h.31a3,3,0,0,0,3-2.5l.7-4.17A2,2,0,0,0,673.94,159.24Zm-2.53,23.29v2h-18v-2a1,1,0,0,1,1-1h16A1,1,0,0,1,671.41,182.53Zm-3-3h-12v-12h12Zm3.29-14.83a1,1,0,0,1-1,.83H654.1a1,1,0,0,1-1-.83l-.7-4.17h2.38l1,2h4.62v-2h4v2H669l1-2h2.38Z" transform="translate(-255.8 -7.42)"/><polyline class="cls-12" points="211.07 313.71 514.8 313.71 514.8 444.76"/><line class="cls-8" x1="211.07" y1="313.71" x2="213.07" y2="313.71"/><line class="cls-13" x1="217.07" y1="313.71" x2="510.81" y2="313.71"/><polyline class="cls-8" points="512.8 313.71 514.8 313.71 514.8 315.71"/><line class="cls-14" x1="514.81" y1="319.81" x2="514.81" y2="440.72"/><line class="cls-8" x1="514.81" y1="442.76" x2="514.81" y2="444.76"/><line class="cls-8" x1="207.07" y1="317.31" x2="209.07" y2="317.31"/><line class="cls-15" x1="213.08" y1="317.31" x2="507.68" y2="317.31"/><polyline class="cls-8" points="509.69 317.31 511.69 317.31 511.69 319.31"/><line class="cls-16" x1="511.69" y1="323.39" x2="511.69" y2="443.82"/><line class="cls-8" x1="511.69" y1="445.86" x2="511.69" y2="447.86"/><polygon class="cls-7" points="203.46 320.57 507.76 321.59 507.96 450.23 203.67 449.2 203.46 320.57"/><polyline class="cls-8" points="203.47 322.57 203.46 320.57 205.46 320.57"/><line class="cls-17" x1="209.47" y1="320.59" x2="503.76" y2="321.57"/><polyline class="cls-8" points="505.76 321.58 507.76 321.59 507.76 323.59"/><line class="cls-18" x1="507.77" y1="327.61" x2="507.96" y2="446.22"/><polyline class="cls-8" points="507.96 448.23 507.96 450.23 505.96 450.22"/><line class="cls-17" x1="501.96" y1="450.21" x2="207.67" y2="449.22"/><polyline class="cls-8" points="205.67 449.21 203.67 449.2 203.66 447.2"/><line class="cls-18" x1="203.66" y1="443.18" x2="203.47" y2="324.58"/><rect class="cls-11" x="203.41" y="320.56" width="48" height="48"/><polyline class="cls-2" points="244.16 380.14 428.33 380.14 428.33 429.76"/><polyline class="cls-3" points="242.02 383.17 425.38 383.17 425.38 431.87"/><rect class="cls-5" x="239.02" y="385.54" width="183.71" height="48"/><rect class="cls-6" x="239.02" y="385.54" width="3" height="48"/><polyline class="cls-12" points="564.71 310.99 868.45 310.99 868.45 442.03"/><line class="cls-8" x1="564.71" y1="310.98" x2="566.71" y2="310.98"/><line class="cls-13" x1="570.71" y1="310.98" x2="864.45" y2="310.98"/><polyline class="cls-8" points="866.45 310.99 868.45 310.99 868.45 312.99"/><line class="cls-14" x1="868.45" y1="317.08" x2="868.45" y2="437.99"/><line class="cls-8" x1="868.45" y1="440.03" x2="868.45" y2="442.03"/><line class="cls-8" x1="560.71" y1="314.58" x2="562.71" y2="314.58"/><line class="cls-15" x1="566.72" y1="314.58" x2="861.32" y2="314.58"/><polyline class="cls-8" points="863.33 314.58 865.33 314.58 865.33 316.58"/><line class="cls-16" x1="865.33" y1="320.66" x2="865.33" y2="441.09"/><line class="cls-8" x1="865.33" y1="443.13" x2="865.33" y2="445.13"/><polygon class="cls-7" points="557.11 317.84 861.4 318.86 861.61 447.5 557.31 446.48 557.11 317.84"/><polyline class="cls-8" points="557.11 319.84 557.11 317.84 559.11 317.84"/><line class="cls-17" x1="563.11" y1="317.86" x2="857.4" y2="318.84"/><polyline class="cls-8" points="859.4 318.85 861.4 318.86 861.4 320.86"/><line class="cls-18" x1="861.41" y1="324.88" x2="861.6" y2="443.48"/><polyline class="cls-8" points="861.6 445.5 861.61 447.5 859.61 447.49"/><line class="cls-17" x1="855.6" y1="447.47" x2="561.31" y2="446.49"/><polyline class="cls-8" points="559.31 446.48 557.31 446.48 557.31 444.48"/><line class="cls-18" x1="557.3" y1="440.45" x2="557.11" y2="321.85"/><rect class="cls-11" x="557.05" y="317.83" width="48" height="48"/><polyline class="cls-2" points="597.8 377.41 781.97 377.41 781.97 427.03"/><polyline class="cls-3" points="595.66 380.44 779.02 380.44 779.02 429.13"/><rect class="cls-5" x="592.66" y="382.81" width="183.71" height="48"/><rect class="cls-6" x="592.66" y="382.81" width="3" height="48"/><path class="cls-4" d="M842.47,357.86h-12a2,2,0,0,1-2-2v-12a2,2,0,0,1,2-2h12a2,2,0,0,1,2,2v12A2,2,0,0,1,842.47,357.86Zm-12-14v12h12v-12Z" transform="translate(-255.8 -7.42)"/><path class="cls-4" d="M828.47,363.86h-4a2,2,0,0,1-2-2v-24a2,2,0,0,1,2-2h4v2h-4v24h4Z" transform="translate(-255.8 -7.42)"/><path class="cls-4" d="M848.47,363.86h-4v-2h4v-24h-4v-2h4a2,2,0,0,1,2,2v24A2,2,0,0,1,848.47,363.86Z" transform="translate(-255.8 -7.42)"/><path class="cls-4" d="M489.21,360h-12a2,2,0,0,1-2-2V346a2,2,0,0,1,2-2h12a2,2,0,0,1,2,2v12A2,2,0,0,1,489.21,360Zm-12-14v12h12V346Z" transform="translate(-255.8 -7.42)"/><path class="cls-4" d="M475.21,366h-4a2,2,0,0,1-2-2V340a2,2,0,0,1,2-2h4v2h-4v24h4Z" transform="translate(-255.8 -7.42)"/><path class="cls-4" d="M495.21,366h-4v-2h4V340h-4v-2h4a2,2,0,0,1,2,2v24A2,2,0,0,1,495.21,366Z" transform="translate(-255.8 -7.42)"/></g><g id="Text"><text class="cls-19" transform="translate(56.4 32.91)">Business Unit (x) Admin Account</text><text class="cls-20" transform="translate(94.13 107.25)">Management / Edge VPC</text><text class="cls-20" transform="translate(118.47 170.42)">Public Loadbalancer</text><text class="cls-20" transform="translate(436.02 169.51)">Bastion</text><text class="cls-20" transform="translate(794.58 144.22)">Schematics Agent</text><text class="cls-20" transform="translate(231.74 283.93)">App - Infrastructure sets</text><text class="cls-20" transform="translate(256.82 341.91)">App Development - Project 1 <tspan x="0" y="18">Resource Group</tspan></text><text class="cls-20" transform="translate(255.15 413.94)">Schematics Workspace</text><text class="cls-20" transform="translate(608.79 411.21)">Schematics Workspace</text><text class="cls-20" transform="translate(611.62 339.18)">Shared Infrastructure- Project 1 <tspan x="0" y="18">Resource Group</tspan></text></g></svg>