<svg xmlns="http://www.w3.org/2000/svg" width="1463.9838" height="556.7575" viewBox="0 0 1463.9838 556.7575"><defs><style>.cls-1,.cls-9{fill:#eef4fb;}.cls-1{stroke:#eef5fb;}.cls-1,.cls-10,.cls-11,.cls-12,.cls-2,.cls-4,.cls-5,.cls-6,.cls-9{stroke-miterlimit:10;}.cls-2,.cls-4,.cls-8{fill:#fff;}.cls-10,.cls-11,.cls-12,.cls-2,.cls-4,.cls-5,.cls-6,.cls-9{stroke:#3553a4;}.cls-2,.cls-5{fill-rule:evenodd;}.cls-3,.cls-6{fill:#3553a4;}.cls-10,.cls-11,.cls-12,.cls-5,.cls-7{fill:none;}.cls-11{stroke-dasharray:3.9935 3.9935;}.cls-12{stroke-dasharray:4 4;}.cls-13{font-size:16px;font-family:IBMPlexSans-SemiBold, IBM Plex Sans;font-weight:600;}.cls-13,.cls-14{fill:#010101;}.cls-14{font-size:14px;font-family:IBMPlexSans, IBM Plex Sans;}</style></defs><g id="Background"><rect class="cls-1" x="3.5119" y="0.5" width="1459.9719" height="555.5523"/><polyline class="cls-2" points="41.138 129.549 988.033 129.549 988.033 520.857"/><rect class="cls-3" y="0.7051" width="48" height="48"/><polygon class="cls-4" points="31.138 135.907 975.344 138.245 977.458 532.593 31.138 532.593 31.138 135.907"/><polyline class="cls-5" points="36.713 133.549 982.265 133.549 982.265 526.114"/><rect class="cls-3" x="31.1376" y="135.9071" width="48" height="48"/><rect class="cls-6" x="0.5119" y="48.7051" width="3" height="507.5523"/><polygon class="cls-4" points="411.926 57.987 632.126 58.27 632.619 105.987 411.926 105.987 411.926 57.987"/><rect class="cls-6" x="411.5195" y="57.9875" width="48" height="48"/><polygon class="cls-4" points="760.547 56.128 980.747 56.411 981.24 104.128 760.547 104.128 760.547 56.128"/><rect class="cls-6" x="760.1402" y="56.1282" width="48" height="48"/><rect id="_Transparent_Rectangle_" data-name="&lt;Transparent Rectangle&gt;" class="cls-7" x="766.7735" y="64.1283" width="32" height="32"/><path class="cls-8" d="M437.459,104.3462h-5v-4h2v-2h-2v-5h2v-2h-2v-5h2v-2h-2v-4h18v16h2v-16a2.0059,2.0059,0,0,0-2-2h-18a2.0059,2.0059,0,0,0-2,2v4h-2v2h2v5h-2v2h2v5h-2v2h2v4a2.0059,2.0059,0,0,0,2,2h5Z" transform="translate(-5.5394 -9.6976)"/><path class="cls-8" d="M445.459,102.917h-5a1,1,0,0,1-1-1v-5a1,1,0,0,1,1-1h5a1,1,0,0,1,1,1v5A1,1,0,0,1,445.459,102.917Zm-5-6v5h5v-5Z" transform="translate(-5.5394 -9.6976)"/><path class="cls-8" d="M450.459,99.917v2h-2v-2h2m0-1h-2a1,1,0,0,0-1,1v2a1,1,0,0,0,1,1h2a1,1,0,0,0,1-1v-2A1,1,0,0,0,450.459,98.917Z" transform="translate(-5.5394 -9.6976)"/><path class="cls-8" d="M450.459,104.917v2h-2v-2h2m0-1h-2a1,1,0,0,0-1,1v2a1,1,0,0,0,1,1h2a1,1,0,0,0,1-1v-2A1,1,0,0,0,450.459,103.917Z" transform="translate(-5.5394 -9.6976)"/><path class="cls-8" d="M445.459,104.917v2h-2v-2h2m0-1h-2a1,1,0,0,0-1,1v2a1,1,0,0,0,1,1h2a1,1,0,0,0,1-1v-2A1,1,0,0,0,445.459,103.917Z" transform="translate(-5.5394 -9.6976)"/><path class="cls-8" d="M786.68,101.2551h-5v-4h2v-2h-2v-5h2v-2h-2v-5h2v-2h-2v-4h18v16h2v-16a2.0059,2.0059,0,0,0-2-2h-18a2.0059,2.0059,0,0,0-2,2v4h-2v2h2v5h-2v2h2v5h-2v2h2v4a2.0059,2.0059,0,0,0,2,2h5Z" transform="translate(-5.5394 -9.6976)"/><rect class="cls-8" x="782.7735" y="83.3382" width="10" height="2"/><rect class="cls-8" x="782.7735" y="87.3382" width="10" height="2"/><rect class="cls-8" x="782.7735" y="91.3382" width="10" height="2"/><path class="cls-8" d="M22.3051,31.9426h10.971v2.0356H22.3051Zm0,5.0889H35.2709v2.0356H22.3051Z" transform="translate(-5.5394 -9.6976)"/><path class="cls-8" d="M42.2524,21.7648H18.3157A2.0154,2.0154,0,0,0,16.321,23.8V44.156a2.0154,2.0154,0,0,0,1.9947,2.0355H42.2524a2.0154,2.0154,0,0,0,1.9947-2.0355V23.8A2.0154,2.0154,0,0,0,42.2524,21.7648Zm0,2.0356v2.0355H18.3157V23.8ZM18.3157,44.156V27.8715H42.2524V44.156Z" transform="translate(-5.5394 -9.6976)"/><path class="cls-8" d="M52.6771,157.3316v4h-4v-4Zm2-2h-8v8h8Zm8,2v4h-4v-4Zm2-2h-8v8h8Zm8,2v4h-4v-4Zm2-2h-8v8h8Zm-22,12v4h-4v-4Zm2-2h-8v8h8Zm8,2v4h-4v-4Zm2-2h-8v8h8Zm8,2v4h-4v-4Zm2-2h-8v8h8Zm-22,12v4h-4v-4Zm2-2h-8v8h8Zm8,2v4h-4v-4Zm2-2h-8v8h8Zm8,2v4h-4v-4Zm2-2h-8v8h8Z" transform="translate(-5.5394 -9.6976)"/><polyline class="cls-5" points="63.106 198.552 493.52 198.552 493.52 510.9"/><polyline class="cls-5" points="67.829 194.552 497.52 194.552 497.52 506.378"/><rect class="cls-9" x="537.4254" y="200.9254" width="426.7581" height="309.9744"/><rect class="cls-3" x="537.3472" y="200.9254" width="48" height="48"/><path class="cls-8" d="M562.0566,224.623l3.42,3.41.58.59h12.83v16h-24v-20h7.17m0-2h-7.17a2,2,0,0,0-2,2v20a2,2,0,0,0,2,2h24a2,2,0,0,0,2-2v-16a2,2,0,0,0-2-2h-12l-3.41-3.41A2,2,0,0,0,562.0566,222.623Z" transform="translate(-5.5394 -9.6976)"/><polygon class="cls-4" points="555.113 383.228 953.069 383.752 953.174 498.171 555.218 497.647 555.113 383.228"/><rect class="cls-9" x="555.0108" y="383.2211" width="48" height="48"/><rect class="cls-8" x="565.4344" y="440.5189" width="183.706" height="48"/><polyline class="cls-10" points="749.14 486.519 749.14 488.519 747.14 488.519"/><line class="cls-11" x1="743.1469" y1="488.5189" x2="569.4311" y2="488.5189"/><polyline class="cls-10" points="567.434 488.519 565.434 488.519 565.434 486.519"/><line class="cls-12" x1="565.4344" y1="482.5189" x2="565.4344" y2="444.5189"/><polyline class="cls-10" points="565.434 442.519 565.434 440.519 567.434 440.519"/><line class="cls-11" x1="571.4278" y1="440.5189" x2="745.1436" y2="440.5189"/><polyline class="cls-10" points="747.14 440.519 749.14 440.519 749.14 442.519"/><line class="cls-12" x1="749.1404" y1="446.5189" x2="749.1404" y2="484.5189"/><rect class="cls-6" x="564.5236" y="440.5189" width="3" height="48"/><rect class="cls-8" x="759.313" y="440.5189" width="183.706" height="48"/><polyline class="cls-10" points="943.019 486.519 943.019 488.519 941.019 488.519"/><line class="cls-11" x1="937.0255" y1="488.5189" x2="763.3097" y2="488.5189"/><polyline class="cls-10" points="761.313 488.519 759.313 488.519 759.313 486.519"/><line class="cls-12" x1="759.3129" y1="482.5189" x2="759.3129" y2="444.5189"/><polyline class="cls-10" points="759.313 442.519 759.313 440.519 761.313 440.519"/><line class="cls-11" x1="765.3064" y1="440.5189" x2="939.0222" y2="440.5189"/><polyline class="cls-10" points="941.019 440.519 943.019 440.519 943.019 442.519"/><line class="cls-12" x1="943.019" y1="446.5189" x2="943.019" y2="484.5189"/><rect class="cls-6" x="758.5732" y="440.5189" width="3" height="48"/><polygon class="cls-4" points="554.524 258.605 952.48 259.129 952.584 373.548 554.628 373.024 554.524 258.605"/><rect class="cls-9" x="554.4216" y="258.5985" width="48" height="48"/><rect class="cls-8" x="564.8451" y="315.8963" width="183.706" height="48"/><polyline class="cls-10" points="748.551 361.896 748.551 363.896 746.551 363.896"/><line class="cls-11" x1="742.5577" y1="363.8963" x2="568.8419" y2="363.8963"/><polyline class="cls-10" points="566.845 363.896 564.845 363.896 564.845 361.896"/><line class="cls-12" x1="564.8451" y1="357.8963" x2="564.8451" y2="319.8963"/><polyline class="cls-10" points="564.845 317.896 564.845 315.896 566.845 315.896"/><line class="cls-11" x1="570.8386" y1="315.8963" x2="744.5544" y2="315.8963"/><polyline class="cls-10" points="746.551 315.896 748.551 315.896 748.551 317.896"/><line class="cls-12" x1="748.5512" y1="321.8963" x2="748.5512" y2="359.8963"/><rect class="cls-6" x="563.9344" y="315.8963" width="3" height="48"/><rect class="cls-8" x="758.7237" y="315.8963" width="183.706" height="48"/><polyline class="cls-10" points="942.43 361.896 942.43 363.896 940.43 363.896"/><line class="cls-11" x1="936.4363" y1="363.8963" x2="762.7205" y2="363.8963"/><polyline class="cls-10" points="760.724 363.896 758.724 363.896 758.724 361.896"/><line class="cls-12" x1="758.7237" y1="357.8963" x2="758.7237" y2="319.8963"/><polyline class="cls-10" points="758.724 317.896 758.724 315.896 760.724 315.896"/><line class="cls-11" x1="764.7172" y1="315.8963" x2="938.433" y2="315.8963"/><polyline class="cls-10" points="940.43 315.896 942.43 315.896 942.43 317.896"/><line class="cls-12" x1="942.4297" y1="321.8963" x2="942.4297" y2="359.8963"/><rect class="cls-6" x="757.984" y="315.8963" width="3" height="48"/><rect class="cls-9" x="60.8943" y="204.7811" width="426.7581" height="309.9744"/><rect class="cls-3" x="60.8161" y="204.7811" width="48" height="48"/><path class="cls-8" d="M85.5256,228.4787l3.42,3.41.58.59h12.83v16h-24v-20h7.17m0-2h-7.17a2,2,0,0,0-2,2v20a2,2,0,0,0,2,2h24a2,2,0,0,0,2-2v-16a2,2,0,0,0-2-2h-12l-3.41-3.41A2,2,0,0,0,85.5256,226.4787Z" transform="translate(-5.5394 -9.6976)"/><polygon class="cls-4" points="78.582 387.083 476.538 387.607 476.643 502.026 78.687 501.502 78.582 387.083"/><rect class="cls-9" x="78.4798" y="387.0768" width="48" height="48"/><rect class="cls-8" x="88.9033" y="444.3746" width="183.706" height="48"/><polyline class="cls-10" points="272.609 490.375 272.609 492.375 270.609 492.375"/><line class="cls-11" x1="266.6158" y1="492.3745" x2="92.9" y2="492.3745"/><polyline class="cls-10" points="90.903 492.375 88.903 492.375 88.903 490.375"/><line class="cls-12" x1="88.9033" y1="486.3745" x2="88.9033" y2="448.3745"/><polyline class="cls-10" points="88.903 446.375 88.903 444.375 90.903 444.375"/><line class="cls-11" x1="94.8968" y1="444.3745" x2="268.6126" y2="444.3745"/><polyline class="cls-10" points="270.609 444.375 272.609 444.375 272.609 446.375"/><line class="cls-12" x1="272.6093" y1="450.3745" x2="272.6093" y2="488.3745"/><rect class="cls-6" x="87.9925" y="444.3746" width="3" height="48"/><rect class="cls-8" x="282.7819" y="444.3746" width="183.706" height="48"/><polyline class="cls-10" points="466.488 490.375 466.488 492.375 464.488 492.375"/><line class="cls-11" x1="460.4944" y1="492.3745" x2="286.7786" y2="492.3745"/><polyline class="cls-10" points="284.782 492.375 282.782 492.375 282.782 490.375"/><line class="cls-12" x1="282.7819" y1="486.3745" x2="282.7819" y2="448.3745"/><polyline class="cls-10" points="282.782 446.375 282.782 444.375 284.782 444.375"/><line class="cls-11" x1="288.7754" y1="444.3745" x2="462.4912" y2="444.3745"/><polyline class="cls-10" points="464.488 444.375 466.488 444.375 466.488 446.375"/><line class="cls-12" x1="466.4879" y1="450.3745" x2="466.4879" y2="488.3745"/><rect class="cls-6" x="282.0422" y="444.3746" width="3" height="48"/><polygon class="cls-4" points="77.992 262.461 475.949 262.985 476.053 377.404 78.097 376.88 77.992 262.461"/><rect class="cls-9" x="77.8906" y="262.4542" width="48" height="48"/><rect class="cls-8" x="88.3141" y="319.752" width="183.706" height="48"/><polyline class="cls-10" points="272.02 365.752 272.02 367.752 270.02 367.752"/><line class="cls-11" x1="266.0266" y1="367.752" x2="92.3108" y2="367.752"/><polyline class="cls-10" points="90.314 367.752 88.314 367.752 88.314 365.752"/><line class="cls-12" x1="88.3141" y1="361.752" x2="88.3141" y2="323.752"/><polyline class="cls-10" points="88.314 321.752 88.314 319.752 90.314 319.752"/><line class="cls-11" x1="94.3075" y1="319.752" x2="268.0234" y2="319.752"/><polyline class="cls-10" points="270.02 319.752 272.02 319.752 272.02 321.752"/><line class="cls-12" x1="272.0201" y1="325.752" x2="272.0201" y2="363.752"/><rect class="cls-6" x="87.4033" y="319.752" width="3" height="48"/><path class="cls-3" d="M98.4391,292.0449H109.41V294.08H98.4391Zm0,5.0889h12.9657v2.0355H98.4391Z" transform="translate(-5.5394 -9.6976)"/><path class="cls-3" d="M118.3864,281.867H94.45a2.0155,2.0155,0,0,0-1.9948,2.0356v20.3556a2.0155,2.0155,0,0,0,1.9948,2.0356h23.9367a2.0155,2.0155,0,0,0,1.9947-2.0356V283.9026A2.0155,2.0155,0,0,0,118.3864,281.867Zm0,2.0356v2.0356H94.45v-2.0356ZM94.45,304.2582V287.9737h23.9367v16.2845Z" transform="translate(-5.5394 -9.6976)"/><path class="cls-3" d="M98.4391,417.974H109.41V420.01H98.4391Zm0,5.0889h12.9657v2.0356H98.4391Z" transform="translate(-5.5394 -9.6976)"/><path class="cls-3" d="M118.3864,407.7962H94.45a2.0155,2.0155,0,0,0-1.9948,2.0356v20.3556a2.0154,2.0154,0,0,0,1.9948,2.0355h23.9367a2.0154,2.0154,0,0,0,1.9947-2.0355V409.8318A2.0155,2.0155,0,0,0,118.3864,407.7962Zm0,2.0356v2.0355H94.45v-2.0355ZM94.45,430.1874V413.9029h23.9367v16.2845Z" transform="translate(-5.5394 -9.6976)"/><path class="cls-3" d="M575.3657,415.974h10.9709V418.01H575.3657Zm0,5.0889h12.9657v2.0356H575.3657Z" transform="translate(-5.5394 -9.6976)"/><path class="cls-3" d="M595.3129,405.7962H571.3762a2.0154,2.0154,0,0,0-1.9947,2.0356v20.3556a2.0154,2.0154,0,0,0,1.9947,2.0355h23.9367a2.0154,2.0154,0,0,0,1.9947-2.0355V407.8318A2.0154,2.0154,0,0,0,595.3129,405.7962Zm0,2.0356v2.0355H571.3762v-2.0355Zm-23.9367,20.3556V411.9029h23.9367v16.2845Z" transform="translate(-5.5394 -9.6976)"/><path class="cls-3" d="M575.3657,290.0449h10.9709V292.08H575.3657Zm0,5.0889h12.9657v2.0355H575.3657Z" transform="translate(-5.5394 -9.6976)"/><path class="cls-3" d="M595.3129,279.867H571.3762a2.0154,2.0154,0,0,0-1.9947,2.0356v20.3556a2.0154,2.0154,0,0,0,1.9947,2.0356h23.9367a2.0154,2.0154,0,0,0,1.9947-2.0356V281.9026A2.0154,2.0154,0,0,0,595.3129,279.867Zm0,2.0356v2.0356H571.3762v-2.0356Zm-23.9367,20.3556V285.9737h23.9367v16.2845Z" transform="translate(-5.5394 -9.6976)"/></g><g id="Text"><text class="cls-13" transform="translate(56.4034 33.1175)">Business unit administration account </text><text class="cls-14" transform="translate(86.5607 166.7975)">Application - infrastructure sets</text><text class="cls-14" transform="translate(466.6761 87.0221)">Application catalog</text><text class="cls-14" transform="translate(815.2967 85.046)">Infrastructure catalog</text><text class="cls-14" transform="translate(593.4256 229.2845)">Shared infrastructure project</text><text class="cls-14" transform="translate(607.4213 411.6274)">Prod environment - production account</text><text class="cls-14" transform="translate(577.9984 469.5693)">Prod infrastructure</text><text class="cls-14" transform="translate(771.1371 469.1974)">App onboarding</text><text class="cls-14" transform="translate(606.8319 287.0047)">Dev environment - development account</text><text class="cls-14" transform="translate(577.409 344.9467)">Dev infrastructure</text><text class="cls-14" transform="translate(770.5477 344.5748)">App onboarding</text><text class="cls-14" transform="translate(116.8946 233.1402)">Application development project</text><text class="cls-14" transform="translate(130.8905 415.4831)">Infrastructure onboard - projects in admin account</text><text class="cls-14" transform="translate(101.4674 473.425)">Dev infra onboard</text><text class="cls-14" transform="translate(294.6063 473.0531)">Prod infra onboard</text><text class="cls-14" transform="translate(130.3006 290.8604)">Network and services - development account</text><text class="cls-14" transform="translate(100.878 348.8025)">Development tools</text><rect class="cls-9" x="1017.27" y="199.7388" width="426.7581" height="309.9744"/><rect class="cls-3" x="1016.1918" y="199.7388" width="48" height="48"/><text class="cls-14" transform="translate(1073.2699 228.098)">Infrastructure as code development project</text><path class="cls-8" d="M1040.9013,222.4784l3.42,3.41.58.59h12.83v16h-24v-20h7.17m0-2h-7.17a2,2,0,0,0-2,2v20a2,2,0,0,0,2,2h24a2,2,0,0,0,2-2v-16a2,2,0,0,0-2-2h-12l-3.41-3.41A2,2,0,0,0,1040.9013,220.4784Z" transform="translate(-5.5394 -9.6976)"/><polygon class="cls-4" points="1036.175 258.428 1434.131 258.952 1434.236 373.371 1036.28 372.847 1036.175 258.428"/><rect class="cls-9" x="1036.073" y="258.4215" width="48" height="48"/><path class="cls-3" d="M1057.017,289.8679h10.971v2.0355h-10.971Zm0,5.0889h12.9657v2.0355H1057.017Z" transform="translate(-5.5394 -9.6976)"/><path class="cls-3" d="M1076.9643,279.69h-23.9367a2.0154,2.0154,0,0,0-1.9948,2.0355v20.3556a2.0155,2.0155,0,0,0,1.9948,2.0356h23.9367a2.0154,2.0154,0,0,0,1.9947-2.0356V281.7256A2.0154,2.0154,0,0,0,1076.9643,279.69Zm0,2.0355v2.0356h-23.9367v-2.0356Zm-23.9367,20.3556V285.7968h23.9367v16.2844Z" transform="translate(-5.5394 -9.6976)"/><text class="cls-14" transform="translate(1088.4835 286.8277)">Infrastructure as code - development account</text><polygon class="cls-4" points="1036.226 383.051 1434.182 383.575 1434.287 497.994 1036.331 497.47 1036.226 383.051"/><rect class="cls-9" x="1036.1239" y="383.0441" width="48" height="48"/><path class="cls-3" d="M1056.4787,415.797h10.971v2.0356h-10.971Zm0,5.0889h12.9658v2.0356h-12.9658Z" transform="translate(-5.5394 -9.6976)"/><path class="cls-3" d="M1076.426,405.6192h-23.9367a2.0154,2.0154,0,0,0-1.9947,2.0356V428.01a2.0154,2.0154,0,0,0,1.9947,2.0356h23.9367a2.0154,2.0154,0,0,0,1.9947-2.0356V407.6548A2.0154,2.0154,0,0,0,1076.426,405.6192Zm0,2.0356V409.69h-23.9367v-2.0356ZM1052.4893,428.01V411.7259h23.9367V428.01Z" transform="translate(-5.5394 -9.6976)"/><text class="cls-14" transform="translate(1088.5338 411.4503)">Infrastructure as code - test account</text></g></svg>