<?xml version="1.0" encoding="UTF-8"?><svg xmlns="http://www.w3.org/2000/svg" viewBox="0 0 1067.56 255.21"><defs><style>.cls-1{stroke-dasharray:0 0 4 4;}.cls-1,.cls-2,.cls-3,.cls-4,.cls-5,.cls-6,.cls-7,.cls-8{stroke-miterlimit:10;}.cls-1,.cls-2,.cls-4,.cls-5,.cls-7,.cls-8{stroke:#3553a4;}.cls-1,.cls-7,.cls-8{fill:none;}.cls-9{font-family:IBMPlexSans, 'IBM Plex Sans';font-size:14px;}.cls-9,.cls-10{fill:#010101;}.cls-2,.cls-11{fill:#fff;}.cls-3{stroke:#eef5fb;}.cls-3,.cls-4{fill:#eef4fb;}.cls-5,.cls-6,.cls-12{fill:#3553a4;}.cls-6{stroke:#4267b1;}.cls-10{font-family:IBMPlexSans-SemiBold, 'IBM Plex Sans';font-size:16px;font-weight:600;}.cls-7{stroke-dasharray:0 0 3.99 3.99;}.cls-12,.cls-11{stroke-width:0px;}</style></defs><g id="Background"><rect class="cls-3" x=".51" y=".5" width="1066.55" height="254.21"/><rect class="cls-12" y=".5" width="48" height="48"/><polygon class="cls-2" points="38.71 76.16 702.48 76.96 703.97 211.49 38.71 211.49 38.71 76.16"/><rect class="cls-12" x="38.46" y="75.41" width="48" height="48"/><rect class="cls-5" x=".51" y="48.5" width="3" height="206.21"/><path class="cls-11" d="m16.77,22.04h10.97v2.04h-10.97v-2.04Zm0,5.09h12.97v2.04h-12.97v-2.04Z"/><path class="cls-11" d="m36.71,11.86H12.78c-1.1,0-1.99.91-1.99,2.04v20.36c0,1.12.89,2.04,1.99,2.04h23.94c1.1,0,1.99-.91,1.99-2.04V13.9c0-1.12-.89-2.04-1.99-2.04Zm0,2.04v2.04H12.78v-2.04h23.94Zm-23.94,20.36v-16.28h23.94v16.28H12.78Z"/><polygon class="cls-11" points="65.11 142.03 369.4 141.83 369.36 189.68 65.07 189.88 65.11 142.03"/><polyline class="cls-8" points="65.11 144.03 65.11 142.03 67.11 142.02"/><line class="cls-1" x1="71.11" y1="142.02" x2="365.4" y2="141.83"/><polyline class="cls-8" points="367.4 141.83 369.4 141.83 369.4 143.83"/><line class="cls-7" x1="369.4" y1="147.82" x2="369.37" y2="185.69"/><polyline class="cls-8" points="369.36 187.68 369.36 189.68 367.36 189.68"/><line class="cls-1" x1="363.36" y1="189.69" x2="69.07" y2="189.88"/><polyline class="cls-8" points="67.07 189.88 65.07 189.88 65.07 187.88"/><line class="cls-7" x1="65.08" y1="183.89" x2="65.11" y2="146.02"/><rect class="cls-4" x="65.06" y="142.02" width="48" height="48"/><polygon class="cls-11" points="382.66 141.12 686.95 140.92 686.91 188.77 382.62 188.97 382.66 141.12"/><polyline class="cls-8" points="382.66 143.12 382.66 141.12 384.66 141.11"/><line class="cls-1" x1="388.66" y1="141.11" x2="682.95" y2="140.92"/><polyline class="cls-8" points="684.95 140.92 686.95 140.92 686.95 142.92"/><line class="cls-7" x1="686.94" y1="146.91" x2="686.91" y2="184.78"/><polyline class="cls-8" points="686.91 186.77 686.91 188.77 684.91 188.77"/><line class="cls-1" x1="680.91" y1="188.78" x2="386.62" y2="188.97"/><polyline class="cls-8" points="384.62 188.97 382.62 188.97 382.62 186.97"/><line class="cls-7" x1="382.63" y1="182.98" x2="382.66" y2="145.11"/><rect class="cls-4" x="382.61" y="141.11" width="48" height="48"/><polygon class="cls-2" points="739.83 90.44 1048.9 90.72 1049.59 138.44 739.83 138.44 739.83 90.44"/><rect class="cls-12" x="739.39" y="90.61" width="48" height="48"/><path class="cls-11" d="m774.39,116.7c0-2.21-1.79-4-4-4h-14c-1.1,0-2-.9-2-2v-3.14c1.4-.36,2.49-1.46,2.86-2.86h12.28c.55,2.14,2.73,3.43,4.87,2.87,2.14-.55,3.43-2.73,2.87-4.87-.55-2.14-2.73-3.43-4.87-2.87-1.41.36-2.51,1.46-2.87,2.87h-12.28c-.55-2.14-2.72-3.42-4.86-2.87-2.14.55-3.42,2.72-2.87,4.86.36,1.41,1.46,2.51,2.87,2.87v3.14c0,2.21,1.79,4,4,4h14c1.1,0,2,.9,2,2v3h-3v3h-12.14c-.55-2.14-2.73-3.43-4.87-2.87-2.14.55-3.43,2.73-2.87,4.87s2.73,3.43,4.87,2.87c1.41-.36,2.51-1.46,2.87-2.87h12.14v3h8v-8h-3v-3Zm-1-15c1.1,0,2,.9,2,2s-.9,2-2,2-2-.9-2-2c0-1.1.9-2,2-2Zm-22,2c0-1.1.9-2,2-2s2,.9,2,2-.9,2-2,2c-1.1,0-2-.9-2-2Zm2,22c-1.1,0-2-.9-2-2s.9-2,2-2,2,.9,2,2c0,1.1-.9,2-2,2Zm22-4v4h-4v-4h4Z"/><path class="cls-11" d="m66.46,103.41v-3c0-2.21-1.79-4-4-4s-4,1.79-4,4v3c-1.1,0-2,.9-2,2v6c0,1.1.9,2,2,2h8c1.1,0,2-.9,2-2v-6c0-1.1-.9-2-2-2Zm-6-3c0-1.1.9-2,2-2s2,.9,2,2v3h-4v-3Zm-2,11v-6h8v6s-8,0-8,0Z"/><path class="cls-11" d="m72.29,93.53c-.77-4.02-3.92-7.16-7.94-7.93-5.42-1.05-10.67,2.5-11.72,7.92,0,0,0,0,0,0-4.08.74-6.79,4.64-6.05,8.71.64,3.57,3.75,6.16,7.37,6.17h.51v-2h-.5c-3.04,0-5.5-2.47-5.5-5.51,0-2.66,1.91-4.94,4.53-5.41l1.35-.24.26-1.35c.84-4.34,5.04-7.19,9.38-6.35,3.21.62,5.73,3.13,6.35,6.35l.26,1.35,1.35.24c2.99.54,4.98,3.4,4.44,6.39-.47,2.62-2.75,4.52-5.4,4.53h-.51v2h.51c4.14,0,7.5-3.37,7.49-7.51,0-3.63-2.6-6.73-6.17-7.37Z"/><path class="cls-12" d="m80.69,179.63h-6v-6h6v6Zm-4-2h2v-2h-2v2Z"/><path class="cls-12" d="m91.69,179.63h-6v-6h6v6Zm-4-2h2v-2h-2v2Z"/><path class="cls-12" d="m102.69,179.63h-6v-6h6v6Zm-4-2h2v-2h-2v2Z"/><path class="cls-12" d="m88.69,159.63c-2.21,0-4-1.79-4-4s1.79-4,4-4,4,1.79,4,4c0,2.21-1.79,4-4,4Zm0-6c-1.1,0-2,.9-2,2s.9,2,2,2,2-.9,2-2c0-1.1-.9-2-2-2Z"/><path class="cls-12" d="m98.69,165.63h-5c-2.21,0-4-1.79-4-4h-2c0,2.21-1.79,4-4,4h-5c-1.1,0-2,.9-2,2v4h2v-4h5c1.48,0,2.9-.55,4-1.54v5.54h2v-5.54c1.1.99,2.52,1.54,4,1.54h5v4h2v-4c0-1.1-.9-2-2-2Z"/><path class="cls-12" d="m418.14,151.82c-.38-.45-.94-.71-1.53-.71h-2.69c-.57,0-1.09.32-1.34.83l-.59,1.17h-1.38v-.5c0-.83-.67-1.5-1.5-1.5h-5c-.83,0-1.5.67-1.5,1.5v.5h-1.38l-.59-1.17c-.25-.51-.77-.83-1.34-.83h-2.69c-1.1,0-2,.9-2,2,0,.11,0,.22.03.33l.7,4.17c.24,1.44,1.49,2.5,2.96,2.5h.31v12c-1.66,0-3,1.34-3,3v4h22v-4c0-1.66-1.34-3-3-3v-12h.31c1.46,0,2.71-1.06,2.96-2.5l.7-4.17c.1-.58-.06-1.17-.44-1.62Zm-2.53,23.29v2h-18v-2c0-.55.45-1,1-1h16c.55,0,1,.45,1,1Zm-3-3h-12v-12h12v12Zm3.3-14.83c-.08.48-.5.83-.99.83h-16.62c-.49,0-.91-.35-.99-.83l-.7-4.17h2.38l1,2h4.62v-2h4v2h4.62l1-2h2.38l-.7,4.17Z"/></g><g id="Text"><text class="cls-10" transform="translate(56.4 32.91)"><tspan x="0" y="0">Business Unit (x) Admin Account</tspan></text><text class="cls-9" transform="translate(94.13 107.25)"><tspan x="0" y="0">Management / Edge VPC</tspan></text><text class="cls-9" transform="translate(118.47 170.42)"><tspan x="0" y="0">Public Loadbalancer</tspan></text><text class="cls-9" transform="translate(436.02 169.51)"><tspan x="0" y="0">Bastion</tspan></text><text class="cls-9" transform="translate(794.81 117.83)"><tspan x="0" y="0">Schematics Agent</tspan></text><polygon class="cls-2" points="739.39 149.21 1048.9 149.5 1049.59 197.21 739.39 197.21 739.39 149.21"/><text class="cls-9" transform="translate(794.14 178.64)"><tspan x="0" y="0">Security and Compliance Center</tspan></text><rect class="cls-6" x="739.62" y="149.21" width="48" height="48"/><path id="_Path_" class="cls-11" d="m778.18,175.21v5.5c0,1.5-.9,2.8-2.3,3.5l-1.7.8-1.7-.8c-1.4-.6-2.3-2-2.3-3.5v-5.5h8m2-2h-12v7.5c0,2.2,1.3,4.3,3.4,5.3l2.6,1.2,2.6-1.2c2.1-1,3.4-3,3.4-5.3v-7.5h0Z"/><path class="cls-11" d="m764.18,182.21h-8.5c-4.1,0-7.5-3.4-7.5-7.5,0-3.7,2.7-6.7,6.2-7.4.9-4.7,5-8.1,9.8-8.1,5.5,0,10,4.5,10,10h-2c0-4.4-3.6-8-8-8-4.1,0-7.5,3.1-8,7.1v.9h-.9c-2.9.2-5.1,2.6-5.1,5.5s2.5,5.5,5.5,5.5h8.5v2Z"/></g></svg>