<?xml version="1.0" encoding="utf-8"?>
<!-- Generator: Adobe Illustrator 26.0.1, SVG Export Plug-In . SVG Version: 6.00 Build 0)  -->
<svg version="1.1" xmlns="http://www.w3.org/2000/svg" xmlns:xlink="http://www.w3.org/1999/xlink" x="0px" y="0px" width="1584px"
	 height="502px" viewBox="0 0 1584 502" style="enable-background:new 0 0 1584 502;" xml:space="preserve">
<style type="text/css">
	.st0{fill-rule:evenodd;clip-rule:evenodd;fill:#EEF4FB;stroke:#EEF5FB;stroke-miterlimit:10;}
	.st1{fill-rule:evenodd;clip-rule:evenodd;fill:#FFFFFF;stroke:#3553A4;stroke-miterlimit:10;}
	.st2{fill-rule:evenodd;clip-rule:evenodd;fill:none;stroke:#3553A4;stroke-miterlimit:10;}
	.st3{fill-rule:evenodd;clip-rule:evenodd;fill:#3553A4;}
	.st4{fill:#FFFFFF;stroke:#3553A4;stroke-miterlimit:10;}
	.st5{fill:#3553A4;}
	.st6{fill:#3553A4;stroke:#3553A4;stroke-miterlimit:10;}
	.st7{fill:#FFFFFF;}
	.st8{fill:none;stroke:#3553A4;stroke-miterlimit:10;}
	.st9{fill:none;stroke:#3553A4;stroke-miterlimit:10;stroke-dasharray:4.0039,4.0039;}
	.st10{fill:none;stroke:#3553A4;stroke-miterlimit:10;stroke-dasharray:3.9866,3.9866;}
	.st11{fill:#EEF4FB;stroke:#3553A4;stroke-miterlimit:10;}
	.st12{fill-rule:evenodd;clip-rule:evenodd;fill:#FFFFFF;}
	.st13{fill:none;stroke:#3553A4;stroke-miterlimit:10;stroke-dasharray:3.9964,3.9964;}
	.st14{fill:none;stroke:#3553A4;stroke-miterlimit:10;stroke-dasharray:4.0984,4.0984;}
	.st15{fill:none;stroke:#3553A4;stroke-miterlimit:10;stroke-dasharray:4.0082,4.0082;}
	.st16{fill:none;stroke:#3553A4;stroke-miterlimit:10;stroke-dasharray:4.0822,4.0822;}
	.st17{fill:none;stroke:#3553A4;stroke-miterlimit:10;stroke-dasharray:4.004,4.004;}
	.st18{fill:none;stroke:#3553A4;stroke-miterlimit:10;stroke-dasharray:4.0206,4.0206;}
	.st19{fill:none;}
	.st20{fill:#010101;}
	.st21{font-family:'IBMPlexSans-SemiBold';}
	.st22{font-size:16px;}
	.st23{font-size:14px;}
</style>
<g id="Background">
	<rect x="256.3" y="7.9" class="st0" width="1066.5" height="479.9"/>
	<polyline class="st1" points="439.6,253 1160.5,253 1160.5,464.4 	"/>
	<polyline class="st2" points="435.5,257 1156.5,257 1156.5,466.9 	"/>
	<rect x="255.8" y="7.9" class="st3" width="48" height="48"/>
	<polygon class="st4" points="294.5,83.6 958.3,84.4 959.8,218.9 294.5,218.9 	"/>
	<rect x="294.3" y="82.8" class="st5" width="48" height="48"/>
	<rect x="256.3" y="55.9" class="st6" width="3" height="431.9"/>
	<g>
		<path class="st7" d="M272.6,29.5h11v2h-11V29.5z M272.6,34.5h13v2h-13V34.5z"/>
		<path class="st7" d="M292.5,19.3h-23.9c-1.1,0-2,0.9-2,2v20.4c0,1.1,0.9,2,2,2h23.9c1.1,0,2-0.9,2-2V21.3
			C294.5,20.2,293.6,19.3,292.5,19.3z M292.5,21.3v2h-23.9v-2H292.5z M268.6,41.7V25.4h23.9v16.3H268.6z"/>
	</g>
	<g>
		<polygon class="st7" points="320.9,149.4 625.2,149.3 625.2,197.1 320.9,197.3 		"/>
		<g>
			<polyline class="st8" points="320.9,151.4 320.9,149.4 322.9,149.4 			"/>
			<line class="st9" x1="326.9" y1="149.4" x2="621.2" y2="149.3"/>
			<polyline class="st8" points="623.2,149.3 625.2,149.3 625.2,151.3 			"/>
			<line class="st10" x1="625.2" y1="155.2" x2="625.2" y2="193.1"/>
			<polyline class="st8" points="625.2,195.1 625.2,197.1 623.2,197.1 			"/>
			<line class="st9" x1="619.2" y1="197.1" x2="324.9" y2="197.3"/>
			<polyline class="st8" points="322.9,197.3 320.9,197.3 320.9,195.3 			"/>
			<line class="st10" x1="320.9" y1="191.3" x2="320.9" y2="153.4"/>
		</g>
	</g>
	<rect x="320.9" y="149.4" class="st11" width="48" height="48"/>
	<g>
		<polygon class="st7" points="638.5,148.5 942.7,148.3 942.7,196.2 638.4,196.4 		"/>
		<g>
			<polyline class="st8" points="638.5,150.5 638.5,148.5 640.5,148.5 			"/>
			<line class="st9" x1="644.5" y1="148.5" x2="938.7" y2="148.3"/>
			<polyline class="st8" points="940.7,148.3 942.7,148.3 942.7,150.3 			"/>
			<line class="st10" x1="942.7" y1="154.3" x2="942.7" y2="192.2"/>
			<polyline class="st8" points="942.7,194.2 942.7,196.2 940.7,196.2 			"/>
			<line class="st9" x1="936.7" y1="196.2" x2="642.4" y2="196.4"/>
			<polyline class="st8" points="640.4,196.4 638.4,196.4 638.4,194.4 			"/>
			<line class="st10" x1="638.4" y1="190.4" x2="638.5" y2="152.5"/>
		</g>
	</g>
	<rect x="638.4" y="148.5" class="st11" width="48" height="48"/>
	<polygon class="st4" points="995.4,124.3 1304.5,124.5 1305.2,172.3 995.4,172.3 	"/>
	<rect x="995" y="124.4" class="st5" width="48" height="48"/>
	<g>
		<path class="st7" d="M1030,150.5c0-2.2-1.8-4-4-4h-14c-1.1,0-2-0.9-2-2v-3.1c1.4-0.4,2.5-1.5,2.9-2.9h12.3
			c0.6,2.1,2.7,3.4,4.9,2.9c2.1-0.6,3.4-2.7,2.9-4.9c-0.6-2.1-2.7-3.4-4.9-2.9c-1.4,0.4-2.5,1.5-2.9,2.9h-12.3
			c-0.5-2.1-2.7-3.4-4.9-2.9s-3.4,2.7-2.9,4.9c0.4,1.4,1.5,2.5,2.9,2.9v3.1c0,2.2,1.8,4,4,4h14c1.1,0,2,0.9,2,2v3h-3v3h-12.1
			c-0.6-2.1-2.7-3.4-4.9-2.9c-2.1,0.6-3.4,2.7-2.9,4.9c0.6,2.1,2.7,3.4,4.9,2.9c1.4-0.4,2.5-1.5,2.9-2.9h12.1v3h8v-8h-3V150.5z
			 M1029,135.5c1.1,0,2,0.9,2,2s-0.9,2-2,2c-1.1,0-2-0.9-2-2C1027,136.4,1027.9,135.5,1029,135.5z M1007,137.5c0-1.1,0.9-2,2-2
			c1.1,0,2,0.9,2,2s-0.9,2-2,2C1007.9,139.5,1007,138.6,1007,137.5z M1009,159.5c-1.1,0-2-0.9-2-2c0-1.1,0.9-2,2-2c1.1,0,2,0.9,2,2
			C1011,158.6,1010.1,159.5,1009,159.5z M1031,155.5v4h-4v-4H1031z"/>
	</g>
	<g>
		<path class="st7" d="M322.3,110.8v-3c0-2.2-1.8-4-4-4s-4,1.8-4,4v3c-1.1,0-2,0.9-2,2v6c0,1.1,0.9,2,2,2h8c1.1,0,2-0.9,2-2v-6
			C324.3,111.7,323.4,110.8,322.3,110.8z M316.3,107.8c0-1.1,0.9-2,2-2c1.1,0,2,0.9,2,2v3h-4V107.8z M314.3,118.8v-6h8l0,6H314.3z"
			/>
		<path class="st7" d="M328.1,100.9c-0.8-4-3.9-7.2-7.9-7.9c-5.4-1-10.7,2.5-11.7,7.9c0,0,0,0,0,0c-4.1,0.7-6.8,4.6-6.1,8.7
			c0.6,3.6,3.7,6.2,7.4,6.2h0.5v-2h-0.5c-3,0-5.5-2.5-5.5-5.5c0-2.7,1.9-4.9,4.5-5.4l1.3-0.2l0.3-1.3c0.8-4.3,5-7.2,9.4-6.3
			c3.2,0.6,5.7,3.1,6.3,6.3l0.3,1.3l1.3,0.2c3,0.5,5,3.4,4.4,6.4c-0.5,2.6-2.7,4.5-5.4,4.5h-0.5v2h0.5c4.1,0,7.5-3.4,7.5-7.5
			C334.3,104.7,331.7,101.6,328.1,100.9z"/>
	</g>
	<g>
		<path class="st5" d="M336.5,187.1h-6v-6h6V187.1z M332.5,185.1h2v-2h-2V185.1z"/>
		<path class="st5" d="M347.5,187.1h-6v-6h6V187.1z M343.5,185.1h2v-2h-2V185.1z"/>
		<path class="st5" d="M358.5,187.1h-6v-6h6V187.1z M354.5,185.1h2v-2h-2V185.1z"/>
		<path class="st5" d="M344.5,167.1c-2.2,0-4-1.8-4-4s1.8-4,4-4s4,1.8,4,4C348.5,165.3,346.7,167,344.5,167.1z M344.5,161.1
			c-1.1,0-2,0.9-2,2s0.9,2,2,2c1.1,0,2-0.9,2-2C346.5,161.9,345.6,161.1,344.5,161.1z"/>
		<path class="st5" d="M354.5,173.1h-5c-2.2,0-4-1.8-4-4h-2c0,2.2-1.8,4-4,4h-5c-1.1,0-2,0.9-2,2v4h2v-4h5c1.5,0,2.9-0.5,4-1.5v5.5
			h2v-5.5c1.1,1,2.5,1.5,4,1.5h5v4h2v-4C356.5,173.9,355.6,173.1,354.5,173.1z"/>
	</g>
	<polygon class="st4" points="431.9,259.5 1152.1,260.8 1153.7,470.2 431.9,470.2 	"/>
	<rect x="431.9" y="259.6" class="st5" width="48" height="48"/>
	<g>
		<path class="st7" d="M454.9,286h-10c-1.1,0-2-0.9-2-2v-10c0-1.1,0.9-2,2-2h10c1.1,0,2,0.9,2,2v10C456.9,285.1,456,286,454.9,286z
			 M444.9,274v10h10v-10H444.9z"/>
		<path class="st7" d="M464.9,280v4h-4v-4H464.9 M464.9,278h-4c-1.1,0-2,0.9-2,2v4c0,1.1,0.9,2,2,2h4c1.1,0,2-0.9,2-2v-4
			C466.9,278.9,466,278,464.9,278z"/>
		<path class="st7" d="M464.9,290v4h-4v-4H464.9 M464.9,288h-4c-1.1,0-2,0.9-2,2v4c0,1.1,0.9,2,2,2h4c1.1,0,2-0.9,2-2v-4
			C466.9,288.9,466,288,464.9,288z"/>
		<path class="st7" d="M454.9,290v4h-4v-4H454.9 M454.9,288h-4c-1.1,0-2,0.9-2,2v4c0,1.1,0.9,2,2,2h4c1.1,0,2-0.9,2-2v-4
			C456.9,288.9,456,288,454.9,288z"/>
	</g>
	<path class="st5" d="M673.9,159.2c-0.4-0.5-0.9-0.7-1.5-0.7h-2.7c-0.6,0-1.1,0.3-1.3,0.8l-0.6,1.2h-1.4V160c0-0.8-0.7-1.5-1.5-1.5
		h-5c-0.8,0-1.5,0.7-1.5,1.5v0.5H657l-0.6-1.2c-0.3-0.5-0.8-0.8-1.3-0.8h-2.7c-1.1,0-2,0.9-2,2c0,0.1,0,0.2,0,0.3l0.7,4.2
		c0.2,1.4,1.5,2.5,3,2.5h0.3v12c-1.7,0-3,1.3-3,3v4h22v-4c0-1.7-1.3-3-3-3v-12h0.3c1.5,0,2.7-1.1,3-2.5l0.7-4.2
		C674.5,160.3,674.3,159.7,673.9,159.2z M671.4,182.5v2h-18v-2c0-0.6,0.4-1,1-1h16C671,181.5,671.4,182,671.4,182.5z M668.4,179.5
		h-12v-12h12V179.5z M671.7,164.7c-0.1,0.5-0.5,0.8-1,0.8h-16.6c-0.5,0-0.9-0.4-1-0.8l-0.7-4.2h2.4l1,2h4.6v-2h4v2h4.6l1-2h2.4
		L671.7,164.7z"/>
	<g>
		<polyline class="st12" points="466.9,321.1 770.6,321.1 770.6,452.2 		"/>
		<g>
			<line class="st8" x1="466.9" y1="321.1" x2="468.9" y2="321.1"/>
			<line class="st13" x1="472.9" y1="321.1" x2="766.6" y2="321.1"/>
			<polyline class="st8" points="768.6,321.1 770.6,321.1 770.6,323.1 			"/>
			<line class="st14" x1="770.6" y1="327.2" x2="770.6" y2="448.1"/>
			<line class="st8" x1="770.6" y1="450.2" x2="770.6" y2="452.2"/>
		</g>
	</g>
	<g>
		<g>
			<line class="st8" x1="462.9" y1="324.7" x2="464.9" y2="324.7"/>
			<line class="st15" x1="468.9" y1="324.7" x2="763.5" y2="324.7"/>
			<polyline class="st8" points="765.5,324.7 767.5,324.7 767.5,326.7 			"/>
			<line class="st16" x1="767.5" y1="330.8" x2="767.5" y2="451.2"/>
			<line class="st8" x1="767.5" y1="453.3" x2="767.5" y2="455.3"/>
		</g>
	</g>
	<g>
		<polygon class="st7" points="459.3,328 763.6,329 763.8,457.6 459.5,456.6 		"/>
		<g>
			<polyline class="st8" points="459.3,330 459.3,328 461.3,328 			"/>
			<line class="st17" x1="465.3" y1="328" x2="759.6" y2="329"/>
			<polyline class="st8" points="761.6,329 763.6,329 763.6,331 			"/>
			<line class="st18" x1="763.6" y1="335" x2="763.8" y2="453.6"/>
			<polyline class="st8" points="763.8,455.6 763.8,457.6 761.8,457.6 			"/>
			<line class="st17" x1="757.8" y1="457.6" x2="463.5" y2="456.6"/>
			<polyline class="st8" points="461.5,456.6 459.5,456.6 459.5,454.6 			"/>
			<line class="st18" x1="459.5" y1="450.6" x2="459.3" y2="332"/>
		</g>
	</g>
	<rect x="459.2" y="328" class="st11" width="48" height="48"/>
	<polyline class="st1" points="500,387.6 684.1,387.6 684.1,437.2 	"/>
	<polyline class="st2" points="497.8,390.6 681.2,390.6 681.2,439.3 	"/>
	<rect x="494.8" y="393" class="st1" width="183.7" height="48"/>
	<rect x="494.8" y="393" class="st6" width="3" height="48"/>
	<g>
		<polyline class="st12" points="820.5,318.4 1124.2,318.4 1124.2,449.5 		"/>
		<g>
			<line class="st8" x1="820.5" y1="318.4" x2="822.5" y2="318.4"/>
			<line class="st13" x1="826.5" y1="318.4" x2="1120.2" y2="318.4"/>
			<polyline class="st8" points="1122.2,318.4 1124.2,318.4 1124.2,320.4 			"/>
			<line class="st14" x1="1124.2" y1="324.5" x2="1124.2" y2="445.4"/>
			<line class="st8" x1="1124.2" y1="447.5" x2="1124.2" y2="449.5"/>
		</g>
	</g>
	<g>
		<g>
			<line class="st8" x1="816.5" y1="322" x2="818.5" y2="322"/>
			<line class="st15" x1="822.5" y1="322" x2="1117.1" y2="322"/>
			<polyline class="st8" points="1119.1,322 1121.1,322 1121.1,324 			"/>
			<line class="st16" x1="1121.1" y1="328.1" x2="1121.1" y2="448.5"/>
			<line class="st8" x1="1121.1" y1="450.6" x2="1121.1" y2="452.6"/>
		</g>
	</g>
	<g>
		<polygon class="st7" points="812.9,325.3 1117.2,326.3 1117.4,454.9 813.1,453.9 		"/>
		<g>
			<polyline class="st8" points="812.9,327.3 812.9,325.3 814.9,325.3 			"/>
			<line class="st17" x1="818.9" y1="325.3" x2="1113.2" y2="326.3"/>
			<polyline class="st8" points="1115.2,326.3 1117.2,326.3 1117.2,328.3 			"/>
			<line class="st18" x1="1117.2" y1="332.3" x2="1117.4" y2="450.9"/>
			<polyline class="st8" points="1117.4,452.9 1117.4,454.9 1115.4,454.9 			"/>
			<line class="st17" x1="1111.4" y1="454.9" x2="817.1" y2="453.9"/>
			<polyline class="st8" points="815.1,453.9 813.1,453.9 813.1,451.9 			"/>
			<line class="st18" x1="813.1" y1="447.9" x2="812.9" y2="329.3"/>
		</g>
	</g>
	<rect x="812.8" y="325.3" class="st11" width="48" height="48"/>
	<polyline class="st1" points="853.6,384.8 1037.8,384.8 1037.8,434.5 	"/>
	<polyline class="st2" points="851.5,387.9 1034.8,387.9 1034.8,436.6 	"/>
	<rect x="848.5" y="390.2" class="st1" width="183.7" height="48"/>
	<rect x="848.5" y="390.2" class="st6" width="3" height="48"/>
	<g>
		<path class="st5" d="M842.5,357.9h-12c-1.1,0-2-0.9-2-2v-12c0-1.1,0.9-2,2-2h12c1.1,0,2,0.9,2,2v12
			C844.5,357,843.6,357.9,842.5,357.9z M830.5,343.9v12h12v-12H830.5z"/>
		<path class="st5" d="M828.5,363.9h-4c-1.1,0-2-0.9-2-2v-24c0-1.1,0.9-2,2-2h4v2h-4v24h4V363.9z"/>
		<path class="st5" d="M848.5,363.9h-4v-2h4v-24h-4v-2h4c1.1,0,2,0.9,2,2v24C850.5,363,849.6,363.9,848.5,363.9z"/>
	</g>
	<g>
		<path class="st5" d="M489.2,360h-12c-1.1,0-2-0.9-2-2v-12c0-1.1,0.9-2,2-2h12c1.1,0,2,0.9,2,2v12C491.2,359.1,490.3,360,489.2,360
			z M477.2,346v12h12v-12H477.2z"/>
		<path class="st5" d="M475.2,366h-4c-1.1,0-2-0.9-2-2v-24c0-1.1,0.9-2,2-2h4v2h-4v24h4V366z"/>
		<path class="st5" d="M495.2,366h-4v-2h4v-24h-4v-2h4c1.1,0,2,0.9,2,2v24C497.2,365.1,496.3,366,495.2,366z"/>
	</g>
</g>
<g id="Text">
	<g>
		<rect x="312.2" y="28.5" class="st19" width="258" height="32"/>
		<text transform="matrix(1 0 0 1 312.2034 40.3335)" class="st20 st21 st22">Business Unit (x) Admin Account</text>
	</g>
	<g>
		<rect x="349.9" y="104.3" class="st19" width="198.3" height="14.1"/>
		<text transform="matrix(1 0 0 1 349.9297 114.6743)" class="st20 st21 st23">Management / Edge VPC</text>
	</g>
	<g>
		<rect x="374.3" y="167.5" class="st19" width="210.3" height="11.9"/>
		<text transform="matrix(1 0 0 1 374.2703 177.8447)" class="st20 st21 st23">Public Loadbalancer</text>
	</g>
	<g>
		<rect x="691.8" y="166.6" class="st19" width="202.7" height="11.9"/>
		<text transform="matrix(1 0 0 1 691.8188 176.9358)" class="st20 st21 st23">Bastion</text>
	</g>
	<g>
		<rect x="1050.4" y="141.3" class="st19" width="207.3" height="14.1"/>
		<text transform="matrix(1 0 0 1 1050.3838 151.6431)" class="st20 st21 st23">Schematics Agent</text>
	</g>
	<g>
		<rect x="487.5" y="281" class="st19" width="176.2" height="14.1"/>
		<text transform="matrix(1 0 0 1 487.5439 291.3506)" class="st20 st21 st23">App - Infrastructure sets</text>
	</g>
	<g>
		<rect x="512.6" y="339" class="st19" width="210.3" height="41.2"/>
		<text transform="matrix(1 0 0 1 512.6152 349.329)"><tspan x="0" y="0" class="st20 st21 st23">App Development - Project 1 </tspan><tspan x="0" y="18" class="st20 st21 st23">Resource Group</tspan></text>
	</g>
	<g>
		<rect x="511" y="411" class="st19" width="160.6" height="11.9"/>
		<text transform="matrix(1 0 0 1 510.9497 421.3657)" class="st20 st21 st23">Schematics Workspace</text>
	</g>
	<g>
		<rect x="864.6" y="408.3" class="st19" width="160.6" height="11.9"/>
		<text transform="matrix(1 0 0 1 864.5923 418.6354)" class="st20 st21 st23">Schematics Workspace</text>
	</g>
	<g>
		<rect x="867.4" y="336.2" class="st19" width="228" height="41.2"/>
		<text transform="matrix(1 0 0 1 867.4141 346.5986)"><tspan x="0" y="0" class="st20 st21 st23">Shared Infrastructure- Project 1 </tspan><tspan x="0" y="18" class="st20 st21 st23">Resource Group</tspan></text>
	</g>
</g>
</svg>
