<svg xmlns="http://www.w3.org/2000/svg" viewBox="0 0 1014.11 556.55"><defs><style>.cls-1,.cls-9{fill:#eef4fb;}.cls-1{stroke:#eef5fb;}.cls-1,.cls-10,.cls-11,.cls-12,.cls-2,.cls-4,.cls-5,.cls-6,.cls-9{stroke-miterlimit:10;}.cls-2,.cls-4,.cls-8{fill:#fff;}.cls-10,.cls-11,.cls-12,.cls-2,.cls-4,.cls-5,.cls-6,.cls-9{stroke:#3553a4;}.cls-2,.cls-5{fill-rule:evenodd;}.cls-3,.cls-6{fill:#3553a4;}.cls-10,.cls-11,.cls-12,.cls-5,.cls-7{fill:none;}.cls-11{stroke-dasharray:3.99 3.99;}.cls-12{stroke-dasharray:4 4;}.cls-13{font-size:16px;}.cls-13,.cls-19{fill:#010101;font-family:IBMPlexSans-SemiBold, IBM Plex Sans;font-weight:600;}.cls-14{letter-spacing:-0.01em;}.cls-15{letter-spacing:-0.01em;}.cls-16{letter-spacing:-0.01em;}.cls-17{letter-spacing:0em;}.cls-18{letter-spacing:-0.01em;}.cls-19{font-size:14px;}.cls-20{letter-spacing:0em;}.cls-21{letter-spacing:-0.01em;}.cls-22{letter-spacing:0em;}.cls-23{letter-spacing:0em;}.cls-24{letter-spacing:-0.01em;}.cls-25{letter-spacing:-0.01em;}.cls-26{letter-spacing:-0.01em;}.cls-27{letter-spacing:-0.01em;}.cls-28{letter-spacing:-0.01em;}.cls-29{letter-spacing:-0.01em;}.cls-30{letter-spacing:0.01em;}.cls-31{letter-spacing:0em;}</style></defs><g id="Background"><rect class="cls-1" x="0.51" y="0.5" width="1013.1" height="555.55"/><polyline class="cls-2" points="41.14 129.34 998.8 129.34 998.8 520.65"/><rect class="cls-3" y="0.5" width="48" height="48"/><polygon class="cls-4" points="31.14 135.7 988.1 138.04 990.25 532.39 31.14 532.39 31.14 135.7"/><polyline class="cls-5" points="36.71 133.34 994.8 133.34 994.8 525.91"/><rect class="cls-3" x="31.14" y="135.7" width="48" height="48"/><rect class="cls-6" x="0.51" y="48.5" width="3" height="507.55"/><polygon class="cls-4" points="287.63 58.65 507.83 58.93 508.33 106.65 287.63 106.65 287.63 58.65"/><rect class="cls-6" x="287.23" y="58.65" width="48" height="48"/><polygon class="cls-4" points="518.62 59.1 738.82 59.38 739.32 107.1 518.62 107.1 518.62 59.1"/><rect class="cls-6" x="518.22" y="59.1" width="48" height="48"/><rect id="_Transparent_Rectangle_" data-name="&lt;Transparent Rectangle&gt;" class="cls-7" x="524.85" y="67.1" width="32" height="32"/><path class="cls-8" d="M586.36,100.74h-5v-4h2v-2h-2v-5h2v-2h-2v-5h2v-2h-2v-4h18v16h2v-16a2,2,0,0,0-2-2h-18a2,2,0,0,0-2,2v4h-2v2h2v5h-2v2h2v5h-2v2h2v4a2,2,0,0,0,2,2h5Z" transform="translate(-278.73 -5.43)"/><path class="cls-8" d="M594.36,99.31h-5a1,1,0,0,1-1-1v-5a1,1,0,0,1,1-1h5a1,1,0,0,1,1,1v5A1,1,0,0,1,594.36,99.31Zm-5-6v5h5v-5Z" transform="translate(-278.73 -5.43)"/><path class="cls-8" d="M599.36,96.31v2h-2v-2h2m0-1h-2a1,1,0,0,0-1,1v2a1,1,0,0,0,1,1h2a1,1,0,0,0,1-1v-2A1,1,0,0,0,599.36,95.31Z" transform="translate(-278.73 -5.43)"/><path class="cls-8" d="M599.36,101.31v2h-2v-2h2m0-1h-2a1,1,0,0,0-1,1v2a1,1,0,0,0,1,1h2a1,1,0,0,0,1-1v-2A1,1,0,0,0,599.36,100.31Z" transform="translate(-278.73 -5.43)"/><path class="cls-8" d="M594.36,101.31v2h-2v-2h2m0-1h-2a1,1,0,0,0-1,1v2a1,1,0,0,0,1,1h2a1,1,0,0,0,1-1v-2A1,1,0,0,0,594.36,100.31Z" transform="translate(-278.73 -5.43)"/><path class="cls-8" d="M817.94,100h-5V96h2V94h-2V89h2V87h-2V82h2V80h-2V76h18V92h2V76a2,2,0,0,0-2-2h-18a2,2,0,0,0-2,2v4h-2v2h2v5h-2v2h2v5h-2v2h2v4a2,2,0,0,0,2,2h5Z" transform="translate(-278.73 -5.43)"/><rect class="cls-8" x="540.85" y="86.31" width="10" height="2"/><rect class="cls-8" x="540.85" y="90.31" width="10" height="2"/><rect class="cls-8" x="540.85" y="94.31" width="10" height="2"/><path class="cls-8" d="M295.49,27.47h11v2h-11Zm0,5.09h13v2h-13Z" transform="translate(-278.73 -5.43)"/><path class="cls-8" d="M315.44,17.29H291.5a2,2,0,0,0-2,2V39.68a2,2,0,0,0,2,2h23.94a2,2,0,0,0,2-2V19.32A2,2,0,0,0,315.44,17.29Zm0,2v2H291.5v-2ZM291.5,39.68V23.4h23.94V39.68Z" transform="translate(-278.73 -5.43)"/><path class="cls-8" d="M325.87,152.86v4h-4v-4Zm2-2h-8v8h8Zm8,2v4h-4v-4Zm2-2h-8v8h8Zm8,2v4h-4v-4Zm2-2h-8v8h8Zm-22,12v4h-4v-4Zm2-2h-8v8h8Zm8,2v4h-4v-4Zm2-2h-8v8h8Zm8,2v4h-4v-4Zm2-2h-8v8h8Zm-22,12v4h-4v-4Zm2-2h-8v8h8Zm8,2v4h-4v-4Zm2-2h-8v8h8Zm8,2v4h-4v-4Zm2-2h-8v8h8Z" transform="translate(-278.73 -5.43)"/><polyline class="cls-5" points="63.11 198.35 493.52 198.35 493.52 510.69"/><polyline class="cls-5" points="67.83 194.35 497.52 194.35 497.52 506.17"/><rect class="cls-9" x="537.43" y="200.72" width="426.76" height="309.97"/><rect class="cls-3" x="537.35" y="200.72" width="48" height="48"/><path class="cls-8" d="M835.25,220.15l3.42,3.41.58.59h12.83v16h-24v-20h7.17m0-2h-7.17a2,2,0,0,0-2,2v20a2,2,0,0,0,2,2h24a2,2,0,0,0,2-2v-16a2,2,0,0,0-2-2h-12l-3.41-3.41A2,2,0,0,0,835.25,218.15Z" transform="translate(-278.73 -5.43)"/><polygon class="cls-4" points="555.11 383.02 953.07 383.55 953.17 497.97 555.22 497.44 555.11 383.02"/><rect class="cls-9" x="555.01" y="383.02" width="48" height="48"/><rect class="cls-8" x="565.43" y="440.31" width="183.71" height="48"/><polyline class="cls-10" points="749.14 486.31 749.14 488.31 747.14 488.31"/><line class="cls-11" x1="743.15" y1="488.31" x2="569.43" y2="488.31"/><polyline class="cls-10" points="567.43 488.31 565.43 488.31 565.43 486.31"/><line class="cls-12" x1="565.43" y1="482.31" x2="565.43" y2="444.31"/><polyline class="cls-10" points="565.43 442.31 565.43 440.31 567.43 440.31"/><line class="cls-11" x1="571.43" y1="440.31" x2="745.14" y2="440.31"/><polyline class="cls-10" points="747.14 440.31 749.14 440.31 749.14 442.31"/><line class="cls-12" x1="749.14" y1="446.31" x2="749.14" y2="484.31"/><rect class="cls-6" x="564.52" y="440.31" width="3" height="48"/><rect class="cls-8" x="759.31" y="440.31" width="183.71" height="48"/><polyline class="cls-10" points="943.02 486.31 943.02 488.31 941.02 488.31"/><line class="cls-11" x1="937.03" y1="488.31" x2="763.31" y2="488.31"/><polyline class="cls-10" points="761.31 488.31 759.31 488.31 759.31 486.31"/><line class="cls-12" x1="759.31" y1="482.31" x2="759.31" y2="444.31"/><polyline class="cls-10" points="759.31 442.31 759.31 440.31 761.31 440.31"/><line class="cls-11" x1="765.31" y1="440.31" x2="939.02" y2="440.31"/><polyline class="cls-10" points="941.02 440.31 943.02 440.31 943.02 442.31"/><line class="cls-12" x1="943.02" y1="446.31" x2="943.02" y2="484.31"/><rect class="cls-6" x="758.57" y="440.31" width="3" height="48"/><polygon class="cls-4" points="554.52 258.4 952.48 258.92 952.58 373.34 554.63 372.82 554.52 258.4"/><rect class="cls-9" x="554.42" y="258.39" width="48" height="48"/><rect class="cls-8" x="564.85" y="315.69" width="183.71" height="48"/><polyline class="cls-10" points="748.55 361.69 748.55 363.69 746.55 363.69"/><line class="cls-11" x1="742.56" y1="363.69" x2="568.84" y2="363.69"/><polyline class="cls-10" points="566.85 363.69 564.85 363.69 564.85 361.69"/><line class="cls-12" x1="564.85" y1="357.69" x2="564.85" y2="319.69"/><polyline class="cls-10" points="564.85 317.69 564.85 315.69 566.85 315.69"/><line class="cls-11" x1="570.84" y1="315.69" x2="744.55" y2="315.69"/><polyline class="cls-10" points="746.55 315.69 748.55 315.69 748.55 317.69"/><line class="cls-12" x1="748.55" y1="321.69" x2="748.55" y2="359.69"/><rect class="cls-6" x="563.93" y="315.69" width="3" height="48"/><rect class="cls-8" x="758.72" y="315.69" width="183.71" height="48"/><polyline class="cls-10" points="942.43 361.69 942.43 363.69 940.43 363.69"/><line class="cls-11" x1="936.44" y1="363.69" x2="762.72" y2="363.69"/><polyline class="cls-10" points="760.72 363.69 758.72 363.69 758.72 361.69"/><line class="cls-12" x1="758.72" y1="357.69" x2="758.72" y2="319.69"/><polyline class="cls-10" points="758.72 317.69 758.72 315.69 760.72 315.69"/><line class="cls-11" x1="764.72" y1="315.69" x2="938.43" y2="315.69"/><polyline class="cls-10" points="940.43 315.69 942.43 315.69 942.43 317.69"/><line class="cls-12" x1="942.43" y1="321.69" x2="942.43" y2="359.69"/><rect class="cls-6" x="757.98" y="315.69" width="3" height="48"/><rect class="cls-9" x="60.89" y="204.58" width="426.76" height="309.97"/><rect class="cls-3" x="60.82" y="204.58" width="48" height="48"/><path class="cls-8" d="M358.71,224l3.42,3.41.58.59h12.83v16h-24V224h7.17m0-2h-7.17a2,2,0,0,0-2,2v20a2,2,0,0,0,2,2h24a2,2,0,0,0,2-2V228a2,2,0,0,0-2-2h-12l-3.41-3.41A2,2,0,0,0,358.71,222Z" transform="translate(-278.73 -5.43)"/><polygon class="cls-4" points="78.58 386.88 476.54 387.4 476.64 501.82 78.69 501.3 78.58 386.88"/><rect class="cls-9" x="78.48" y="386.87" width="48" height="48"/><rect class="cls-8" x="88.9" y="444.17" width="183.71" height="48"/><polyline class="cls-10" points="272.61 490.17 272.61 492.17 270.61 492.17"/><line class="cls-11" x1="266.62" y1="492.17" x2="92.9" y2="492.17"/><polyline class="cls-10" points="90.9 492.17 88.9 492.17 88.9 490.17"/><line class="cls-12" x1="88.9" y1="486.17" x2="88.9" y2="448.17"/><polyline class="cls-10" points="88.9 446.17 88.9 444.17 90.9 444.17"/><line class="cls-11" x1="94.9" y1="444.17" x2="268.61" y2="444.17"/><polyline class="cls-10" points="270.61 444.17 272.61 444.17 272.61 446.17"/><line class="cls-12" x1="272.61" y1="450.17" x2="272.61" y2="488.17"/><rect class="cls-6" x="87.99" y="444.17" width="3" height="48"/><rect class="cls-8" x="282.78" y="444.17" width="183.71" height="48"/><polyline class="cls-10" points="466.49 490.17 466.49 492.17 464.49 492.17"/><line class="cls-11" x1="460.49" y1="492.17" x2="286.78" y2="492.17"/><polyline class="cls-10" points="284.78 492.17 282.78 492.17 282.78 490.17"/><line class="cls-12" x1="282.78" y1="486.17" x2="282.78" y2="448.17"/><polyline class="cls-10" points="282.78 446.17 282.78 444.17 284.78 444.17"/><line class="cls-11" x1="288.78" y1="444.17" x2="462.49" y2="444.17"/><polyline class="cls-10" points="464.49 444.17 466.49 444.17 466.49 446.17"/><line class="cls-12" x1="466.49" y1="450.17" x2="466.49" y2="488.17"/><rect class="cls-6" x="282.04" y="444.17" width="3" height="48"/><polygon class="cls-4" points="77.99 262.26 475.95 262.78 476.05 377.2 78.1 376.67 77.99 262.26"/><rect class="cls-9" x="77.89" y="262.25" width="48" height="48"/><rect class="cls-8" x="88.31" y="319.55" width="183.71" height="48"/><polyline class="cls-10" points="272.02 365.55 272.02 367.55 270.02 367.55"/><line class="cls-11" x1="266.03" y1="367.55" x2="92.31" y2="367.55"/><polyline class="cls-10" points="90.31 367.55 88.31 367.55 88.31 365.55"/><line class="cls-12" x1="88.31" y1="361.55" x2="88.31" y2="323.55"/><polyline class="cls-10" points="88.31 321.55 88.31 319.55 90.31 319.55"/><line class="cls-11" x1="94.31" y1="319.55" x2="268.02" y2="319.55"/><polyline class="cls-10" points="270.02 319.55 272.02 319.55 272.02 321.55"/><line class="cls-12" x1="272.02" y1="325.55" x2="272.02" y2="363.55"/><rect class="cls-6" x="87.4" y="319.55" width="3" height="48"/><path class="cls-3" d="M371.63,287.57h11v2h-11Zm0,5.09h13v2h-13Z" transform="translate(-278.73 -5.43)"/><path class="cls-3" d="M391.58,277.39H367.64a2,2,0,0,0-2,2v20.35a2,2,0,0,0,2,2h23.94a2,2,0,0,0,2-2V279.43A2,2,0,0,0,391.58,277.39Zm0,2v2H367.64v-2Zm-23.94,20.35V283.5h23.94v16.28Z" transform="translate(-278.73 -5.43)"/><path class="cls-3" d="M371.63,413.5h11v2h-11Zm0,5.09h13v2h-13Z" transform="translate(-278.73 -5.43)"/><path class="cls-3" d="M391.58,403.32H367.64a2,2,0,0,0-2,2v20.35a2,2,0,0,0,2,2h23.94a2,2,0,0,0,2-2V405.36A2,2,0,0,0,391.58,403.32Zm0,2v2H367.64v-2Zm-23.94,20.35V409.43h23.94v16.28Z" transform="translate(-278.73 -5.43)"/><path class="cls-3" d="M848.55,411.5h11v2h-11Zm0,5.09h13v2h-13Z" transform="translate(-278.73 -5.43)"/><path class="cls-3" d="M868.5,401.32H844.56a2,2,0,0,0-2,2v20.35a2,2,0,0,0,2,2H868.5a2,2,0,0,0,2-2V403.36A2,2,0,0,0,868.5,401.32Zm0,2v2H844.56v-2Zm-23.94,20.35V407.43H868.5v16.28Z" transform="translate(-278.73 -5.43)"/><path class="cls-3" d="M848.55,285.57h11v2h-11Zm0,5.09h13v2h-13Z" transform="translate(-278.73 -5.43)"/><path class="cls-3" d="M868.5,275.39H844.56a2,2,0,0,0-2,2v20.35a2,2,0,0,0,2,2H868.5a2,2,0,0,0,2-2V277.43A2,2,0,0,0,868.5,275.39Zm0,2v2H844.56v-2Zm-23.94,20.35V281.5H868.5v16.28Z" transform="translate(-278.73 -5.43)"/></g><g id="Text"><text class="cls-13" transform="translate(56.4 32.91)">Busine<tspan class="cls-14" x="50.75" y="0">s</tspan><tspan x="58.62" y="0">s unit admini</tspan><tspan class="cls-15" x="154.37" y="0">s</tspan><tspan x="162.22" y="0">t</tspan><tspan class="cls-16" x="168.21" y="0">r</tspan><tspan class="cls-17" x="174.32" y="0">a</tspan><tspan x="183.2" y="0">tion a</tspan><tspan class="cls-18" x="224.73" y="0">cc</tspan><tspan x="240.99" y="0">ount </tspan></text><text class="cls-19" transform="translate(86.56 166.65)">Applic<tspan class="cls-20" x="41.37" y="0">a</tspan><tspan x="49.14" y="0">tion - inf</tspan><tspan class="cls-16" x="103.58" y="0">r</tspan><tspan x="108.93" y="0">a</tspan><tspan class="cls-21" x="116.76" y="0">s</tspan><tspan x="123.63" y="0">tructu</tspan><tspan class="cls-22" x="163.25" y="0">r</tspan><tspan x="168.68" y="0">e sets</tspan></text><text class="cls-19" transform="translate(342.38 87.75)">Applic<tspan class="cls-20" x="41.37" y="0">a</tspan><tspan x="49.14" y="0">tion c</tspan><tspan class="cls-23" x="84.84" y="0">a</tspan><tspan x="92.61" y="0">talog</tspan></text><text class="cls-19" transform="translate(573.37 88.07)">Inf<tspan class="cls-16" x="19.05" y="0">r</tspan><tspan x="24.4" y="0">a</tspan><tspan class="cls-21" x="32.23" y="0">s</tspan><tspan x="39.1" y="0">tructu</tspan><tspan class="cls-22" x="78.72" y="0">r</tspan><tspan x="84.15" y="0">e c</tspan><tspan class="cls-20" x="102.45" y="0">a</tspan><tspan x="110.22" y="0">talog</tspan></text><text class="cls-19" transform="translate(593.43 229.08)">Sha<tspan class="cls-22" x="24.61" y="0">r</tspan><tspan x="30.04" y="0">ed inf</tspan><tspan class="cls-16" x="66.55" y="0">r</tspan><tspan x="71.9" y="0">a</tspan><tspan class="cls-21" x="79.73" y="0">s</tspan><tspan x="86.6" y="0">tructu</tspan><tspan class="cls-22" x="126.22" y="0">r</tspan><tspan x="131.65" y="0">e p</tspan><tspan class="cls-22" x="151.17" y="0">r</tspan><tspan x="156.6" y="0">oject</tspan></text><text class="cls-19" transform="translate(607.42 411.42)"><tspan class="cls-24">P</tspan><tspan class="cls-22" x="8.83" y="0">r</tspan><tspan x="14.27" y="0">od E</tspan><tspan class="cls-21" x="42.25" y="0">n</tspan><tspan x="50.37" y="0">vi</tspan><tspan class="cls-22" x="61.57" y="0">r</tspan><tspan x="67" y="0">onment - </tspan><tspan class="cls-25" x="129.06" y="0">P</tspan><tspan class="cls-26" x="137.9" y="0">r</tspan><tspan x="143.33" y="0">oduction a</tspan><tspan class="cls-22" x="211.37" y="0">cc</tspan><tspan x="225.59" y="0">ount</tspan></text><text class="cls-19" transform="translate(578 469.36)"><tspan class="cls-24">P</tspan><tspan class="cls-22" x="8.83" y="0">r</tspan><tspan x="14.27" y="0">od inf</tspan><tspan class="cls-16" x="50.85" y="0">r</tspan><tspan x="56.19" y="0">a</tspan><tspan class="cls-21" x="64.02" y="0">s</tspan><tspan x="70.89" y="0">tructu</tspan><tspan class="cls-22" x="110.51" y="0">r</tspan><tspan x="115.95" y="0">e</tspan></text><text class="cls-19" transform="translate(771.14 468.99)">App onboa<tspan class="cls-22" x="69.73" y="0">r</tspan><tspan x="75.17" y="0">ding</tspan></text><text class="cls-19" transform="translate(606.83 286.8)">D<tspan class="cls-27" x="9.65" y="0">e</tspan><tspan x="17.33" y="0">v e</tspan><tspan class="cls-21" x="35.78" y="0">n</tspan><tspan x="43.9" y="0">vi</tspan><tspan class="cls-22" x="55.1" y="0">r</tspan><tspan x="60.54" y="0">onment - d</tspan><tspan class="cls-27" x="131" y="0">e</tspan><tspan class="cls-21" x="138.68" y="0">v</tspan><tspan x="145.91" y="0">elopment a</tspan><tspan class="cls-22" x="218.96" y="0">cc</tspan><tspan x="233.18" y="0">ount</tspan></text><text class="cls-19" transform="translate(577.41 344.74)">D<tspan class="cls-27" x="9.65" y="0">e</tspan><tspan x="17.33" y="0">v </tspan><tspan class="cls-23" x="27.97" y="0">t</tspan><tspan x="33.15" y="0">ools</tspan></text><text class="cls-19" transform="translate(770.55 344.37)">App onboa<tspan class="cls-22" x="69.73" y="0">r</tspan><tspan x="75.17" y="0">ding</tspan></text><text class="cls-19" transform="translate(116.89 232.94)">Applic<tspan class="cls-20" x="41.37" y="0">a</tspan><tspan x="49.14" y="0">tion d</tspan><tspan class="cls-28" x="86.06" y="0">e</tspan><tspan class="cls-29" x="93.74" y="0">v</tspan><tspan x="100.97" y="0">elopment p</tspan><tspan class="cls-22" x="174.59" y="0">r</tspan><tspan x="180.02" y="0">oject</tspan></text><text class="cls-19" transform="translate(130.89 415.28)">Inf<tspan class="cls-16" x="19.05" y="0">r</tspan><tspan x="24.4" y="0">a</tspan><tspan class="cls-21" x="32.23" y="0">s</tspan><tspan x="39.1" y="0">tructu</tspan><tspan class="cls-22" x="78.72" y="0">r</tspan><tspan x="84.15" y="0">e onboa</tspan><tspan class="cls-22" x="135.49" y="0">r</tspan><tspan x="140.92" y="0">d - p</tspan><tspan class="cls-22" x="169.96" y="0">r</tspan><tspan x="175.39" y="0">ojects in admin a</tspan><tspan class="cls-22" x="284.94" y="0">cc</tspan><tspan x="299.16" y="0">ount</tspan></text><text class="cls-19" transform="translate(101.47 473.22)">D<tspan class="cls-27" x="9.65" y="0">e</tspan><tspan x="17.33" y="0">v inf</tspan><tspan class="cls-16" x="44.97" y="0">r</tspan><tspan x="50.32" y="0">a onboa</tspan><tspan class="cls-22" x="101.67" y="0">r</tspan><tspan x="107.1" y="0">d</tspan></text><text class="cls-19" transform="translate(294.61 472.85)"><tspan class="cls-24">P</tspan><tspan class="cls-22" x="8.83" y="0">r</tspan><tspan x="14.27" y="0">od inf</tspan><tspan class="cls-16" x="50.85" y="0">r</tspan><tspan x="56.19" y="0">a onboa</tspan><tspan class="cls-22" x="107.55" y="0">r</tspan><tspan x="112.98" y="0">d</tspan></text><text class="cls-19" transform="translate(130.3 290.66)">Net<tspan class="cls-27" x="23.11" y="0">w</tspan><tspan x="34.45" y="0">ork and se</tspan><tspan class="cls-30" x="101.57" y="0">r</tspan><tspan x="107.18" y="0">vi</tspan><tspan class="cls-22" x="118.38" y="0">c</tspan><tspan class="cls-31" x="125.49" y="0">es - d</tspan><tspan class="cls-28" x="160.93" y="0">e</tspan><tspan class="cls-21" x="168.61" y="0">v</tspan><tspan x="175.84" y="0">elopment a</tspan><tspan class="cls-26" x="248.89" y="0">cc</tspan><tspan x="263.11" y="0">ount</tspan></text><text class="cls-19" transform="translate(100.88 348.6)">D<tspan class="cls-27" x="9.65" y="0">e</tspan><tspan class="cls-21" x="17.33" y="0">v</tspan><tspan x="24.56" y="0">elopment </tspan><tspan class="cls-20" x="89.78" y="0">t</tspan><tspan x="94.96" y="0">ools</tspan></text></g></svg>