<svg xmlns="http://www.w3.org/2000/svg" width="1067.5575" height="480.9393" viewBox="0 0 1067.5575 480.9393"><defs><style>.cls-1,.cls-11{fill:#eef4fb;}.cls-1{stroke:#eef5fb;}.cls-1,.cls-10,.cls-11,.cls-13,.cls-14,.cls-15,.cls-16,.cls-17,.cls-18,.cls-2,.cls-3,.cls-5,.cls-6,.cls-8,.cls-9{stroke-miterlimit:10;}.cls-12,.cls-2,.cls-5,.cls-7{fill:#fff;}.cls-10,.cls-11,.cls-13,.cls-14,.cls-15,.cls-16,.cls-17,.cls-18,.cls-2,.cls-3,.cls-5,.cls-6,.cls-8,.cls-9{stroke:#3553a4;}.cls-12,.cls-2,.cls-3{fill-rule:evenodd;}.cls-10,.cls-13,.cls-14,.cls-15,.cls-16,.cls-17,.cls-18,.cls-3,.cls-8,.cls-9{fill:none;}.cls-4,.cls-6{fill:#3553a4;}.cls-9{stroke-dasharray:4.0039 4.0039;}.cls-10{stroke-dasharray:3.9866 3.9866;}.cls-13{stroke-dasharray:3.9964 3.9964;}.cls-14{stroke-dasharray:4.0984 4.0984;}.cls-15{stroke-dasharray:4.0082 4.0082;}.cls-16{stroke-dasharray:4.0822 4.0822;}.cls-17{stroke-dasharray:4.004 4.004;}.cls-18{stroke-dasharray:4.0206 4.0206;}.cls-19{font-size:16px;font-family:IBMPlexSans-SemiBold, IBM Plex Sans;font-weight:600;}.cls-19,.cls-20{fill:#010101;}.cls-20{font-size:14px;font-family:IBMPlexSans, IBM Plex Sans;}</style></defs><g id="Background"><rect class="cls-1" x="0.5119" y="0.5" width="1066.5456" height="479.9393"/><polyline class="cls-2" points="183.768 245.607 904.655 245.607 904.655 456.995"/><polyline class="cls-3" points="179.687 249.607 900.655 249.607 900.655 459.519"/><rect class="cls-4" y="0.5" width="48" height="48"/><polygon class="cls-5" points="38.708 76.162 702.481 76.96 703.966 211.491 38.708 211.491 38.708 76.162"/><rect class="cls-4" x="38.4577" y="75.4118" width="48" height="48"/><rect class="cls-6" x="0.5119" y="48.5" width="3" height="431.9393"/><path class="cls-7" d="M272.5647,29.4607h10.971v2.0356h-10.971Zm0,5.0889H285.53v2.0356H272.5647Z" transform="translate(-255.799 -7.4208)"/><path class="cls-7" d="M292.512,19.2829H268.5753a2.0155,2.0155,0,0,0-1.9948,2.0356V41.6741a2.0155,2.0155,0,0,0,1.9948,2.0356H292.512a2.0155,2.0155,0,0,0,1.9947-2.0356V21.3185A2.0155,2.0155,0,0,0,292.512,19.2829Zm0,2.0356v2.0356H268.5753V21.3185ZM268.5753,41.6741V25.39H292.512V41.6741Z" transform="translate(-255.799 -7.4208)"/><polygon class="cls-7" points="65.111 142.025 369.401 141.83 369.362 189.682 65.072 189.878 65.111 142.025"/><polyline class="cls-8" points="65.109 144.025 65.111 142.025 67.111 142.024"/><line class="cls-9" x1="71.1149" y1="142.0214" x2="365.3992" y2="141.8321"/><polyline class="cls-8" points="367.401 141.831 369.401 141.83 369.4 143.83"/><line class="cls-10" x1="369.3963" y1="147.8161" x2="369.3653" y2="185.6888"/><polyline class="cls-8" points="369.364 187.682 369.362 189.682 367.362 189.683"/><line class="cls-9" x1="363.3582" y1="189.6859" x2="69.0738" y2="189.8752"/><polyline class="cls-8" points="67.072 189.877 65.072 189.878 65.074 187.878"/><line class="cls-10" x1="65.0768" y1="183.8912" x2="65.1078" y2="146.0186"/><rect class="cls-11" x="65.0608" y="142.0174" width="48" height="48"/><polygon class="cls-7" points="382.66 141.116 686.95 140.92 686.911 188.773 382.62 188.969 382.66 141.116"/><polyline class="cls-8" points="382.658 143.116 382.66 141.116 384.66 141.115"/><line class="cls-9" x1="388.6635" y1="141.1123" x2="682.9478" y2="140.923"/><polyline class="cls-8" points="684.95 140.922 686.95 140.92 686.948 142.92"/><line class="cls-10" x1="686.9449" y1="146.907" x2="686.9139" y2="184.7797"/><polyline class="cls-8" points="686.912 186.773 686.911 188.773 684.911 188.774"/><line class="cls-9" x1="680.9067" y1="188.7768" x2="386.6224" y2="188.9661"/><polyline class="cls-8" points="384.62 188.967 382.62 188.969 382.622 186.969"/><line class="cls-10" x1="382.6254" y1="182.9821" x2="382.6563" y2="145.1095"/><rect class="cls-11" x="382.6093" y="141.1083" width="48" height="48"/><polygon class="cls-5" points="739.61 116.834 1048.673 117.117 1049.365 164.834 739.61 164.834 739.61 116.834"/><rect class="cls-4" x="739.1622" y="117.0069" width="48" height="48"/><path class="cls-7" d="M1029.9611,150.5121a4.0056,4.0056,0,0,0-4.0009-4.001h-13.998a2.0031,2.0031,0,0,1-2.0011-2.0009v-3.1411a3.9949,3.9949,0,0,0,2.8581-2.858h12.284a4,4,0,1,0,0-2h-12.284a3.9916,3.9916,0,1,0-4.8581,4.858V144.51a4.0057,4.0057,0,0,0,4.0011,4.0009h13.998a2.0029,2.0029,0,0,1,2.0009,2.001v2.999h-3v3h-12.1419a4,4,0,1,0,0,2h12.1419v3h8v-8h-3Zm-1-15.001a2,2,0,1,1-2,2A2,2,0,0,1,1028.9611,135.5111Zm-22,2a2,2,0,1,1,2,2A2,2,0,0,1,1006.9611,137.5111Zm2,22a2,2,0,1,1,2-2A2,2,0,0,1,1008.9611,159.5111Zm22-4v4h-4v-4Z" transform="translate(-255.799 -7.4208)"/><path class="cls-7" d="M322.2579,110.8336v-3a4,4,0,1,0-8,0v3a2.0025,2.0025,0,0,0-2,2v6a2.0025,2.0025,0,0,0,2,2h8a2.0025,2.0025,0,0,0,2-2v-6A2.0024,2.0024,0,0,0,322.2579,110.8336Zm-6-3a2,2,0,1,1,4,0v3h-4Zm-2,11v-6h8l.0012,6Z" transform="translate(-255.799 -7.4208)"/><path class="cls-7" d="M328.0867,100.9488a10.0108,10.0108,0,0,0-19.6569-.01l-.0019.01a7.502,7.502,0,0,0,1.3212,14.8848h.5088v-2h-.5047a5.5019,5.5019,0,0,1-.9694-10.9165l1.3488-.2441.2591-1.3457a8.0109,8.0109,0,0,1,15.7312,0l.259,1.3457,1.3489.2441a5.5019,5.5019,0,0,1-.9653,10.9165h-.5076v2h.5076a7.502,7.502,0,0,0,1.3212-14.8848Z" transform="translate(-255.799 -7.4208)"/><path class="cls-4" d="M336.4855,187.0513h-6v-6h6Zm-4-2h2v-2h-2Z" transform="translate(-255.799 -7.4208)"/><path class="cls-4" d="M347.4855,187.0513h-6v-6h6Zm-4-2h2v-2h-2Z" transform="translate(-255.799 -7.4208)"/><path class="cls-4" d="M358.4855,187.0513h-6v-6h6Zm-4-2h2v-2h-2Z" transform="translate(-255.799 -7.4208)"/><path class="cls-4" d="M344.4855,167.0513a4,4,0,1,1,4-4A4,4,0,0,1,344.4855,167.0513Zm0-6a2,2,0,1,0,2,2A2,2,0,0,0,344.4855,161.0513Z" transform="translate(-255.799 -7.4208)"/><path class="cls-4" d="M354.4855,173.0513h-5a4.0045,4.0045,0,0,1-4-4h-2a4.0045,4.0045,0,0,1-4,4h-5a2.0021,2.0021,0,0,0-2,2v4h2v-4h5a5.97,5.97,0,0,0,4-1.54v5.54h2v-5.54a5.97,5.97,0,0,0,4,1.54h5v4h2v-4A2.0023,2.0023,0,0,0,354.4855,173.0513Z" transform="translate(-255.799 -7.4208)"/><polygon class="cls-5" points="176.072 252.117 896.338 253.358 897.951 462.74 176.072 462.74 176.072 252.117"/><rect class="cls-4" x="176.0718" y="252.1447" width="48" height="48"/><path class="cls-7" d="M454.8708,285.98h-10a2,2,0,0,1-2-2v-10a2,2,0,0,1,2-2h10a2,2,0,0,1,2,2v10A2,2,0,0,1,454.8708,285.98Zm-10-12v10h10v-10Z" transform="translate(-255.799 -7.4208)"/><path class="cls-7" d="M464.8708,279.98v4h-4v-4h4m0-2h-4a2,2,0,0,0-2,2v4a2,2,0,0,0,2,2h4a2,2,0,0,0,2-2v-4A2,2,0,0,0,464.8708,277.98Z" transform="translate(-255.799 -7.4208)"/><path class="cls-7" d="M464.8708,289.98v4h-4v-4h4m0-2h-4a2,2,0,0,0-2,2v4a2,2,0,0,0,2,2h4a2,2,0,0,0,2-2v-4A2,2,0,0,0,464.8708,287.98Z" transform="translate(-255.799 -7.4208)"/><path class="cls-7" d="M454.8708,289.98v4h-4v-4h4m0-2h-4a2,2,0,0,0-2,2v4a2,2,0,0,0,2,2h4a2,2,0,0,0,2-2v-4A2,2,0,0,0,454.8708,287.98Z" transform="translate(-255.799 -7.4208)"/><path class="cls-4" d="M673.9353,159.2381a1.9954,1.9954,0,0,0-1.5273-.709h-2.6909a1.5,1.5,0,0,0-1.3419.8294l-.5854,1.1706H666.408v-.5a1.5,1.5,0,0,0-1.5-1.5h-5a1.5,1.5,0,0,0-1.5,1.5v.5h-1.3818l-.585-1.17a1.5016,1.5016,0,0,0-1.3432-.83h-2.69a2,2,0,0,0-1.9717,2.333l.7041,4.167a3,3,0,0,0,2.9576,2.5h.31v12a3.0033,3.0033,0,0,0-3,3v4h22v-4a3.0033,3.0033,0,0,0-3-3v-12h.31a3,3,0,0,0,2.9579-2.5l.7041-4.167A1.994,1.994,0,0,0,673.9353,159.2381Zm-2.5273,23.291v2h-18v-2a1.0009,1.0009,0,0,1,1-1h16A1.0009,1.0009,0,0,1,671.408,182.5291Zm-3-3h-12v-12h12Zm3.2959-14.833a.9977.9977,0,0,1-.9859.833h-16.62a.9976.9976,0,0,1-.9863-.8335l-.7037-4.1665H654.79l1,2h4.6182v-2h4v2h4.6172l1.001-2h2.3818Z" transform="translate(-255.799 -7.4208)"/><polyline class="cls-12" points="211.072 313.715 514.805 313.715 514.805 444.765"/><line class="cls-8" x1="211.0718" y1="313.7148" x2="213.0718" y2="313.7148"/><line class="cls-13" x1="217.0682" y1="313.7148" x2="510.8068" y2="313.7148"/><polyline class="cls-8" points="512.805 313.715 514.805 313.715 514.805 315.715"/><line class="cls-14" x1="514.8051" y1="319.8132" x2="514.8051" y2="440.7155"/><line class="cls-8" x1="514.8051" y1="442.7647" x2="514.8051" y2="444.7647"/><line class="cls-8" x1="207.0718" y1="317.3121" x2="209.0718" y2="317.3121"/><line class="cls-15" x1="213.08" y1="317.3121" x2="507.6827" y2="317.3121"/><polyline class="cls-8" points="509.687 317.312 511.687 317.312 511.687 319.312"/><line class="cls-16" x1="511.6868" y1="323.3943" x2="511.6868" y2="443.8198"/><line class="cls-8" x1="511.6868" y1="445.861" x2="511.6868" y2="447.861"/><polygon class="cls-7" points="203.464 320.568 507.76 321.588 507.964 450.225 203.668 449.205 203.464 320.568"/><polyline class="cls-8" points="203.467 322.568 203.464 320.568 205.464 320.575"/><line class="cls-17" x1="209.4676" y1="320.5882" x2="503.7582" y2="321.5747"/><polyline class="cls-8" points="505.76 321.581 507.76 321.588 507.763 323.588"/><line class="cls-18" x1="507.7697" y1="327.6086" x2="507.9578" y2="446.215"/><polyline class="cls-8" points="507.961 448.225 507.964 450.225 505.964 450.219"/><line class="cls-17" x1="501.9603" y1="450.2052" x2="207.6696" y2="449.2187"/><polyline class="cls-8" points="205.668 449.212 203.668 449.205 203.664 447.205"/><line class="cls-18" x1="203.6581" y1="443.1847" x2="203.47" y2="324.5783"/><rect class="cls-11" x="203.406" y="320.5601" width="48" height="48"/><polyline class="cls-2" points="244.163 380.143 428.327 380.143 428.327 429.76"/><polyline class="cls-3" points="242.017 383.172 425.38 383.172 425.38 431.865"/><rect class="cls-5" x="239.0168" y="385.5387" width="183.706" height="48"/><rect class="cls-6" x="239.0168" y="385.5387" width="3" height="48"/><polyline class="cls-12" points="564.714 310.985 868.447 310.985 868.447 442.034"/><line class="cls-8" x1="564.7138" y1="310.9845" x2="566.7138" y2="310.9845"/><line class="cls-13" x1="570.7103" y1="310.9845" x2="864.4489" y2="310.9845"/><polyline class="cls-8" points="866.447 310.985 868.447 310.985 868.447 312.985"/><line class="cls-14" x1="868.4471" y1="317.0829" x2="868.4471" y2="437.9853"/><line class="cls-8" x1="868.4471" y1="440.0344" x2="868.4471" y2="442.0344"/><line class="cls-8" x1="560.7138" y1="314.5817" x2="562.7138" y2="314.5817"/><line class="cls-15" x1="566.722" y1="314.5817" x2="861.3248" y2="314.5817"/><polyline class="cls-8" points="863.329 314.582 865.329 314.582 865.329 316.582"/><line class="cls-16" x1="865.3288" y1="320.664" x2="865.3288" y2="441.0896"/><line class="cls-8" x1="865.3288" y1="443.1307" x2="865.3288" y2="445.1307"/><polygon class="cls-7" points="557.106 317.838 861.402 318.858 861.606 447.495 557.31 446.475 557.106 317.838"/><polyline class="cls-8" points="557.109 319.838 557.106 317.838 559.106 317.844"/><line class="cls-17" x1="563.1096" y1="317.8578" x2="857.4002" y2="318.8444"/><polyline class="cls-8" points="859.402 318.851 861.402 318.858 861.405 320.858"/><line class="cls-18" x1="861.4117" y1="324.8783" x2="861.5998" y2="443.4848"/><polyline class="cls-8" points="861.603 445.495 861.606 447.495 859.606 447.488"/><line class="cls-17" x1="855.6022" y1="447.4749" x2="561.3116" y2="446.4884"/><polyline class="cls-8" points="559.31 446.482 557.31 446.475 557.306 444.475"/><line class="cls-18" x1="557.3001" y1="440.4544" x2="557.112" y2="321.848"/><rect class="cls-11" x="557.048" y="317.8298" width="48" height="48"/><polyline class="cls-2" points="597.805 377.413 781.969 377.413 781.969 427.029"/><polyline class="cls-3" points="595.659 380.442 779.022 380.442 779.022 429.135"/><rect class="cls-5" x="592.6588" y="382.8084" width="183.706" height="48"/><rect class="cls-6" x="592.6588" y="382.8084" width="3" height="48"/><path class="cls-4" d="M842.4727,357.8638h-12a2.0021,2.0021,0,0,1-2-2v-12a2.002,2.002,0,0,1,2-2h12a2.0021,2.0021,0,0,1,2,2v12A2.0021,2.0021,0,0,1,842.4727,357.8638Zm-12-14v12h12v-12Z" transform="translate(-255.799 -7.4208)"/><path class="cls-4" d="M828.4727,363.8638h-4a2.0021,2.0021,0,0,1-2-2v-24a2.002,2.002,0,0,1,2-2h4v2h-4v24h4Z" transform="translate(-255.799 -7.4208)"/><path class="cls-4" d="M848.4727,363.8638h-4v-2h4v-24h-4v-2h4a2.0021,2.0021,0,0,1,2,2v24A2.0021,2.0021,0,0,1,848.4727,363.8638Z" transform="translate(-255.799 -7.4208)"/><path class="cls-4" d="M489.205,359.981h-12a2.0022,2.0022,0,0,1-2-2v-12a2.0021,2.0021,0,0,1,2-2h12a2.002,2.002,0,0,1,2,2v12A2.0021,2.0021,0,0,1,489.205,359.981Zm-12-14v12h12v-12Z" transform="translate(-255.799 -7.4208)"/><path class="cls-4" d="M475.205,365.981h-4a2.0022,2.0022,0,0,1-2-2v-24a2.0021,2.0021,0,0,1,2-2h4v2h-4v24h4Z" transform="translate(-255.799 -7.4208)"/><path class="cls-4" d="M495.205,365.981h-4v-2h4v-24h-4v-2h4a2.002,2.002,0,0,1,2,2v24A2.0021,2.0021,0,0,1,495.205,365.981Z" transform="translate(-255.799 -7.4208)"/></g><g id="Text"><text class="cls-19" transform="translate(56.4043 32.9127)">Business Unit (x) Admin Account</text><text class="cls-20" transform="translate(94.1307 107.2535)">Management / Edge VPC</text><text class="cls-20" transform="translate(118.4712 170.4239)">Public Loadbalancer</text><text class="cls-20" transform="translate(436.0198 169.515)">Bastion</text><text class="cls-20" transform="translate(794.5848 144.2223)">Schematics Agent</text><text class="cls-20" transform="translate(231.7449 283.9298)">App - Infrastructure sets</text><text class="cls-20" transform="translate(256.8162 341.9082)">App Development - Project 1 <tspan x="0" y="18">Resource Group</tspan></text><text class="cls-20" transform="translate(255.1507 413.9449)">Schematics Workspace</text><text class="cls-20" transform="translate(608.7933 411.2146)">Schematics Workspace</text><text class="cls-20" transform="translate(611.615 339.1778)">Shared Infrastructure- Project 1 <tspan x="0" y="18">Resource Group</tspan></text></g></svg>