<svg xmlns="http://www.w3.org/2000/svg" width="1029.4825" height="389.3318" viewBox="0 0 1029.4825 389.3318"><defs><style>.cls-1,.cls-12{fill:#eef4fb;}.cls-1{stroke:#eef5fb;}.cls-1,.cls-10,.cls-11,.cls-12,.cls-3,.cls-5,.cls-6,.cls-7,.cls-9{stroke-miterlimit:10;}.cls-11,.cls-2{fill:#3553a4;}.cls-3,.cls-8{fill:#fff;}.cls-10,.cls-11,.cls-12,.cls-3,.cls-5,.cls-6,.cls-7,.cls-9{stroke:#3553a4;}.cls-4{fill:#d1d3d4;}.cls-10,.cls-17,.cls-5,.cls-6,.cls-7,.cls-9{fill:none;}.cls-6{stroke-dasharray:3.9929 3.9929;}.cls-7{stroke-dasharray:4 4;}.cls-9{stroke-dasharray:3.9935 3.9935;}.cls-10{stroke-dasharray:4 4;}.cls-13{font-size:16px;font-family:IBMPlexSans-SemiBold, IBM Plex Sans;font-weight:600;}.cls-13,.cls-14,.cls-15{fill:#010101;}.cls-14{font-size:14px;font-family:IBMPlexSans, IBM Plex Sans;}.cls-16{fill:#3654a4;}</style></defs><g id="Background"><rect class="cls-1" x="5.4017" y="2.5912" width="476.3103" height="384.9449"/><rect class="cls-2" width="48" height="48"/><polygon class="cls-3" points="23.413 59.424 426.533 61.129 427.435 348.734 23.413 348.734 23.413 59.424"/><polygon class="cls-4" points="41.546 119.973 225.226 120.142 225.26 168.142 41.58 167.973 41.546 119.973"/><polyline class="cls-5" points="41.548 121.973 41.546 119.973 43.546 119.974"/><line class="cls-6" x1="47.5392" y1="119.9782" x2="221.2298" y2="120.1385"/><polyline class="cls-5" points="223.226 120.14 225.226 120.142 225.228 122.142"/><line class="cls-7" x1="225.2305" y1="126.1421" x2="225.2574" y2="164.1421"/><polyline class="cls-5" points="225.259 166.142 225.26 168.142 223.26 168.14"/><line class="cls-6" x1="219.2673" y1="168.1366" x2="45.5766" y2="167.9763"/><polyline class="cls-5" points="43.58 167.974 41.58 167.973 41.579 165.973"/><line class="cls-7" x1="41.576" y1="161.9726" x2="41.5491" y2="123.9726"/><rect class="cls-8" x="41.5802" y="176.1702" width="183.706" height="48"/><polyline class="cls-5" points="225.286 222.17 225.286 224.17 223.286 224.17"/><line class="cls-9" x1="219.2928" y1="224.1702" x2="45.577" y2="224.1702"/><polyline class="cls-5" points="43.58 224.17 41.58 224.17 41.58 222.17"/><line class="cls-10" x1="41.5802" y1="218.1702" x2="41.5802" y2="180.1702"/><polyline class="cls-5" points="41.58 178.17 41.58 176.17 43.58 176.17"/><line class="cls-9" x1="47.5737" y1="176.1702" x2="221.2895" y2="176.1702"/><polyline class="cls-5" points="223.286 176.17 225.286 176.17 225.286 178.17"/><line class="cls-10" x1="225.2862" y1="182.1702" x2="225.2862" y2="220.1702"/><rect class="cls-8" x="41.5802" y="232.3674" width="183.706" height="48"/><polyline class="cls-5" points="225.286 278.367 225.286 280.367 223.286 280.367"/><line class="cls-9" x1="219.2928" y1="280.3674" x2="45.577" y2="280.3674"/><polyline class="cls-5" points="43.58 280.367 41.58 280.367 41.58 278.367"/><line class="cls-10" x1="41.5802" y1="274.3674" x2="41.5802" y2="236.3674"/><polyline class="cls-5" points="41.58 234.367 41.58 232.367 43.58 232.367"/><line class="cls-9" x1="47.5737" y1="232.3674" x2="221.2895" y2="232.3674"/><polyline class="cls-5" points="223.286 232.367 225.286 232.367 225.286 234.367"/><line class="cls-10" x1="225.2862" y1="238.3674" x2="225.2862" y2="276.3674"/><rect class="cls-8" x="234.508" y="176.1702" width="183.706" height="48"/><polyline class="cls-5" points="418.214 222.17 418.214 224.17 416.214 224.17"/><line class="cls-9" x1="412.2205" y1="224.1702" x2="238.5047" y2="224.1702"/><polyline class="cls-5" points="236.508 224.17 234.508 224.17 234.508 222.17"/><line class="cls-10" x1="234.508" y1="218.1702" x2="234.508" y2="180.1702"/><polyline class="cls-5" points="234.508 178.17 234.508 176.17 236.508 176.17"/><line class="cls-9" x1="240.5014" y1="176.1702" x2="414.2172" y2="176.1702"/><polyline class="cls-5" points="416.214 176.17 418.214 176.17 418.214 178.17"/><line class="cls-10" x1="418.214" y1="182.1702" x2="418.214" y2="220.1702"/><rect class="cls-8" x="234.508" y="232.3674" width="183.706" height="48"/><polyline class="cls-5" points="418.214 278.367 418.214 280.367 416.214 280.367"/><line class="cls-9" x1="412.2205" y1="280.3674" x2="238.5047" y2="280.3674"/><polyline class="cls-5" points="236.508 280.367 234.508 280.367 234.508 278.367"/><line class="cls-10" x1="234.508" y1="274.3674" x2="234.508" y2="236.3674"/><polyline class="cls-5" points="234.508 234.367 234.508 232.367 236.508 232.367"/><line class="cls-9" x1="240.5014" y1="232.3674" x2="414.2172" y2="232.3674"/><polyline class="cls-5" points="416.214 232.367 418.214 232.367 418.214 234.367"/><line class="cls-10" x1="418.214" y1="238.3674" x2="418.214" y2="276.3674"/><rect class="cls-2" x="24.085" y="59.4239" width="48" height="48"/><path class="cls-8" d="M321.9832,87.6175l3.42,3.41.58.59h12.83v16h-24v-20h7.17m0-2h-7.17a2,2,0,0,0-2,2v20a2,2,0,0,0,2,2h24a2,2,0,0,0,2-2v-16a2,2,0,0,0-2-2h-12l-3.41-3.41A1.9993,1.9993,0,0,0,321.9832,85.6175Z" transform="translate(-278.7282 -14.1936)"/><rect class="cls-8" x="16.1632" y="16.5799" width="1.6534" height="3.3067"/><rect class="cls-8" x="16.1632" y="21.5399" width="1.6534" height="3.3067"/><rect class="cls-8" x="21.1233" y="16.5799" width="1.6534" height="3.3067"/><rect class="cls-8" x="21.1233" y="21.5399" width="1.6534" height="3.3067"/><rect class="cls-8" x="16.1632" y="26.5" width="1.6534" height="3.3067"/><rect class="cls-8" x="21.1233" y="26.5" width="1.6534" height="3.3067"/><path class="cls-8" d="M313.0784,35.7335A1.6534,1.6534,0,0,0,311.425,34.08h-4.96V27.4667a1.6533,1.6533,0,0,0-1.6533-1.6533H291.5847a1.6533,1.6533,0,0,0-1.6533,1.6533V48.96h23.147Zm-21.4937-8.2668h13.2269v19.84H291.5847Zm14.88,19.84V35.7335h4.96V47.307Z" transform="translate(-278.7282 -14.1936)"/><rect class="cls-11" x="41.5802" y="176.1702" width="3" height="48"/><rect class="cls-11" x="41.5802" y="232.3674" width="3" height="48"/><rect class="cls-11" x="234.508" y="176.1702" width="3" height="48"/><rect class="cls-11" x="234.508" y="232.3674" width="3" height="48"/><rect class="cls-12" x="41.5078" y="119.9731" width="48" height="48"/><path class="cls-2" d="M336.2571,156.1311h10.971v2.0355h-10.971Zm0,5.0889h12.9657v2.0356H336.2571Z" transform="translate(-278.7282 -14.1936)"/><path class="cls-2" d="M356.2044,145.9533H332.2677a2.0154,2.0154,0,0,0-1.9948,2.0355v20.3557a2.0154,2.0154,0,0,0,1.9948,2.0355h23.9367a2.0154,2.0154,0,0,0,1.9947-2.0355V147.9888A2.0154,2.0154,0,0,0,356.2044,145.9533Zm0,2.0355v2.0356H332.2677v-2.0356Zm-23.9367,20.3557V152.06h23.9367v16.2845Z" transform="translate(-278.7282 -14.1936)"/><rect class="cls-11" x="1" y="40" width="3.5119" height="348.1089"/><rect class="cls-1" x="552.6722" y="1.2956" width="476.3103" height="387.5361"/><rect class="cls-2" x="549.7213" width="48" height="48"/><polygon class="cls-3" points="577.458 60.012 980.577 61.716 981.48 349.14 577.458 349.14 577.458 60.012"/><rect class="cls-8" x="589.3996" y="123.028" width="183.706" height="48"/><polyline class="cls-5" points="773.106 169.028 773.106 171.028 771.106 171.028"/><line class="cls-9" x1="767.1121" y1="171.028" x2="593.3963" y2="171.028"/><polyline class="cls-5" points="591.4 171.028 589.4 171.028 589.4 169.028"/><line class="cls-10" x1="589.3996" y1="165.028" x2="589.3996" y2="127.028"/><polyline class="cls-5" points="589.4 125.028 589.4 123.028 591.4 123.028"/><line class="cls-9" x1="595.393" y1="123.028" x2="769.1089" y2="123.028"/><polyline class="cls-5" points="771.106 123.028 773.106 123.028 773.106 125.028"/><line class="cls-10" x1="773.1056" y1="129.028" x2="773.1056" y2="167.028"/><rect class="cls-8" x="589.3996" y="179.2251" width="183.706" height="48"/><polyline class="cls-5" points="773.106 225.225 773.106 227.225 771.106 227.225"/><line class="cls-9" x1="767.1121" y1="227.2251" x2="593.3963" y2="227.2251"/><polyline class="cls-5" points="591.4 227.225 589.4 227.225 589.4 225.225"/><line class="cls-10" x1="589.3996" y1="221.2251" x2="589.3996" y2="183.2251"/><polyline class="cls-5" points="589.4 181.225 589.4 179.225 591.4 179.225"/><line class="cls-9" x1="595.393" y1="179.2251" x2="769.1089" y2="179.2251"/><polyline class="cls-5" points="771.106 179.225 773.106 179.225 773.106 181.225"/><line class="cls-10" x1="773.1056" y1="185.2251" x2="773.1056" y2="223.2251"/><rect class="cls-8" x="789.3273" y="123.028" width="183.706" height="48"/><polyline class="cls-5" points="973.033 169.028 973.033 171.028 971.033 171.028"/><line class="cls-9" x1="967.0399" y1="171.028" x2="793.3241" y2="171.028"/><polyline class="cls-5" points="791.327 171.028 789.327 171.028 789.327 169.028"/><line class="cls-10" x1="789.3273" y1="165.028" x2="789.3273" y2="127.028"/><polyline class="cls-5" points="789.327 125.028 789.327 123.028 791.327 123.028"/><line class="cls-9" x1="795.3208" y1="123.028" x2="969.0366" y2="123.028"/><polyline class="cls-5" points="971.033 123.028 973.033 123.028 973.033 125.028"/><line class="cls-10" x1="973.0334" y1="129.028" x2="973.0334" y2="167.028"/><rect class="cls-8" x="789.3273" y="179.2251" width="183.706" height="48"/><polyline class="cls-5" points="973.033 225.225 973.033 227.225 971.033 227.225"/><line class="cls-9" x1="967.0399" y1="227.2251" x2="793.3241" y2="227.2251"/><polyline class="cls-5" points="791.327 227.225 789.327 227.225 789.327 225.225"/><line class="cls-10" x1="789.3273" y1="221.2251" x2="789.3273" y2="183.2251"/><polyline class="cls-5" points="789.327 181.225 789.327 179.225 791.327 179.225"/><line class="cls-9" x1="795.3208" y1="179.2251" x2="969.0366" y2="179.2251"/><polyline class="cls-5" points="971.033 179.225 973.033 179.225 973.033 181.225"/><line class="cls-10" x1="973.0334" y1="185.2251" x2="973.0334" y2="223.2251"/><rect class="cls-2" x="576.2992" y="59.6062" width="48" height="48"/><path class="cls-8" d="M874.1974,87.8l3.42,3.41.58.59h12.83v16h-24v-20h7.17m0-2h-7.17a2,2,0,0,0-2,2v20a2,2,0,0,0,2,2h24a2,2,0,0,0,2-2v-16a2,2,0,0,0-2-2h-12l-3.41-3.41A2,2,0,0,0,874.1974,85.8Z" transform="translate(-278.7282 -14.1936)"/><rect class="cls-8" x="565.8845" y="16.5799" width="1.6534" height="3.3067"/><rect class="cls-8" x="565.8845" y="21.5399" width="1.6534" height="3.3067"/><rect class="cls-8" x="570.8446" y="16.5799" width="1.6534" height="3.3067"/><rect class="cls-8" x="570.8446" y="21.5399" width="1.6534" height="3.3067"/><rect class="cls-8" x="565.8845" y="26.5" width="1.6534" height="3.3067"/><rect class="cls-8" x="570.8446" y="26.5" width="1.6534" height="3.3067"/><path class="cls-8" d="M862.8,35.7335a1.6534,1.6534,0,0,0-1.6534-1.6533h-4.96V27.4667a1.6533,1.6533,0,0,0-1.6533-1.6533H841.306a1.6533,1.6533,0,0,0-1.6533,1.6533V48.96H862.8ZM841.306,27.4667h13.2269v19.84H841.306Zm14.88,19.84V35.7335h4.96V47.307Z" transform="translate(-278.7282 -14.1936)"/><rect class="cls-11" x="589.3996" y="123.028" width="3" height="48"/><rect class="cls-11" x="589.3996" y="179.2251" width="3" height="48"/><rect class="cls-11" x="789.3273" y="123.028" width="3" height="48"/><rect class="cls-11" x="789.3273" y="179.2251" width="3" height="48"/><rect class="cls-11" x="550.711" y="48" width="3.4612" height="339.5361"/><rect class="cls-8" x="589.3996" y="235.4223" width="183.706" height="48"/><polyline class="cls-5" points="773.106 281.422 773.106 283.422 771.106 283.422"/><line class="cls-9" x1="767.1121" y1="283.4223" x2="593.3963" y2="283.4223"/><polyline class="cls-5" points="591.4 283.422 589.4 283.422 589.4 281.422"/><line class="cls-10" x1="589.3996" y1="277.4223" x2="589.3996" y2="239.4223"/><polyline class="cls-5" points="589.4 237.422 589.4 235.422 591.4 235.422"/><line class="cls-9" x1="595.393" y1="235.4223" x2="769.1089" y2="235.4223"/><polyline class="cls-5" points="771.106 235.422 773.106 235.422 773.106 237.422"/><line class="cls-10" x1="773.1056" y1="241.4223" x2="773.1056" y2="279.4223"/><rect class="cls-8" x="789.3273" y="235.4223" width="183.706" height="48"/><polyline class="cls-5" points="973.033 281.422 973.033 283.422 971.033 283.422"/><line class="cls-9" x1="967.0399" y1="283.4223" x2="793.3241" y2="283.4223"/><polyline class="cls-5" points="791.327 283.422 789.327 283.422 789.327 281.422"/><line class="cls-10" x1="789.3273" y1="277.4223" x2="789.3273" y2="239.4223"/><polyline class="cls-5" points="789.327 237.422 789.327 235.422 791.327 235.422"/><line class="cls-9" x1="795.3208" y1="235.4223" x2="969.0366" y2="235.4223"/><polyline class="cls-5" points="971.033 235.422 973.033 235.422 973.033 237.422"/><line class="cls-10" x1="973.0334" y1="241.4223" x2="973.0334" y2="279.4223"/><rect class="cls-11" x="589.3996" y="235.4223" width="3" height="48"/><rect class="cls-11" x="789.3273" y="235.4223" width="3" height="48"/><line class="cls-5" x1="11.9112" y1="260.6326" x2="32.6964" y2="260.6326"/><polygon class="cls-2" points="31.237 265.619 39.873 260.633 31.237 255.646 31.237 265.619"/><line class="cls-5" x1="12.1874" y1="146.6472" x2="40.2555" y2="146.6472"/><line class="cls-5" x1="12.2408" y1="197.3528" x2="33.026" y2="197.3528"/><polygon class="cls-2" points="31.567 202.339 40.202 197.353 31.567 192.366 31.567 202.339"/><line class="cls-5" x1="226.8326" y1="146.0086" x2="580.6981" y2="146.0086"/><polygon class="cls-2" points="579.239 150.995 587.874 146.009 579.239 141.022 579.239 150.995"/></g><g id="Text"><text class="cls-13" transform="translate(56.4036 32.4124)">Production enterprise</text><text class="cls-14" transform="translate(80.1631 88.1262)">Business unit account group</text><text class="cls-14" transform="translate(95.2476 150.4148)">BU admin account</text><text class="cls-14" transform="translate(57.7149 204.5764)">Workload account</text><text class="cls-14" transform="translate(57.7149 260.7737)">Workload account</text><text class="cls-14" transform="translate(250.6426 204.5764)">Workload account</text><text class="cls-14" transform="translate(250.6426 260.7737)">Workload account</text><text class="cls-13" transform="translate(606.1248 32.4124)">Nonproduction enterprise</text><text class="cls-14" transform="translate(632.5974 88.2791)">Business unit account group</text><text class="cls-14" transform="translate(605.534 151.4343)">Workload account</text><text class="cls-14" transform="translate(605.534 207.6311)">Workload account</text><text class="cls-14" transform="translate(805.4617 151.4343)">Workload account</text><text class="cls-14" transform="translate(805.4617 207.6311)">Workload account</text><text class="cls-14" transform="translate(605.534 255.1841)">Infrastructure as code <tspan x="0" y="18">development account</tspan></text><text class="cls-14" transform="translate(805.4627 254.8284)"><tspan xml:space="preserve">Infrastructure as code  </tspan><tspan x="0" y="18">test account</tspan></text><polygon class="cls-8" points="43.119 290.753 226.799 290.923 226.833 338.923 43.153 338.753 43.119 290.753"/><polyline class="cls-5" points="43.12 292.753 43.119 290.753 45.119 290.755"/><line class="cls-6" x1="49.1116" y1="290.7587" x2="222.8023" y2="290.919"/><polyline class="cls-5" points="224.799 290.921 226.799 290.923 226.8 292.923"/><line class="cls-7" x1="226.8029" y1="296.9227" x2="226.8298" y2="334.9227"/><polyline class="cls-5" points="226.831 336.923 226.833 338.923 224.833 338.921"/><line class="cls-6" x1="220.8397" y1="338.9171" x2="47.1491" y2="338.7568"/><polyline class="cls-5" points="45.153 338.755 43.153 338.753 43.151 336.753"/><line class="cls-7" x1="43.1484" y1="332.7532" x2="43.1216" y2="294.7532"/><rect class="cls-12" x="43.0802" y="290.7536" width="48" height="48"/><text class="cls-14" transform="translate(96.8201 321.1953)">Backup account</text><g id="data-backup"><circle class="cls-15" cx="58.0802" cy="305.8379" r="1"/><circle class="cls-15" cx="58.0802" cy="313.8379" r="1"/><circle class="cls-15" cx="58.0802" cy="321.8379" r="1"/><path class="cls-16" d="M341.8085,339.0315h-8v-6h8v-2h-8v-6h18v-8a2,2,0,0,0-2-2h-16a2,2,0,0,0-2,2v22a2,2,0,0,0,2,2h8Zm-8-22h16v6h-16Z" transform="translate(-278.7282 -14.1936)"/><path class="cls-16" d="M357.8085,330.0315v2.4131a6.996,6.996,0,1,0-6,10.5869v-2a5,5,0,1,1,4.5762-7h-2.5762v2h6v-6Z" transform="translate(-278.7282 -14.1936)"/><rect id="_Transparent_Rectangle_" data-name=" Transparent Rectangle " class="cls-17" x="51.0802" y="298.8379" width="32" height="32"/></g><polygon class="cls-8" points="591.1 291.619 774.78 291.789 774.814 339.789 591.134 339.619 591.1 291.619"/><polyline class="cls-5" points="591.102 293.619 591.1 291.619 593.1 291.621"/><line class="cls-6" x1="597.0932" y1="291.625" x2="770.7838" y2="291.7853"/><polyline class="cls-5" points="772.78 291.787 774.78 291.789 774.782 293.789"/><line class="cls-7" x1="774.7845" y1="297.789" x2="774.8114" y2="335.789"/><polyline class="cls-5" points="774.813 337.789 774.814 339.789 772.814 339.787"/><line class="cls-6" x1="768.8213" y1="339.7835" x2="595.1306" y2="339.6232"/><polyline class="cls-5" points="593.134 339.621 591.134 339.619 591.133 337.619"/><line class="cls-7" x1="591.13" y1="333.6195" x2="591.1031" y2="295.6195"/><rect class="cls-12" x="591.0618" y="291.6199" width="48" height="48"/><text class="cls-14" transform="translate(644.8015 322.0615)">Backup account</text><g id="data-backup-2" data-name="data-backup"><circle class="cls-15" cx="606.0618" cy="306.7042" r="1"/><circle class="cls-15" cx="606.0618" cy="314.7042" r="1"/><circle class="cls-15" cx="606.0618" cy="322.7042" r="1"/><path class="cls-16" d="M889.79,339.8978h-8v-6h8v-2h-8v-6h18v-8a2,2,0,0,0-2-2h-16a2,2,0,0,0-2,2v22a2,2,0,0,0,2,2h8Zm-8-22h16v6h-16Z" transform="translate(-278.7282 -14.1936)"/><path class="cls-16" d="M905.79,330.8978v2.4131a6.996,6.996,0,1,0-6,10.5869v-2a5,5,0,1,1,4.5762-7H901.79v2h6v-6Z" transform="translate(-278.7282 -14.1936)"/><rect id="_Transparent_Rectangle_2" data-name=" Transparent Rectangle " class="cls-17" x="599.0618" y="299.7042" width="32" height="32"/></g><rect class="cls-11" x="512.4173" y="146.267" width="0.0027" height="113.144"/><line class="cls-5" x1="513.2718" y1="203.2251" x2="580.6981" y2="203.2251"/><polygon class="cls-2" points="579.239 208.211 587.874 203.225 579.239 198.239 579.239 208.211"/><line class="cls-5" x1="512.42" y1="259.411" x2="579.8464" y2="259.411"/><polygon class="cls-2" points="578.387 264.397 587.023 259.411 578.387 254.425 578.387 264.397"/><line class="cls-5" x1="326.361" y1="146.1391" x2="326.361" y2="166.8634"/><polygon class="cls-2" points="321.375 165.404 326.361 174.04 331.347 165.404 321.375 165.404"/><line class="cls-5" x1="775.0147" y1="146.5509" x2="780.2429" y2="146.632"/><polygon class="cls-2" points="778.707 151.595 787.418 146.743 778.861 141.624 778.707 151.595"/><line class="cls-5" x1="775.0147" y1="203.1289" x2="780.2429" y2="203.21"/><polygon class="cls-2" points="778.707 208.173 787.418 203.321 778.861 198.202 778.707 208.173"/><line class="cls-5" x1="775.0147" y1="259.7069" x2="780.2429" y2="259.788"/><polygon class="cls-2" points="778.707 264.751 787.418 259.899 778.861 254.78 778.707 264.751"/><rect class="cls-11" x="12.2394" y="146.6531" width="0.0027" height="113.144"/></g></svg>