<svg xmlns="http://www.w3.org/2000/svg" width="1031.0332" height="508.4765" viewBox="0 0 1031.0332 508.4765"><defs><style>.cls-1,.cls-10{fill:#eef4fb;}.cls-1{stroke:#eef5fb;}.cls-1,.cls-10,.cls-11,.cls-12,.cls-14,.cls-3,.cls-5,.cls-6,.cls-7,.cls-9{stroke-miterlimit:10;}.cls-11,.cls-12,.cls-2{fill:#3553a4;}.cls-3,.cls-4{fill:#fff;}.cls-10,.cls-12,.cls-14,.cls-3,.cls-5,.cls-6,.cls-7,.cls-9{stroke:#3553a4;}.cls-14,.cls-17,.cls-5,.cls-6,.cls-7,.cls-9{fill:none;}.cls-6{stroke-dasharray:3.9773 3.9773;}.cls-7{stroke-dasharray:4 4;}.cls-8{fill:#d1d3d4;}.cls-9{stroke-dasharray:4 4;}.cls-11{stroke:#4267b1;}.cls-13{font-size:14px;font-family:IBMPlexSans, IBM Plex Sans;}.cls-13,.cls-15,.cls-18{fill:#010101;}.cls-14{stroke-dasharray:4 4;}.cls-16{fill:#3654a4;}.cls-18{font-size:16px;font-family:IBMPlexSans-SemiBold, IBM Plex Sans;font-weight:600;}</style></defs><g id="Background"><rect class="cls-1" x="0.5609" y="3.3111" width="476.3103" height="504.6653"/><rect class="cls-2" width="48" height="48"/><polygon class="cls-3" points="27.737 306.155 295.607 307.207 296.207 484.564 27.737 484.564 27.737 306.155"/><rect class="cls-4" x="45.9033" y="366.7048" width="238.6587" height="48.0003"/><polyline class="cls-5" points="45.903 368.703 45.903 366.703 47.903 366.703"/><line class="cls-6" x1="51.8802" y1="366.7029" x2="280.5729" y2="366.7068"/><polyline class="cls-5" points="282.562 366.707 284.562 366.707 284.562 368.707"/><line class="cls-7" x1="284.5617" y1="372.7069" x2="284.5623" y2="410.7072"/><polyline class="cls-5" points="284.562 412.707 284.562 414.707 282.562 414.707"/><line class="cls-6" x1="278.5851" y1="414.7071" x2="49.8924" y2="414.7032"/><polyline class="cls-5" points="47.904 414.703 45.904 414.703 45.904 412.703"/><line class="cls-7" x1="45.9036" y1="408.7031" x2="45.903" y2="370.7028"/><rect class="cls-2" x="28.4085" y="306.1554" width="48" height="48"/><path class="cls-4" d="M326.3067,334.349l3.42,3.41.58.59h12.83v16h-24v-20h7.17m0-2h-7.17a2,2,0,0,0-2,2v20a2,2,0,0,0,2,2h24a2,2,0,0,0,2-2v-16a2,2,0,0,0-2-2h-12l-3.41-3.41A1.9993,1.9993,0,0,0,326.3067,332.349Z" transform="translate(-278.7282 -14.1936)"/><rect class="cls-4" x="16.1632" y="16.5799" width="1.6534" height="3.3067"/><rect class="cls-4" x="16.1632" y="21.5399" width="1.6534" height="3.3067"/><rect class="cls-4" x="21.1233" y="16.5799" width="1.6534" height="3.3067"/><rect class="cls-4" x="21.1233" y="21.5399" width="1.6534" height="3.3067"/><rect class="cls-4" x="16.1632" y="26.5" width="1.6534" height="3.3067"/><rect class="cls-4" x="21.1233" y="26.5" width="1.6534" height="3.3067"/><path class="cls-4" d="M313.0784,35.7335A1.6534,1.6534,0,0,0,311.425,34.08h-4.96V27.4667a1.6533,1.6533,0,0,0-1.6533-1.6533H291.5847a1.6533,1.6533,0,0,0-1.6533,1.6533V48.96h23.147Zm-21.4937-8.2668h13.2269v19.84H291.5847Zm14.88,19.84V35.7335h4.96V47.307Z" transform="translate(-278.7282 -14.1936)"/><rect class="cls-3" x="28.4867" y="65.7803" width="267.72" height="220.3992"/><rect class="cls-8" x="45.1537" y="120.4204" width="240" height="48"/><polyline class="cls-5" points="45.154 122.42 45.154 120.42 47.154 120.42"/><line class="cls-9" x1="51.1537" y1="120.4204" x2="281.1537" y2="120.4204"/><polyline class="cls-5" points="283.154 120.42 285.154 120.42 285.154 122.42"/><line class="cls-9" x1="285.1537" y1="126.4204" x2="285.1537" y2="164.4204"/><polyline class="cls-5" points="285.154 166.42 285.154 168.42 283.154 168.42"/><line class="cls-9" x1="279.1537" y1="168.4204" x2="49.1537" y2="168.4204"/><polyline class="cls-5" points="47.154 168.42 45.154 168.42 45.154 166.42"/><line class="cls-9" x1="45.1537" y1="162.4204" x2="45.1537" y2="124.4204"/><rect class="cls-4" x="45.1537" y="176.8182" width="240" height="48"/><polyline class="cls-5" points="45.154 178.818 45.154 176.818 47.154 176.818"/><line class="cls-9" x1="51.1537" y1="176.8181" x2="281.1537" y2="176.8181"/><polyline class="cls-5" points="283.154 176.818 285.154 176.818 285.154 178.818"/><line class="cls-9" x1="285.1537" y1="182.8181" x2="285.1537" y2="220.8181"/><polyline class="cls-5" points="285.154 222.818 285.154 224.818 283.154 224.818"/><line class="cls-9" x1="279.1537" y1="224.8181" x2="49.1537" y2="224.8181"/><polyline class="cls-5" points="47.154 224.818 45.154 224.818 45.154 222.818"/><line class="cls-9" x1="45.1537" y1="218.8181" x2="45.1537" y2="180.8181"/><rect class="cls-10" x="45.8313" y="366.7046" width="48" height="48"/><rect class="cls-10" x="43.8313" y="120.4204" width="48" height="48"/><rect class="cls-10" x="43.8313" y="176.8182" width="48" height="48"/><rect class="cls-3" x="302.6986" y="65.7803" width="136.7275" height="176.1676"/><rect class="cls-11" x="347.0623" y="96.2624" width="48" height="48"/><path id="_Path_" data-name="&lt;Path&gt;" class="cls-4" d="M664.3589,137v5.5a3.9337,3.9337,0,0,1-2.3,3.5l-1.7.8-1.7-.8a3.8251,3.8251,0,0,1-2.3-3.5V137h8m2-2h-12v7.5a5.9235,5.9235,0,0,0,3.4,5.3l2.6,1.2,2.6-1.2a5.8149,5.8149,0,0,0,3.4-5.3V135Z" transform="translate(-278.7282 -14.1936)"/><path class="cls-4" d="M650.3589,144h-8.5a7.5074,7.5074,0,0,1-1.3-14.9,9.99,9.99,0,0,1,19.8,1.9h-2a8.0269,8.0269,0,0,0-16-.9v.9h-.9a5.4759,5.4759,0,0,0-5.1,5.5,5.5488,5.5488,0,0,0,5.5,5.5h8.5Z" transform="translate(-278.7282 -14.1936)"/><path class="cls-2" d="M340.5806,402.8626h10.971v2.0355h-10.971Zm0,5.0889h12.9658v2.0355H340.5806Z" transform="translate(-278.7282 -14.1936)"/><path class="cls-2" d="M360.5279,392.6848H336.5912a2.0154,2.0154,0,0,0-1.9947,2.0355v20.3556a2.0154,2.0154,0,0,0,1.9947,2.0356h23.9367a2.0154,2.0154,0,0,0,1.9947-2.0356V394.72A2.0154,2.0154,0,0,0,360.5279,392.6848Zm0,2.0355v2.0356H336.5912V394.72Zm-23.9367,20.3556V398.7915h23.9367v16.2844Z" transform="translate(-278.7282 -14.1936)"/><path class="cls-2" d="M338.5806,156.5784h10.971v2.0356h-10.971Zm0,5.0889h12.9658v2.0356H338.5806Z" transform="translate(-278.7282 -14.1936)"/><path class="cls-2" d="M358.5279,146.4006H334.5912a2.0154,2.0154,0,0,0-1.9947,2.0356v20.3556a2.0154,2.0154,0,0,0,1.9947,2.0356h23.9367a2.0154,2.0154,0,0,0,1.9947-2.0356V148.4362A2.0154,2.0154,0,0,0,358.5279,146.4006Zm0,2.0356v2.0356H334.5912v-2.0356Zm-23.9367,20.3556V152.5073h23.9367v16.2845Z" transform="translate(-278.7282 -14.1936)"/><path class="cls-2" d="M340.3931,223.2l3.9859-3.9856-1.324-1.3241-3.9859,3.9857-.7425-.7424a.9357.9357,0,0,0-1.3233-.0006l-.0006.0006-3.7453,3.7452a.9359.9359,0,0,0-.0006,1.3234l.0006.0006,2.809,2.8089a.9357.9357,0,0,0,1.3234,0l.0005,0,3.7452-3.7453a.9357.9357,0,0,0,.0006-1.3233l-.0006-.0006Zm-3.6648,3.8257-1.4849-1.4849,2.4212-2.4212,1.4849,1.4849Z" transform="translate(-278.7282 -14.1936)"/><path class="cls-2" d="M354.5181,228.35a5.6241,5.6241,0,0,1-5.6178-5.6178,5.4659,5.4659,0,0,1,.1975-1.4484l-8.1122-8.112a5.4739,5.4739,0,0,1-1.4484.1973,5.595,5.595,0,0,1-5.2219-7.6623l.5222-1.3314,3.1015,3.1015a.9579.9579,0,0,0,1.3234,0,.9353.9353,0,0,0,.0013-1.3228l-.0013-.0012-3.1018-3.1028,1.3326-.5216a5.5966,5.5966,0,0,1,7.6619,5.2228,5.4665,5.4665,0,0,1-.1975,1.4484l8.1122,8.1116a5.4858,5.4858,0,0,1,1.4483-.197,5.5949,5.5949,0,0,1,5.2219,7.6624l-.5216,1.3313-3.102-3.1015a.9582.9582,0,0,0-1.3235,0,.9353.9353,0,0,0-.0016,1.3228l.0012.0012,3.1015,3.1019-1.3314.5224A5.5811,5.5811,0,0,1,354.5181,228.35Zm-13.05-17.3438,9.7946,9.7948-.224.5706a3.7223,3.7223,0,0,0,3.2451,5.0985l-.8157-.8156a2.8083,2.8083,0,0,1-.0008-3.9714l.0008-.0008a2.8765,2.8765,0,0,1,3.9725.0005l.8152.8153a3.7228,3.7228,0,0,0-5.099-3.2451l-.5706.2234-9.7937-9.7938.2239-.5706a3.7222,3.7222,0,0,0-3.2449-5.0986l.8151.8156a2.8081,2.8081,0,0,1,.0009,3.9713l-.0009.0009a2.8764,2.8764,0,0,1-3.9724-.0005l-.8152-.8153a3.7218,3.7218,0,0,0,5.0985,3.2448Z" transform="translate(-278.7282 -14.1936)"/><path class="cls-2" d="M359.3145,202.929a2.876,2.876,0,0,0-3.972,0l-7.004,7.0036,1.324,1.3239,7.0036-7.0036a.9592.9592,0,0,1,1.324,0,.9382.9382,0,0,1,0,1.3244l-7.0035,7.0036,1.3239,1.324,7.0036-7.0031A2.8118,2.8118,0,0,0,359.3145,202.929Z" transform="translate(-278.7282 -14.1936)"/><rect class="cls-12" x="1" y="44" width="3.5119" height="462.0689"/><rect class="cls-1" x="554.2229" y="3.0667" width="476.3103" height="502.2362"/><rect class="cls-2" x="549.7213" width="48" height="48"/><rect class="cls-4" x="565.8845" y="16.5799" width="1.6534" height="3.3067"/><rect class="cls-4" x="565.8845" y="21.5399" width="1.6534" height="3.3067"/><rect class="cls-4" x="570.8446" y="16.5799" width="1.6534" height="3.3067"/><rect class="cls-4" x="570.8446" y="21.5399" width="1.6534" height="3.3067"/><rect class="cls-4" x="565.8845" y="26.5" width="1.6534" height="3.3067"/><rect class="cls-4" x="570.8446" y="26.5" width="1.6534" height="3.3067"/><path class="cls-4" d="M862.8,35.7335a1.6534,1.6534,0,0,0-1.6534-1.6533h-4.96V27.4667a1.6533,1.6533,0,0,0-1.6533-1.6533H841.306a1.6533,1.6533,0,0,0-1.6533,1.6533V48.96H862.8ZM841.306,27.4667h13.2269v19.84H841.306Zm14.88,19.84V35.7335h4.96V47.307Z" transform="translate(-278.7282 -14.1936)"/><rect class="cls-3" x="581.208" y="65.7803" width="267.72" height="128.9831"/><rect class="cls-4" x="596.8751" y="121.4204" width="240" height="48"/><polyline class="cls-5" points="596.875 123.42 596.875 121.42 598.875 121.42"/><line class="cls-9" x1="602.8751" y1="121.4204" x2="832.875" y2="121.4204"/><polyline class="cls-5" points="834.875 121.42 836.875 121.42 836.875 123.42"/><line class="cls-9" x1="836.875" y1="127.4204" x2="836.875" y2="165.4204"/><polyline class="cls-5" points="836.875 167.42 836.875 169.42 834.875 169.42"/><line class="cls-9" x1="830.875" y1="169.4204" x2="600.8751" y2="169.4204"/><polyline class="cls-5" points="598.875 169.42 596.875 169.42 596.875 167.42"/><line class="cls-9" x1="596.8751" y1="163.4204" x2="596.8751" y2="125.4204"/><rect class="cls-10" x="596.2138" y="121.4204" width="48" height="48"/><path class="cls-2" d="M892.7756,167.8023l3.9859-3.9857-1.3239-1.324-3.986,3.9856-.7425-.7424a.9357.9357,0,0,0-1.3233-.0006l-.0006.0006-3.7452,3.7453a.9357.9357,0,0,0-.0006,1.3233l.0006.0006,2.8089,2.8089a.9359.9359,0,0,0,1.3235,0l0,0,3.7452-3.7452a.9358.9358,0,0,0,.0006-1.3234l-.0006,0Zm-3.6647,3.8256-1.4849-1.4849,2.4212-2.4212,1.4848,1.4849Z" transform="translate(-278.7282 -14.1936)"/><path class="cls-2" d="M906.9007,172.9519a5.6241,5.6241,0,0,1-5.6179-5.6178,5.4665,5.4665,0,0,1,.1975-1.4484l-8.1122-8.1119a5.4779,5.4779,0,0,1-1.4483.1973,5.5951,5.5951,0,0,1-5.222-7.6624l.5222-1.3313,3.1015,3.1015a.9582.9582,0,0,0,1.3235,0,.9354.9354,0,0,0,.0012-1.3228l-.0012-.0012-3.1019-3.1029,1.3326-.5216a5.5964,5.5964,0,0,1,7.6619,5.2228,5.4659,5.4659,0,0,1-.1975,1.4484l8.1122,8.1117a5.4778,5.4778,0,0,1,1.4484-.197,5.5948,5.5948,0,0,1,5.2218,7.6623l-.5216,1.3314-3.102-3.1016a.9581.9581,0,0,0-1.3234,0,.9354.9354,0,0,0-.0017,1.3229l.0012.0012,3.1015,3.1019-1.3313.5223A5.5778,5.5778,0,0,1,906.9007,172.9519Zm-13.05-17.3438,9.7946,9.7949-.224.5706a3.7222,3.7222,0,0,0,3.2451,5.0984l-.8156-.8156a2.8081,2.8081,0,0,1-.0009-3.9713l.0009-.0009a2.8764,2.8764,0,0,1,3.9724,0l.8152.8153a3.7228,3.7228,0,0,0-5.099-3.245l-.57.2233-9.7938-9.7938.224-.5705a3.7222,3.7222,0,0,0-3.245-5.0987l.8152.8156a2.8083,2.8083,0,0,1,.0008,3.9714l-.0008.0008a2.8765,2.8765,0,0,1-3.9725,0l-.8151-.8153a3.722,3.722,0,0,0,5.0984,3.2449Z" transform="translate(-278.7282 -14.1936)"/><path class="cls-2" d="M911.697,147.5312a2.876,2.876,0,0,0-3.972,0l-7.004,7.0036,1.3241,1.3239,7.0035-7.0035a.9592.9592,0,0,1,1.3241,0,.9382.9382,0,0,1,0,1.3244l-7.0036,7.0036,1.3239,1.324,7.0036-7.0031A2.812,2.812,0,0,0,911.697,147.5312Z" transform="translate(-278.7282 -14.1936)"/><rect class="cls-2" x="28.4085" y="65.7803" width="48" height="48"/><path class="cls-4" d="M326.3067,93.9739l3.42,3.41.58.59h12.83v16h-24v-20h7.17m0-2h-7.17a2,2,0,0,0-2,2v20a2,2,0,0,0,2,2h24a2,2,0,0,0,2-2v-16a2,2,0,0,0-2-2h-12l-3.41-3.41A2,2,0,0,0,326.3067,91.9739Z" transform="translate(-278.7282 -14.1936)"/><rect class="cls-2" x="580.91" y="66.5566" width="48" height="48"/><path class="cls-4" d="M878.8083,94.75l3.42,3.41.58.59h12.83v16h-24v-20h7.17m0-2h-7.17a2,2,0,0,0-2,2v20a2,2,0,0,0,2,2h24a2,2,0,0,0,2-2v-16a2,2,0,0,0-2-2h-12l-3.41-3.41A2,2,0,0,0,878.8083,92.75Z" transform="translate(-278.7282 -14.1936)"/><line class="cls-5" x1="518.604" y1="145.4204" x2="587.7338" y2="145.4204"/><polygon class="cls-2" points="586.275 150.407 594.91 145.42 586.275 140.434 586.275 150.407"/><rect class="cls-12" x="550.711" y="43.6094" width="3.5119" height="462.0689"/><polygon class="cls-3" points="580.833 304.88 848.703 305.932 849.303 483.289 580.833 483.289 580.833 304.88"/><rect class="cls-4" x="597.2381" y="366.014" width="238.6587" height="48.0003"/><polyline class="cls-5" points="597.238 368.012 597.238 366.012 599.238 366.012"/><line class="cls-6" x1="603.2149" y1="366.0121" x2="831.9077" y2="366.016"/><polyline class="cls-5" points="833.896 366.016 835.896 366.016 835.896 368.016"/><line class="cls-7" x1="835.8964" y1="372.0161" x2="835.8971" y2="410.0163"/><polyline class="cls-5" points="835.897 412.016 835.897 414.016 833.897 414.016"/><line class="cls-6" x1="829.9198" y1="414.0162" x2="601.2271" y2="414.0124"/><polyline class="cls-5" points="599.238 414.012 597.238 414.012 597.238 412.012"/><line class="cls-7" x1="597.2384" y1="408.0123" x2="597.2377" y2="370.012"/><rect class="cls-2" x="581.7432" y="305.4646" width="48" height="48"/><path class="cls-4" d="M879.6415,333.6581l3.42,3.41.58.59h12.83v16h-24v-20h7.17m0-2h-7.17a2,2,0,0,0-2,2v20a2,2,0,0,0,2,2h24a2,2,0,0,0,2-2v-16a2,2,0,0,0-2-2h-12l-3.41-3.41A2,2,0,0,0,879.6415,331.6581Z" transform="translate(-278.7282 -14.1936)"/><rect class="cls-10" x="597.1661" y="366.0137" width="48" height="48"/><path class="cls-2" d="M891.9154,402.1718h10.971v2.0355h-10.971Zm0,5.0889h12.9657v2.0355H891.9154Z" transform="translate(-278.7282 -14.1936)"/><path class="cls-2" d="M911.8626,391.994H887.9259a2.0154,2.0154,0,0,0-1.9947,2.0355v20.3556a2.0155,2.0155,0,0,0,1.9947,2.0356h23.9367a2.0155,2.0155,0,0,0,1.9948-2.0356V394.03A2.0154,2.0154,0,0,0,911.8626,391.994Zm0,2.0355v2.0356H887.9259V394.03Zm-23.9367,20.3556V398.1006h23.9367v16.2845Z" transform="translate(-278.7282 -14.1936)"/><text class="cls-13" transform="translate(637.8213 335.0984)">Business unit account group</text><text class="cls-13" transform="translate(650.9058 396.4556)">BU admin account</text><rect class="cls-4" x="597.1401" y="421.574" width="238.6587" height="48.0003"/><polyline class="cls-5" points="597.14 423.572 597.14 421.572 599.14 421.572"/><line class="cls-6" x1="603.1169" y1="421.5721" x2="831.8097" y2="421.576"/><polyline class="cls-5" points="833.798 421.576 835.798 421.576 835.798 423.576"/><line class="cls-14" x1="835.7984" y1="427.5761" x2="835.799" y2="465.5764"/><polyline class="cls-5" points="835.799 467.576 835.799 469.576 833.799 469.576"/><line class="cls-6" x1="829.8219" y1="469.5763" x2="601.1291" y2="469.5724"/><polyline class="cls-5" points="599.14 469.572 597.14 469.572 597.14 467.572"/><line class="cls-14" x1="597.1404" y1="463.5723" x2="597.1397" y2="425.572"/><rect class="cls-10" x="597.1661" y="421.6091" width="48" height="48"/><text class="cls-13" transform="translate(650.8079 452.0154)">Backup account</text><g id="data-backup"><circle class="cls-15" cx="612.068" cy="436.6578" r="1"/><circle class="cls-15" cx="612.068" cy="444.6578" r="1"/><circle class="cls-15" cx="612.068" cy="452.6578" r="1"/><path class="cls-16" d="M895.7963,469.8514h-8v-6h8v-2h-8v-6h18v-8a2,2,0,0,0-2-2h-16a2,2,0,0,0-2,2v22a2,2,0,0,0,2,2h8Zm-8-22h16v6h-16Z" transform="translate(-278.7282 -14.1936)"/><path class="cls-16" d="M911.7963,460.8514v2.4131a6.996,6.996,0,1,0-6,10.5869v-2a5,5,0,1,1,4.5762-7h-2.5762v2h6v-6Z" transform="translate(-278.7282 -14.1936)"/><rect id="_Transparent_Rectangle_" data-name=" Transparent Rectangle " class="cls-17" x="605.068" y="429.6578" width="32" height="32"/></g><line class="cls-5" x1="518.604" y1="446.5623" x2="587.7338" y2="446.5623"/><polygon class="cls-2" points="586.275 451.549 594.91 446.562 586.275 441.576 586.275 451.549"/><line class="cls-5" x1="518.604" y1="386.6983" x2="587.7338" y2="386.6983"/><polygon class="cls-2" points="586.275 391.685 594.91 386.698 586.275 381.712 586.275 391.685"/><line class="cls-5" x1="518.604" y1="223.3201" x2="845.3652" y2="223.3201"/><polygon class="cls-2" points="843.906 228.306 852.541 223.32 843.906 218.334 843.906 228.306"/><line class="cls-5" x1="15.8699" y1="448.3485" x2="36.6551" y2="448.3485"/><polygon class="cls-2" points="35.196 453.335 43.831 448.349 35.196 443.362 35.196 453.335"/><line class="cls-5" x1="17.0165" y1="390.7046" x2="37.8017" y2="390.7046"/><polygon class="cls-2" points="36.343 395.691 44.978 390.705 36.343 385.718 36.343 395.691"/><line class="cls-5" x1="15.6869" y1="256.9708" x2="36.4721" y2="256.9708"/><polygon class="cls-2" points="35.013 261.957 43.648 256.971 35.013 251.985 35.013 261.957"/><line class="cls-5" x1="15.5803" y1="199.7113" x2="36.4721" y2="199.7113"/><polygon class="cls-2" points="35.013 204.698 43.648 199.711 35.013 194.725 35.013 204.698"/><line class="cls-5" x1="15.9632" y1="142.9854" x2="44.0313" y2="142.9854"/><line class="cls-5" x1="285.2573" y1="145.6501" x2="303.1561" y2="145.6501"/><line class="cls-5" x1="441.4739" y1="145.6501" x2="518.5561" y2="145.6501"/><rect class="cls-12" x="518.604" y="146.3458" width="0.0013" height="300.2165"/><rect class="cls-12" x="294.4165" y="157.1937" width="0.1816" height="305.3484" transform="translate(310.2864 605.5422) rotate(180)"/></g><g id="Text"><text class="cls-18" transform="translate(56.4036 32.4124)">Production enterprise</text><text class="cls-13" transform="translate(84.4866 334.8577)">Business unit account group</text><text class="cls-13" transform="translate(99.5711 397.1463)">BU admin account</text><text class="cls-13" transform="translate(84.4871 94.1394)">Admin account group</text><text class="cls-13" transform="translate(97.5711 148.8264)">Central admin account</text><text class="cls-13" transform="translate(97.5716 197.2244)">Network and services <tspan x="0" y="18">hub account</tspan></text><text class="cls-13" transform="translate(331.9607 162.6926)">Security and <tspan x="1.9321" y="16">Compliance </tspan><tspan x="18.0669" y="32">Center</tspan></text><text class="cls-18" transform="translate(606.1248 32.4124)">Nonproduction enterprise</text><text class="cls-13" transform="translate(637.2083 95.1394)">Admin account group</text><text class="cls-13" transform="translate(649.9544 141.8264)">Network and services <tspan x="0" y="18" xml:space="preserve">hub  account</tspan></text><rect class="cls-4" x="45.1479" y="231.6438" width="240" height="48"/><polyline class="cls-5" points="45.148 233.644 45.148 231.644 47.148 231.644"/><line class="cls-9" x1="51.1479" y1="231.6438" x2="281.1479" y2="231.6438"/><polyline class="cls-5" points="283.148 231.644 285.148 231.644 285.148 233.644"/><line class="cls-9" x1="285.1479" y1="237.6438" x2="285.1479" y2="275.6438"/><polyline class="cls-5" points="285.148 277.644 285.148 279.644 283.148 279.644"/><line class="cls-9" x1="279.1479" y1="279.6438" x2="49.1479" y2="279.6438"/><polyline class="cls-5" points="47.148 279.644 45.148 279.644 45.148 277.644"/><line class="cls-9" x1="45.1479" y1="273.6438" x2="45.1479" y2="235.6438"/><rect class="cls-10" x="43.8255" y="231.6438" width="48" height="48"/><text class="cls-13" transform="translate(97.5657 261.4085)">Backup account</text><g id="data-backup-2" data-name="data-backup"><circle class="cls-15" cx="61.8234" cy="247.9708" r="1"/><circle class="cls-15" cx="61.8234" cy="255.9708" r="1"/><circle class="cls-15" cx="61.8234" cy="263.9708" r="1"/><path class="cls-16" d="M345.5516,281.1644h-8v-6h8v-2h-8v-6h18v-8a2,2,0,0,0-2-2h-16a2,2,0,0,0-2,2v22a2,2,0,0,0,2,2h8Zm-8-22h16v6h-16Z" transform="translate(-278.7282 -14.1936)"/><path class="cls-16" d="M361.5516,272.1644v2.4131a6.996,6.996,0,1,0-6,10.5869v-2a5,5,0,1,1,4.5762-7h-2.5762v2h6v-6Z" transform="translate(-278.7282 -14.1936)"/><rect id="_Transparent_Rectangle_2" data-name=" Transparent Rectangle " class="cls-17" x="54.8234" y="240.9708" width="32" height="32"/></g><rect class="cls-4" x="45.8053" y="422.2648" width="238.6587" height="48.0003"/><polyline class="cls-5" points="45.805 424.263 45.805 422.263 47.805 422.263"/><line class="cls-6" x1="51.7822" y1="422.2629" x2="280.4749" y2="422.2668"/><polyline class="cls-5" points="282.464 422.267 284.464 422.267 284.464 424.267"/><line class="cls-14" x1="284.4637" y1="428.2669" x2="284.4643" y2="466.2672"/><polyline class="cls-5" points="284.464 468.267 284.464 470.267 282.464 470.267"/><line class="cls-6" x1="278.4871" y1="470.2671" x2="49.7943" y2="470.2632"/><polyline class="cls-5" points="47.806 470.263 45.806 470.263 45.806 468.263"/><line class="cls-14" x1="45.8056" y1="464.2631" x2="45.805" y2="426.2628"/><rect class="cls-10" x="45.8313" y="422.2999" width="48" height="48"/><text class="cls-13" transform="translate(99.4732 452.7061)">Backup account</text><g id="data-backup-3" data-name="data-backup"><circle class="cls-15" cx="60.7333" cy="437.3486" r="1"/><circle class="cls-15" cx="60.7333" cy="445.3486" r="1"/><circle class="cls-15" cx="60.7333" cy="453.3486" r="1"/><path class="cls-16" d="M344.4615,470.5422h-8v-6h8v-2h-8v-6h18v-8a2,2,0,0,0-2-2h-16a2,2,0,0,0-2,2v22a2,2,0,0,0,2,2h8Zm-8-22h16v6h-16Z" transform="translate(-278.7282 -14.1936)"/><path class="cls-16" d="M360.4615,461.5422v2.4131a6.996,6.996,0,1,0-6,10.5869v-2a5,5,0,1,1,4.5762-7h-2.5762v2h6v-6Z" transform="translate(-278.7282 -14.1936)"/><rect id="_Transparent_Rectangle_3" data-name=" Transparent Rectangle " class="cls-17" x="53.7333" y="430.3486" width="32" height="32"/></g><rect class="cls-3" x="855.4574" y="66.4444" width="136.7275" height="176.1676"/><rect class="cls-11" x="899.8211" y="96.9265" width="48" height="48"/><path id="_Path_2" data-name="&lt;Path&gt;" class="cls-4" d="M1217.1177,137.6642v5.5a3.9337,3.9337,0,0,1-2.3,3.5l-1.7.8-1.7-.8a3.8251,3.8251,0,0,1-2.3-3.5v-5.5h8m2-2h-12v7.5a5.9235,5.9235,0,0,0,3.4,5.3l2.6,1.2,2.6-1.2a5.8149,5.8149,0,0,0,3.4-5.3v-7.5Z" transform="translate(-278.7282 -14.1936)"/><path class="cls-4" d="M1203.1177,144.6642h-8.5a7.5074,7.5074,0,0,1-1.3-14.9,9.99,9.99,0,0,1,19.8,1.9h-2a8.0269,8.0269,0,0,0-16-.9v.9h-.9a5.4759,5.4759,0,0,0-5.1,5.5,5.5488,5.5488,0,0,0,5.5,5.5h8.5Z" transform="translate(-278.7282 -14.1936)"/><text class="cls-13" transform="translate(884.7195 163.3567)">Security and <tspan x="1.9321" y="16">Compliance </tspan><tspan x="18.0669" y="32">Center</tspan></text></g></svg>