<svg width="4121" height="1709" xmlns="http://www.w3.org/2000/svg" xmlns:xlink="http://www.w3.org/1999/xlink" xml:space="preserve" overflow="hidden"><defs><clipPath id="clip0"><rect x="59" y="495" width="4121" height="1709"/></clipPath></defs><g clip-path="url(#clip0)" transform="translate(-59 -495)"><rect x="801" y="1008" width="2494" height="1106" fill="#F2F2F2" fill-opacity="1"/><text fill="#7F7F7F" fill-opacity="1" font-family="IBM Plex Sans Condensed,IBM Plex Sans Condensed_MSFontService,sans-serif" font-style="normal" font-variant="normal" font-weight="400" font-stretch="condensed" font-size="46" text-anchor="start" direction="ltr" writing-mode="lr-tb" unicode-bidi="normal" text-decoration="none" transform="matrix(1 0 0 1 834.049 1067)">Admin </text><text fill="#7F7F7F" fill-opacity="1" font-family="IBM Plex Sans Condensed,IBM Plex Sans Condensed_MSFontService,sans-serif" font-style="normal" font-variant="normal" font-weight="400" font-stretch="condensed" font-size="46" text-anchor="start" direction="ltr" writing-mode="lr-tb" unicode-bidi="normal" text-decoration="none" transform="matrix(1 0 0 1 964.101 1067)">Account</text><text fill="#7F7F7F" fill-opacity="1" font-family="IBM Plex Sans Condensed,IBM Plex Sans Condensed_MSFontService,sans-serif" font-style="normal" font-variant="normal" font-weight="400" font-stretch="condensed" font-size="50" text-anchor="start" direction="ltr" writing-mode="lr-tb" unicode-bidi="normal" text-decoration="none" transform="matrix(1 0 0 1 280.128 814)">Tools account </text><text fill="#7F7F7F" fill-opacity="1" font-family="IBM Plex Sans Condensed,IBM Plex Sans Condensed_MSFontService,sans-serif" font-style="normal" font-variant="normal" font-weight="400" font-stretch="condensed" font-size="50" text-anchor="start" direction="ltr" writing-mode="lr-tb" unicode-bidi="normal" text-decoration="none" transform="matrix(1 0 0 1 280.128 874)">hosts shared tools </text><text fill="#7F7F7F" fill-opacity="1" font-family="IBM Plex Sans Condensed,IBM Plex Sans Condensed_MSFontService,sans-serif" font-style="normal" font-variant="normal" font-weight="400" font-stretch="condensed" font-size="50" text-anchor="start" direction="ltr" writing-mode="lr-tb" unicode-bidi="normal" text-decoration="none" transform="matrix(1 0 0 1 280.128 935)">for all BUs</text><path d="M0.019097-1.14567 27.9326-0.680388 55.8099 0.696778 83.5771 2.95605 111.18 6.06798 138.564 10.0032 165.675 14.7322 192.458 20.2256 218.86 26.4542 244.825 33.3885 270.3 40.9993 295.229 49.2572 319.56 58.1329 343.236 67.5972 366.205 77.6209 388.411 88.1748 409.801 99.2297 430.319 110.757 449.913 122.726 468.526 135.11 486.105 147.879 502.596 161.004 517.944 174.457 532.095 188.21 544.993 202.233 556.584 216.499 566.813 230.979 575.618 245.635 579.48 253.04 582.961 260.47 586.059 267.933 588.767 275.424 591.079 282.941 592.994 290.51 594.015 297.814 591.745 298.131 590.733 290.889 590.757 291.011 588.864 283.531 588.88 283.587 586.585 276.124 586.603 276.177 583.913 268.737 583.932 268.787 580.854 261.372 580.875 261.419 577.415 254.034 577.437 254.078 573.602 246.726 573.636 246.786 564.871 232.196 564.917 232.267 554.735 217.852 554.781 217.914 543.237 203.705 543.282 203.758 530.43 189.785 530.474 189.831 516.368 176.121 516.411 176.161 501.106 162.746 501.148 162.781 484.698 149.688 484.738 149.718 467.198 136.978 467.237 137.005 448.661 124.647 448.699 124.67 429.143 112.723 429.179 112.744 408.696 101.237 408.731 101.256 387.376 90.2194 387.41 90.2363 365.238 79.6986 365.272 79.7139 342.336 69.7047 342.369 69.7185 318.725 60.2673 318.758 60.2798 294.46 51.4159 294.493 51.4272 269.595 43.18 269.628 43.1902 244.185 35.5891 244.218 35.5983 218.285 28.6726 218.317 28.6808 191.949 22.4599 191.981 22.4672 165.231 16.9805 165.264 16.9868 138.187 12.2637 138.221 12.2691 110.871 8.33882 110.906 8.34326 83.3381 5.23528 83.3735 5.23872 55.6422 2.98238 55.6786 2.98475 27.8383 1.60941 27.8757 1.61065-0.019097 1.14567ZM606.073 291.972 595.283 320.763 578.725 294.856Z" fill="#7F7F7F" fill-rule="nonzero" fill-opacity="1" transform="matrix(1.83697e-16 1 1 -1.83697e-16 480 966)"/><rect x="896.5" y="1561.5" width="953" height="446" stroke="#7F7F7F" stroke-width="4.58333" stroke-linecap="butt" stroke-linejoin="miter" stroke-miterlimit="8" stroke-opacity="1" fill="#FFFFFF" fill-opacity="1"/><text fill="#7F7F7F" fill-opacity="1" font-family="IBM Plex Sans Condensed,IBM Plex Sans Condensed_MSFontService,sans-serif" font-style="normal" font-variant="normal" font-weight="400" font-stretch="condensed" font-size="46" text-anchor="start" direction="ltr" writing-mode="lr-tb" unicode-bidi="normal" text-decoration="none" transform="matrix(1 0 0 1 921.652 1620)">Dev</text><text fill="#7F7F7F" fill-opacity="1" font-family="IBM Plex Sans Condensed,IBM Plex Sans Condensed_MSFontService,sans-serif" font-style="normal" font-variant="normal" font-weight="400" font-stretch="condensed" font-size="50" text-anchor="start" direction="ltr" writing-mode="lr-tb" unicode-bidi="normal" text-decoration="none" transform="matrix(1 0 0 1 95.7502 1976)">HPCS instances are </text><text fill="#7F7F7F" fill-opacity="1" font-family="IBM Plex Sans Condensed,IBM Plex Sans Condensed_MSFontService,sans-serif" font-style="normal" font-variant="normal" font-weight="400" font-stretch="condensed" font-size="50" text-anchor="start" direction="ltr" writing-mode="lr-tb" unicode-bidi="normal" text-decoration="none" transform="matrix(1 0 0 1 95.7502 2036)">centralized.  Traffic to HPCS </text><text fill="#7F7F7F" fill-opacity="1" font-family="IBM Plex Sans Condensed,IBM Plex Sans Condensed_MSFontService,sans-serif" font-style="normal" font-variant="normal" font-weight="400" font-stretch="condensed" font-size="50" text-anchor="start" direction="ltr" writing-mode="lr-tb" unicode-bidi="normal" text-decoration="none" transform="matrix(1 0 0 1 95.7502 2097)">instances from services like </text><text fill="#7F7F7F" fill-opacity="1" font-family="IBM Plex Sans Condensed,IBM Plex Sans Condensed_MSFontService,sans-serif" font-style="normal" font-variant="normal" font-weight="400" font-stretch="condensed" font-size="50" text-anchor="start" direction="ltr" writing-mode="lr-tb" unicode-bidi="normal" text-decoration="none" transform="matrix(1 0 0 1 95.7502 2157)">COS is below the line</text><path d="M392.862 1911.41 393.605 1905.3 395.835 1899.11 399.461 1893 404.417 1886.97 410.648 1881.03 418.107 1875.16 426.747 1869.39 436.525 1863.71 447.396 1858.12 459.317 1852.65 472.241 1847.3 486.126 1842.09 500.924 1837.01 516.592 1832.09 533.083 1827.33 550.353 1822.75 568.356 1818.35 587.045 1814.16 606.376 1810.17 626.303 1806.41 646.78 1802.89 667.761 1799.6 689.201 1796.58 711.057 1793.82 755.813 1789.16 801.674 1785.72 848.271 1783.59 872.304 1783.21 872.339 1785.5 848.324 1785.88 848.358 1785.88 801.796 1788.01 801.829 1788.01 756.001 1791.45 756.034 1791.45 711.307 1796.1 711.331 1796.1 689.496 1798.85 689.512 1798.85 668.09 1801.87 668.107 1801.87 647.143 1805.15 647.16 1805.15 626.701 1808.67 626.719 1808.67 606.811 1812.42 606.83 1812.42 587.518 1816.4 587.537 1816.4 568.868 1820.59 568.889 1820.58 550.908 1824.97 550.93 1824.97 533.683 1829.54 533.707 1829.53 517.24 1834.28 517.266 1834.28 501.625 1839.19 501.654 1839.18 486.885 1844.25 486.916 1844.24 473.065 1849.44 473.1 1849.43 460.213 1854.76 460.253 1854.75 448.375 1860.2 448.42 1860.17 437.598 1865.73 437.651 1865.7 427.93 1871.35 427.991 1871.31 419.417 1877.05 419.488 1876.99 412.108 1882.79 412.191 1882.72 406.049 1888.58 406.143 1888.48 401.287 1894.39 401.387 1894.25 397.861 1900.19 397.954 1899.99 395.805 1905.96 395.864 1905.71 395.137 1911.68ZM867.524 1770.68 895.235 1784 867.953 1798.18Z" fill="#7F7F7F" fill-rule="nonzero" fill-opacity="1"/><rect x="2388.5" y="1075.5" width="390" height="147" stroke="#7F7F7F" stroke-width="4.58333" stroke-linecap="butt" stroke-linejoin="miter" stroke-miterlimit="8" stroke-opacity="1" fill="#FFFFFF" fill-opacity="1"/><text fill="#7F7F7F" fill-opacity="1" font-family="IBM Plex Sans Condensed,IBM Plex Sans Condensed_MSFontService,sans-serif" font-style="normal" font-variant="normal" font-weight="400" font-stretch="condensed" font-size="46" text-anchor="start" direction="ltr" writing-mode="lr-tb" unicode-bidi="normal" text-decoration="none" transform="matrix(1 0 0 1 2484.05 1164)">Direct Link</text><text fill="#7F7F7F" fill-opacity="1" font-family="IBM Plex Sans Condensed,IBM Plex Sans Condensed_MSFontService,sans-serif" font-style="normal" font-variant="normal" font-weight="400" font-stretch="condensed" font-size="50" text-anchor="start" direction="ltr" writing-mode="lr-tb" unicode-bidi="normal" text-decoration="none" transform="matrix(1 0 0 1 3215.72 738)">1</text><text fill="#7F7F7F" fill-opacity="1" font-family="IBM Plex Sans Condensed,IBM Plex Sans Condensed_MSFontService,sans-serif" font-style="normal" font-variant="normal" font-weight="400" font-stretch="condensed" font-size="50" text-anchor="start" direction="ltr" writing-mode="lr-tb" unicode-bidi="normal" text-decoration="none" transform="matrix(1 0 0 1 3243.22 738)">-</text><text fill="#7F7F7F" fill-opacity="1" font-family="IBM Plex Sans Condensed,IBM Plex Sans Condensed_MSFontService,sans-serif" font-style="normal" font-variant="normal" font-weight="400" font-stretch="condensed" font-size="50" text-anchor="start" direction="ltr" writing-mode="lr-tb" unicode-bidi="normal" text-decoration="none" transform="matrix(1 0 0 1 3261.55 738)">n Direct Link Instances </text><text fill="#7F7F7F" fill-opacity="1" font-family="IBM Plex Sans Condensed,IBM Plex Sans Condensed_MSFontService,sans-serif" font-style="normal" font-variant="normal" font-weight="400" font-stretch="condensed" font-size="50" text-anchor="start" direction="ltr" writing-mode="lr-tb" unicode-bidi="normal" text-decoration="none" transform="matrix(1 0 0 1 3215.72 798)">connected to the transit </text><text fill="#7F7F7F" fill-opacity="1" font-family="IBM Plex Sans Condensed,IBM Plex Sans Condensed_MSFontService,sans-serif" font-style="normal" font-variant="normal" font-weight="400" font-stretch="condensed" font-size="50" text-anchor="start" direction="ltr" writing-mode="lr-tb" unicode-bidi="normal" text-decoration="none" transform="matrix(1 0 0 1 3215.72 859)">gateways</text><path d="M0.0173146-1.1457 28.1425-0.720655 56.2294 0.537331 84.2055 2.60109 112.016 5.44374 139.606 9.0384 166.922 13.3582 193.907 18.3764 220.508 24.0661 246.669 30.4005 272.336 37.3528 297.454 44.8963 321.968 53.0042 345.824 61.6498 368.966 70.8065 391.34 80.4475 412.892 90.5463 433.566 101.076 453.308 112.011 472.063 123.324 489.776 134.989 506.393 146.981 521.859 159.272 536.12 171.837 549.119 184.65 560.802 197.686 571.114 210.921 579.99 224.317 583.885 231.088 587.395 237.882 590.52 244.706 593.252 251.558 595.584 258.433 597.522 265.378 598.134 270.158 595.86 270.448 595.26 265.751 595.293 265.914 593.385 259.08 593.404 259.14 591.092 252.322 591.113 252.379 588.402 245.582 588.425 245.634 585.323 238.86 585.347 238.909 581.861 232.163 581.886 232.208 578.022 225.491 578.06 225.553 569.228 212.223 569.279 212.295 559.019 199.126 559.069 199.187 547.436 186.206 547.485 186.257 534.534 173.491 534.581 173.535 520.366 161.01 520.411 161.048 504.988 148.791 505.031 148.823 488.455 136.862 488.495 136.89 470.821 125.251 470.86 125.275 452.142 113.984 452.179 114.006 432.473 103.091 432.508 103.109 411.868 92.5969 411.902 92.6134 390.384 82.5303 390.417 82.545 368.075 72.9179 368.107 72.9311 344.996 63.7869 345.027 63.7987 321.202 55.1643 321.233 55.1749 296.749 47.077 296.779 47.0866 271.692 39.5521 271.722 39.5607 246.085 32.6165 246.115 32.6242 219.983 26.297 220.013 26.3039 193.443 20.6206 193.473 20.6266 166.518 15.6141 166.548 15.6194 139.264 11.3044 139.295 11.3088 111.736 7.71825 111.767 7.72191 83.9885 4.88252 84.0208 4.88536 56.0773 2.824 56.1103 2.82596 28.057 1.56948 28.0909 1.57049-0.0173146 1.1457ZM610.073 264.05 599.838 293.043 582.785 267.459Z" fill="#7F7F7F" fill-rule="nonzero" fill-opacity="1" transform="matrix(-1 1.22465e-16 1.22465e-16 1 3182.84 782)"/><rect x="965.5" y="1719.5" width="313" height="188" stroke="#7F7F7F" stroke-width="4.58333" stroke-linecap="butt" stroke-linejoin="miter" stroke-miterlimit="8" stroke-opacity="1" fill="#F2F2F2" fill-opacity="1"/><text fill="#7F7F7F" fill-opacity="1" font-family="IBM Plex Sans Condensed,IBM Plex Sans Condensed_MSFontService,sans-serif" font-style="normal" font-variant="normal" font-weight="400" font-stretch="condensed" font-size="46" text-anchor="start" direction="ltr" writing-mode="lr-tb" unicode-bidi="normal" text-decoration="none" transform="matrix(1 0 0 1 1069.56 1829)">HPCS</text><rect x="1001.5" y="1515.5" width="924" height="408" stroke="#7F7F7F" stroke-width="4.58333" stroke-linecap="butt" stroke-linejoin="miter" stroke-miterlimit="8" stroke-opacity="1" fill="#FFFFFF" fill-opacity="1"/><text fill="#7F7F7F" fill-opacity="1" font-family="IBM Plex Sans Condensed,IBM Plex Sans Condensed_MSFontService,sans-serif" font-style="normal" font-variant="normal" font-weight="400" font-stretch="condensed" font-size="46" text-anchor="start" direction="ltr" writing-mode="lr-tb" unicode-bidi="normal" text-decoration="none" transform="matrix(1 0 0 1 1027.18 1574)">Prod</text><rect x="1082.5" y="1655.5" width="313" height="189" stroke="#7F7F7F" stroke-width="4.58333" stroke-linecap="butt" stroke-linejoin="miter" stroke-miterlimit="8" stroke-opacity="1" fill="#F2F2F2" fill-opacity="1"/><text fill="#7F7F7F" fill-opacity="1" font-family="IBM Plex Sans Condensed,IBM Plex Sans Condensed_MSFontService,sans-serif" font-style="normal" font-variant="normal" font-weight="400" font-stretch="condensed" font-size="46" text-anchor="start" direction="ltr" writing-mode="lr-tb" unicode-bidi="normal" text-decoration="none" transform="matrix(1 0 0 1 1186.04 1765)">HPCS</text><rect x="1455.5" y="1655.5" width="313" height="189" stroke="#7F7F7F" stroke-width="4.58333" stroke-linecap="butt" stroke-linejoin="miter" stroke-miterlimit="8" stroke-opacity="1" fill="#F2F2F2" fill-opacity="1"/><text fill="#7F7F7F" fill-opacity="1" font-family="IBM Plex Sans Condensed,IBM Plex Sans Condensed_MSFontService,sans-serif" font-style="normal" font-variant="normal" font-weight="400" font-stretch="condensed" font-size="46" text-anchor="start" direction="ltr" writing-mode="lr-tb" unicode-bidi="normal" text-decoration="none" transform="matrix(1 0 0 1 1559.34 1765)">HPCS</text><rect x="2855.5" y="1072.5" width="390" height="147" stroke="#7F7F7F" stroke-width="4.58333" stroke-linecap="butt" stroke-linejoin="miter" stroke-miterlimit="8" stroke-opacity="1" fill="#FFFFFF" fill-opacity="1"/><text fill="#7F7F7F" fill-opacity="1" font-family="IBM Plex Sans Condensed,IBM Plex Sans Condensed_MSFontService,sans-serif" font-style="normal" font-variant="normal" font-weight="400" font-stretch="condensed" font-size="46" text-anchor="start" direction="ltr" writing-mode="lr-tb" unicode-bidi="normal" text-decoration="none" transform="matrix(1 0 0 1 2899 1161)">Transit Gateway</text><rect x="1908.5" y="1072.5" width="390" height="147" stroke="#7F7F7F" stroke-width="4.58333" stroke-linecap="butt" stroke-linejoin="miter" stroke-miterlimit="8" stroke-opacity="1" fill="#FFFFFF" fill-opacity="1"/><text fill="#7F7F7F" fill-opacity="1" font-family="IBM Plex Sans Condensed,IBM Plex Sans Condensed_MSFontService,sans-serif" font-style="normal" font-variant="normal" font-weight="400" font-stretch="condensed" font-size="46" text-anchor="start" direction="ltr" writing-mode="lr-tb" unicode-bidi="normal" text-decoration="none" transform="matrix(1 0 0 1 1995.73 1134)">Schematics </text><text fill="#7F7F7F" fill-opacity="1" font-family="IBM Plex Sans Condensed,IBM Plex Sans Condensed_MSFontService,sans-serif" font-style="normal" font-variant="normal" font-weight="400" font-stretch="condensed" font-size="46" text-anchor="start" direction="ltr" writing-mode="lr-tb" unicode-bidi="normal" text-decoration="none" transform="matrix(1 0 0 1 2024.95 1189)">Agent(s)</text><path d="M1290.5 1082.75C1290.5 1094.49 1386.31 1104 1504.5 1104 1622.69 1104 1718.5 1094.49 1718.5 1082.75L1718.5 1210.25C1718.5 1221.99 1622.69 1231.5 1504.5 1231.5 1386.31 1231.5 1290.5 1221.99 1290.5 1210.25Z" fill="#FFFFFF" fill-rule="evenodd" fill-opacity="1"/><path d="M1290.5 1082.75C1290.5 1071.01 1386.31 1061.5 1504.5 1061.5 1622.69 1061.5 1718.5 1071.01 1718.5 1082.75 1718.5 1094.49 1622.69 1104 1504.5 1104 1386.31 1104 1290.5 1094.49 1290.5 1082.75Z" fill="#FFFFFF" fill-rule="evenodd" fill-opacity="1"/><path d="M1718.5 1082.75C1718.5 1094.49 1622.69 1104 1504.5 1104 1386.31 1104 1290.5 1094.49 1290.5 1082.75 1290.5 1071.01 1386.31 1061.5 1504.5 1061.5 1622.69 1061.5 1718.5 1071.01 1718.5 1082.75L1718.5 1210.25C1718.5 1221.99 1622.69 1231.5 1504.5 1231.5 1386.31 1231.5 1290.5 1221.99 1290.5 1210.25L1290.5 1082.75" stroke="#7F7F7F" stroke-width="4.58333" stroke-linecap="butt" stroke-linejoin="miter" stroke-miterlimit="8" stroke-opacity="1" fill="none" fill-rule="evenodd"/><text fill="#7F7F7F" fill-opacity="1" font-family="IBM Plex Sans Condensed,IBM Plex Sans Condensed_MSFontService,sans-serif" font-style="normal" font-variant="normal" font-weight="400" font-stretch="condensed" font-size="46" text-anchor="start" direction="ltr" writing-mode="lr-tb" unicode-bidi="normal" text-decoration="none" transform="matrix(1 0 0 1 1368.51 1172)">Admin Catalog</text><rect x="1986.5" y="1629.5" width="1042" height="402" stroke="#7F7F7F" stroke-width="4.58333" stroke-linecap="butt" stroke-linejoin="miter" stroke-miterlimit="8" stroke-opacity="1" fill="#FFFFFF" fill-opacity="1"/><text fill="#7F7F7F" fill-opacity="1" font-family="IBM Plex Sans Condensed,IBM Plex Sans Condensed_MSFontService,sans-serif" font-style="normal" font-variant="normal" font-weight="400" font-stretch="condensed" font-size="46" text-anchor="start" direction="ltr" writing-mode="lr-tb" unicode-bidi="normal" text-decoration="none" transform="matrix(1 0 0 1 2011.95 1688)">Infrastructure Project BU1 </text><rect x="2036.5" y="1571.5" width="1042" height="403" stroke="#7F7F7F" stroke-width="4.58333" stroke-linecap="butt" stroke-linejoin="miter" stroke-miterlimit="8" stroke-opacity="1" fill="#FFFFFF" fill-opacity="1"/><text fill="#7F7F7F" fill-opacity="1" font-family="IBM Plex Sans Condensed,IBM Plex Sans Condensed_MSFontService,sans-serif" font-style="normal" font-variant="normal" font-weight="400" font-stretch="condensed" font-size="46" text-anchor="start" direction="ltr" writing-mode="lr-tb" unicode-bidi="normal" text-decoration="none" transform="matrix(1 0 0 1 2062.44 1631)">Infrastructure Project BU1 </text><rect x="2087.5" y="1514.5" width="1042" height="402" stroke="#7F7F7F" stroke-width="4.58333" stroke-linecap="butt" stroke-linejoin="miter" stroke-miterlimit="8" stroke-opacity="1" fill="#FFFFFF" fill-opacity="1"/><text fill="#7F7F7F" fill-opacity="1" font-family="IBM Plex Sans Condensed,IBM Plex Sans Condensed_MSFontService,sans-serif" font-style="normal" font-variant="normal" font-weight="400" font-stretch="condensed" font-size="46" text-anchor="start" direction="ltr" writing-mode="lr-tb" unicode-bidi="normal" text-decoration="none" transform="matrix(1 0 0 1 2112.94 1573)">Infrastructure Project BU1 </text><rect x="2206.5" y="1678.5" width="313" height="189" stroke="#7F7F7F" stroke-width="4.58333" stroke-linecap="butt" stroke-linejoin="miter" stroke-miterlimit="8" stroke-opacity="1" fill="#F2F2F2" fill-opacity="1"/><text fill="#7F7F7F" fill-opacity="1" font-family="IBM Plex Sans Condensed,IBM Plex Sans Condensed_MSFontService,sans-serif" font-style="normal" font-variant="normal" font-weight="400" font-stretch="condensed" font-size="46" text-anchor="start" direction="ltr" writing-mode="lr-tb" unicode-bidi="normal" text-decoration="none" transform="matrix(1 0 0 1 2286.94 1733)">Account </text><text fill="#7F7F7F" fill-opacity="1" font-family="IBM Plex Sans Condensed,IBM Plex Sans Condensed_MSFontService,sans-serif" font-style="normal" font-variant="normal" font-weight="400" font-stretch="condensed" font-size="46" text-anchor="start" direction="ltr" writing-mode="lr-tb" unicode-bidi="normal" text-decoration="none" transform="matrix(1 0 0 1 2255.73 1788)">Groups and </text><text fill="#7F7F7F" fill-opacity="1" font-family="IBM Plex Sans Condensed,IBM Plex Sans Condensed_MSFontService,sans-serif" font-style="normal" font-variant="normal" font-weight="400" font-stretch="condensed" font-size="46" text-anchor="start" direction="ltr" writing-mode="lr-tb" unicode-bidi="normal" text-decoration="none" transform="matrix(1 0 0 1 2243.7 1843)">Hub Account</text><rect x="2588.5" y="1678.5" width="312" height="189" stroke="#7F7F7F" stroke-width="4.58333" stroke-linecap="butt" stroke-linejoin="miter" stroke-miterlimit="8" stroke-opacity="1" fill="#F2F2F2" fill-opacity="1"/><text fill="#7F7F7F" fill-opacity="1" font-family="IBM Plex Sans Condensed,IBM Plex Sans Condensed_MSFontService,sans-serif" font-style="normal" font-variant="normal" font-weight="400" font-stretch="condensed" font-size="46" text-anchor="start" direction="ltr" writing-mode="lr-tb" unicode-bidi="normal" text-decoration="none" transform="matrix(1 0 0 1 2668.4 1788)">Hub </text><text fill="#7F7F7F" fill-opacity="1" font-family="IBM Plex Sans Condensed,IBM Plex Sans Condensed_MSFontService,sans-serif" font-style="normal" font-variant="normal" font-weight="400" font-stretch="condensed" font-size="46" text-anchor="start" direction="ltr" writing-mode="lr-tb" unicode-bidi="normal" text-decoration="none" transform="matrix(1 0 0 1 2754.91 1788)">IaC</text><text fill="#7F7F7F" fill-opacity="1" font-family="IBM Plex Sans Condensed,IBM Plex Sans Condensed_MSFontService,sans-serif" font-style="normal" font-variant="normal" font-weight="400" font-stretch="condensed" font-size="50" text-anchor="start" direction="ltr" writing-mode="lr-tb" unicode-bidi="normal" text-decoration="none" transform="matrix(1 0 0 1 741.973 564)">Shared Service Ops teams </text><text fill="#7F7F7F" fill-opacity="1" font-family="IBM Plex Sans Condensed,IBM Plex Sans Condensed_MSFontService,sans-serif" font-style="normal" font-variant="normal" font-weight="400" font-stretch="condensed" font-size="50" text-anchor="start" direction="ltr" writing-mode="lr-tb" unicode-bidi="normal" text-decoration="none" transform="matrix(1 0 0 1 741.973 624)">access a catalog of </text><text fill="#7F7F7F" fill-opacity="1" font-family="IBM Plex Sans Condensed,IBM Plex Sans Condensed_MSFontService,sans-serif" font-style="normal" font-variant="normal" font-weight="400" font-stretch="condensed" font-size="50" text-anchor="start" direction="ltr" writing-mode="lr-tb" unicode-bidi="normal" text-decoration="none" transform="matrix(1 0 0 1 741.973 685)">infrastructure solutions for </text><text fill="#7F7F7F" fill-opacity="1" font-family="IBM Plex Sans Condensed,IBM Plex Sans Condensed_MSFontService,sans-serif" font-style="normal" font-variant="normal" font-weight="400" font-stretch="condensed" font-size="50" text-anchor="start" direction="ltr" writing-mode="lr-tb" unicode-bidi="normal" text-decoration="none" transform="matrix(1 0 0 1 741.973 745)">creating BUs</text><path d="M1398.14 636.863 1403.23 637.492 1408.41 639.387 1413.51 642.463 1418.53 646.66 1423.48 651.93 1428.36 658.233 1433.16 665.531 1437.88 673.786 1442.52 682.962 1447.06 693.022 1451.5 703.928 1455.83 715.643 1460.05 728.129 1464.14 741.347 1468.09 755.259 1471.89 769.828 1475.54 785.014 1479.02 800.78 1482.33 817.086 1485.45 833.895 1488.38 851.168 1491.1 868.865 1493.61 886.95 1495.9 905.386 1499.77 943.137 1502.62 981.821 1504.4 1021.13 1504.65 1037.81 1502.36 1037.84 1502.11 1021.18 1502.11 1021.21 1500.34 981.941 1500.34 981.974 1497.48 943.322 1497.49 943.355 1493.62 905.632 1493.62 905.656 1491.34 887.24 1491.34 887.257 1488.83 869.189 1488.83 869.206 1486.11 851.525 1486.12 851.542 1483.19 834.287 1483.19 834.305 1480.07 817.514 1480.08 817.532 1476.77 801.245 1476.78 801.264 1473.3 785.519 1473.31 785.539 1469.66 770.374 1469.67 770.396 1465.87 755.85 1465.88 755.873 1461.93 741.985 1461.94 742.011 1457.86 728.82 1457.87 728.848 1453.67 716.392 1453.68 716.423 1449.36 704.741 1449.37 704.776 1444.94 693.907 1444.96 693.946 1440.44 683.928 1440.46 683.973 1435.85 674.846 1435.88 674.898 1431.19 666.7 1431.22 666.76 1426.47 659.529 1426.52 659.601 1421.7 653.376 1421.77 653.459 1416.91 648.279 1417.01 648.374 1412.11 644.278 1412.25 644.38 1407.32 641.407 1407.52 641.501 1402.57 639.689 1402.82 639.75 1397.86 639.137ZM1517.18 1033.03 1503.86 1060.74 1489.69 1033.45Z" fill="#7F7F7F" fill-rule="nonzero" fill-opacity="1"/><text fill="#7F7F7F" fill-opacity="1" font-family="IBM Plex Sans Condensed,IBM Plex Sans Condensed_MSFontService,sans-serif" font-style="normal" font-variant="normal" font-weight="400" font-stretch="condensed" font-size="50" text-anchor="start" direction="ltr" writing-mode="lr-tb" unicode-bidi="normal" text-decoration="none" transform="matrix(1 0 0 1 2420.68 600)">Schematics Agent used to </text><text fill="#7F7F7F" fill-opacity="1" font-family="IBM Plex Sans Condensed,IBM Plex Sans Condensed_MSFontService,sans-serif" font-style="normal" font-variant="normal" font-weight="400" font-stretch="condensed" font-size="50" text-anchor="start" direction="ltr" writing-mode="lr-tb" unicode-bidi="normal" text-decoration="none" transform="matrix(1 0 0 1 2420.68 660)">provide connectivity to private </text><text fill="#7F7F7F" fill-opacity="1" font-family="IBM Plex Sans Condensed,IBM Plex Sans Condensed_MSFontService,sans-serif" font-style="normal" font-variant="normal" font-weight="400" font-stretch="condensed" font-size="50" text-anchor="start" direction="ltr" writing-mode="lr-tb" unicode-bidi="normal" text-decoration="none" transform="matrix(1 0 0 1 2420.68 721)">repos (optional)</text><path d="M0.0533391-1.14459 13.4384-0.520835 26.846 1.3309 40.1949 4.36739 53.4582 8.54781 66.6098 13.8314 79.6235 20.1777 92.4739 27.5464 105.135 35.8973 117.582 45.1906 129.79 55.3866 141.732 66.4458 153.383 78.3288 164.719 90.9963 175.712 104.409 186.338 118.528 196.57 133.313 206.384 148.726 215.753 164.727 224.651 181.278 233.053 198.339 240.932 215.871 248.262 233.836 255.019 252.193 261.175 270.903 266.704 289.929 271.581 309.23 275.779 328.767 279.273 348.502 282.036 368.395 284.042 388.411 284.957 405.664 282.669 405.785 281.755 388.559 281.759 388.613 279.758 368.645 279.763 368.688 277.006 348.838 277.013 348.88 273.526 329.187 273.534 329.228 269.345 309.731 269.354 309.771 264.487 290.51 264.498 290.549 258.98 271.562 258.992 271.601 252.848 252.928 252.861 252.965 246.119 234.646 246.133 234.683 238.817 216.756 238.833 216.793 230.971 199.297 230.988 199.334 222.604 182.309 222.623 182.345 213.744 165.831 213.765 165.867 204.417 149.902 204.439 149.939 194.649 134.562 194.673 134.599 184.466 119.85 184.493 119.887 173.895 105.806 173.924 105.843 162.962 92.4682 162.994 92.5059 151.693 79.8765 151.729 79.9146 140.115 68.07 140.155 68.1085 128.254 57.0879 128.298 57.1267 116.137 46.9695 116.186 47.0082 103.791 37.7536 103.846 37.7919 91.242 29.4791 91.3029 29.5166 78.5168 22.1848 78.5846 22.2207 65.6422 15.9093 65.7173 15.9426 52.6447 10.6907 52.7274 10.7203 39.5506 6.56713 39.6409 6.59159 26.386 3.57647 26.4834 3.59424 13.1763 1.75639 13.2798 1.76593-0.0533391 1.14459ZM297.412 400.712 284.532 428.63 269.926 401.575Z" fill="#7F7F7F" fill-rule="nonzero" fill-opacity="1" transform="matrix(-1 1.22465e-16 1.22465e-16 1 2387.53 643)"/><text fill="#7F7F7F" fill-opacity="1" font-family="IBM Plex Sans Condensed,IBM Plex Sans Condensed_MSFontService,sans-serif" font-style="normal" font-variant="normal" font-weight="400" font-stretch="condensed" font-size="50" text-anchor="start" direction="ltr" writing-mode="lr-tb" unicode-bidi="normal" text-decoration="none" transform="matrix(1 0 0 1 3546.04 1432)">Transit gateway links all </text><text fill="#7F7F7F" fill-opacity="1" font-family="IBM Plex Sans Condensed,IBM Plex Sans Condensed_MSFontService,sans-serif" font-style="normal" font-variant="normal" font-weight="400" font-stretch="condensed" font-size="50" text-anchor="start" direction="ltr" writing-mode="lr-tb" unicode-bidi="normal" text-decoration="none" transform="matrix(1 0 0 1 3546.04 1492)">VPCs in the admin account</text><path d="M0.0481036-1.14482 5.29125-0.924515 10.5769-0.262555 15.8528 0.831217 21.1153 2.34878 26.3612 4.28204 31.5879 6.62295 36.7927 9.36359 41.9734 12.4962 47.128 16.0132 52.2644 19.9149 62.4138 28.7958 72.4367 39.1084 82.3056 50.7877 92.0028 63.7789 101.51 78.0274 110.809 93.4789 119.88 110.079 128.704 127.773 137.262 146.508 145.533 166.227 153.498 186.878 161.137 208.405 168.429 230.753 175.355 253.868 181.895 277.696 188.027 302.182 193.733 327.271 198.992 352.908 203.783 379.038 208.087 405.608 211.882 432.561 215.15 459.844 217.868 487.401 220.018 515.179 221.579 543.121 222.531 571.174 222.59 576.354 220.299 576.38 220.24 571.213 220.24 571.239 219.289 543.211 219.291 543.236 217.731 515.319 217.733 515.343 215.585 487.59 215.587 487.614 212.87 460.081 212.873 460.105 209.608 432.845 209.611 432.869 205.819 405.939 205.822 405.962 201.523 379.416 201.527 379.44 196.74 353.333 196.744 353.356 191.491 327.743 191.496 327.767 185.796 302.702 185.801 302.727 179.675 278.266 179.681 278.291 173.149 254.488 173.156 254.513 166.238 231.424 166.246 231.451 158.963 209.129 158.972 209.157 151.344 187.659 151.354 187.688 143.401 167.068 143.413 167.098 135.156 147.411 135.17 147.444 126.628 128.743 126.645 128.779 117.839 111.121 117.859 111.159 108.809 94.5988 108.833 94.6401 99.5604 79.232 99.589 79.2771 90.1133 65.076 90.1482 65.1254 80.4898 52.1862 80.5328 52.2403 70.7121 40.6179 70.7656 40.677 60.8027 30.4262 60.8699 30.4899 50.7852 21.6656 50.8466 21.7158 45.765 17.8557 45.8123 17.8898 40.7078 14.4069 40.7607 14.441 35.6359 11.3422 35.6949 11.3755 30.5524 8.66766 30.6179 8.69953 25.4601 6.38945 25.5322 6.41886 20.3618 4.51341 20.4405 4.53923 15.2599 3.04528 15.3448 3.06629 10.1565 1.99069 10.2468 2.00566 5.05345 1.35527 5.14774 1.36314-0.0481036 1.14482ZM235.141 571.626 221.707 599.282 207.643 571.941Z" fill="#7F7F7F" fill-rule="nonzero" fill-opacity="1" transform="matrix(-1.83697e-16 -1 -1 1.83697e-16 3844.28 1367.71)"/><text fill="#7F7F7F" fill-opacity="1" font-family="IBM Plex Sans Condensed,IBM Plex Sans Condensed_MSFontService,sans-serif" font-style="normal" font-variant="normal" font-weight="400" font-stretch="condensed" font-size="50" text-anchor="start" direction="ltr" writing-mode="lr-tb" unicode-bidi="normal" text-decoration="none" transform="matrix(1 0 0 1 3467.73 1959)">Projects ensure </text><text fill="#7F7F7F" fill-opacity="1" font-family="IBM Plex Sans Condensed,IBM Plex Sans Condensed_MSFontService,sans-serif" font-style="normal" font-variant="normal" font-weight="400" font-stretch="condensed" font-size="50" text-anchor="start" direction="ltr" writing-mode="lr-tb" unicode-bidi="normal" text-decoration="none" transform="matrix(1 0 0 1 3797.73 1959)">BU’s</text><text fill="#7F7F7F" fill-opacity="1" font-family="IBM Plex Sans Condensed,IBM Plex Sans Condensed_MSFontService,sans-serif" font-style="normal" font-variant="normal" font-weight="400" font-stretch="condensed" font-size="50" text-anchor="start" direction="ltr" writing-mode="lr-tb" unicode-bidi="normal" text-decoration="none" transform="matrix(1 0 0 1 3904.29 1959)">are </text><text fill="#7F7F7F" fill-opacity="1" font-family="IBM Plex Sans Condensed,IBM Plex Sans Condensed_MSFontService,sans-serif" font-style="normal" font-variant="normal" font-weight="400" font-stretch="condensed" font-size="50" text-anchor="start" direction="ltr" writing-mode="lr-tb" unicode-bidi="normal" text-decoration="none" transform="matrix(1 0 0 1 3467.73 2019)">compliant and up to date</text><path d="M0.0630831-1.1441 4.33776-0.908398 8.66779-0.196804 12.9846 0.977572 17.2843 2.60464 21.5642 4.67437 25.8225 7.17709 30.058 10.1037 34.2697 13.4455 38.4569 17.1945 42.6185 21.3428 46.7538 25.8828 50.8614 30.8072 54.9402 36.1087 58.9937 41.7873 66.9886 54.2031 74.8488 68.0211 82.5546 83.1756 90.0913 99.6094 97.4436 117.265 104.596 136.085 111.532 156.011 118.236 176.985 124.693 198.951 130.884 221.848 136.796 245.62 142.41 270.208 147.711 295.554 152.682 321.6 157.307 348.288 161.57 375.559 165.454 403.355 168.943 431.618 172.02 460.29 174.668 489.312 176.872 518.626 178.615 548.174 179.88 577.897 180.652 607.738 180.713 614.711 178.421 614.732 178.36 607.768 178.361 607.787 177.59 577.966 177.59 577.985 176.326 548.281 176.327 548.3 174.585 518.771 174.586 518.789 172.384 489.493 172.385 489.511 169.738 460.508 169.74 460.526 166.665 431.872 166.667 431.89 163.181 403.645 163.183 403.663 159.302 375.885 159.305 375.904 155.045 348.651 155.048 348.67 150.426 322.001 150.429 322.02 145.462 295.994 145.466 296.014 140.169 270.688 140.173 270.708 134.564 246.141 134.569 246.162 128.663 222.412 128.669 222.435 122.484 199.561 122.49 199.585 116.042 177.645 116.049 177.67 109.354 156.723 109.363 156.75 102.437 136.853 102.448 136.884 95.3078 118.096 95.3212 118.129 87.9836 100.509 87.9998 100.546 80.4812 84.152 80.5014 84.1937 72.8182 69.0837 72.8436 69.1309 65.0122 55.3635 65.0448 55.4173 57.0818 43.051 57.1126 43.0964 53.0869 37.4569 53.1113 37.4899 49.0588 32.2225 49.0871 32.2578 45.0099 27.3699 45.0427 27.4075 40.9429 22.9064 40.9811 22.9463 36.8608 18.8392 36.9053 18.8813 32.7665 15.1756 32.8186 15.2195 28.6632 11.9224 28.7241 11.9675 24.5543 9.08634 24.6251 9.1315 20.443 6.67357 20.5248 6.71726 16.3324 4.68987 16.4257 4.72999 12.2251 3.14042 12.3298 3.1744 8.12306 2.02996 8.23804 2.05498 4.02714 1.36296 4.14987 1.37639-0.0630831 1.1441ZM193.276 610.018 179.767 637.637 165.777 610.258Z" fill="#7F7F7F" fill-rule="nonzero" fill-opacity="1" transform="matrix(-1.83697e-16 -1 -1 1.83697e-16 3766.64 1894.77)"/></g></svg>