<svg xmlns="http://www.w3.org/2000/svg" xmlns:xlink="http://www.w3.org/1999/xlink" viewBox="0 0 1034.33 752.62"><defs><style>.cls-1,.cls-6,.cls-8{fill:#fff;}.cls-2{fill:url(#linear-gradient);}.cls-25,.cls-3,.cls-42,.cls-50{fill:#010101;}.cls-4{fill:url(#linear-gradient-2);}.cls-13,.cls-5{fill:#eef4fb;}.cls-5{stroke:#eef5fb;}.cls-10,.cls-11,.cls-12,.cls-13,.cls-14,.cls-15,.cls-16,.cls-17,.cls-19,.cls-21,.cls-22,.cls-23,.cls-5,.cls-6,.cls-7,.cls-8{stroke-miterlimit:10;}.cls-10,.cls-11,.cls-12,.cls-13,.cls-14,.cls-15,.cls-16,.cls-17,.cls-19,.cls-21,.cls-22,.cls-23,.cls-6,.cls-7,.cls-8{stroke:#3553a4;}.cls-20,.cls-6,.cls-7{fill-rule:evenodd;}.cls-10,.cls-11,.cls-12,.cls-14,.cls-15,.cls-16,.cls-17,.cls-19,.cls-21,.cls-22,.cls-24,.cls-7{fill:none;}.cls-20,.cls-23,.cls-9{fill:#3553a4;}.cls-11{stroke-dasharray:3.95 3.95;}.cls-12{stroke-dasharray:3.99 3.99;}.cls-14{stroke-dasharray:3.96 3.96;}.cls-15{stroke-dasharray:3.96 3.96;}.cls-16{stroke-dasharray:3.96 3.96;}.cls-17{stroke-dasharray:3.94 3.94;}.cls-18{mask:url(#mask);}.cls-19{stroke-dasharray:3.99 3.99;}.cls-21{stroke-dasharray:3.99 3.99;}.cls-22{stroke-dasharray:4 4;}.cls-25,.cls-50{font-size:14px;}.cls-25,.cls-42{font-family:IBMPlexSans-SemiBold, IBM Plex Sans;font-weight:600;}.cls-26{letter-spacing:-0.01em;}.cls-27{letter-spacing:0em;}.cls-28{letter-spacing:-0.01em;}.cls-29{letter-spacing:-0.01em;}.cls-30{letter-spacing:-0.01em;}.cls-31{letter-spacing:0em;}.cls-32{letter-spacing:0em;}.cls-33{letter-spacing:-0.01em;}.cls-34{letter-spacing:0em;}.cls-35{letter-spacing:0.01em;}.cls-36{letter-spacing:-0.01em;}.cls-37{letter-spacing:0.01em;}.cls-38{letter-spacing:-0.01em;}.cls-39{letter-spacing:0.01em;}.cls-40{letter-spacing:-0.01em;}.cls-41{letter-spacing:0em;}.cls-42{font-size:16px;}.cls-43{letter-spacing:-0.01em;}.cls-44{letter-spacing:-0.01em;}.cls-45{letter-spacing:0em;}.cls-46{letter-spacing:-0.01em;}.cls-47{letter-spacing:0em;}.cls-48{letter-spacing:-0.06em;}.cls-49{letter-spacing:-0.01em;}.cls-50{font-family:IBMPlexSans-BoldItalic, IBM Plex Sans;font-weight:700;font-style:italic;}.cls-51{letter-spacing:-0.01em;}.cls-52{letter-spacing:-0.01em;}.cls-53{letter-spacing:0.01em;}.cls-54{letter-spacing:0em;}.cls-55{letter-spacing:-0.02em;}.cls-56{letter-spacing:0em;}</style><linearGradient id="linear-gradient" x1="920.71" y1="495.33" x2="920.71" y2="507.33" gradientTransform="matrix(1, 0, 0, -1, 0, 672.11)" gradientUnits="userSpaceOnUse"><stop offset="0.2" stop-color="#010101"/><stop offset="1" stop-color="#010101" stop-opacity="0"/></linearGradient><linearGradient id="linear-gradient-2" x1="-939.98" y1="6675.06" x2="-939.98" y2="6687.06" gradientTransform="matrix(-1, 0, 0, 1, 6, -6506.89)" xlink:href="#linear-gradient"/><mask id="mask" x="656.33" y="148.66" width="32" height="32" maskUnits="userSpaceOnUse"><g transform="translate(-261.08 -7.51)"><g id="ohuov6a3zc"><path class="cls-1" d="M920.06,179.07a15,15,0,0,1,13.31-21.9v2a13,13,0,0,0-13,13,12.85,12.85,0,0,0,1.45,6l-1.77.92Zm13.35,8.1v-2a13,13,0,0,0,12.2-17.44l1.88-.68a15,15,0,0,1-14.08,20.12Z"/><path class="cls-2" d="M917.71,164.78h6v12h-6Z"/><path class="cls-3" d="M917.71,176.46h6v3.09h-6Z"/><path class="cls-4" d="M949,180.17h-6v-12h6Z"/><path class="cls-3" d="M943,165.38h6v3.09h-6Z"/></g></g></mask></defs><g id="Background"><rect class="cls-5" x="0.51" y="0.5" width="530.41" height="751.62"/><rect class="cls-5" x="574.98" y="5.5" width="458.85" height="746.62"/><polyline class="cls-6" points="91.46 654.67 400.87 654.67 400.87 706.59"/><polyline class="cls-6" points="58.33 146.75 465.11 146.75 465.11 270.74"/><polyline class="cls-6" points="614.93 64.24 987.99 64.24 987.99 559.87"/><polyline class="cls-7" points="610.08 68.24 983.99 68.24 983.99 562.8"/><polyline class="cls-6" points="67.27 308.05 435.55 308.05 435.55 628.63"/><polyline class="cls-7" points="64.17 312.05 431.55 312.05 431.55 630.9"/><polygon class="cls-8" points="606.93 72.17 977.87 75.08 978.7 565.81 606.93 565.81 606.93 72.17"/><rect class="cls-9" x="606.93" y="72.19" width="48" height="48"/><rect class="cls-1" x="649.12" y="141.29" width="252.97" height="47.85"/><polyline class="cls-10" points="649.13 143.31 649.13 141.31 651.13 141.31"/><line class="cls-11" x1="655.08" y1="141.31" x2="898.12" y2="141.27"/><polyline class="cls-10" points="900.09 141.27 902.09 141.27 902.09 143.27"/><line class="cls-12" x1="902.09" y1="147.26" x2="902.09" y2="185.13"/><polyline class="cls-10" points="902.09 187.13 902.09 189.13 900.09 189.13"/><line class="cls-11" x1="896.13" y1="189.13" x2="653.09" y2="189.17"/><polyline class="cls-10" points="651.12 189.17 649.12 189.17 649.12 187.17"/><line class="cls-12" x1="649.12" y1="183.18" x2="649.13" y2="145.31"/><rect class="cls-13" x="648.33" y="141.31" width="48" height="48"/><rect class="cls-1" x="649.12" y="201.3" width="252.97" height="47.85"/><polyline class="cls-10" points="649.13 203.32 649.13 201.32 651.13 201.32"/><line class="cls-11" x1="655.08" y1="201.32" x2="898.12" y2="201.28"/><polyline class="cls-10" points="900.09 201.28 902.09 201.28 902.09 203.28"/><line class="cls-12" x1="902.09" y1="207.26" x2="902.09" y2="245.14"/><polyline class="cls-10" points="902.09 247.13 902.09 249.13 900.09 249.13"/><line class="cls-11" x1="896.13" y1="249.13" x2="653.09" y2="249.17"/><polyline class="cls-10" points="651.12 249.17 649.12 249.17 649.12 247.17"/><line class="cls-12" x1="649.12" y1="243.18" x2="649.13" y2="205.31"/><rect class="cls-13" x="648.33" y="201.31" width="48" height="48"/><rect class="cls-1" x="649.12" y="261.63" width="252.97" height="47.85"/><polyline class="cls-10" points="649.13 263.65 649.13 261.65 651.13 261.65"/><line class="cls-11" x1="655.08" y1="261.65" x2="898.12" y2="261.61"/><polyline class="cls-10" points="900.09 261.61 902.09 261.61 902.09 263.61"/><line class="cls-12" x1="902.09" y1="267.59" x2="902.09" y2="305.46"/><polyline class="cls-10" points="902.09 307.46 902.09 309.46 900.09 309.46"/><line class="cls-11" x1="896.13" y1="309.46" x2="653.09" y2="309.5"/><polyline class="cls-10" points="651.12 309.5 649.12 309.5 649.12 307.5"/><line class="cls-12" x1="649.12" y1="303.51" x2="649.13" y2="265.64"/><rect class="cls-13" x="648.33" y="261.64" width="48" height="48"/><rect class="cls-1" x="649.12" y="383.94" width="253.53" height="47.85"/><polyline class="cls-10" points="649.13 385.96 649.13 383.96 651.13 383.96"/><line class="cls-14" x1="655.09" y1="383.96" x2="898.68" y2="383.91"/><polyline class="cls-10" points="900.66 383.92 902.66 383.91 902.66 385.91"/><line class="cls-12" x1="902.66" y1="389.9" x2="902.65" y2="427.77"/><polyline class="cls-10" points="902.65 429.77 902.65 431.77 900.65 431.77"/><line class="cls-14" x1="896.69" y1="431.77" x2="653.1" y2="431.81"/><polyline class="cls-10" points="651.12 431.81 649.12 431.81 649.12 429.81"/><line class="cls-12" x1="649.12" y1="425.82" x2="649.13" y2="387.95"/><rect class="cls-13" x="648.33" y="383.87" width="48" height="48"/><rect class="cls-1" x="649.12" y="443.93" width="253.39" height="47.85"/><polyline class="cls-10" points="649.13 445.95 649.13 443.95 651.13 443.95"/><line class="cls-15" x1="655.09" y1="443.95" x2="898.54" y2="443.91"/><polyline class="cls-10" points="900.52 443.91 902.52 443.91 902.52 445.91"/><line class="cls-12" x1="902.52" y1="449.89" x2="902.51" y2="487.77"/><polyline class="cls-10" points="902.51 489.76 902.51 491.76 900.51 491.76"/><line class="cls-15" x1="896.55" y1="491.76" x2="653.1" y2="491.8"/><polyline class="cls-10" points="651.12 491.8 649.12 491.8 649.12 489.8"/><line class="cls-12" x1="649.12" y1="485.81" x2="649.13" y2="447.94"/><rect class="cls-13" x="648.33" y="443.86" width="48" height="48"/><rect class="cls-1" x="649.12" y="504.32" width="253.25" height="47.85"/><polyline class="cls-10" points="649.13 506.34 649.13 504.34 651.13 504.34"/><line class="cls-16" x1="655.08" y1="504.34" x2="898.4" y2="504.3"/><polyline class="cls-10" points="900.38 504.3 902.38 504.3 902.38 506.3"/><line class="cls-12" x1="902.37" y1="510.28" x2="902.37" y2="548.15"/><polyline class="cls-10" points="902.37 550.15 902.37 552.15 900.37 552.15"/><line class="cls-16" x1="896.41" y1="552.15" x2="653.1" y2="552.19"/><polyline class="cls-10" points="651.12 552.19 649.12 552.19 649.12 550.19"/><line class="cls-12" x1="649.12" y1="546.2" x2="649.13" y2="508.33"/><rect class="cls-13" x="648.33" y="504.24" width="48" height="48"/><rect class="cls-1" x="649.82" y="322.14" width="252.27" height="47.85"/><polyline class="cls-10" points="649.82 324.16 649.82 322.16 651.82 322.16"/><line class="cls-17" x1="655.76" y1="322.16" x2="898.12" y2="322.12"/><polyline class="cls-10" points="900.09 322.12 902.09 322.12 902.09 324.12"/><line class="cls-12" x1="902.09" y1="328.11" x2="902.09" y2="365.98"/><polyline class="cls-10" points="902.09 367.98 902.09 369.98 900.09 369.98"/><line class="cls-17" x1="896.14" y1="369.98" x2="653.79" y2="370.01"/><polyline class="cls-10" points="651.82 370.01 649.82 370.01 649.82 368.01"/><line class="cls-12" x1="649.82" y1="364.03" x2="649.82" y2="326.16"/><rect class="cls-13" x="648.33" y="322.16" width="48" height="48"/><path class="cls-9" d="M937.41,234.68v-3a4,4,0,1,0-8,0v3a2,2,0,0,0-2,2v6a2,2,0,0,0,2,2h8a2,2,0,0,0,2-2v-6A2,2,0,0,0,937.41,234.68Zm-6-3a2,2,0,1,1,4,0v3h-4Zm-2,11v-6h8v6Z" transform="translate(-261.08 -7.51)"/><path class="cls-9" d="M943.24,224.79a10,10,0,0,0-19.65,0h0a7.5,7.5,0,0,0,1.32,14.89h.51v-2h-.5a5.5,5.5,0,0,1-1-10.92l1.35-.24.26-1.35a8,8,0,0,1,15.73,0l.26,1.35,1.35.24a5.5,5.5,0,0,1-1,10.92h-.51v2h.51a7.5,7.5,0,0,0,1.32-14.89Z" transform="translate(-261.08 -7.51)"/><path class="cls-9" d="M941.41,340.66h-16a2,2,0,0,0-2,2v22a2,2,0,0,0,2,2h16a2,2,0,0,0,2-2v-22A2,2,0,0,0,941.41,340.66Zm0,2v6h-16v-6Zm-16,14v-6h16v6Zm0,8v-6h16v6Z" transform="translate(-261.08 -7.51)"/><circle class="cls-9" cx="672.33" cy="338.16" r="1"/><circle class="cls-9" cx="672.33" cy="346.16" r="1"/><circle class="cls-9" cx="672.33" cy="354.16" r="1"/><path class="cls-9" d="M945.41,479.36h-2v2h2v6h-24v-6h10v-2h-10a2,2,0,0,0-2,2v6a2,2,0,0,0,2,2h24a2,2,0,0,0,2-2v-6A2,2,0,0,0,945.41,479.36Z" transform="translate(-261.08 -7.51)"/><circle class="cls-9" cx="663.33" cy="476.86" r="1"/><path class="cls-9" d="M947.41,467.36h-8v6h-6v8h8v-6h6Zm-8,12h-4v-4h4Zm6-6h-4v-4h4Z" transform="translate(-261.08 -7.51)"/><path class="cls-9" d="M935.41,469.36h-8v-8h8Zm-6-2h4v-4h-4Z" transform="translate(-261.08 -7.51)"/><path class="cls-9" d="M944.91,421.38a3.16,3.16,0,0,0-1.9.7l-5.2-3.1c0-.2.1-.4.1-.6a1.27,1.27,0,0,0-.1-.6l5.2-3.1a3.16,3.16,0,0,0,1.9.7,3,3,0,1,0-3-3,1.27,1.27,0,0,0,.1.6l-5.2,3.1a3.16,3.16,0,0,0-1.9-.7,3,3,0,0,0,0,6,3.16,3.16,0,0,0,1.9-.7l5.2,3.1c0,.2-.1.4-.1.6a3,3,0,1,0,3-3Zm0-10a1,1,0,1,1-1,1A.94.94,0,0,1,944.91,411.38Zm-10,8a1,1,0,1,1,1-1A.94.94,0,0,1,934.91,419.38Zm10,6a1,1,0,1,1,1-1A.94.94,0,0,1,944.91,425.38Z" transform="translate(-261.08 -7.51)"/><path class="cls-9" d="M936.91,424.38h-10.5a5.55,5.55,0,0,1-5.5-5.5,5.47,5.47,0,0,1,4.5-5.4l1.3-.2.3-1.3a8.11,8.11,0,0,1,7.9-6.6,7.57,7.57,0,0,1,1.5.1,8.55,8.55,0,0,1,4.2,2.2l1.4-1.4a9.37,9.37,0,0,0-5.2-2.7,12.25,12.25,0,0,0-1.9-.2,10,10,0,0,0-9.8,8.1,7.59,7.59,0,0,0-6.2,7.4,7.49,7.49,0,0,0,7.5,7.5h10.5Z" transform="translate(-261.08 -7.51)"/><path class="cls-9" d="M945.41,535.25v6h-24v-16h7v-2h-7a2,2,0,0,0-2,2v16a2,2,0,0,0,2,2h8v4h-4v2h16v-2h-4v-4h8a2,2,0,0,0,2-2v-6Zm-10,12h-4v-4h4Z" transform="translate(-261.08 -7.51)"/><path class="cls-9" d="M935.41,537.25h0a1,1,0,0,1-.95-.72l-1.79-6.28h-4.25v-2h5a1,1,0,0,1,1,.73l1.08,3.76,3-9.78a1,1,0,0,1,.95-.71,1,1,0,0,1,1,.69l1.77,5.31h5.28v2h-6a1,1,0,0,1-.95-.68l-1-3-3.08,10A1,1,0,0,1,935.41,537.25Z" transform="translate(-261.08 -7.51)"/><g class="cls-18"><path class="cls-9" d="M917.41,156.17h32v32h-32Z" transform="translate(-261.08 -7.51)"/></g><path class="cls-9" d="M936.12,175.16h-5.45a1.27,1.27,0,0,1-1.28-1.27v-5.45a1.28,1.28,0,0,1,1.28-1.28h5.45a1.28,1.28,0,0,1,1.27,1.28v5.45A1.27,1.27,0,0,1,936.12,175.16Zm-4.73-2h4v-4h-4Z" transform="translate(-261.08 -7.51)"/><path class="cls-9" d="M946.1,162.94l-4.71-4.71v-.06h-.06l-.94-.94-.93.94h-.07v.06L934.64,163l1.41,1.42,3.34-3.34v16.11h-12v-11h-2v11.36a1.65,1.65,0,0,0,1.64,1.64h12.72a1.64,1.64,0,0,0,1.64-1.64V161.06l3.3,3.29Z" transform="translate(-261.08 -7.51)"/><path class="cls-9" d="M943.93,292.8a12,12,0,0,0-1.18-4.32l3.72-1.35a11.71,11.71,0,0,0-1-1.74l-1.74.64A12,12,0,0,0,922,293.94l1.75-.64a11.06,11.06,0,0,0,.33,2l-3.72,1.36a12.23,12.23,0,0,0,1.88,4.06l2-.72h0a11.84,11.84,0,0,0,4.67,3.89,12,12,0,0,0,15.94-5.81,11.88,11.88,0,0,0,1.08-6ZM941,296.29a7.8,7.8,0,0,1-10.35,3.78,7.6,7.6,0,0,1-2.27-1.62l-2,.73a7.85,7.85,0,0,1-2.07-4h0l3.72-1.36a7.91,7.91,0,0,1-.12-2.06l-1.75.63a7.76,7.76,0,0,1,11.05-6.46h0a7.88,7.88,0,0,1,2.27,1.61l1.74-.63a8,8,0,0,1,1.23,1.66l-3.71,1.36a7.79,7.79,0,0,1,1,4.38l2-.71a7.34,7.34,0,0,1-.7,2.68Z" transform="translate(-261.08 -7.51)"/><polygon class="cls-8" points="61.81 315.84 425.32 317.71 426.14 632.7 61.81 632.7 61.81 315.84"/><rect class="cls-9" x="61.81" y="315.84" width="48" height="48"/><rect class="cls-1" x="104.85" y="385.11" width="255.5" height="47.85"/><polyline class="cls-10" points="104.85 387.13 104.85 385.13 106.85 385.13"/><line class="cls-19" x1="110.85" y1="385.13" x2="356.36" y2="385.08"/><polyline class="cls-10" points="358.36 385.08 360.36 385.08 360.36 387.08"/><line class="cls-12" x1="360.35" y1="391.07" x2="360.35" y2="428.94"/><polyline class="cls-10" points="360.35 430.94 360.35 432.94 358.35 432.94"/><line class="cls-19" x1="354.35" y1="432.94" x2="108.84" y2="432.98"/><polyline class="cls-10" points="106.84 432.98 104.84 432.98 104.84 430.98"/><line class="cls-12" x1="104.84" y1="427" x2="104.85" y2="389.12"/><rect class="cls-13" x="104.34" y="385.03" width="48" height="48"/><rect class="cls-1" x="104.58" y="445.05" width="255.5" height="47.85"/><polyline class="cls-10" points="104.58 447.07 104.58 445.07 106.58 445.07"/><line class="cls-19" x1="110.58" y1="445.07" x2="356.09" y2="445.03"/><polyline class="cls-10" points="358.09 445.02 360.09 445.02 360.09 447.02"/><line class="cls-12" x1="360.09" y1="451.01" x2="360.08" y2="488.88"/><polyline class="cls-10" points="360.08 490.88 360.08 492.88 358.08 492.88"/><line class="cls-19" x1="354.09" y1="492.88" x2="108.57" y2="492.93"/><polyline class="cls-10" points="106.58 492.93 104.58 492.93 104.58 490.93"/><line class="cls-12" x1="104.58" y1="486.94" x2="104.58" y2="449.07"/><rect class="cls-13" x="104.34" y="444.98" width="48" height="48"/><rect class="cls-1" x="104.61" y="505.32" width="255.5" height="47.85"/><polyline class="cls-10" points="104.61 507.35 104.61 505.35 106.61 505.34"/><line class="cls-19" x1="110.61" y1="505.34" x2="356.12" y2="505.3"/><polyline class="cls-10" points="358.12 505.3 360.12 505.3 360.12 507.3"/><line class="cls-12" x1="360.11" y1="511.28" x2="360.11" y2="549.16"/><polyline class="cls-10" points="360.11 551.15 360.11 553.15 358.11 553.15"/><line class="cls-19" x1="354.11" y1="553.15" x2="108.6" y2="553.2"/><polyline class="cls-10" points="106.6 553.2 104.6 553.2 104.6 551.2"/><line class="cls-12" x1="104.61" y1="547.21" x2="104.61" y2="509.34"/><rect class="cls-13" x="104.34" y="505.25" width="48" height="48"/><rect class="cls-1" x="104.64" y="566.11" width="255.5" height="47.85"/><polyline class="cls-10" points="104.65 568.13 104.65 566.13 106.65 566.13"/><line class="cls-19" x1="110.64" y1="566.13" x2="356.15" y2="566.09"/><polyline class="cls-10" points="358.15 566.09 360.15 566.09 360.15 568.09"/><line class="cls-12" x1="360.15" y1="572.07" x2="360.14" y2="609.94"/><polyline class="cls-10" points="360.14 611.94 360.14 613.94 358.14 613.94"/><line class="cls-19" x1="354.15" y1="613.94" x2="108.63" y2="613.99"/><polyline class="cls-10" points="106.64 613.99 104.64 613.99 104.64 611.99"/><line class="cls-12" x1="104.64" y1="608" x2="104.65" y2="570.13"/><rect class="cls-13" x="104.34" y="566.04" width="48" height="48"/><rect class="cls-1" x="630.93" y="107.92" width="12" height="2"/><rect class="cls-1" x="630.93" y="102.92" width="12" height="2"/><rect class="cls-1" x="630.93" y="97.92" width="12" height="2"/><path class="cls-1" d="M888,114.43h-4.5a7.5,7.5,0,0,1-1.32-14.88A10,10,0,0,1,902,101.43h-2a8,8,0,0,0-16-.87l-.09.83-.84.06a5.5,5.5,0,0,0,.38,11H888Z" transform="translate(-261.08 -7.51)"/><path class="cls-9" d="M390.42,533.76v-7h-9v16h16v-9Zm-7-5h5v5h-5Zm0,7h5v5h-5Zm12,5h-5v-5h5Z" transform="translate(-261.08 -7.51)"/><path class="cls-9" d="M401.42,531.76h-9v-9h9Zm-7-2h5v-5h-5Z" transform="translate(-261.08 -7.51)"/><path class="cls-9" d="M401.42,540.76h-2v2h2v6h-24v-6h2v-2h-2a2,2,0,0,0-2,2v6a2,2,0,0,0,2,2h24a2,2,0,0,0,2-2v-6A2,2,0,0,0,401.42,540.76Z" transform="translate(-261.08 -7.51)"/><circle class="cls-9" cx="119.34" cy="538.25" r="1"/><path class="cls-20" d="M389.39,462.83A14,14,0,0,0,385,490.11c.7.13,1-.3,1-.67v-2.38c-3.89.84-4.71-1.88-4.71-1.88a3.67,3.67,0,0,0-1.62-2.05c-1.27-.86.1-.85.1-.85a2.94,2.94,0,0,1,2.14,1.45,3,3,0,0,0,4.08,1.16,2.94,2.94,0,0,1,.88-1.87c-3.1-.36-6.37-1.56-6.37-6.92a5.4,5.4,0,0,1,1.44-3.76,5,5,0,0,1,.14-3.7s1.17-.38,3.85,1.43a13.2,13.2,0,0,1,7,0c2.67-1.81,3.84-1.43,3.84-1.43a5,5,0,0,1,.14,3.7,5.4,5.4,0,0,1,1.44,3.76c0,5.38-3.27,6.56-6.39,6.91a3.32,3.32,0,0,1,.95,2.59v3.84c0,.46.25.81,1,.67a14,14,0,0,0-4.48-27.28Z" transform="translate(-261.08 -7.51)"/><path class="cls-9" d="M405.32,416l-5.7-10a1.38,1.38,0,0,0-.9-.5h-18.6a1,1,0,0,0-.8.5l-5.7,10a.55.55,0,0,0-.2.5.9.9,0,0,0,.1.5l5.7,10a1.38,1.38,0,0,0,.9.5h18.5a1.05,1.05,0,0,0,.9-.5l5.7-10a.55.55,0,0,0,.2-.5A.9.9,0,0,0,405.32,416Zm-14.1-.5h-8l4-7Zm-2.3-8h8l-4,7Zm2.3,10-4,7-4-7Zm1.7,1,4,7h-8Zm1.7-1h8l-4,7Zm0-2,4-7,4,7Zm-13.9-8h4.7l-4.6,8h-4.7Zm0,18-4.6-8h4.7l4.6,8Z" transform="translate(-261.08 -7.51)"/><polygon class="cls-9" points="135.94 594.44 139.54 598.04 139.54 598.04 135.94 601.64 137.34 603.04 142.34 598.04 137.34 593.04 135.94 594.44"/><polygon class="cls-9" points="132.74 594.44 129.14 598.04 129.14 598.04 132.74 601.64 131.34 603.04 126.34 598.04 131.34 593.04 132.74 594.44"/><path class="cls-9" d="M401.42,588.55h-12l-3.4-3.4a2,2,0,0,0-1.4-.6h-7.2a2,2,0,0,0-2,2v20a2,2,0,0,0,2,2h7v-2h-7v-20h7.2L388,590l.6.6h12.8v8h2v-8A2,2,0,0,0,401.42,588.55Z" transform="translate(-261.08 -7.51)"/><path class="cls-1" d="M352.89,355.35h-12a2,2,0,0,1-2-2v-12a2,2,0,0,1,2-2h12a2,2,0,0,1,2,2v12A2,2,0,0,1,352.89,355.35Zm-12-14v12h12v-12Z" transform="translate(-261.08 -7.51)"/><path class="cls-1" d="M338.89,361.35h-4a2,2,0,0,1-2-2v-24a2,2,0,0,1,2-2h4v2h-4v24h4Z" transform="translate(-261.08 -7.51)"/><path class="cls-1" d="M358.89,361.35h-4v-2h4v-24h-4v-2h4a2,2,0,0,1,2,2v24A2,2,0,0,1,358.89,361.35Z" transform="translate(-261.08 -7.51)"/><rect class="cls-9" y="4.81" width="48" height="48"/><polygon class="cls-8" points="53.28 154.75 455.73 155.51 456.63 283.87 53.28 283.87 53.28 154.75"/><polyline class="cls-7" points="54.11 150.75 461.11 150.75 461.11 270.74"/><rect class="cls-1" x="66.3" y="216.57" width="183.71" height="48"/><polyline class="cls-10" points="250.01 262.57 250.01 264.57 248.01 264.57"/><line class="cls-21" x1="244.01" y1="264.57" x2="70.3" y2="264.57"/><polyline class="cls-10" points="68.3 264.57 66.3 264.57 66.3 262.57"/><line class="cls-22" x1="66.3" y1="258.57" x2="66.3" y2="220.57"/><polyline class="cls-10" points="66.3 218.57 66.3 216.57 68.3 216.57"/><line class="cls-21" x1="72.3" y1="216.57" x2="246.01" y2="216.57"/><polyline class="cls-10" points="248.01 216.57 250.01 216.57 250.01 218.57"/><line class="cls-22" x1="250.01" y1="222.57" x2="250.01" y2="260.57"/><rect class="cls-1" x="259.23" y="216.57" width="183.71" height="48"/><polyline class="cls-10" points="442.94 262.57 442.94 264.57 440.94 264.57"/><line class="cls-21" x1="436.94" y1="264.57" x2="263.23" y2="264.57"/><polyline class="cls-10" points="261.23 264.57 259.23 264.57 259.23 262.57"/><line class="cls-22" x1="259.23" y1="258.57" x2="259.23" y2="220.57"/><polyline class="cls-10" points="259.23 218.57 259.23 216.57 261.23 216.57"/><line class="cls-21" x1="265.22" y1="216.57" x2="438.94" y2="216.57"/><polyline class="cls-10" points="440.94 216.57 442.94 216.57 442.94 218.57"/><line class="cls-22" x1="442.94" y1="222.57" x2="442.94" y2="260.57"/><rect class="cls-9" x="53.28" y="155.2" width="48" height="48"/><rect class="cls-23" x="66.3" y="216.57" width="3" height="48"/><rect class="cls-23" x="259.23" y="216.57" width="3" height="48"/><rect class="cls-23" x="0.51" y="48.5" width="3" height="703.62"/><path class="cls-1" d="M277.1,34.28h11v2h-11Zm0,5.09h13v2h-13Z" transform="translate(-261.08 -7.51)"/><path class="cls-1" d="M297.05,24.11H273.11a2,2,0,0,0-2,2V46.5a2,2,0,0,0,2,2h23.94a2,2,0,0,0,2-2V26.14A2,2,0,0,0,297.05,24.11Zm0,2v2H273.11v-2ZM273.11,46.5V30.21h23.94V46.5Z" transform="translate(-261.08 -7.51)"/><polygon class="cls-8" points="29.39 70.75 249.59 71.03 250.09 118.75 29.39 118.75 29.39 70.75"/><rect class="cls-23" x="28.63" y="70.75" width="48" height="48"/><polygon class="cls-8" points="260.38 70.75 480.58 71.03 481.08 118.75 260.38 118.75 260.38 70.75"/><rect class="cls-23" x="259.82" y="70.75" width="48" height="48"/><rect id="_Transparent_Rectangle_" data-name="&lt;Transparent Rectangle&gt;" class="cls-24" x="266.61" y="78.75" width="32" height="32"/><path class="cls-1" d="M554.9,88.26h-18a2,2,0,0,0-2,2v4h-2v2h2v5h-2v2h2v5h-2v2h2v4a2,2,0,0,0,2,2h18a2,2,0,0,0,2-2v-24A2,2,0,0,0,554.9,88.26Zm0,26h-18v-4h2v-2h-2v-5h2v-2h-2v-5h2v-2h-2v-4h18Z" transform="translate(-261.08 -7.51)"/><rect class="cls-1" x="281.82" y="86.75" width="8" height="2"/><rect class="cls-1" x="281.82" y="93.75" width="8" height="2"/><rect class="cls-1" x="281.82" y="100.75" width="8" height="2"/><path class="cls-1" d="M323.71,88.26h-18a2,2,0,0,0-2,2v4h-2v2h2v5h-2v2h2v5h-2v2h2v4a2,2,0,0,0,2,2h18a2,2,0,0,0,2-2v-24A2,2,0,0,0,323.71,88.26Zm0,26h-18v-4h2v-2h-2v-5h2v-2h-2v-5h2v-2h-2v-4h18Z" transform="translate(-261.08 -7.51)"/><rect class="cls-1" x="50.63" y="86.75" width="8" height="2"/><rect class="cls-1" x="50.63" y="93.75" width="8" height="2"/><rect class="cls-1" x="50.63" y="100.75" width="8" height="2"/><rect class="cls-9" x="574.47" y="4.81" width="48" height="48"/><rect class="cls-23" x="574.98" y="48.5" width="3" height="703.62"/><path class="cls-1" d="M851.57,34.28h11v2h-11Zm0,5.09h13v2h-13Z" transform="translate(-261.08 -7.51)"/><path class="cls-1" d="M871.52,24.11H847.58a2,2,0,0,0-2,2V46.5a2,2,0,0,0,2,2h23.94a2,2,0,0,0,2-2V26.14A2,2,0,0,0,871.52,24.11Zm0,2v2H847.58v-2ZM847.58,46.5V30.21h23.94V46.5Z" transform="translate(-261.08 -7.51)"/><polygon class="cls-8" points="86.33 664.63 391.56 664.91 392.24 712.63 86.33 712.63 86.33 664.63"/><polyline class="cls-7" points="87.83 660.13 396.16 660.13 396.16 710.38"/><rect class="cls-8" x="85.34" y="664.63" width="48" height="48"/><path class="cls-9" d="M362.42,699.14h-2v-2a3,3,0,0,1,3-3h5v2h-5a1,1,0,0,0-1,1Z" transform="translate(-261.08 -7.51)"/><path class="cls-9" d="M366.42,693.14a4,4,0,1,1,4-4A4,4,0,0,1,366.42,693.14Zm0-6a2,2,0,1,0,2,2A2,2,0,0,0,366.42,687.14Z" transform="translate(-261.08 -7.51)"/><path class="cls-9" d="M374.42,700.14a4,4,0,1,1,4-4A4,4,0,0,1,374.42,700.14Zm0-6a2,2,0,1,0,2,2A2,2,0,0,0,374.42,694.14Z" transform="translate(-261.08 -7.51)"/><path class="cls-9" d="M380.42,706.14h-2v-2a1,1,0,0,0-1-1h-6a1,1,0,0,0-1,1v2h-2v-2a3,3,0,0,1,3-3h6a3,3,0,0,1,3,3Z" transform="translate(-261.08 -7.51)"/><path class="cls-9" d="M362.42,710.14h-4a2,2,0,0,1-2-2v-24a2,2,0,0,1,2-2h4v2h-4v24h4Z" transform="translate(-261.08 -7.51)"/><path class="cls-9" d="M382.42,710.14h-4v-2h4v-24h-4v-2h4a2,2,0,0,1,2,2v24A2,2,0,0,1,382.42,710.14Z" transform="translate(-261.08 -7.51)"/><polyline class="cls-6" points="638.38 596.35 947.78 596.35 947.78 648.27"/><polygon class="cls-8" points="633.95 604.85 939.19 605.13 939.87 652.85 633.95 652.85 633.95 604.85"/><polyline class="cls-7" points="635.45 600.35 943.78 600.35 943.78 650.6"/><rect class="cls-8" x="632.08" y="604.85" width="48" height="48"/><polyline class="cls-6" points="637.33 674.66 946.74 674.66 946.74 726.58"/><polygon class="cls-8" points="632.91 683.16 938.14 683.44 938.82 731.16 632.91 731.16 632.91 683.16"/><polyline class="cls-7" points="634.41 678.66 942.74 678.66 942.74 728.91"/><rect class="cls-8" x="632.08" y="683.16" width="48" height="48"/><path class="cls-9" d="M909.16,717.67h-2v-2a3,3,0,0,1,3-3h5v2h-5a1,1,0,0,0-1,1Z" transform="translate(-261.08 -7.51)"/><path class="cls-9" d="M913.16,711.67a4,4,0,1,1,4-4A4,4,0,0,1,913.16,711.67Zm0-6a2,2,0,1,0,2,2A2,2,0,0,0,913.16,705.67Z" transform="translate(-261.08 -7.51)"/><path class="cls-9" d="M921.16,718.67a4,4,0,1,1,4-4A4,4,0,0,1,921.16,718.67Zm0-6a2,2,0,1,0,2,2A2,2,0,0,0,921.16,712.67Z" transform="translate(-261.08 -7.51)"/><path class="cls-9" d="M927.16,724.67h-2v-2a1,1,0,0,0-1-1h-6a1,1,0,0,0-1,1v2h-2v-2a3,3,0,0,1,3-3h6a3,3,0,0,1,3,3Z" transform="translate(-261.08 -7.51)"/><path class="cls-9" d="M909.16,728.67h-4a2,2,0,0,1-2-2v-24a2,2,0,0,1,2-2h4v2h-4v24h4Z" transform="translate(-261.08 -7.51)"/><path class="cls-9" d="M929.16,728.67h-4v-2h4v-24h-4v-2h4a2,2,0,0,1,2,2v24A2,2,0,0,1,929.16,728.67Z" transform="translate(-261.08 -7.51)"/><circle class="cls-9" cx="664.58" cy="622.13" r="1.5"/><path class="cls-9" d="M918.57,642.14h-5.41v-5.42l6-6a5.07,5.07,0,0,1,0-.55,6,6,0,1,1,6,6,5.25,5.25,0,0,1-.56,0Zm-3.41-2h2.59l6.17-6.18.51.1a4.53,4.53,0,0,0,.73.08,4.05,4.05,0,1,0-4-4.1,4.54,4.54,0,0,0,.07.82l.1.52-6.17,6.17Z" transform="translate(-261.08 -7.51)"/><path class="cls-9" d="M929.16,638.14v8h-18v-20h4v-2h-10a2,2,0,0,0-2,2v20a2,2,0,0,0,2,2h24a2,2,0,0,0,2-2v-8Zm-24-12h4v20h-4Z" transform="translate(-261.08 -7.51)"/><path class="cls-1" d="M331.13,195.17l4.25-4.26L334,189.5l-4.26,4.26-.79-.8a1,1,0,0,0-1.41,0h0l-4,4a1,1,0,0,0,0,1.42h0l3,3a1,1,0,0,0,1.41,0h0l4-4a1,1,0,0,0,0-1.42h0Zm-3.92,4.09-1.58-1.59,2.58-2.59,1.59,1.59Z" transform="translate(-261.08 -7.51)"/><path class="cls-1" d="M346.21,200.67a6,6,0,0,1-6-6,6.29,6.29,0,0,1,.21-1.55l-8.66-8.66a5.74,5.74,0,0,1-1.55.21,6,6,0,0,1-6-5.95,5.86,5.86,0,0,1,.43-2.23l.55-1.43,3.32,3.32a1,1,0,1,0,1.41-1.42h0l-3.31-3.31,1.42-.56a6,6,0,0,1,7.76,3.35,6,6,0,0,1,.21,3.78l8.67,8.66a5.72,5.72,0,0,1,1.54-.21,6,6,0,0,1,6,6,5.85,5.85,0,0,1-.42,2.23l-.56,1.43L347.92,195a1,1,0,0,0-1.41,0,1,1,0,0,0,0,1.42h0l3.31,3.31-1.42.56A6.09,6.09,0,0,1,346.21,200.67Zm-13.93-18.52,10.46,10.46-.24.61a4,4,0,0,0,2.21,5.16,3.85,3.85,0,0,0,1.25.28l-.87-.87a3,3,0,0,1,0-4.24h0a3.09,3.09,0,0,1,4.25,0l.87.87a4,4,0,0,0-4.2-3.74,4.11,4.11,0,0,0-1.25.27l-.61.24-10.46-10.46.24-.61a4,4,0,0,0-2.21-5.16,3.91,3.91,0,0,0-1.26-.28l.87.87a3,3,0,0,1,0,4.24h0a3.08,3.08,0,0,1-4.24,0l-.87-.87a4,4,0,0,0,4.2,3.74,3.89,3.89,0,0,0,1.25-.27Z" transform="translate(-261.08 -7.51)"/><path class="cls-1" d="M351.34,173.52a3.09,3.09,0,0,0-4.25,0L339.61,181l1.42,1.41,7.48-7.48a1,1,0,0,1,1.41,0,1,1,0,0,1,0,1.42l-7.48,7.48,1.42,1.41,7.48-7.48A3,3,0,0,0,351.34,173.52Z" transform="translate(-261.08 -7.51)"/></g><g id="Text"><text class="cls-25" transform="translate(662.35 103.03)"><tspan class="cls-26">P</tspan><tspan class="cls-27" x="8.83" y="0">r</tspan><tspan x="14.27" y="0">oduction inf</tspan><tspan class="cls-28" x="91.47" y="0">r</tspan><tspan x="96.82" y="0">a</tspan><tspan class="cls-29" x="104.65" y="0">s</tspan><tspan x="111.52" y="0">tructu</tspan><tspan class="cls-27" x="151.14" y="0">r</tspan><tspan x="156.57" y="0">e - </tspan><tspan class="cls-30" x="176.62" y="0">w</tspan><tspan x="187.96" y="0">orkload VPC</tspan></text><text class="cls-25" transform="translate(703.75 169.71)">CD pipeline</text><text class="cls-25" transform="translate(703.75 229.72)">Vi<tspan class="cls-31" x="12.8" y="0">r</tspan><tspan x="18.35" y="0">tual </tspan><tspan class="cls-26" x="47.07" y="0">P</tspan><tspan x="55.9" y="0">ri</tspan><tspan class="cls-30" x="65.27" y="0">v</tspan><tspan class="cls-32" x="72.48" y="0">at</tspan><tspan x="85.43" y="0">e Cloud</tspan></text><text class="cls-25" transform="translate(703.75 290.04)"><tspan class="cls-33">R</tspan><tspan x="9.09" y="0">ed H</tspan><tspan class="cls-34" x="38.67" y="0">a</tspan><tspan x="46.44" y="0">t OpenShift </tspan></text><text class="cls-25" transform="translate(703.75 412.28)">Cloud In<tspan class="cls-34" x="55.07" y="0">t</tspan><tspan x="60.25" y="0">ernet Se</tspan><tspan class="cls-35" x="114.52" y="0">r</tspan><tspan x="120.13" y="0">vi</tspan><tspan class="cls-27" x="131.33" y="0">c</tspan><tspan x="138.44" y="0">es</tspan></text><text class="cls-25" transform="translate(703.75 472.26)">Cloud Object <tspan class="cls-34" x="86.69" y="0">St</tspan><tspan x="100.36" y="0">o</tspan><tspan class="cls-28" x="108.25" y="0">r</tspan><tspan x="113.59" y="0">a</tspan><tspan class="cls-36" x="121.42" y="0">g</tspan><tspan x="128.96" y="0">e</tspan></text><text class="cls-25" transform="translate(703.75 532.65)">Obse<tspan class="cls-37" x="33.17" y="0">r</tspan><tspan class="cls-38" x="38.78" y="0">v</tspan><tspan x="45.99" y="0">ability</tspan></text><text class="cls-25" transform="translate(703.75 350.56)">D<tspan class="cls-34" x="9.65" y="0">a</tspan><tspan x="17.42" y="0">tabases</tspan></text><text class="cls-25" transform="translate(117.23 346.91)">Ap<tspan class="cls-39" x="17.81" y="0">p</tspan><tspan x="26.35" y="0">-1 </tspan><tspan class="cls-40" x="43.68" y="0">r</tspan><tspan class="cls-41" x="49.11" y="0">esou</tspan><tspan class="cls-40" x="80.02" y="0">rc</tspan><tspan x="92.57" y="0">e g</tspan><tspan class="cls-27" x="111.31" y="0">r</tspan><tspan x="116.74" y="0">oup</tspan></text><text class="cls-25" transform="translate(158.39 413.44)">CI pipeline</text><text class="cls-25" transform="translate(158.03 473.38)">Git <tspan class="cls-27" x="22.37" y="0">r</tspan><tspan x="27.8" y="0">epo</tspan></text><text class="cls-25" transform="translate(158.03 533.65)">Container <tspan class="cls-33" x="66.88" y="0">R</tspan><tspan x="75.96" y="0">egi</tspan><tspan class="cls-29" x="95.27" y="0">s</tspan><tspan x="102.14" y="0">t</tspan><tspan class="cls-37" x="107.38" y="0">r</tspan><tspan x="112.99" y="0">y</tspan></text><text class="cls-25" transform="translate(158.04 594.44)">Eviden<tspan class="cls-27" x="44.04" y="0">c</tspan><tspan x="51.16" y="0">e / I</tspan><tspan class="cls-29" x="77.61" y="0">n</tspan><tspan x="85.73" y="0">v </tspan><tspan class="cls-27" x="96.37" y="0">r</tspan><tspan x="101.81" y="0">epo</tspan></text><text class="cls-42" transform="translate(56.4 34.65)">Inf<tspan class="cls-28" x="21.78" y="0">r</tspan><tspan x="27.89" y="0">a</tspan><tspan class="cls-43" x="36.83" y="0">s</tspan><tspan x="44.69" y="0">tructu</tspan><tspan class="cls-44" x="89.97" y="0">r</tspan><tspan x="96.17" y="0">e as </tspan><tspan class="cls-45" x="129.58" y="0">c</tspan><tspan x="137.71" y="0">ode d</tspan><tspan class="cls-46" x="178.62" y="0">e</tspan><tspan x="187.41" y="0">v </tspan><tspan class="cls-47" x="199.57" y="0">t</tspan><tspan x="205.49" y="0">ools a</tspan><tspan class="cls-45" x="248.91" y="0">cc</tspan><tspan x="265.16" y="0">ount</tspan></text><text class="cls-25" transform="translate(109.36 182.19)">Inf<tspan class="cls-28" x="19.05" y="0">r</tspan><tspan x="24.4" y="0">a</tspan><tspan class="cls-29" x="32.23" y="0">s</tspan><tspan x="39.1" y="0">tructu</tspan><tspan class="cls-27" x="78.72" y="0">r</tspan><tspan x="84.15" y="0">e as </tspan><tspan class="cls-27" x="113.38" y="0">c</tspan><tspan x="120.5" y="0">ode d</tspan><tspan class="cls-30" x="156.29" y="0">e</tspan><tspan class="cls-29" x="163.98" y="0">v</tspan><tspan x="171.2" y="0">elopment - 1 p</tspan><tspan class="cls-27" x="265.46" y="0">r</tspan><tspan x="270.9" y="0">oject</tspan></text><text class="cls-25" transform="translate(82.44 244.98)"><tspan class="cls-48">T</tspan><tspan x="7.21" y="0">oolchain </tspan><tspan class="cls-27" x="65.73" y="0">c</tspan><tspan x="72.84" y="0">onfi</tspan><tspan class="cls-34" x="97.69" y="0">g</tspan><tspan x="105.26" y="0">u</tspan><tspan class="cls-28" x="113.5" y="0">r</tspan><tspan class="cls-34" x="118.84" y="0">a</tspan><tspan x="126.61" y="0">tion</tspan></text><text class="cls-25" transform="translate(275.36 244.98)"><tspan class="cls-48">T</tspan><tspan x="7.21" y="0">e</tspan><tspan class="cls-49" x="15.02" y="0">s</tspan><tspan x="21.9" y="0">t </tspan><tspan class="cls-27" x="30.44" y="0">c</tspan><tspan x="37.55" y="0">onfi</tspan><tspan class="cls-32" x="62.4" y="0">g</tspan><tspan x="69.97" y="0">u</tspan><tspan class="cls-28" x="78.2" y="0">r</tspan><tspan class="cls-34" x="83.55" y="0">a</tspan><tspan x="91.32" y="0">tion</tspan></text><text class="cls-25" transform="translate(84.14 97.65)">D<tspan class="cls-30" x="9.65" y="0">e</tspan><tspan x="17.33" y="0">v c</tspan><tspan class="cls-32" x="35.15" y="0">a</tspan><tspan x="42.92" y="0">talog</tspan></text><text class="cls-25" transform="translate(315.13 97.36)"><tspan class="cls-48">T</tspan><tspan x="7.21" y="0">e</tspan><tspan class="cls-49" x="15.02" y="0">s</tspan><tspan x="21.9" y="0">t c</tspan><tspan class="cls-32" x="37.62" y="0">a</tspan><tspan x="45.39" y="0">talog</tspan></text><text class="cls-42" transform="translate(630.87 34.65)">Inf<tspan class="cls-28" x="21.78" y="0">r</tspan><tspan x="27.89" y="0">a</tspan><tspan class="cls-43" x="36.83" y="0">s</tspan><tspan x="44.69" y="0">tructu</tspan><tspan class="cls-44" x="89.97" y="0">r</tspan><tspan x="96.17" y="0">e as </tspan><tspan class="cls-45" x="129.58" y="0">c</tspan><tspan x="137.71" y="0">ode </tspan><tspan class="cls-47" x="169.02" y="0">t</tspan><tspan x="174.94" y="0">e</tspan><tspan class="cls-43" x="183.87" y="0">s</tspan><tspan x="191.73" y="0">t a</tspan><tspan class="cls-44" x="210.43" y="0">cc</tspan><tspan x="226.69" y="0">ounts</tspan></text><text class="cls-50" transform="translate(141.08 685.21)">I<tspan class="cls-27" x="5.81" y="0">n</tspan><tspan x="13.97" y="0">f</tspan><tspan class="cls-27" x="18.91" y="0">r</tspan><tspan x="24.36" y="0">a</tspan><tspan class="cls-51" x="32.63" y="0">s</tspan><tspan x="39.42" y="0">tructu</tspan><tspan class="cls-27" x="78.06" y="0">r</tspan><tspan x="83.51" y="0">e as </tspan><tspan class="cls-52" x="112.56" y="0">c</tspan><tspan x="119.38" y="0">od</tspan><tspan class="cls-53" x="135.24" y="0">e</tspan><tspan x="142.59" y="0">-1 d</tspan><tspan class="cls-54" x="168.1" y="0">e</tspan><tspan x="175.28" y="0">v </tspan><tspan x="0" y="18">a</tspan><tspan class="cls-52" x="8.27" y="18">cc</tspan><tspan x="21.91" y="18">e</tspan><tspan class="cls-36" x="29.12" y="18">s</tspan><tspan x="35.99" y="18">s g</tspan><tspan class="cls-27" x="53.75" y="18">r</tspan><tspan x="59.19" y="18">oup</tspan></text><text class="cls-50" transform="translate(688.7 632.6)">I<tspan class="cls-27" x="5.81" y="0">n</tspan><tspan x="13.97" y="0">f</tspan><tspan class="cls-27" x="18.91" y="0">r</tspan><tspan x="24.36" y="0">a</tspan><tspan class="cls-51" x="32.63" y="0">s</tspan><tspan x="39.42" y="0">tructu</tspan><tspan class="cls-27" x="78.06" y="0">r</tspan><tspan x="83.51" y="0">e as </tspan><tspan class="cls-52" x="112.56" y="0">c</tspan><tspan x="119.38" y="0">od</tspan><tspan class="cls-53" x="135.24" y="0">e</tspan><tspan x="142.59" y="0">-1 API </tspan><tspan class="cls-55" x="187.07" y="0">k</tspan><tspan class="cls-56" x="194.53" y="0">e</tspan><tspan x="201.71" y="0">y</tspan></text><text class="cls-50" transform="translate(687.66 702.94)">I<tspan class="cls-27" x="5.81" y="0">n</tspan><tspan x="13.97" y="0">f</tspan><tspan class="cls-27" x="18.91" y="0">r</tspan><tspan x="24.36" y="0">a</tspan><tspan class="cls-51" x="32.63" y="0">s</tspan><tspan x="39.42" y="0">tructu</tspan><tspan class="cls-27" x="78.06" y="0">r</tspan><tspan x="83.51" y="0">e as </tspan><tspan class="cls-52" x="112.56" y="0">c</tspan><tspan x="119.38" y="0">od</tspan><tspan class="cls-53" x="135.24" y="0">e</tspan><tspan x="142.59" y="0">-1 </tspan><tspan x="0" y="18">a</tspan><tspan class="cls-52" x="8.27" y="18">cc</tspan><tspan x="21.91" y="18">e</tspan><tspan class="cls-36" x="29.12" y="18">s</tspan><tspan x="35.99" y="18">s g</tspan><tspan class="cls-27" x="53.75" y="18">r</tspan><tspan x="59.19" y="18">oup</tspan></text></g></svg>