<svg xmlns="http://www.w3.org/2000/svg" xmlns:xlink="http://www.w3.org/1999/xlink" width="1034.3275" height="752.6224" viewBox="0 0 1034.3275 752.6224"><defs><style>.cls-1,.cls-6,.cls-8{fill:#fff;}.cls-2{fill:url(#linear-gradient);}.cls-25,.cls-26,.cls-27,.cls-3{fill:#010101;}.cls-4{fill:url(#linear-gradient-2);}.cls-13,.cls-5{fill:#eef4fb;}.cls-5{stroke:#eef5fb;}.cls-10,.cls-11,.cls-12,.cls-13,.cls-14,.cls-15,.cls-16,.cls-17,.cls-19,.cls-21,.cls-22,.cls-23,.cls-5,.cls-6,.cls-7,.cls-8{stroke-miterlimit:10;}.cls-10,.cls-11,.cls-12,.cls-13,.cls-14,.cls-15,.cls-16,.cls-17,.cls-19,.cls-21,.cls-22,.cls-23,.cls-6,.cls-7,.cls-8{stroke:#3553a4;}.cls-20,.cls-6,.cls-7{fill-rule:evenodd;}.cls-10,.cls-11,.cls-12,.cls-14,.cls-15,.cls-16,.cls-17,.cls-19,.cls-21,.cls-22,.cls-24,.cls-7{fill:none;}.cls-20,.cls-23,.cls-9{fill:#3553a4;}.cls-11{stroke-dasharray:3.9518 3.9518;}.cls-12{stroke-dasharray:3.9866 3.9866;}.cls-14{stroke-dasharray:3.9608 3.9608;}.cls-15{stroke-dasharray:3.9586 3.9586;}.cls-16{stroke-dasharray:3.9563 3.9563;}.cls-17{stroke-dasharray:3.9408 3.9408;}.cls-18{mask:url(#mask);}.cls-19{stroke-dasharray:3.9921 3.9921;}.cls-21{stroke-dasharray:3.9935 3.9935;}.cls-22{stroke-dasharray:4 4;}.cls-25,.cls-27{font-size:14px;}.cls-25{font-family:IBMPlexSans, IBM Plex Sans;}.cls-26{font-size:16px;font-family:IBMPlexSans-SemiBold, IBM Plex Sans;font-weight:600;}.cls-27{font-family:IBMPlexSans-Italic, IBM Plex Sans;font-style:italic;}.cls-28{fill:#3654a4;}</style><linearGradient id="linear-gradient" x1="920.7121" y1="495.3262" x2="920.7121" y2="507.3262" gradientTransform="matrix(1, 0, 0, -1, 0, 672.1102)" gradientUnits="userSpaceOnUse"><stop offset="0.2" stop-color="#010101"/><stop offset="1" stop-color="#010101" stop-opacity="0"/></linearGradient><linearGradient id="linear-gradient-2" x1="-939.9761" y1="6675.063" x2="-939.9761" y2="6687.063" gradientTransform="matrix(-1, 0, 0, 1, 6, -6506.8891)" xlink:href="#linear-gradient"/><mask id="mask" x="656.3316" y="145.4791" width="32" height="32" maskUnits="userSpaceOnUse"><g transform="translate(-261.0805 -10.6888)"><g id="ohuov6a3zc"><path class="cls-1" d="M920.0641,179.072a14.8434,14.8434,0,0,1-1.672-6.9,15.02,15.02,0,0,1,14.978-15l.003,2a13.0168,13.0168,0,0,0-12.981,13,12.8664,12.8664,0,0,0,1.448,5.98l-1.775.92Zm13.349,8.1-.003-2a13.0032,13.0032,0,0,0,12.201-17.439l1.88-.682a15.0029,15.0029,0,0,1-14.079,20.121Z"/><path class="cls-2" d="M917.7121,164.784h6v12h-6Z"/><path class="cls-3" d="M917.7121,176.465h6v3.085h-6Z"/><path class="cls-4" d="M948.9761,180.174h-6v-12h6Z"/><path class="cls-3" d="M942.9761,165.383h6v3.085h-6Z"/></g></g></mask></defs><g id="Background"><rect class="cls-5" x="4.6113" y="0.5" width="530.4076" height="751.6224"/><rect class="cls-5" x="574.9787" y="2.3202" width="458.8487" height="746.6224"/><polyline class="cls-6" points="91.464 677.493 400.873 677.493 400.873 729.408"/><polyline class="cls-6" points="58.325 130.571 465.108 130.571 465.108 254.557"/><polyline class="cls-6" points="614.928 61.063 987.993 61.063 987.993 556.686"/><polyline class="cls-7" points="610.082 65.063 983.993 65.063 983.993 559.625"/><polyline class="cls-6" points="67.272 284.865 435.548 284.865 435.548 640.417"/><polyline class="cls-7" points="64.171 288.865 431.548 288.865 431.548 651.367"/><polygon class="cls-8" points="606.929 68.994 977.87 71.903 978.7 562.629 606.929 562.629 606.929 68.994"/><rect class="cls-9" x="606.9285" y="69.0096" width="48" height="48"/><rect class="cls-1" x="649.1227" y="138.1146" width="252.9663" height="47.8525"/><polyline class="cls-10" points="649.127 140.135 649.127 138.135 651.127 138.135"/><line class="cls-11" x1="655.0787" y1="138.1343" x2="898.1172" y2="138.0946"/><polyline class="cls-10" points="900.093 138.094 902.093 138.094 902.093 140.094"/><line class="cls-12" x1="902.0922" y1="144.0806" x2="902.0856" y2="181.9532"/><polyline class="cls-10" points="902.085 183.946 902.085 185.946 900.085 185.947"/><line class="cls-11" x1="896.1331" y1="185.9475" x2="653.0945" y2="185.9871"/><polyline class="cls-10" points="651.119 185.987 649.119 185.988 649.119 183.988"/><line class="cls-12" x1="649.1197" y1="180.0011" x2="649.1262" y2="142.1285"/><rect class="cls-13" x="648.3316" y="138.1264" width="48" height="48"/><rect class="cls-1" x="649.1227" y="198.1167" width="252.9663" height="47.8525"/><polyline class="cls-10" points="649.127 200.137 649.127 198.137 651.127 198.137"/><line class="cls-11" x1="655.0787" y1="198.1363" x2="898.1172" y2="198.0967"/><polyline class="cls-10" points="900.093 198.096 902.093 198.096 902.093 200.096"/><line class="cls-12" x1="902.0922" y1="204.0827" x2="902.0856" y2="241.9553"/><polyline class="cls-10" points="902.085 243.949 902.085 245.949 900.085 245.949"/><line class="cls-11" x1="896.1331" y1="245.9496" x2="653.0945" y2="245.9892"/><polyline class="cls-10" points="651.119 245.99 649.119 245.99 649.119 243.99"/><line class="cls-12" x1="649.1197" y1="240.0033" x2="649.1262" y2="202.1306"/><rect class="cls-13" x="648.3316" y="198.1287" width="48" height="48"/><rect class="cls-1" x="649.1227" y="258.4464" width="252.9663" height="47.8525"/><polyline class="cls-10" points="649.127 260.467 649.127 258.467 651.127 258.467"/><line class="cls-11" x1="655.0787" y1="258.466" x2="898.1172" y2="258.4264"/><polyline class="cls-10" points="900.093 258.426 902.093 258.426 902.093 260.426"/><line class="cls-12" x1="902.0922" y1="264.4123" x2="902.0856" y2="302.285"/><polyline class="cls-10" points="902.085 304.278 902.085 306.278 900.085 306.279"/><line class="cls-11" x1="896.1331" y1="306.2792" x2="653.0945" y2="306.3189"/><polyline class="cls-10" points="651.119 306.319 649.119 306.32 649.119 304.32"/><line class="cls-12" x1="649.1197" y1="300.3329" x2="649.1262" y2="262.4603"/><rect class="cls-13" x="648.3316" y="258.4584" width="48" height="48"/><rect class="cls-1" x="649.123" y="380.7564" width="253.5323" height="47.8525"/><polyline class="cls-10" points="649.127 382.779 649.127 380.779 651.127 380.778"/><line class="cls-14" x1="655.0883" y1="380.7775" x2="898.6794" y2="380.735"/><polyline class="cls-10" points="900.66 380.735 902.66 380.734 902.659 382.734"/><line class="cls-12" x1="902.6586" y1="386.7209" x2="902.6517" y2="424.5936"/><polyline class="cls-10" points="902.651 426.587 902.651 428.587 900.651 428.587"/><line class="cls-14" x1="896.6901" y1="428.5879" x2="653.0991" y2="428.6304"/><polyline class="cls-10" points="651.119 428.631 649.119 428.631 649.119 426.631"/><line class="cls-12" x1="649.1197" y1="422.6445" x2="649.1268" y2="384.7718"/><rect class="cls-13" x="648.3316" y="380.6906" width="48" height="48"/><rect class="cls-1" x="649.1229" y="440.7478" width="253.3923" height="47.8525"/><polyline class="cls-10" points="649.127 442.769 649.127 440.769 651.127 440.769"/><line class="cls-15" x1="655.0857" y1="440.7681" x2="898.5401" y2="440.7273"/><polyline class="cls-10" points="900.519 440.727 902.519 440.727 902.519 442.727"/><line class="cls-12" x1="902.5184" y1="446.7132" x2="902.5115" y2="484.5858"/><polyline class="cls-10" points="902.511 486.579 902.511 488.579 900.511 488.579"/><line class="cls-15" x1="896.5523" y1="488.5801" x2="653.098" y2="488.621"/><polyline class="cls-10" points="651.119 488.621 649.119 488.622 649.119 486.622"/><line class="cls-12" x1="649.1197" y1="482.635" x2="649.1264" y2="444.7624"/><rect class="cls-13" x="648.3316" y="440.6753" width="48" height="48"/><rect class="cls-1" x="649.1228" y="501.1358" width="253.2482" height="47.8525"/><polyline class="cls-10" points="649.127 503.157 649.127 501.157 651.127 501.157"/><line class="cls-16" x1="655.0833" y1="501.1558" x2="898.397" y2="501.1154"/><polyline class="cls-10" points="900.375 501.115 902.375 501.115 902.375 503.115"/><line class="cls-12" x1="902.3742" y1="507.1013" x2="902.3675" y2="544.974"/><polyline class="cls-10" points="902.367 546.967 902.367 548.967 900.367 548.968"/><line class="cls-16" x1="896.4105" y1="548.9683" x2="653.0967" y2="549.0087"/><polyline class="cls-10" points="651.119 549.009 649.119 549.009 649.119 547.009"/><line class="cls-12" x1="649.1197" y1="543.0228" x2="649.1263" y2="505.1502"/><rect class="cls-13" x="648.3316" y="501.0634" width="48" height="48"/><rect class="cls-1" x="649.8196" y="318.9628" width="252.2697" height="47.8525"/><polyline class="cls-10" points="649.823 320.982 649.824 318.982 651.824 318.982"/><line class="cls-17" x1="655.7643" y1="318.9815" x2="898.1229" y2="318.9438"/><polyline class="cls-10" points="900.093 318.944 902.093 318.943 902.093 320.943"/><line class="cls-12" x1="902.0922" y1="324.9298" x2="902.086" y2="362.8024"/><polyline class="cls-10" points="902.086 364.796 902.085 366.796 900.085 366.796"/><line class="cls-17" x1="896.1446" y1="366.7967" x2="653.7861" y2="366.8343"/><polyline class="cls-10" points="651.816 366.835 649.816 366.835 649.816 364.835"/><line class="cls-12" x1="649.8167" y1="360.8483" x2="649.8228" y2="322.9757"/><rect class="cls-13" x="648.3316" y="318.9758" width="48" height="48"/><path class="cls-9" d="M937.4134,234.6774v-3a4,4,0,1,0-8,0v3a2.0025,2.0025,0,0,0-2,2v6a2.0025,2.0025,0,0,0,2,2h8a2.0025,2.0025,0,0,0,2-2v-6A2.0025,2.0025,0,0,0,937.4134,234.6774Zm-6-3a2,2,0,1,1,4,0v3h-4Zm-2,11v-6h8l.0012,6Z" transform="translate(-261.0805 -10.6888)"/><path class="cls-9" d="M943.2422,224.7926a10.0108,10.0108,0,0,0-19.6569-.01l-.0019.01a7.502,7.502,0,0,0,1.3212,14.8848h.5088v-2h-.5047a5.5019,5.5019,0,0,1-.9694-10.9165l1.3488-.2441.2591-1.3457a8.0109,8.0109,0,0,1,15.7312,0l.259,1.3457,1.3489.2441a5.5019,5.5019,0,0,1-.9653,10.9165h-.5076v2h.5076a7.502,7.502,0,0,0,1.3212-14.8848Z" transform="translate(-261.0805 -10.6888)"/><path class="cls-9" d="M941.4121,340.6646h-16a2,2,0,0,0-2,2v22a2,2,0,0,0,2,2h16a2,2,0,0,0,2-2v-22A2,2,0,0,0,941.4121,340.6646Zm0,2v6h-16v-6Zm-16,14v-6h16v6Zm0,8v-6h16v6Z" transform="translate(-261.0805 -10.6888)"/><circle class="cls-9" cx="672.3316" cy="334.9758" r="1"/><circle class="cls-9" cx="672.3316" cy="342.9758" r="1"/><circle class="cls-9" cx="672.3316" cy="350.9758" r="1"/><path class="cls-9" d="M945.4121,479.3642h-2v2h2v6h-24v-6h10v-2h-10a2.0023,2.0023,0,0,0-2,2v6a2.0024,2.0024,0,0,0,2,2h24a2.0023,2.0023,0,0,0,2-2v-6A2.0021,2.0021,0,0,0,945.4121,479.3642Z" transform="translate(-261.0805 -10.6888)"/><circle class="cls-9" cx="663.3316" cy="473.6753" r="1"/><path class="cls-9" d="M947.4121,467.3642h-8v6h-6v8h8v-6h6Zm-8,12h-4v-4h4Zm6-6h-4v-4h4Z" transform="translate(-261.0805 -10.6888)"/><path class="cls-9" d="M935.4121,469.3642h-8v-8h8Zm-6-2h4v-4h-4Z" transform="translate(-261.0805 -10.6888)"/><path class="cls-9" d="M944.9121,421.3794a3.1571,3.1571,0,0,0-1.9.7l-5.2-3.1c0-.2.1-.4.1-.6a1.2683,1.2683,0,0,0-.1-.6l5.2-3.1a3.1571,3.1571,0,0,0,1.9.7,3,3,0,1,0-3-3,1.2683,1.2683,0,0,0,.1.6l-5.2,3.1a3.1571,3.1571,0,0,0-1.9-.7,3,3,0,0,0,0,6,3.1571,3.1571,0,0,0,1.9-.7l5.2,3.1c0,.2-.1.4-.1.6a3,3,0,1,0,3-3Zm0-10a1,1,0,1,1-1,1A.9448.9448,0,0,1,944.9121,411.3794Zm-10,8a1,1,0,1,1,1-1A.9448.9448,0,0,1,934.9121,419.3794Zm10,6a1,1,0,1,1,1-1A.9448.9448,0,0,1,944.9121,425.3794Z" transform="translate(-261.0805 -10.6888)"/><path class="cls-9" d="M936.9121,424.3794h-10.5a5.5488,5.5488,0,0,1-5.5-5.5,5.4745,5.4745,0,0,1,4.5-5.4l1.3-.2.3-1.3a8.1055,8.1055,0,0,1,7.9-6.6,7.5687,7.5687,0,0,1,1.5.1,8.5469,8.5469,0,0,1,4.2,2.2l1.4-1.4a9.37,9.37,0,0,0-5.2-2.7,12.2523,12.2523,0,0,0-1.9-.2,9.9507,9.9507,0,0,0-9.8,8.1,7.588,7.588,0,0,0-6.2,7.4,7.49,7.49,0,0,0,7.5,7.5h10.5Z" transform="translate(-261.0805 -10.6888)"/><path class="cls-9" d="M945.4121,535.2523v6h-24v-16h7v-2h-7a2,2,0,0,0-2,2v16a2,2,0,0,0,2,2h8v4h-4v2h16v-2h-4v-4h8a2,2,0,0,0,2-2v-6Zm-10,12h-4v-4h4Z" transform="translate(-261.0805 -10.6888)"/><path class="cls-9" d="M935.4121,537.2523h-.01a1,1,0,0,1-.9511-.7253l-1.7933-6.2747h-4.2456v-2h5a1,1,0,0,1,.9615.7252l1.0742,3.7589,3.0088-9.7783a1.0143,1.0143,0,0,1,.9555-.7058.98.98,0,0,1,.9487.6838l1.772,5.3162h5.2793v2h-6a1,1,0,0,1-.9487-.6838l-1.0132-3.04-3.0825,10.018A1,1,0,0,1,935.4121,537.2523Z" transform="translate(-261.0805 -10.6888)"/><g class="cls-18"><path class="cls-9" d="M917.4121,156.168h32v32h-32Z" transform="translate(-261.0805 -10.6888)"/></g><path class="cls-9" d="M936.12,175.165h-5.455a1.2741,1.2741,0,0,1-1.273-1.272v-5.455a1.2744,1.2744,0,0,1,1.273-1.273h5.455a1.2735,1.2735,0,0,1,1.272,1.273v5.455A1.2733,1.2733,0,0,1,936.12,175.165Zm-4.728-2h4v-4h-4Z" transform="translate(-261.0805 -10.6888)"/><path class="cls-9" d="M946.1,162.938l-4.708-4.708v-.064h-.064l-.935-.935-.935.935h-.066v.066l-4.752,4.752,1.414,1.414,3.338-3.338v16.11h-12V166.168h-2V177.53a1.6422,1.6422,0,0,0,1.64,1.64h12.72a1.6422,1.6422,0,0,0,1.64-1.64V161.058l3.294,3.294Z" transform="translate(-261.0805 -10.6888)"/><path class="cls-9" d="M943.9314,292.7965a12.1331,12.1331,0,0,0-1.1791-4.3168l3.7179-1.35a11.9879,11.9879,0,0,0-1.0281-1.7382l-1.7431.635a11.9884,11.9884,0,0,0-21.71,7.9129l1.7477-.6412a12.1987,12.1987,0,0,0,.3309,1.9846l-3.7136,1.3553a12.1481,12.1481,0,0,0,1.8727,4.0616l1.9663-.7163.0026.0039a11.8853,11.8853,0,0,0,4.67,3.8909A12.0129,12.0129,0,0,0,944.81,298.074a11.8714,11.8714,0,0,0,1.08-5.992Zm-2.92,3.4967a7.8,7.8,0,0,1-10.3533,3.7744,7.7207,7.7207,0,0,1-2.2714-1.6128l-1.9846.7235a7.84,7.84,0,0,1-2.0742-3.9895l.0009-.0008,3.7242-1.3566a7.8217,7.8217,0,0,1-.1232-2.0653l-1.7517.6362a7.7729,7.7729,0,0,1,11.0566-6.4626h.0067a7.7442,7.7442,0,0,1,2.2646,1.615l1.7442-.634a7.798,7.798,0,0,1,1.229,1.6558l-3.71,1.3595a7.8236,7.8236,0,0,1,.9766,4.3882l1.9685-.7151a7.6688,7.6688,0,0,1-.703,2.6841Z" transform="translate(-261.0805 -10.6888)"/><polygon class="cls-8" points="61.808 292.663 425.324 294.845 426.137 662.992 61.808 662.992 61.808 292.663"/><rect class="cls-9" x="61.8081" y="292.6628" width="48" height="48"/><rect class="cls-1" x="104.8481" y="361.9273" width="255.5025" height="47.8525"/><polyline class="cls-10" points="104.853 363.952 104.853 361.952 106.853 361.951"/><line class="cls-19" x1="110.8451" y1="361.9506" x2="356.3594" y2="361.9036"/><polyline class="cls-10" points="358.355 361.903 360.355 361.903 360.355 363.903"/><line class="cls-12" x1="360.3542" y1="367.8895" x2="360.3465" y2="405.7621"/><polyline class="cls-10" points="360.346 407.755 360.346 409.755 358.346 409.756"/><line class="cls-19" x1="354.3536" y1="409.7566" x2="108.8393" y2="409.8035"/><polyline class="cls-10" points="106.843 409.804 104.843 409.804 104.844 407.804"/><line class="cls-12" x1="104.8445" y1="403.8177" x2="104.8522" y2="365.9451"/><rect class="cls-13" x="104.3362" y="361.8536" width="48" height="48"/><rect class="cls-1" x="104.5796" y="421.8691" width="255.5025" height="47.8525"/><polyline class="cls-10" points="104.584 423.894 104.584 421.894 106.584 421.893"/><line class="cls-19" x1="110.5765" y1="421.8924" x2="356.0909" y2="421.8455"/><polyline class="cls-10" points="358.087 421.845 360.087 421.845 360.086 423.845"/><line class="cls-12" x1="360.0856" y1="427.8313" x2="360.0779" y2="465.7039"/><polyline class="cls-10" points="360.078 467.697 360.077 469.697 358.077 469.698"/><line class="cls-19" x1="354.085" y1="469.6984" x2="108.5707" y2="469.7453"/><polyline class="cls-10" points="106.575 469.746 104.575 469.746 104.575 467.746"/><line class="cls-12" x1="104.5759" y1="463.7595" x2="104.5836" y2="425.8869"/><rect class="cls-13" x="104.3362" y="421.7954" width="48" height="48"/><rect class="cls-1" x="104.6087" y="482.1405" width="255.5025" height="47.8525"/><polyline class="cls-10" points="104.613 484.165 104.614 482.165 106.614 482.165"/><line class="cls-19" x1="110.6056" y1="482.1638" x2="356.1199" y2="482.1168"/><polyline class="cls-10" points="358.116 482.116 360.116 482.116 360.116 484.116"/><line class="cls-12" x1="360.1148" y1="488.1027" x2="360.1071" y2="525.9753"/><polyline class="cls-10" points="360.107 527.969 360.106 529.969 358.106 529.969"/><line class="cls-19" x1="354.1142" y1="529.9697" x2="108.5998" y2="530.0167"/><polyline class="cls-10" points="106.604 530.017 104.604 530.017 104.604 528.017"/><line class="cls-12" x1="104.605" y1="524.0309" x2="104.6127" y2="486.1582"/><rect class="cls-13" x="104.3362" y="482.0668" width="48" height="48"/><rect class="cls-1" x="104.6426" y="542.9304" width="255.5025" height="47.8525"/><polyline class="cls-10" points="104.647 544.955 104.647 542.955 106.647 542.954"/><line class="cls-19" x1="110.6396" y1="542.9537" x2="356.1539" y2="542.9067"/><polyline class="cls-10" points="358.15 542.906 360.15 542.906 360.149 544.906"/><line class="cls-12" x1="360.1487" y1="548.8925" x2="360.1409" y2="586.7652"/><polyline class="cls-10" points="360.141 588.759 360.14 590.759 358.14 590.759"/><line class="cls-19" x1="354.148" y1="590.7596" x2="108.6337" y2="590.8066"/><polyline class="cls-10" points="106.638 590.807 104.638 590.807 104.638 588.807"/><line class="cls-12" x1="104.6389" y1="584.8208" x2="104.6467" y2="546.9481"/><rect class="cls-13" x="104.3362" y="542.8567" width="48" height="48"/><rect class="cls-1" x="630.9285" y="104.7365" width="12" height="2"/><rect class="cls-1" x="630.9285" y="99.7365" width="12" height="2"/><rect class="cls-1" x="630.9285" y="94.7365" width="12" height="2"/><path class="cls-1" d="M888.009,114.4253h-4.5a7.4964,7.4964,0,0,1-1.3218-14.876,10,10,0,0,1,19.8218,1.876h-2a7.999,7.999,0,0,0-15.9507-.87l-.09.8335-.8363.0565a5.4962,5.4962,0,0,0,.377,10.98h4.5Z" transform="translate(-261.0805 -10.6888)"/><path class="cls-9" d="M390.4167,513.7556v-7h-9v16h16v-9Zm-7-5h5v5h-5Zm0,7h5v5h-5Zm12,5h-5v-5h5Z" transform="translate(-261.0805 -10.6888)"/><path class="cls-9" d="M401.4167,511.7556h-9v-9h9Zm-7-2h5v-5h-5Z" transform="translate(-261.0805 -10.6888)"/><path class="cls-9" d="M401.4167,520.7556h-2v2h2v6h-24v-6h2v-2h-2a2.0025,2.0025,0,0,0-2,2v6a2.0025,2.0025,0,0,0,2,2h24a2.0023,2.0023,0,0,0,2-2v-6A2.0023,2.0023,0,0,0,401.4167,520.7556Z" transform="translate(-261.0805 -10.6888)"/><circle class="cls-9" cx="119.3362" cy="515.0668" r="1"/><path class="cls-20" d="M389.39,442.8286a14,14,0,0,0-4.43,27.28c.7.13,1-.3,1-.67v-2.38c-3.89.84-4.71-1.88-4.71-1.88a3.71,3.71,0,0,0-1.62-2.05c-1.27-.86.1-.85.1-.85a2.94,2.94,0,0,1,2.14,1.45,3,3,0,0,0,4.08,1.16,2.9305,2.9305,0,0,1,.88-1.87c-3.1-.36-6.37-1.56-6.37-6.92a5.4,5.4,0,0,1,1.44-3.76,5,5,0,0,1,.14-3.7s1.17-.38,3.85,1.43a13.301,13.301,0,0,1,7,0c2.67-1.81,3.84-1.43,3.84-1.43a5,5,0,0,1,.14,3.7,5.4,5.4,0,0,1,1.44,3.76c0,5.38-3.27,6.56-6.39,6.91a3.33,3.33,0,0,1,.95,2.59v3.84c0,.46.25.81,1,.67a14,14,0,0,0-4.48-27.28Z" transform="translate(-261.0805 -10.6888)"/><path class="cls-9" d="M405.3167,396.0424l-5.7-10a1.3824,1.3824,0,0,0-.9-.5h-18.6a1.02,1.02,0,0,0-.8.5l-5.7,10a.5505.5505,0,0,0-.2.5.9015.9015,0,0,0,.1.5l5.7,10a1.3824,1.3824,0,0,0,.9.5h18.5a1.05,1.05,0,0,0,.9-.5l5.7-10a.5505.5505,0,0,0,.2-.5A.9015.9015,0,0,0,405.3167,396.0424Zm-14.1-.5h-8l4-7Zm-2.3-8h8l-4,7Zm2.3,10-4,7-4-7Zm1.7,1,4,7h-8Zm1.7-1h8l-4,7Zm0-2,4-7,4,7Zm-13.9-8h4.7l-4.6,8h-4.7Zm0,18-4.6-8h4.7l4.6,8Z" transform="translate(-261.0805 -10.6888)"/><polygon class="cls-9" points="135.936 571.257 139.536 574.857 139.536 574.857 135.936 578.457 137.336 579.857 142.336 574.857 137.336 569.857 135.936 571.257"/><polygon class="cls-9" points="132.736 571.257 129.136 574.857 129.136 574.857 132.736 578.457 131.336 579.857 126.336 574.857 131.336 569.857 132.736 571.257"/><path class="cls-9" d="M401.4167,568.5455h-12l-3.4-3.4a1.9743,1.9743,0,0,0-1.4-.6h-7.2a2.0059,2.0059,0,0,0-2,2v20a2.0059,2.0059,0,0,0,2,2h7v-2h-7v-20h7.2l3.4,3.4.6.6h12.8v8h2v-8A2.0059,2.0059,0,0,0,401.4167,568.5455Z" transform="translate(-261.0805 -10.6888)"/><path class="cls-1" d="M352.8887,335.3516h-12a2.002,2.002,0,0,1-2-2v-12a2.0021,2.0021,0,0,1,2-2h12a2.0021,2.0021,0,0,1,2,2v12A2.0021,2.0021,0,0,1,352.8887,335.3516Zm-12-14v12h12v-12Z" transform="translate(-261.0805 -10.6888)"/><path class="cls-1" d="M338.8887,341.3516h-4a2.002,2.002,0,0,1-2-2v-24a2.0021,2.0021,0,0,1,2-2h4v2h-4v24h4Z" transform="translate(-261.0805 -10.6888)"/><path class="cls-1" d="M358.8887,341.3516h-4v-2h4v-24h-4v-2h4a2.0021,2.0021,0,0,1,2,2v24A2.0021,2.0021,0,0,1,358.8887,341.3516Z" transform="translate(-261.0805 -10.6888)"/><rect class="cls-9" y="1.631" width="48" height="48"/><polygon class="cls-8" points="53.28 138.571 455.729 139.332 456.63 267.69 53.28 267.69 53.28 138.571"/><polyline class="cls-7" points="54.108 134.571 461.108 134.571 461.108 254.557"/><rect class="cls-1" x="66.3022" y="200.3923" width="183.706" height="48"/><polyline class="cls-10" points="250.008 246.392 250.008 248.392 248.008 248.392"/><line class="cls-21" x1="244.0148" y1="248.3923" x2="70.2989" y2="248.3923"/><polyline class="cls-10" points="68.302 248.392 66.302 248.392 66.302 246.392"/><line class="cls-22" x1="66.3022" y1="242.3923" x2="66.3022" y2="204.3923"/><polyline class="cls-10" points="66.302 202.392 66.302 200.392 68.302 200.392"/><line class="cls-21" x1="72.2957" y1="200.3923" x2="246.0115" y2="200.3923"/><polyline class="cls-10" points="248.008 200.392 250.008 200.392 250.008 202.392"/><line class="cls-22" x1="250.0082" y1="206.3923" x2="250.0082" y2="244.3923"/><rect class="cls-1" x="259.23" y="200.3923" width="183.706" height="48"/><polyline class="cls-10" points="442.936 246.392 442.936 248.392 440.936 248.392"/><line class="cls-21" x1="436.9426" y1="248.3923" x2="263.2267" y2="248.3923"/><polyline class="cls-10" points="261.23 248.392 259.23 248.392 259.23 246.392"/><line class="cls-22" x1="259.23" y1="242.3923" x2="259.23" y2="204.3923"/><polyline class="cls-10" points="259.23 202.392 259.23 200.392 261.23 200.392"/><line class="cls-21" x1="265.2234" y1="200.3923" x2="438.9393" y2="200.3923"/><polyline class="cls-10" points="440.936 200.392 442.936 200.392 442.936 202.392"/><line class="cls-22" x1="442.936" y1="206.3923" x2="442.936" y2="244.3923"/><rect class="cls-9" x="53.28" y="139.0157" width="48" height="48"/><rect class="cls-23" x="66.3022" y="200.3923" width="3" height="48"/><rect class="cls-23" x="259.23" y="200.3923" width="3" height="48"/><rect class="cls-23" x="0.5119" y="45.3202" width="3" height="703.6224"/><path class="cls-1" d="M277.1016,34.2842h10.971V36.32h-10.971Zm0,5.0889h12.9657v2.0356H277.1016Z" transform="translate(-261.0805 -10.6888)"/><path class="cls-1" d="M297.0489,24.1064H273.1122a2.0155,2.0155,0,0,0-1.9948,2.0356V46.4976a2.0155,2.0155,0,0,0,1.9948,2.0356h23.9367a2.0155,2.0155,0,0,0,1.9947-2.0356V26.142A2.0155,2.0155,0,0,0,297.0489,24.1064Zm0,2.0356v2.0355H273.1122V26.142ZM273.1122,46.4976V30.2131h23.9367V46.4976Z" transform="translate(-261.0805 -10.6888)"/><polygon class="cls-8" points="29.393 67.567 249.594 67.85 250.087 115.567 29.393 115.567 29.393 67.567"/><rect class="cls-23" x="28.6334" y="67.5667" width="48" height="48"/><polygon class="cls-8" points="260.383 67.567 480.583 67.85 481.076 115.567 260.383 115.567 260.383 67.567"/><rect class="cls-23" x="259.8151" y="67.5667" width="48" height="48"/><rect id="_Transparent_Rectangle_" data-name="&lt;Transparent Rectangle&gt;" class="cls-24" x="266.6096" y="75.5667" width="32" height="32"/><path class="cls-1" d="M554.8956,88.2555h-18a2,2,0,0,0-2,2v4h-2v2h2v5h-2v2h2v5h-2v2h2v4a2,2,0,0,0,2,2h18a2,2,0,0,0,2-2v-24A2,2,0,0,0,554.8956,88.2555Zm0,26h-18v-4h2v-2h-2v-5h2v-2h-2v-5h2v-2h-2v-4h18Z" transform="translate(-261.0805 -10.6888)"/><rect class="cls-1" x="281.8151" y="83.5667" width="8" height="2"/><rect class="cls-1" x="281.8151" y="90.5667" width="8" height="2"/><rect class="cls-1" x="281.8151" y="97.5667" width="8" height="2"/><path class="cls-1" d="M323.7139,88.2555h-18a2,2,0,0,0-2,2v4h-2v2h2v5h-2v2h2v5h-2v2h2v4a2,2,0,0,0,2,2h18a2,2,0,0,0,2-2v-24A2,2,0,0,0,323.7139,88.2555Zm0,26h-18v-4h2v-2h-2v-5h2v-2h-2v-5h2v-2h-2v-4h18Z" transform="translate(-261.0805 -10.6888)"/><rect class="cls-1" x="50.6334" y="83.5667" width="8" height="2"/><rect class="cls-1" x="50.6334" y="90.5667" width="8" height="2"/><rect class="cls-1" x="50.6334" y="97.5667" width="8" height="2"/><rect class="cls-9" x="574.4668" y="1.631" width="48" height="48"/><rect class="cls-23" x="574.9787" y="45.3202" width="3" height="703.6224"/><path class="cls-1" d="M851.5685,34.2842H862.54V36.32h-10.971Zm0,5.0889h12.9657v2.0356H851.5685Z" transform="translate(-261.0805 -10.6888)"/><path class="cls-1" d="M871.5157,24.1064H847.579a2.0155,2.0155,0,0,0-1.9947,2.0356V46.4976a2.0155,2.0155,0,0,0,1.9947,2.0356h23.9367a2.0154,2.0154,0,0,0,1.9947-2.0356V26.142A2.0154,2.0154,0,0,0,871.5157,24.1064Zm0,2.0356v2.0355H847.579V26.142ZM847.579,46.4976V30.2131h23.9367V46.4976Z" transform="translate(-261.0805 -10.6888)"/><polygon class="cls-8" points="86.326 687.45 391.56 687.733 392.243 735.45 86.326 735.45 86.326 687.45"/><polyline class="cls-7" points="87.826 682.955 396.157 682.955 396.157 733.201"/><rect class="cls-8" x="85.3392" y="687.4505" width="48" height="48"/><path class="cls-9" d="M362.42,725.1393h-2v-2a3.0033,3.0033,0,0,1,3-3h5v2h-5a1.0011,1.0011,0,0,0-1,1Z" transform="translate(-261.0805 -10.6888)"/><path class="cls-9" d="M366.42,719.1393a4,4,0,1,1,4-4A4,4,0,0,1,366.42,719.1393Zm0-6a2,2,0,1,0,2,2A2,2,0,0,0,366.42,713.1393Z" transform="translate(-261.0805 -10.6888)"/><path class="cls-9" d="M374.42,726.1393a4,4,0,1,1,4-4A4,4,0,0,1,374.42,726.1393Zm0-6a2,2,0,1,0,2,2A2,2,0,0,0,374.42,720.1393Z" transform="translate(-261.0805 -10.6888)"/><path class="cls-9" d="M380.42,732.1393h-2v-2a1.0011,1.0011,0,0,0-1-1h-6a1.0011,1.0011,0,0,0-1,1v2h-2v-2a3.0033,3.0033,0,0,1,3-3h6a3.0033,3.0033,0,0,1,3,3Z" transform="translate(-261.0805 -10.6888)"/><path class="cls-9" d="M362.42,736.1393h-4a2.0021,2.0021,0,0,1-2-2v-24a2.002,2.002,0,0,1,2-2h4v2h-4v24h4Z" transform="translate(-261.0805 -10.6888)"/><path class="cls-9" d="M382.42,736.1393h-4v-2h4v-24h-4v-2h4a2.0021,2.0021,0,0,1,2,2v24A2.0021,2.0021,0,0,1,382.42,736.1393Z" transform="translate(-261.0805 -10.6888)"/><polyline class="cls-6" points="638.377 593.171 947.785 593.171 947.785 645.086"/><polygon class="cls-8" points="633.954 601.666 939.188 601.949 939.871 649.666 633.954 649.666 633.954 601.666"/><polyline class="cls-7" points="635.454 597.171 943.785 597.171 943.785 647.417"/><rect class="cls-8" x="632.0795" y="601.6665" width="48" height="48"/><polyline class="cls-6" points="637.33 671.482 946.738 671.482 946.738 723.396"/><polygon class="cls-8" points="632.907 679.977 938.141 680.26 938.824 727.977 632.907 727.977 632.907 679.977"/><polyline class="cls-7" points="634.407 675.482 942.738 675.482 942.738 725.727"/><rect class="cls-8" x="632.0795" y="679.9772" width="48" height="48"/><path class="cls-9" d="M909.16,717.666h-2v-2a3.0033,3.0033,0,0,1,3-3h5v2h-5a1.0011,1.0011,0,0,0-1,1Z" transform="translate(-261.0805 -10.6888)"/><path class="cls-9" d="M913.16,711.666a4,4,0,1,1,4-4A4,4,0,0,1,913.16,711.666Zm0-6a2,2,0,1,0,2,2A2,2,0,0,0,913.16,705.666Z" transform="translate(-261.0805 -10.6888)"/><path class="cls-9" d="M921.16,718.666a4,4,0,1,1,4-4A4,4,0,0,1,921.16,718.666Zm0-6a2,2,0,1,0,2,2A2,2,0,0,0,921.16,712.666Z" transform="translate(-261.0805 -10.6888)"/><path class="cls-9" d="M927.16,724.666h-2v-2a1.0011,1.0011,0,0,0-1-1h-6a1.0011,1.0011,0,0,0-1,1v2h-2v-2a3.0033,3.0033,0,0,1,3-3h6a3.0033,3.0033,0,0,1,3,3Z" transform="translate(-261.0805 -10.6888)"/><path class="cls-9" d="M909.16,728.666h-4a2.002,2.002,0,0,1-2-2v-24a2.0021,2.0021,0,0,1,2-2h4v2h-4v24h4Z" transform="translate(-261.0805 -10.6888)"/><path class="cls-9" d="M929.16,728.666h-4v-2h4v-24h-4v-2h4a2.0021,2.0021,0,0,1,2,2v24A2.0021,2.0021,0,0,1,929.16,728.666Z" transform="translate(-261.0805 -10.6888)"/><circle class="cls-9" cx="664.5795" cy="618.947" r="1.5"/><path class="cls-9" d="M918.5743,642.1359H913.16v-5.4143l6.03-6.03a5.3454,5.3454,0,0,1-.03-.5557,6,6,0,1,1,6,6,5.3755,5.3755,0,0,1-.5559-.03Zm-3.4143-2h2.5857l6.1706-6.1709.5174.0957a3.9365,3.9365,0,0,0,.7263.0752,4.0507,4.0507,0,1,0-3.925-3.2729l.0952.5166-6.17,6.1706Z" transform="translate(-261.0805 -10.6888)"/><path class="cls-9" d="M929.16,638.1359v8h-18v-20h4v-2h-10a2.0025,2.0025,0,0,0-2,2v20a2.0025,2.0025,0,0,0,2,2h24a2.0025,2.0025,0,0,0,2-2v-8Zm-24-12h4v20h-4Z" transform="translate(-261.0805 -10.6888)"/><path class="cls-1" d="M331.128,182.1705l4.257-4.2568L333.971,176.5l-4.2571,4.2568-.793-.7929a.9994.9994,0,0,0-1.4134-.0007l-.0006.0007-4,4a.9992.9992,0,0,0-.0006,1.4133l.0006.0007,3,3a1,1,0,0,0,1.4135,0l.0005,0,4-4a.9994.9994,0,0,0,.0006-1.4134l-.0006-.0006Zm-3.9141,4.0859-1.5859-1.5859,2.5859-2.5859,1.5859,1.5859Z" transform="translate(-261.0805 -10.6888)"/><path class="cls-1" d="M346.2139,187.6705a6.0067,6.0067,0,0,1-6-6,5.8379,5.8379,0,0,1,.2109-1.5469l-8.664-8.6638a5.8512,5.8512,0,0,1-1.5469.2107,5.9757,5.9757,0,0,1-5.5772-8.1836l.5577-1.4219,3.3125,3.3125a1.0233,1.0233,0,0,0,1.4135,0,.999.999,0,0,0,.0013-1.4128l-.0013-.0013-3.3129-3.3139,1.4233-.5571a5.9772,5.9772,0,0,1,8.1831,5.5781,5.8431,5.8431,0,0,1-.2109,1.5469l8.664,8.6635a5.8509,5.8509,0,0,1,1.5469-.21,5.9755,5.9755,0,0,1,5.5771,8.1836l-.5571,1.4219-3.313-3.3125a1.0233,1.0233,0,0,0-1.4135,0,.9991.9991,0,0,0-.0018,1.4128l.0013.0013,3.3125,3.3129-1.4219.5579A5.9622,5.9622,0,0,1,346.2139,187.6705Zm-13.9375-18.5237,10.4609,10.4612-.2392.6094a3.9754,3.9754,0,0,0,3.4658,5.4453l-.8711-.8711a2.9992,2.9992,0,0,1-.0009-4.2415l.0009-.0009a3.0721,3.0721,0,0,1,4.2427,0l.8706.8708a3.9757,3.9757,0,0,0-5.4458-3.4658l-.6094.2385-10.46-10.46.2392-.6094a3.9755,3.9755,0,0,0-3.4657-5.4455l.8706.8711a2.9992,2.9992,0,0,1,.0009,4.2415l-.0009.0009a3.0721,3.0721,0,0,1-4.2427,0l-.8706-.8708a3.975,3.975,0,0,0,5.4453,3.4656Z" transform="translate(-261.0805 -10.6888)"/><path class="cls-1" d="M351.3365,160.5205a3.0716,3.0716,0,0,0-4.2422,0l-7.48,7.48,1.4141,1.414,7.48-7.48a1.0244,1.0244,0,0,1,1.4141,0,1.002,1.002,0,0,1,0,1.4145l-7.48,7.48,1.414,1.4141,7.48-7.48A3.003,3.003,0,0,0,351.3365,160.5205Z" transform="translate(-261.0805 -10.6888)"/></g><g id="Text"><text class="cls-25" transform="translate(662.3511 99.8493)">Production infrastructure - workload VPC</text><text class="cls-25" transform="translate(703.753 166.5331)">CD pipeline</text><text class="cls-25" transform="translate(703.7535 226.5356)">Virtual Private Cloud</text><text class="cls-25" transform="translate(703.7535 286.8651)">Red Hat OpenShift </text><text class="cls-25" transform="translate(703.7535 409.0972)">Cloud Internet Services</text><text class="cls-25" transform="translate(703.754 469.0821)">Cloud Object Storage</text><text class="cls-25" transform="translate(703.7535 529.47)">Observability</text><text class="cls-25" transform="translate(703.7544 347.3824)">Databases</text><text class="cls-25" transform="translate(117.231 323.6525)">App-1 resource group</text><text class="cls-25" transform="translate(158.3858 390.2604)">CI pipeline</text><text class="cls-25" transform="translate(158.0313 450.2023)">Git repo</text><text class="cls-25" transform="translate(158.0313 510.4734)">Container Registry</text><text class="cls-25" transform="translate(158.0372 571.2632)">Evidence / Inv repo</text><text class="cls-26" transform="translate(56.4041 31.4706)">Infrastructure as code dev tools account</text><text class="cls-25" transform="translate(109.3577 166.0128)">Infrastructure as code development - 1 project</text><text class="cls-25" transform="translate(82.4371 228.7987)">Toolchain configuration</text><text class="cls-25" transform="translate(275.3643 228.7987)">Test configuration</text><text class="cls-25" transform="translate(84.1434 94.4674)">Dev catalog</text><text class="cls-25" transform="translate(315.1329 94.1769)">Test catalog</text><text class="cls-26" transform="translate(630.8702 31.4706)">Infrastructure as code test accounts</text><text class="cls-27" transform="translate(141.0755 708.0314)">Infrastructure as code-1 dev <tspan x="0" y="18">access group</tspan></text><text class="cls-27" transform="translate(688.7037 629.3507)">Infrastructure as code-1 trusted profile</text><text class="cls-27" transform="translate(687.6578 699.7628)">Infrastructure as code-1 access <tspan x="0" y="18">group</tspan></text><rect class="cls-1" x="104.9988" y="604.7487" width="255.5025" height="47.8525"/><polyline class="cls-10" points="105.003 606.773 105.004 604.773 107.004 604.773"/><line class="cls-19" x1="110.9958" y1="604.772" x2="356.5101" y2="604.725"/><polyline class="cls-10" points="358.506 604.725 360.506 604.724 360.506 606.724"/><line class="cls-12" x1="360.505" y1="610.7108" x2="360.4972" y2="648.5835"/><polyline class="cls-10" points="360.497 650.577 360.496 652.577 358.496 652.577"/><line class="cls-19" x1="354.5043" y1="652.5779" x2="108.99" y2="652.6249"/><polyline class="cls-10" points="106.994 652.625 104.994 652.626 104.994 650.626"/><line class="cls-12" x1="104.9952" y1="646.6391" x2="105.0029" y2="608.7664"/><rect class="cls-13" x="104.6925" y="604.6749" width="48" height="48"/><line class="cls-24" x1="338.657" y1="634.6284" x2="158.3928" y2="634.6284"/><text class="cls-25" transform="translate(161.2789 633.0815)">Schematics</text><g id="schematics"><path class="cls-28" d="M402.26,641.6369a4.0055,4.0055,0,0,0-4.0009-4.001h-13.998a2.0033,2.0033,0,0,1-2.0011-2.0009v-3.1411a3.995,3.995,0,0,0,2.8581-2.858h12.284a4,4,0,1,0,0-2h-12.284a3.9916,3.9916,0,1,0-4.8581,4.858v3.1411a4.0058,4.0058,0,0,0,4.0011,4.0009h13.998a2.0029,2.0029,0,0,1,2.0009,2.001v2.999h-3v3H385.1178a4,4,0,1,0,0,2H397.26v3h8v-8h-3Zm-1-15.001a2,2,0,1,1-2,2A2,2,0,0,1,401.26,626.6359Zm-22,2a2,2,0,1,1,2,2A2,2,0,0,1,379.26,628.6359Zm2,22a2,2,0,1,1,2-2A2,2,0,0,1,381.26,650.6359Zm22-4v4h-4v-4Z" transform="translate(-261.0805 -10.6888)"/><rect id="_Transparent_Rectangle_2" data-name=" Transparent Rectangle " class="cls-24" x="114.1792" y="611.947" width="32" height="32"/></g></g></svg>