<svg xmlns="http://www.w3.org/2000/svg" xmlns:xlink="http://www.w3.org/1999/xlink" viewBox="0 0 1071.76 412.3"><defs><style>.cls-1,.cls-14,.cls-7{fill:#fff;}.cls-2{fill:url(#linear-gradient);}.cls-16,.cls-22,.cls-26,.cls-3{fill:#010101;}.cls-4{fill:url(#linear-gradient-2);}.cls-12,.cls-5{fill:#eef4fb;}.cls-5{stroke:#eef5fb;}.cls-10,.cls-11,.cls-12,.cls-14,.cls-15,.cls-5,.cls-7,.cls-8,.cls-9{stroke-miterlimit:10;}.cls-6,.cls-8{fill:#3553a4;}.cls-10,.cls-11,.cls-12,.cls-14,.cls-15,.cls-7,.cls-8,.cls-9{stroke:#3553a4;}.cls-10,.cls-11,.cls-15,.cls-9{fill:none;}.cls-10{stroke-dasharray:4 4;}.cls-11{stroke-dasharray:3.99 3.99;}.cls-13{mask:url(#mask);}.cls-14,.cls-15{fill-rule:evenodd;}.cls-16,.cls-26{font-size:14px;}.cls-16{font-family:IBMPlexSans-BoldItalic, IBM Plex Sans;font-weight:700;font-style:italic;}.cls-17{letter-spacing:-0.01em;}.cls-18{letter-spacing:-0.01em;}.cls-19{letter-spacing:0em;}.cls-20{letter-spacing:-0.01em;}.cls-21{letter-spacing:-0.01em;}.cls-22{font-size:16px;}.cls-22,.cls-26{font-family:IBMPlexSans-SemiBold, IBM Plex Sans;font-weight:600;}.cls-23{letter-spacing:-0.01em;}.cls-24{letter-spacing:0em;}.cls-25{letter-spacing:-0.01em;}.cls-27{letter-spacing:-0.01em;}.cls-28{letter-spacing:-0.01em;}.cls-29{letter-spacing:-0.01em;}.cls-30{letter-spacing:0.01em;}.cls-31{letter-spacing:0em;}.cls-32{letter-spacing:0em;}.cls-33{letter-spacing:-0.01em;}.cls-34{letter-spacing:0em;}.cls-35{letter-spacing:0.01em;}.cls-36{letter-spacing:-0.01em;}</style><linearGradient id="linear-gradient" x1="341.05" y1="415.04" x2="341.05" y2="427.04" gradientTransform="matrix(1, 0, 0, -1, 0, 664.11)" gradientUnits="userSpaceOnUse"><stop offset="0.2" stop-color="#010101"/><stop offset="1" stop-color="#010101" stop-opacity="0"/></linearGradient><linearGradient id="linear-gradient-2" x1="-360.31" y1="6747.35" x2="-360.31" y2="6759.35" gradientTransform="matrix(-1, 0, 0, 1, 6, -6506.89)" xlink:href="#linear-gradient"/><mask id="mask" x="81.95" y="222.82" width="32" height="32" maskUnits="userSpaceOnUse"><g transform="translate(-255.8 -5.63)"><g id="ohuov6a3zc"><path class="cls-1" d="M340.4,251.36a14.8,14.8,0,0,1-1.67-6.9,15,15,0,0,1,15-15v2a13,13,0,0,0-11.53,19l-1.78.92Zm13.35,8.1v-2A13,13,0,0,0,366,240l1.88-.68a15,15,0,0,1-14.08,20.12Z"/><path class="cls-2" d="M338.05,237.07h6v12h-6Z"/><path class="cls-3" d="M338.05,248.75h6v3.09h-6Z"/><path class="cls-4" d="M369.31,252.46h-6v-12h6Z"/><path class="cls-3" d="M363.31,237.67h6v3.08h-6Z"/></g></g></mask></defs><g id="Background"><rect class="cls-5" x="0.51" y="0.5" width="1070.74" height="411.3"/><rect class="cls-6" y="0.5" width="48" height="48"/><polygon class="cls-7" points="31.14 145.7 1049.52 147.2 1051.8 399.84 31.14 399.84 31.14 145.7"/><rect class="cls-6" x="31.14" y="145.7" width="48" height="48"/><rect class="cls-8" x="0.51" y="48.5" width="3" height="363.3"/><path class="cls-1" d="M272.56,27.67h11v2h-11Zm0,5.09h13v2h-13Z" transform="translate(-255.8 -5.63)"/><path class="cls-1" d="M292.51,17.5H268.58a2,2,0,0,0-2,2V39.89a2,2,0,0,0,2,2h23.93a2,2,0,0,0,2-2V19.53A2,2,0,0,0,292.51,17.5Zm0,2v2H268.58v-2ZM268.58,39.89V23.6h23.93V39.89Z" transform="translate(-255.8 -5.63)"/><polygon class="cls-1" points="74.36 214.83 378.64 214.63 378.61 262.48 74.32 262.68 74.36 214.83"/><polyline class="cls-9" points="74.35 216.83 74.36 214.83 76.36 214.82"/><line class="cls-10" x1="80.36" y1="214.82" x2="374.64" y2="214.63"/><polyline class="cls-9" points="376.64 214.63 378.64 214.63 378.64 216.63"/><line class="cls-11" x1="378.64" y1="220.62" x2="378.61" y2="258.49"/><polyline class="cls-9" points="378.61 260.48 378.61 262.48 376.61 262.49"/><line class="cls-10" x1="372.6" y1="262.49" x2="78.32" y2="262.68"/><polyline class="cls-9" points="76.32 262.68 74.32 262.68 74.32 260.68"/><line class="cls-11" x1="74.32" y1="256.69" x2="74.35" y2="218.82"/><rect class="cls-12" x="74.3" y="214.82" width="48" height="48"/><polygon class="cls-1" points="74 274.83 378.29 274.63 378.25 322.49 73.96 322.68 74 274.83"/><polyline class="cls-9" points="74 276.83 74 274.83 76 274.83"/><line class="cls-10" x1="80" y1="274.83" x2="374.29" y2="274.64"/><polyline class="cls-9" points="376.29 274.63 378.29 274.63 378.29 276.63"/><line class="cls-11" x1="378.29" y1="280.62" x2="378.25" y2="318.49"/><polyline class="cls-9" points="378.25 320.49 378.25 322.49 376.25 322.49"/><line class="cls-10" x1="372.25" y1="322.49" x2="77.96" y2="322.68"/><polyline class="cls-9" points="75.96 322.68 73.96 322.68 73.96 320.68"/><line class="cls-11" x1="73.97" y1="316.69" x2="74" y2="278.82"/><rect class="cls-12" x="73.95" y="274.82" width="48" height="48"/><polygon class="cls-1" points="74 335.16 378.29 334.96 378.25 382.81 73.96 383.01 74 335.16"/><polyline class="cls-9" points="74 337.16 74 335.16 76 335.16"/><line class="cls-10" x1="80" y1="335.15" x2="374.29" y2="334.97"/><polyline class="cls-9" points="376.29 334.96 378.29 334.96 378.29 336.96"/><line class="cls-11" x1="378.29" y1="340.95" x2="378.25" y2="378.82"/><polyline class="cls-9" points="378.25 380.81 378.25 382.81 376.25 382.82"/><line class="cls-10" x1="372.25" y1="382.82" x2="77.96" y2="383.01"/><polyline class="cls-9" points="75.96 383.01 73.96 383.01 73.96 381.01"/><line class="cls-11" x1="73.97" y1="377.02" x2="74" y2="339.15"/><rect class="cls-12" x="73.95" y="335.15" width="48" height="48"/><polygon class="cls-1" points="402.31 214.76 706.6 214.56 706.56 262.41 402.27 262.61 402.31 214.76"/><polyline class="cls-9" points="402.3 216.76 402.31 214.76 404.31 214.76"/><line class="cls-10" x1="408.31" y1="214.75" x2="702.59" y2="214.56"/><polyline class="cls-9" points="704.6 214.56 706.6 214.56 706.59 216.56"/><line class="cls-11" x1="706.59" y1="220.55" x2="706.56" y2="258.42"/><polyline class="cls-9" points="706.56 260.41 706.56 262.41 704.56 262.42"/><line class="cls-10" x1="700.55" y1="262.42" x2="406.27" y2="262.61"/><polyline class="cls-9" points="404.27 262.61 402.27 262.61 402.27 260.61"/><line class="cls-11" x1="402.27" y1="256.62" x2="402.3" y2="218.75"/><rect class="cls-12" x="402.25" y="214.75" width="48" height="48"/><polygon class="cls-1" points="401.95 274.76 706.24 274.56 706.2 322.42 401.91 322.61 401.95 274.76"/><polyline class="cls-9" points="401.95 276.76 401.95 274.76 403.95 274.76"/><line class="cls-10" x1="407.95" y1="274.76" x2="702.24" y2="274.57"/><polyline class="cls-9" points="704.24 274.56 706.24 274.56 706.24 276.56"/><line class="cls-11" x1="706.24" y1="280.55" x2="706.2" y2="318.42"/><polyline class="cls-9" points="706.2 320.42 706.2 322.42 704.2 322.42"/><line class="cls-10" x1="700.2" y1="322.42" x2="405.91" y2="322.61"/><polyline class="cls-9" points="403.91 322.61 401.91 322.61 401.91 320.61"/><line class="cls-11" x1="401.92" y1="316.63" x2="401.95" y2="278.75"/><rect class="cls-12" x="401.9" y="274.75" width="48" height="48"/><polygon class="cls-1" points="401.95 335.09 706.24 334.89 706.2 382.75 401.91 382.94 401.95 335.09"/><polyline class="cls-9" points="401.95 337.09 401.95 335.09 403.95 335.09"/><line class="cls-10" x1="407.95" y1="335.09" x2="702.24" y2="334.9"/><polyline class="cls-9" points="704.24 334.89 706.24 334.89 706.24 336.89"/><line class="cls-11" x1="706.24" y1="340.88" x2="706.2" y2="378.75"/><polyline class="cls-9" points="706.2 380.75 706.2 382.75 704.2 382.75"/><line class="cls-10" x1="700.2" y1="382.75" x2="405.91" y2="382.94"/><polyline class="cls-9" points="403.91 382.94 401.91 382.94 401.91 380.94"/><line class="cls-11" x1="401.92" y1="376.95" x2="401.95" y2="339.08"/><rect class="cls-12" x="401.9" y="335.08" width="48" height="48"/><polygon class="cls-1" points="730.27 214.92 1034.56 214.72 1034.52 262.58 730.23 262.77 730.27 214.92"/><polyline class="cls-9" points="730.26 216.92 730.27 214.92 732.27 214.92"/><line class="cls-10" x1="736.27" y1="214.92" x2="1030.55" y2="214.73"/><polyline class="cls-9" points="1032.56 214.73 1034.56 214.72 1034.56 216.72"/><line class="cls-11" x1="1034.55" y1="220.71" x2="1034.52" y2="258.58"/><polyline class="cls-9" points="1034.52 260.58 1034.52 262.58 1032.52 262.58"/><line class="cls-10" x1="1028.51" y1="262.58" x2="734.23" y2="262.77"/><polyline class="cls-9" points="732.23 262.77 730.23 262.77 730.23 260.77"/><line class="cls-11" x1="730.23" y1="256.79" x2="730.26" y2="218.91"/><rect class="cls-12" x="730.22" y="214.91" width="48" height="48"/><path class="cls-6" d="M357.75,306.32v-3a4,4,0,1,0-8,0v3a2,2,0,0,0-2,2v6a2,2,0,0,0,2,2h8a2,2,0,0,0,2-2v-6A2,2,0,0,0,357.75,306.32Zm-6-3a2,2,0,1,1,4,0v3h-4Zm-2,11v-6h8v6Z" transform="translate(-255.8 -5.63)"/><path class="cls-6" d="M363.58,296.43a10,10,0,0,0-19.66,0h0a7.5,7.5,0,0,0,1.32,14.89h.51v-2h-.5a5.5,5.5,0,0,1-1-10.92l1.35-.24.25-1.35a8,8,0,0,1,15.74,0l.25,1.35,1.35.24a5.5,5.5,0,0,1-1,10.92h-.51v2h.51a7.5,7.5,0,0,0,1.32-14.89Z" transform="translate(-255.8 -5.63)"/><path class="cls-6" d="M1018,231.55h-16a2,2,0,0,0-2,2v22a2,2,0,0,0,2,2h16a2,2,0,0,0,2-2v-22A2,2,0,0,0,1018,231.55Zm0,2v6h-16v-6Zm-16,14v-6h16v6Zm0,8v-6h16v6Z" transform="translate(-255.8 -5.63)"/><circle class="cls-6" cx="749.22" cy="230.91" r="1"/><circle class="cls-6" cx="749.22" cy="238.91" r="1"/><circle class="cls-6" cx="749.22" cy="246.91" r="1"/><path class="cls-6" d="M693.05,308.22h-2v2h2v6h-24v-6h10v-2h-10a2,2,0,0,0-2,2v6a2,2,0,0,0,2,2h24a2,2,0,0,0,2-2v-6A2,2,0,0,0,693.05,308.22Z" transform="translate(-255.8 -5.63)"/><circle class="cls-6" cx="416.25" cy="307.59" r="1"/><path class="cls-6" d="M695.05,296.22h-8v6h-6v8h8v-6h6Zm-8,12h-4v-4h4Zm6-6h-4v-4h4Z" transform="translate(-255.8 -5.63)"/><path class="cls-6" d="M683.05,298.22h-8v-8h8Zm-6-2h4v-4h-4Z" transform="translate(-255.8 -5.63)"/><path class="cls-6" d="M693.2,250.29a3.16,3.16,0,0,0-1.9.7l-5.2-3.1c0-.2.1-.4.1-.6a1.27,1.27,0,0,0-.1-.6l5.2-3.1a3.16,3.16,0,0,0,1.9.7,3,3,0,1,0-3-3,1.27,1.27,0,0,0,.1.6l-5.2,3.1a3.16,3.16,0,0,0-1.9-.7,3,3,0,0,0,0,6,3.16,3.16,0,0,0,1.9-.7l5.2,3.1c0,.2-.1.4-.1.6a3,3,0,1,0,3-3Zm0-10a1,1,0,1,1-1,1A.94.94,0,0,1,693.2,240.29Zm-10,8a1,1,0,1,1,1-1A.94.94,0,0,1,683.2,248.29Zm10,6a1,1,0,1,1,1-1A.94.94,0,0,1,693.2,254.29Z" transform="translate(-255.8 -5.63)"/><path class="cls-6" d="M685.2,253.29H674.7a5.55,5.55,0,0,1-5.5-5.5,5.47,5.47,0,0,1,4.5-5.4l1.3-.2.3-1.3a8.11,8.11,0,0,1,7.9-6.6,7.57,7.57,0,0,1,1.5.1,8.55,8.55,0,0,1,4.2,2.2l1.4-1.4a9.37,9.37,0,0,0-5.2-2.7,12.25,12.25,0,0,0-1.9-.2,10,10,0,0,0-9.8,8.1,7.59,7.59,0,0,0-6.2,7.4,7.49,7.49,0,0,0,7.5,7.5h10.5Z" transform="translate(-255.8 -5.63)"/><path class="cls-6" d="M693.05,364.29v6h-24v-16h7v-2h-7a2,2,0,0,0-2,2v16a2,2,0,0,0,2,2h8v4h-4v2h16v-2h-4v-4h8a2,2,0,0,0,2-2v-6Zm-10,12h-4v-4h4Z" transform="translate(-255.8 -5.63)"/><path class="cls-6" d="M683.05,366.29h0a1,1,0,0,1-.95-.73l-1.79-6.27h-4.25v-2h5a1,1,0,0,1,1,.72l1.07,3.76,3-9.78a1,1,0,0,1,.95-.7,1,1,0,0,1,1,.68l1.77,5.32h5.28v2h-6a1,1,0,0,1-.94-.69l-1-3-3.08,10A1,1,0,0,1,683.05,366.29Z" transform="translate(-255.8 -5.63)"/><g class="cls-13"><path class="cls-6" d="M337.75,228.45h32v32h-32Z" transform="translate(-255.8 -5.63)"/></g><path class="cls-6" d="M356.46,247.45H351a1.27,1.27,0,0,1-1.27-1.27v-5.46a1.27,1.27,0,0,1,1.27-1.27h5.46a1.27,1.27,0,0,1,1.27,1.27v5.46A1.27,1.27,0,0,1,356.46,247.45Zm-4.73-2h4v-4h-4Z" transform="translate(-255.8 -5.63)"/><path class="cls-6" d="M366.44,235.22l-4.71-4.7v-.07h-.06l-.94-.93-.93.93h-.07v.07L355,235.27l1.41,1.41,3.34-3.33v16.11h-12v-11h-2v11.37a1.65,1.65,0,0,0,1.64,1.64h12.72a1.65,1.65,0,0,0,1.64-1.64V233.34l3.29,3.3Z" transform="translate(-255.8 -5.63)"/><path class="cls-6" d="M364.25,365.08a12,12,0,0,0-1.18-4.31l3.72-1.35a12.64,12.64,0,0,0-1-1.74l-1.74.63a12,12,0,0,0-21.71,7.92l1.74-.65a13.33,13.33,0,0,0,.33,2l-3.71,1.35a12.25,12.25,0,0,0,1.87,4.07l2-.72h0a12,12,0,0,0,21.7-7.9Zm-2.92,3.5a7.8,7.8,0,0,1-12.63,2.16l-2,.72a7.7,7.7,0,0,1-2.07-4h0l3.72-1.35a8,8,0,0,1-.12-2.07l-1.75.64a7.76,7.76,0,0,1,8.32-7.18,7.62,7.62,0,0,1,2.73.72h0a7.65,7.65,0,0,1,2.26,1.61l1.75-.63a8,8,0,0,1,1.23,1.65l-3.71,1.36a7.9,7.9,0,0,1,1,4.39l2-.72a7.87,7.87,0,0,1-.7,2.69Z" transform="translate(-255.8 -5.63)"/><rect class="cls-1" x="55.14" y="180.7" width="12" height="2"/><rect class="cls-1" x="55.14" y="175.7" width="12" height="2"/><rect class="cls-1" x="55.14" y="170.7" width="12" height="2"/><path class="cls-1" d="M306.94,185.34h-4.5a7.5,7.5,0,0,1-1.33-14.88,10,10,0,0,1,19.83,1.88h-2a8,8,0,0,0-15.95-.87l-.09.83-.84.06a5.5,5.5,0,0,0,.38,11h4.5Z" transform="translate(-255.8 -5.63)"/><polyline class="cls-14" points="737.39 64.47 1046.8 64.47 1046.8 116.38"/><polygon class="cls-7" points="732.97 72.96 1038.2 73.25 1038.88 120.96 732.97 120.96 732.97 72.96"/><polyline class="cls-15" points="734.47 68.47 1042.8 68.47 1042.8 118.72"/><rect class="cls-7" x="732.56" y="72.96" width="48" height="48"/><path class="cls-6" d="M1003.2,105.6h-2v-2a3,3,0,0,1,3-3h5v2h-5a1,1,0,0,0-1,1Z" transform="translate(-255.8 -5.63)"/><path class="cls-6" d="M1007.2,99.6a4,4,0,1,1,4-4A4,4,0,0,1,1007.2,99.6Zm0-6a2,2,0,1,0,2,2A2,2,0,0,0,1007.2,93.6Z" transform="translate(-255.8 -5.63)"/><path class="cls-6" d="M1015.2,106.6a4,4,0,1,1,4-4A4,4,0,0,1,1015.2,106.6Zm0-6a2,2,0,1,0,2,2A2,2,0,0,0,1015.2,100.6Z" transform="translate(-255.8 -5.63)"/><path class="cls-6" d="M1021.2,112.6h-2v-2a1,1,0,0,0-1-1h-6a1,1,0,0,0-1,1v2h-2v-2a3,3,0,0,1,3-3h6a3,3,0,0,1,3,3Z" transform="translate(-255.8 -5.63)"/><path class="cls-6" d="M1003.2,116.6h-4a2,2,0,0,1-2-2v-24a2,2,0,0,1,2-2h4v2h-4v24h4Z" transform="translate(-255.8 -5.63)"/><path class="cls-6" d="M1023.2,116.6h-4v-2h4v-24h-4v-2h4a2,2,0,0,1,2,2v24A2,2,0,0,1,1023.2,116.6Z" transform="translate(-255.8 -5.63)"/><polygon class="cls-7" points="31.86 72.96 337.49 73.25 338.18 120.96 31.86 120.96 31.86 72.96"/><rect class="cls-7" x="31.45" y="72.96" width="48" height="48"/><rect class="cls-6" x="47.72" y="96.86" width="6.71" height="0.98"/><rect class="cls-6" x="47.72" y="93.91" width="6.71" height="0.98"/><path class="cls-6" d="M308.18,111.79H298V93h24.51v9.38h2V93a2,2,0,0,0-2-1.88H298a2,2,0,0,0-2,1.88v18.76a2,2,0,0,0,2,1.87h10.21Z" transform="translate(-255.8 -5.63)"/><polygon class="cls-6" points="60.55 105.77 57.91 103.34 56.47 104.66 60.55 108.41 68.72 100.91 67.28 99.59 60.55 105.77"/><path class="cls-6" d="M306.87,109.37l-3.45-1.61a5.36,5.36,0,0,1-3.26-4.77V96.6a1.06,1.06,0,0,1,1.12-1h11.18a1.06,1.06,0,0,1,1.12,1V103a5.36,5.36,0,0,1-3.26,4.77ZM301.28,96.6V103a4.38,4.38,0,0,0,2.66,3.9l2.93,1.37,2.93-1.37a4.38,4.38,0,0,0,2.66-3.9V96.6Z" transform="translate(-255.8 -5.63)"/></g><g id="Text"><text class="cls-16" transform="translate(787.72 100.63)">App 1 - Ops a<tspan class="cls-17" x="85.8" y="0">cc</tspan><tspan x="99.44" y="0">e</tspan><tspan class="cls-18" x="106.65" y="0">s</tspan><tspan x="113.52" y="0">s g</tspan><tspan class="cls-19" x="131.28" y="0">r</tspan><tspan x="136.72" y="0">oup</tspan></text><text class="cls-16" transform="translate(86.61 100.63)">I<tspan class="cls-19" x="5.81" y="0">n</tspan><tspan x="13.97" y="0">f</tspan><tspan class="cls-19" x="18.91" y="0">r</tspan><tspan x="24.36" y="0">a</tspan><tspan class="cls-20" x="32.63" y="0">s</tspan><tspan x="39.42" y="0">tructu</tspan><tspan class="cls-19" x="78.06" y="0">r</tspan><tspan x="83.51" y="0">e - tru</tspan><tspan class="cls-20" x="121.48" y="0">s</tspan><tspan class="cls-17" x="128.27" y="0">t</tspan><tspan x="133.13" y="0">ed p</tspan><tspan class="cls-19" x="160.08" y="0">r</tspan><tspan class="cls-21" x="165.52" y="0">o</tspan><tspan x="173.01" y="0">file</tspan></text><polygon class="cls-7" points="382.55 72.96 687.97 73.25 688.66 120.96 382.55 120.96 382.55 72.96"/><text class="cls-16" transform="translate(437.3 100.7)">I<tspan class="cls-19" x="5.81" y="0">n</tspan><tspan x="13.97" y="0">f</tspan><tspan class="cls-19" x="18.91" y="0">r</tspan><tspan x="24.36" y="0">a</tspan><tspan class="cls-20" x="32.63" y="0">s</tspan><tspan x="39.42" y="0">tructu</tspan><tspan class="cls-19" x="78.06" y="0">r</tspan><tspan x="83.51" y="0">e - Ops a</tspan><tspan class="cls-17" x="139.29" y="0">cc</tspan><tspan x="152.92" y="0">e</tspan><tspan class="cls-18" x="160.13" y="0">s</tspan><tspan x="167.01" y="0">s g</tspan><tspan class="cls-19" x="184.76" y="0">r</tspan><tspan x="190.2" y="0">oup</tspan></text><rect class="cls-7" x="382.15" y="72.96" width="48" height="48"/><path class="cls-6" d="M652.78,105.6h-2v-2a3,3,0,0,1,3-3h5v2h-5a1,1,0,0,0-1,1Z" transform="translate(-255.8 -5.63)"/><path class="cls-6" d="M656.78,99.6a4,4,0,1,1,4-4A4,4,0,0,1,656.78,99.6Zm0-6a2,2,0,1,0,2,2A2,2,0,0,0,656.78,93.6Z" transform="translate(-255.8 -5.63)"/><path class="cls-6" d="M664.78,106.6a4,4,0,1,1,4-4A4,4,0,0,1,664.78,106.6Zm0-6a2,2,0,1,0,2,2A2,2,0,0,0,664.78,100.6Z" transform="translate(-255.8 -5.63)"/><path class="cls-6" d="M670.78,112.6h-2v-2a1,1,0,0,0-1-1h-6a1,1,0,0,0-1,1v2h-2v-2a3,3,0,0,1,3-3h6a3,3,0,0,1,3,3Z" transform="translate(-255.8 -5.63)"/><path class="cls-6" d="M652.78,116.6h-4a2,2,0,0,1-2-2v-24a2,2,0,0,1,2-2h4v2h-4v24h4Z" transform="translate(-255.8 -5.63)"/><path class="cls-6" d="M672.78,116.6h-4v-2h4v-24h-4v-2h4a2,2,0,0,1,2,2v24A2,2,0,0,1,672.78,116.6Z" transform="translate(-255.8 -5.63)"/><text class="cls-22" transform="translate(56.4 32.91)"><tspan class="cls-23">P</tspan><tspan class="cls-24" x="10.1" y="0">r</tspan><tspan x="16.3" y="0">oduction </tspan><tspan class="cls-25" x="85.12" y="0">w</tspan><tspan x="98.08" y="0">orkload a</tspan><tspan class="cls-24" x="167.34" y="0">cc</tspan><tspan x="183.6" y="0">ount</tspan></text><text class="cls-26" transform="translate(86.56 176.62)"><tspan class="cls-23">P</tspan><tspan class="cls-19" x="8.83" y="0">r</tspan><tspan x="14.27" y="0">oduction inf</tspan><tspan class="cls-27" x="91.47" y="0">r</tspan><tspan x="96.82" y="0">a</tspan><tspan class="cls-28" x="104.65" y="0">s</tspan><tspan x="111.52" y="0">tructu</tspan><tspan class="cls-19" x="151.14" y="0">r</tspan><tspan x="156.57" y="0">e - </tspan><tspan class="cls-29" x="176.62" y="0">w</tspan><tspan x="187.96" y="0">orkload VPC</tspan></text><text class="cls-26" transform="translate(127.72 243.23)">Continuous Deli<tspan class="cls-28" x="102.51" y="0">v</tspan><tspan x="109.73" y="0">e</tspan><tspan class="cls-30" x="117.54" y="0">r</tspan><tspan x="123.16" y="0">y</tspan></text><text class="cls-26" transform="translate(127.36 303.23)">Vi<tspan class="cls-31" x="12.8" y="0">r</tspan><tspan x="18.35" y="0">tual </tspan><tspan class="cls-23" x="47.07" y="0">P</tspan><tspan x="55.9" y="0">ri</tspan><tspan class="cls-29" x="65.27" y="0">v</tspan><tspan class="cls-32" x="72.48" y="0">at</tspan><tspan x="85.43" y="0">e Cloud</tspan></text><text class="cls-26" transform="translate(127.36 363.56)"><tspan class="cls-33">R</tspan><tspan x="9.09" y="0">ed H</tspan><tspan class="cls-34" x="38.67" y="0">a</tspan><tspan x="46.44" y="0">t OpenShift </tspan></text><text class="cls-26" transform="translate(455.67 243.16)">Cloud In<tspan class="cls-34" x="55.07" y="0">t</tspan><tspan x="60.25" y="0">ernet Se</tspan><tspan class="cls-35" x="114.52" y="0">r</tspan><tspan x="120.13" y="0">vi</tspan><tspan class="cls-19" x="131.33" y="0">c</tspan><tspan x="138.44" y="0">es</tspan></text><text class="cls-26" transform="translate(455.31 303.16)">Cloud Object <tspan class="cls-34" x="86.69" y="0">St</tspan><tspan x="100.36" y="0">o</tspan><tspan class="cls-27" x="108.25" y="0">r</tspan><tspan x="113.59" y="0">a</tspan><tspan class="cls-18" x="121.42" y="0">g</tspan><tspan x="128.96" y="0">e</tspan></text><text class="cls-26" transform="translate(455.31 363.49)">Obse<tspan class="cls-30" x="33.17" y="0">r</tspan><tspan class="cls-36" x="38.78" y="0">v</tspan><tspan x="45.99" y="0">ability</tspan></text><text class="cls-26" transform="translate(783.63 243.32)">D<tspan class="cls-34" x="9.65" y="0">a</tspan><tspan x="17.42" y="0">tabases</tspan></text></g></svg>