<svg xmlns="http://www.w3.org/2000/svg" xmlns:xlink="http://www.w3.org/1999/xlink" width="1071.7566" height="412.3024" viewBox="0 0 1071.7566 412.3024"><defs><style>.cls-1,.cls-14,.cls-7{fill:#fff;}.cls-2{fill:url(#linear-gradient);}.cls-16,.cls-17,.cls-18,.cls-3{fill:#010101;}.cls-4{fill:url(#linear-gradient-2);}.cls-12,.cls-5{fill:#eef4fb;}.cls-5{stroke:#eef5fb;}.cls-10,.cls-11,.cls-12,.cls-14,.cls-15,.cls-5,.cls-7,.cls-8,.cls-9{stroke-miterlimit:10;}.cls-6,.cls-8{fill:#3553a4;}.cls-10,.cls-11,.cls-12,.cls-14,.cls-15,.cls-7,.cls-8,.cls-9{stroke:#3553a4;}.cls-10,.cls-11,.cls-15,.cls-9{fill:none;}.cls-10{stroke-dasharray:4.0039 4.0039;}.cls-11{stroke-dasharray:3.9866 3.9866;}.cls-13{mask:url(#mask);}.cls-14,.cls-15{fill-rule:evenodd;}.cls-16,.cls-18{font-size:14px;}.cls-16{font-family:IBMPlexSans-Italic, IBM Plex Sans;font-style:italic;}.cls-17{font-size:16px;font-family:IBMPlexSans-SemiBold, IBM Plex Sans;font-weight:600;}.cls-18{font-family:IBMPlexSans, IBM Plex Sans;}</style><linearGradient id="linear-gradient" x1="341.0494" y1="415.0404" x2="341.0494" y2="427.0404" gradientTransform="matrix(1, 0, 0, -1, 0, 664.1102)" gradientUnits="userSpaceOnUse"><stop offset="0.2" stop-color="#010101"/><stop offset="1" stop-color="#010101" stop-opacity="0"/></linearGradient><linearGradient id="linear-gradient-2" x1="-360.3134" y1="6747.3488" x2="-360.3134" y2="6759.3488" gradientTransform="matrix(-1, 0, 0, 1, 6, -6506.8891)" xlink:href="#linear-gradient"/><mask id="mask" x="81.9504" y="222.8188" width="32" height="32" maskUnits="userSpaceOnUse"><g transform="translate(-255.799 -5.6349)"><g id="ohuov6a3zc"><path class="cls-1" d="M340.4014,251.3577a14.8431,14.8431,0,0,1-1.672-6.9,15.02,15.02,0,0,1,14.978-15l.003,2a13.0168,13.0168,0,0,0-12.981,13,12.8664,12.8664,0,0,0,1.448,5.98l-1.775.92Zm13.349,8.1-.003-2a13.0032,13.0032,0,0,0,12.201-17.439l1.88-.682a15.0029,15.0029,0,0,1-14.079,20.121Z"/><path class="cls-2" d="M338.0494,237.07h6v12h-6Z"/><path class="cls-3" d="M338.0494,248.7507h6v3.085h-6Z"/><path class="cls-4" d="M369.3134,252.46h-6v-12h6Z"/><path class="cls-3" d="M363.3134,237.6687h6v3.085h-6Z"/></g></g></mask></defs><g id="Background"><rect class="cls-5" x="0.5119" y="0.5" width="1070.7447" height="411.3024"/><rect class="cls-6" y="0.5" width="48" height="48"/><polygon class="cls-7" points="31.138 145.702 1049.523 147.2 1051.803 399.837 31.138 399.837 31.138 145.702"/><rect class="cls-6" x="31.1376" y="145.702" width="48" height="48"/><rect class="cls-8" x="0.5119" y="48.5" width="3" height="363.3024"/><path class="cls-1" d="M272.5647,27.6748h10.971V29.71h-10.971Zm0,5.0889H285.53v2.0356H272.5647Z" transform="translate(-255.799 -5.6349)"/><path class="cls-1" d="M292.512,17.497H268.5753a2.0155,2.0155,0,0,0-1.9948,2.0356V39.8882a2.0155,2.0155,0,0,0,1.9948,2.0356H292.512a2.0155,2.0155,0,0,0,1.9947-2.0356V19.5326A2.0155,2.0155,0,0,0,292.512,17.497Zm0,2.0356v2.0356H268.5753V19.5326ZM268.5753,39.8882V23.6037H292.512V39.8882Z" transform="translate(-255.799 -5.6349)"/><polygon class="cls-1" points="74.355 214.827 378.645 214.631 378.606 262.484 74.316 262.679 74.355 214.827"/><polyline class="cls-9" points="74.353 216.827 74.355 214.827 76.355 214.825"/><line class="cls-10" x1="80.3589" y1="214.8229" x2="374.6432" y2="214.6336"/><polyline class="cls-9" points="376.645 214.632 378.645 214.631 378.643 216.631"/><line class="cls-11" x1="378.6403" y1="220.6176" x2="378.6093" y2="258.4902"/><polyline class="cls-9" points="378.608 260.484 378.606 262.484 376.606 262.485"/><line class="cls-10" x1="372.6021" y1="262.4874" x2="78.3178" y2="262.6767"/><polyline class="cls-9" points="76.316 262.678 74.316 262.679 74.317 260.679"/><line class="cls-11" x1="74.3208" y1="256.6927" x2="74.3517" y2="218.82"/><rect class="cls-12" x="74.3047" y="214.8188" width="48" height="48"/><polygon class="cls-1" points="74.001 274.829 378.291 274.633 378.252 322.486 73.962 322.682 74.001 274.829"/><polyline class="cls-9" points="73.999 276.829 74.001 274.829 76.001 274.828"/><line class="cls-10" x1="80.0046" y1="274.8252" x2="374.2889" y2="274.6359"/><polyline class="cls-9" points="376.291 274.635 378.291 274.633 378.289 276.633"/><line class="cls-11" x1="378.2859" y1="280.6199" x2="378.2549" y2="318.4925"/><polyline class="cls-9" points="378.253 320.486 378.252 322.486 376.252 322.487"/><line class="cls-10" x1="372.2479" y1="322.4897" x2="77.9635" y2="322.679"/><polyline class="cls-9" points="75.962 322.68 73.962 322.682 73.963 320.682"/><line class="cls-11" x1="73.9665" y1="316.695" x2="73.9974" y2="278.8223"/><rect class="cls-12" x="73.9504" y="274.8211" width="48" height="48"/><polygon class="cls-1" points="74.001 335.159 378.291 334.963 378.252 382.815 73.962 383.011 74.001 335.159"/><polyline class="cls-9" points="73.999 337.159 74.001 335.159 76.001 335.157"/><line class="cls-10" x1="80.0046" y1="335.1548" x2="374.2889" y2="334.9655"/><polyline class="cls-9" points="376.291 334.964 378.291 334.963 378.289 336.963"/><line class="cls-11" x1="378.2859" y1="340.9495" x2="378.2549" y2="378.8222"/><polyline class="cls-9" points="378.253 380.815 378.252 382.815 376.252 382.817"/><line class="cls-10" x1="372.2479" y1="382.8193" x2="77.9635" y2="383.0087"/><polyline class="cls-9" points="75.962 383.01 73.962 383.011 73.963 381.011"/><line class="cls-11" x1="73.9665" y1="377.0246" x2="73.9974" y2="339.152"/><rect class="cls-12" x="73.9504" y="335.1508" width="48" height="48"/><polygon class="cls-1" points="402.305 214.757 706.595 214.561 706.556 262.414 402.266 262.61 402.305 214.757"/><polyline class="cls-9" points="402.303 216.757 402.305 214.757 404.305 214.756"/><line class="cls-10" x1="408.3089" y1="214.7531" x2="702.5932" y2="214.5638"/><polyline class="cls-9" points="704.595 214.562 706.595 214.561 706.594 216.561"/><line class="cls-11" x1="706.5903" y1="220.5478" x2="706.5593" y2="258.4205"/><polyline class="cls-9" points="706.558 260.414 706.556 262.414 704.556 262.415"/><line class="cls-10" x1="700.5522" y1="262.4176" x2="406.2679" y2="262.6069"/><polyline class="cls-9" points="404.266 262.608 402.266 262.61 402.268 260.61"/><line class="cls-11" x1="402.2708" y1="256.6229" x2="402.3018" y2="218.7503"/><rect class="cls-12" x="402.2547" y="214.749" width="48" height="48"/><polygon class="cls-1" points="401.951 274.759 706.241 274.564 706.202 322.416 401.912 322.612 401.951 274.759"/><polyline class="cls-9" points="401.949 276.759 401.951 274.759 403.951 274.758"/><line class="cls-10" x1="407.9545" y1="274.7554" x2="702.2388" y2="274.5661"/><polyline class="cls-9" points="704.241 274.565 706.241 274.563 706.239 276.563"/><line class="cls-11" x1="706.2359" y1="280.5501" x2="706.2049" y2="318.4228"/><polyline class="cls-9" points="706.203 320.416 706.202 322.416 704.202 322.417"/><line class="cls-10" x1="700.1978" y1="322.4199" x2="405.9135" y2="322.6092"/><polyline class="cls-9" points="403.912 322.61 401.912 322.612 401.913 320.612"/><line class="cls-11" x1="401.9164" y1="316.6252" x2="401.9474" y2="278.7526"/><rect class="cls-12" x="401.9004" y="274.7513" width="48" height="48"/><polygon class="cls-1" points="401.951 335.089 706.241 334.893 706.202 382.746 401.912 382.941 401.951 335.089"/><polyline class="cls-9" points="401.949 337.089 401.951 335.089 403.951 335.088"/><line class="cls-10" x1="407.9545" y1="335.085" x2="702.2388" y2="334.8957"/><polyline class="cls-9" points="704.241 334.894 706.241 334.893 706.239 336.893"/><line class="cls-11" x1="706.2359" y1="340.8798" x2="706.2049" y2="378.7524"/><polyline class="cls-9" points="706.203 380.746 706.202 382.746 704.202 382.747"/><line class="cls-10" x1="700.1978" y1="382.7496" x2="405.9135" y2="382.9389"/><polyline class="cls-9" points="403.912 382.94 401.912 382.941 401.913 380.941"/><line class="cls-11" x1="401.9164" y1="376.9549" x2="401.9474" y2="339.0822"/><rect class="cls-12" x="401.9004" y="335.081" width="48" height="48"/><polygon class="cls-1" points="730.266 214.921 1034.556 214.725 1034.517 262.577 730.227 262.773 730.266 214.921"/><polyline class="cls-9" points="730.265 216.921 730.266 214.921 732.266 214.919"/><line class="cls-10" x1="736.2701" y1="214.9168" x2="1030.5544" y2="214.7275"/><polyline class="cls-9" points="1032.556 214.726 1034.556 214.725 1034.555 216.725"/><line class="cls-11" x1="1034.5514" y1="220.7115" x2="1034.5204" y2="258.5842"/><polyline class="cls-9" points="1034.519 260.577 1034.517 262.577 1032.517 262.579"/><line class="cls-10" x1="1028.5132" y1="262.5813" x2="734.2289" y2="262.7706"/><polyline class="cls-9" points="732.227 262.772 730.227 262.773 730.229 260.773"/><line class="cls-11" x1="730.232" y1="256.7866" x2="730.2629" y2="218.9139"/><rect class="cls-12" x="730.2159" y="214.9127" width="48" height="48"/><path class="cls-6" d="M357.7507,306.3159v-3a4,4,0,0,0-8,0v3a2.0025,2.0025,0,0,0-2,2v6a2.0025,2.0025,0,0,0,2,2h8a2.0025,2.0025,0,0,0,2-2v-6A2.0025,2.0025,0,0,0,357.7507,306.3159Zm-6-3a2,2,0,0,1,4,0v3h-4Zm-2,11v-6h8l.0012,6Z" transform="translate(-255.799 -5.6349)"/><path class="cls-6" d="M363.58,296.4311a10.0108,10.0108,0,0,0-19.6569-.01l-.0019.01a7.502,7.502,0,0,0,1.3212,14.8848h.5088v-2h-.5047a5.5019,5.5019,0,0,1-.9694-10.9165l1.3488-.2441.2591-1.3457a8.0109,8.0109,0,0,1,15.7312,0l.259,1.3457,1.3489.2441a5.5019,5.5019,0,0,1-.9653,10.9165h-.5076v2h.5076a7.502,7.502,0,0,0,1.3212-14.8848Z" transform="translate(-255.799 -5.6349)"/><path class="cls-6" d="M1018.0149,231.5476h-16a2,2,0,0,0-2,2v22a2,2,0,0,0,2,2h16a2,2,0,0,0,2-2v-22A2,2,0,0,0,1018.0149,231.5476Zm0,2v6h-16v-6Zm-16,14v-6h16v6Zm0,8v-6h16v6Z" transform="translate(-255.799 -5.6349)"/><circle class="cls-6" cx="749.2159" cy="230.9127" r="1"/><circle class="cls-6" cx="749.2159" cy="238.9127" r="1"/><circle class="cls-6" cx="749.2159" cy="246.9127" r="1"/><path class="cls-6" d="M693.0537,308.2226h-2v2h2v6h-24v-6h10v-2h-10a2.0023,2.0023,0,0,0-2,2v6a2.0024,2.0024,0,0,0,2,2h24a2.0023,2.0023,0,0,0,2-2v-6A2.0021,2.0021,0,0,0,693.0537,308.2226Z" transform="translate(-255.799 -5.6349)"/><circle class="cls-6" cx="416.2547" cy="307.5876" r="1"/><path class="cls-6" d="M695.0537,296.2226h-8v6h-6v8h8v-6h6Zm-8,12h-4v-4h4Zm6-6h-4v-4h4Z" transform="translate(-255.799 -5.6349)"/><path class="cls-6" d="M683.0537,298.2226h-8v-8h8Zm-6-2h4v-4h-4Z" transform="translate(-255.799 -5.6349)"/><path class="cls-6" d="M693.1994,250.29a3.1571,3.1571,0,0,0-1.9.7l-5.2-3.1c0-.2.1-.4.1-.6a1.2683,1.2683,0,0,0-.1-.6l5.2-3.1a3.1571,3.1571,0,0,0,1.9.7,3,3,0,1,0-3-3,1.2683,1.2683,0,0,0,.1.6l-5.2,3.1a3.1571,3.1571,0,0,0-1.9-.7,3,3,0,0,0,0,6,3.1571,3.1571,0,0,0,1.9-.7l5.2,3.1c0,.2-.1.4-.1.6a3,3,0,1,0,3-3Zm0-10a1,1,0,1,1-1,1A.9448.9448,0,0,1,693.1994,240.29Zm-10,8a1,1,0,1,1,1-1A.9448.9448,0,0,1,683.1994,248.29Zm10,6a1,1,0,1,1,1-1A.9448.9448,0,0,1,693.1994,254.29Z" transform="translate(-255.799 -5.6349)"/><path class="cls-6" d="M685.1994,253.29h-10.5a5.5488,5.5488,0,0,1-5.5-5.5,5.4745,5.4745,0,0,1,4.5-5.4l1.3-.2.3-1.3a8.1055,8.1055,0,0,1,7.9-6.6,7.5687,7.5687,0,0,1,1.5.1,8.5469,8.5469,0,0,1,4.2,2.2l1.4-1.4a9.37,9.37,0,0,0-5.2-2.7,12.2523,12.2523,0,0,0-1.9-.2,9.9507,9.9507,0,0,0-9.8,8.1,7.588,7.588,0,0,0-6.2,7.4,7.49,7.49,0,0,0,7.5,7.5h10.5Z" transform="translate(-255.799 -5.6349)"/><path class="cls-6" d="M693.0537,364.2857v6h-24v-16h7v-2h-7a2,2,0,0,0-2,2v16a2,2,0,0,0,2,2h8v4h-4v2h16v-2h-4v-4h8a2,2,0,0,0,2-2v-6Zm-10,12h-4v-4h4Z" transform="translate(-255.799 -5.6349)"/><path class="cls-6" d="M683.0537,366.2857h-.01a1,1,0,0,1-.9511-.7253l-1.7933-6.2747h-4.2456v-2h5a1,1,0,0,1,.9615.7252l1.0742,3.7589,3.0088-9.7783a1.0143,1.0143,0,0,1,.9555-.7058.98.98,0,0,1,.9487.6838l1.772,5.3162h5.2793v2h-6a1,1,0,0,1-.9487-.6838l-1.0132-3.04-3.0825,10.018A1,1,0,0,1,683.0537,366.2857Z" transform="translate(-255.799 -5.6349)"/><g class="cls-13"><path class="cls-6" d="M337.7494,228.4537h32v32h-32Z" transform="translate(-255.799 -5.6349)"/></g><path class="cls-6" d="M356.4574,247.4507h-5.455a1.274,1.274,0,0,1-1.273-1.272v-5.455a1.2744,1.2744,0,0,1,1.273-1.273h5.455a1.2735,1.2735,0,0,1,1.272,1.273v5.455A1.2733,1.2733,0,0,1,356.4574,247.4507Zm-4.728-2h4v-4h-4Z" transform="translate(-255.799 -5.6349)"/><path class="cls-6" d="M366.4374,235.2237l-4.708-4.708v-.064h-.064l-.935-.935-.935.935h-.066v.066l-4.752,4.752,1.414,1.414,3.338-3.338v16.11h-12v-11.002h-2v11.362a1.6422,1.6422,0,0,0,1.64,1.64h12.72a1.6422,1.6422,0,0,0,1.64-1.64v-16.472l3.294,3.294Z" transform="translate(-255.799 -5.6349)"/><path class="cls-6" d="M364.2487,365.0823a12.1331,12.1331,0,0,0-1.1791-4.3168l3.7179-1.35a11.9825,11.9825,0,0,0-1.0281-1.7382l-1.7431.635a11.9884,11.9884,0,0,0-21.71,7.9129l1.7477-.6412a12.1987,12.1987,0,0,0,.3309,1.9846l-3.7136,1.3553a12.1451,12.1451,0,0,0,1.8727,4.0616l1.9663-.7163.0026.0039a11.8861,11.8861,0,0,0,4.67,3.8909,12.013,12.013,0,0,0,15.9446-5.8042,11.8716,11.8716,0,0,0,1.08-5.992Zm-2.92,3.4967a7.8,7.8,0,0,1-10.3533,3.7744,7.7207,7.7207,0,0,1-2.2714-1.6128l-1.9846.7235a7.8406,7.8406,0,0,1-2.0742-3.9895l.0009-.0008,3.7242-1.3566a7.818,7.818,0,0,1-.1232-2.0653l-1.7517.6362a7.773,7.773,0,0,1,11.0566-6.4626h.0067a7.7424,7.7424,0,0,1,2.2646,1.615l1.7442-.634a7.798,7.798,0,0,1,1.229,1.6558l-3.71,1.3595a7.8236,7.8236,0,0,1,.9766,4.3882l1.9685-.7151a7.6688,7.6688,0,0,1-.703,2.6841Z" transform="translate(-255.799 -5.6349)"/><rect class="cls-1" x="55.1377" y="180.7012" width="12" height="2"/><rect class="cls-1" x="55.1377" y="175.7012" width="12" height="2"/><rect class="cls-1" x="55.1377" y="170.7012" width="12" height="2"/><path class="cls-1" d="M306.9367,185.3361h-4.5a7.4964,7.4964,0,0,1-1.3218-14.876,10,10,0,0,1,19.8218,1.876h-2a7.999,7.999,0,0,0-15.9507-.87l-.09.8335-.8363.0565a5.4962,5.4962,0,0,0,.377,10.98h4.5Z" transform="translate(-255.799 -5.6349)"/><polyline class="cls-14" points="737.388 64.469 1046.797 64.469 1046.797 116.384"/><polygon class="cls-7" points="732.965 72.964 1038.199 73.247 1038.883 120.964 732.965 120.964 732.965 72.964"/><polyline class="cls-15" points="734.465 68.469 1042.797 68.469 1042.797 118.715"/><rect class="cls-7" x="732.5591" y="72.9645" width="48" height="48"/><path class="cls-6" d="M1003.1979,105.5994h-2v-2a3.0033,3.0033,0,0,1,3-3h5v2h-5a1.001,1.001,0,0,0-1,1Z" transform="translate(-255.799 -5.6349)"/><path class="cls-6" d="M1007.1979,99.5994a4,4,0,1,1,4-4A4,4,0,0,1,1007.1979,99.5994Zm0-6a2,2,0,1,0,2,2A2,2,0,0,0,1007.1979,93.5994Z" transform="translate(-255.799 -5.6349)"/><path class="cls-6" d="M1015.1979,106.5994a4,4,0,1,1,4-4A4,4,0,0,1,1015.1979,106.5994Zm0-6a2,2,0,1,0,2,2A2,2,0,0,0,1015.1979,100.5994Z" transform="translate(-255.799 -5.6349)"/><path class="cls-6" d="M1021.1979,112.5994h-2v-2a1.0011,1.0011,0,0,0-1-1h-6a1.001,1.001,0,0,0-1,1v2h-2v-2a3.0033,3.0033,0,0,1,3-3h6a3.0033,3.0033,0,0,1,3,3Z" transform="translate(-255.799 -5.6349)"/><path class="cls-6" d="M1003.1979,116.5994h-4a2.0021,2.0021,0,0,1-2-2v-24a2.002,2.002,0,0,1,2-2h4v2h-4v24h4Z" transform="translate(-255.799 -5.6349)"/><path class="cls-6" d="M1023.1979,116.5994h-4v-2h4v-24h-4v-2h4a2.0021,2.0021,0,0,1,2,2v24A2.0021,2.0021,0,0,1,1023.1979,116.5994Z" transform="translate(-255.799 -5.6349)"/><polygon class="cls-7" points="31.855 72.964 337.494 73.247 338.179 120.964 31.855 120.964 31.855 72.964"/><rect class="cls-7" x="31.4486" y="72.9645" width="48" height="48"/><rect class="cls-6" x="47.7156" y="96.8613" width="6.7107" height="0.9827"/><rect class="cls-6" x="47.7156" y="93.9132" width="6.7107" height="0.9827"/><path class="cls-6" d="M308.1829,111.7883H297.9706V93.0258h24.51v9.3812h2.0425V93.0258A1.9648,1.9648,0,0,0,322.48,91.15h-24.51a1.9647,1.9647,0,0,0-2.0425,1.8763v18.7625a1.9647,1.9647,0,0,0,2.0425,1.8763h10.2123Z" transform="translate(-255.799 -5.6349)"/><polygon class="cls-6" points="60.554 105.769 57.909 103.339 56.469 104.662 60.554 108.414 68.724 100.909 67.284 99.587 60.554 105.769"/><path class="cls-6" d="M306.87,109.375l-3.4536-1.618a5.3463,5.3463,0,0,1-3.2571-4.77V96.6a1.0584,1.0584,0,0,1,1.1185-.9827h11.1844a1.0584,1.0584,0,0,1,1.1185.9827v6.3874a5.3463,5.3463,0,0,1-3.2571,4.7694ZM301.2778,96.6v6.3874a4.3743,4.3743,0,0,0,2.665,3.9024l2.9272,1.3713,2.9272-1.3713a4.3743,4.3743,0,0,0,2.665-3.9024V96.6Z" transform="translate(-255.799 -5.6349)"/></g><g id="Text"><text class="cls-16" transform="translate(787.7156 100.6253)">App 1 - Ops access group</text><text class="cls-16" transform="translate(86.605 100.6253)">Infrastructure - trusted profile</text><polygon class="cls-7" points="382.552 72.964 687.972 73.247 688.656 120.964 382.552 120.964 382.552 72.964"/><text class="cls-16" transform="translate(437.3028 100.6976)">Infrastructure - Ops access group</text><rect class="cls-7" x="382.146" y="72.9645" width="48" height="48"/><path class="cls-6" d="M652.7848,105.5994h-2v-2a3.0033,3.0033,0,0,1,3-3h5v2h-5a1.0011,1.0011,0,0,0-1,1Z" transform="translate(-255.799 -5.6349)"/><path class="cls-6" d="M656.7848,99.5994a4,4,0,1,1,4-4A4,4,0,0,1,656.7848,99.5994Zm0-6a2,2,0,1,0,2,2A2,2,0,0,0,656.7848,93.5994Z" transform="translate(-255.799 -5.6349)"/><path class="cls-6" d="M664.7848,106.5994a4,4,0,1,1,4-4A4,4,0,0,1,664.7848,106.5994Zm0-6a2,2,0,1,0,2,2A2,2,0,0,0,664.7848,100.5994Z" transform="translate(-255.799 -5.6349)"/><path class="cls-6" d="M670.7848,112.5994h-2v-2a1.001,1.001,0,0,0-1-1h-6a1.0011,1.0011,0,0,0-1,1v2h-2v-2a3.0033,3.0033,0,0,1,3-3h6a3.0033,3.0033,0,0,1,3,3Z" transform="translate(-255.799 -5.6349)"/><path class="cls-6" d="M652.7848,116.5994h-4a2.0021,2.0021,0,0,1-2-2v-24a2.0021,2.0021,0,0,1,2-2h4v2h-4v24h4Z" transform="translate(-255.799 -5.6349)"/><path class="cls-6" d="M672.7848,116.5994h-4v-2h4v-24h-4v-2h4a2.002,2.002,0,0,1,2,2v24A2.0021,2.0021,0,0,1,672.7848,116.5994Z" transform="translate(-255.799 -5.6349)"/><text class="cls-17" transform="translate(56.4034 32.9125)">Production workload account</text><text class="cls-18" transform="translate(86.5601 176.6234)">Production infrastructure - workload VPC</text><text class="cls-18" transform="translate(127.7151 243.2252)">Continuous Delivery</text><text class="cls-18" transform="translate(127.3606 303.2276)">Virtual Private Cloud</text><text class="cls-18" transform="translate(127.3606 363.5572)">Red Hat OpenShift </text><text class="cls-18" transform="translate(455.6653 243.1554)">Cloud Internet Services</text><text class="cls-18" transform="translate(455.3108 303.1578)">Cloud Object Storage</text><text class="cls-18" transform="translate(455.3108 363.4874)">Observability</text><text class="cls-18" transform="translate(783.6263 243.3192)">Databases</text></g></svg>