<svg xmlns="http://www.w3.org/2000/svg" width="460.05" height="348.54" viewBox="0 0 460.05 348.54"><defs><style>.cls-1{fill:#eef4fb;stroke:#eef5fb;}.cls-1,.cls-2,.cls-3,.cls-5,.cls-7,.cls-8{stroke-miterlimit:10;}.cls-2,.cls-3,.cls-6{fill:#fff;}.cls-2,.cls-3,.cls-5,.cls-8{stroke:#3553a4;}.cls-2,.cls-5{fill-rule:evenodd;}.cls-4,.cls-7,.cls-8{fill:#3553a4;}.cls-5{fill:none;}.cls-7{stroke:#4267b1;}.cls-9{font-size:16px;}.cls-10,.cls-11,.cls-9{fill:#010101;}.cls-11,.cls-9{font-family:IBMPlexSans-SemiBold, IBM Plex Sans;font-weight:600;}.cls-10,.cls-11{font-size:14px;}.cls-10{font-family:IBMPlexSans-BoldItalic, IBM Plex Sans;font-weight:700;font-style:italic;}</style></defs><g id="Background"><rect class="cls-1" x="0.51" y="0.5" width="459.04" height="347.54"/><polyline class="cls-2" points="32.16 273.65 431.96 273.65 431.96 325.57"/><rect class="cls-3" x="312.4" y="67.21" width="118.55" height="141.41"/><rect class="cls-3" x="170.17" y="67.21" width="118.55" height="141.41"/><rect class="cls-3" x="27.94" y="67.21" width="118.55" height="141.41"/><rect class="cls-4" y="0.5" width="48" height="48"/><polygon class="cls-3" points="27.74 281.65 422.55 281.94 423.43 329.65 27.74 329.65 27.74 281.65"/><polyline class="cls-5" points="29.24 277.65 427.88 277.65 427.88 327.9"/><rect class="cls-3" x="27.33" y="281.66" width="48" height="48"/><rect class="cls-6" x="16.16" y="17.08" width="1.65" height="3.31"/><rect class="cls-6" x="16.16" y="22.04" width="1.65" height="3.31"/><rect class="cls-6" x="21.12" y="17.08" width="1.65" height="3.31"/><rect class="cls-6" x="21.12" y="22.04" width="1.65" height="3.31"/><rect class="cls-6" x="16.16" y="27" width="1.65" height="3.31"/><rect class="cls-6" x="21.12" y="27" width="1.65" height="3.31"/><path class="cls-6" d="M597.07,27.23a1.65,1.65,0,0,0-1.66-1.65h-5V19a1.65,1.65,0,0,0-1.65-1.65H575.57A1.65,1.65,0,0,0,573.92,19v21.5h23.15ZM575.57,19H588.8V38.81H575.57Zm14.88,19.85V27.23h5V38.81Z" transform="translate(-562.72 -5.19)"/><rect class="cls-7" x="58.02" y="91.26" width="48" height="48"/><path id="_Path_" data-name="&lt;Path&gt;" class="cls-6" d="M659.31,122.45V128a3.93,3.93,0,0,1-2.3,3.5l-1.7.8-1.7-.8a3.83,3.83,0,0,1-2.3-3.5v-5.5h8m2-2h-12V128a5.92,5.92,0,0,0,3.4,5.3l2.6,1.2,2.6-1.2a5.81,5.81,0,0,0,3.4-5.3v-7.5Z" transform="translate(-562.72 -5.19)"/><path class="cls-6" d="M645.31,129.45h-8.5a7.51,7.51,0,0,1-1.3-14.9,10,10,0,0,1,19.8,1.9h-2a8,8,0,0,0-16-.9v.9h-.9a5.48,5.48,0,0,0-5.1,5.5,5.55,5.55,0,0,0,5.5,5.5h8.5Z" transform="translate(-562.72 -5.19)"/><rect class="cls-8" x="0.51" y="48.5" width="3" height="299.54"/><path class="cls-4" d="M604.89,313.85h-2v-2a3,3,0,0,1,3-3h5v2h-5a1,1,0,0,0-1,1Z" transform="translate(-562.72 -5.19)"/><path class="cls-4" d="M608.89,307.85a4,4,0,1,1,4-4A4,4,0,0,1,608.89,307.85Zm0-6a2,2,0,1,0,2,2A2,2,0,0,0,608.89,301.85Z" transform="translate(-562.72 -5.19)"/><path class="cls-4" d="M616.89,314.85a4,4,0,1,1,4-4A4,4,0,0,1,616.89,314.85Zm0-6a2,2,0,1,0,2,2A2,2,0,0,0,616.89,308.85Z" transform="translate(-562.72 -5.19)"/><path class="cls-4" d="M622.89,320.85h-2v-2a1,1,0,0,0-1-1h-6a1,1,0,0,0-1,1v2h-2v-2a3,3,0,0,1,3-3h6a3,3,0,0,1,3,3Z" transform="translate(-562.72 -5.19)"/><path class="cls-4" d="M604.89,324.85h-4a2,2,0,0,1-2-2v-24a2,2,0,0,1,2-2h4v2h-4v24h4Z" transform="translate(-562.72 -5.19)"/><path class="cls-4" d="M624.89,324.85h-4v-2h4v-24h-4v-2h4a2,2,0,0,1,2,2v24A2,2,0,0,1,624.89,324.85Z" transform="translate(-562.72 -5.19)"/><polygon class="cls-3" points="27.94 218.81 431.06 219.09 431.96 266.81 27.94 266.81 27.94 218.81"/><rect class="cls-3" x="27.53" y="218.81" width="48" height="48"/><path class="cls-4" d="M611.18,258.25H601V239.49h24.51v9.38h2v-9.38a2,2,0,0,0-2-1.88H601a2,2,0,0,0-2,1.88v18.76a2,2,0,0,0,2,1.88h10.21Z" transform="translate(-562.72 -5.19)"/><polygon class="cls-4" points="56.64 252.68 53.99 250.25 52.55 251.57 56.64 255.32 64.81 247.82 63.37 246.5 56.64 252.68"/><rect class="cls-4" x="43.8" y="243.77" width="6.71" height="0.98"/><rect class="cls-4" x="43.8" y="240.82" width="6.71" height="0.98"/><path class="cls-4" d="M609.87,255.84l-3.45-1.62a5.35,5.35,0,0,1-3.26-4.77v-6.38a1.06,1.06,0,0,1,1.12-1h11.18a1.06,1.06,0,0,1,1.12,1v6.38a5.35,5.35,0,0,1-3.25,4.77Zm-5.59-12.77v6.38a4.36,4.36,0,0,0,2.66,3.9l2.93,1.38,2.93-1.38a4.34,4.34,0,0,0,2.66-3.9v-6.38Z" transform="translate(-562.72 -5.19)"/><rect class="cls-7" x="206.7" y="91.26" width="48" height="48"/><rect class="cls-7" x="348.38" y="91.49" width="48" height="48"/><path class="cls-6" d="M805.91,124.45h-2v2h2v6h-24v-6h10v-2h-10a2,2,0,0,0-2,2v6a2,2,0,0,0,2,2h24a2,2,0,0,0,2-2v-6A2,2,0,0,0,805.91,124.45Z" transform="translate(-562.72 -5.19)"/><circle class="cls-6" cx="222.2" cy="124.26" r="1"/><path class="cls-6" d="M807.91,112.45h-8v6h-6v8h8v-6h6Zm-8,12h-4v-4h4Zm6-6h-4v-4h4Z" transform="translate(-562.72 -5.19)"/><path class="cls-6" d="M795.91,114.45h-8v-8h8Zm-6-2h4v-4h-4Z" transform="translate(-562.72 -5.19)"/><path class="cls-6" d="M945.1,123.68a3.16,3.16,0,0,0-1.9.7l-4.3-2.6a4.25,4.25,0,0,0,.2-1.1,3.59,3.59,0,0,0-.2-1.1l4.3-2.6a3.16,3.16,0,0,0,1.9.7,3,3,0,1,0-3-3,1.27,1.27,0,0,0,.1.6l-4.3,2.6a3.63,3.63,0,0,0-2.8-1.2,2.93,2.93,0,0,0-1.6.4l-3.8-4.8a4.19,4.19,0,0,0,.4-1.6,3,3,0,1,0-3,3,3.55,3.55,0,0,0,1-.2l3.8,4.8a6.11,6.11,0,0,0-.7,1.4h-4.3a2.91,2.91,0,0,0-2.8-2,3,3,0,0,0,0,6,2.91,2.91,0,0,0,2.8-2h4.3a3.69,3.69,0,0,0,.7,1.4l-3.8,4.8a3.55,3.55,0,0,0-1-.2,3,3,0,1,0,3,3,3,3,0,0,0-.5-1.6l3.8-4.8a4.71,4.71,0,0,0,1.6.4,3.63,3.63,0,0,0,2.8-1.2l4.3,2.6c0,.2-.1.4-.1.6a3,3,0,1,0,6,0A2.86,2.86,0,0,0,945.1,123.68Zm0-10a1,1,0,1,1-1,1A.94.94,0,0,1,945.1,113.68Zm-19-3a1,1,0,1,1,1,1A.94.94,0,0,1,926.1,110.68Zm-2,11a1,1,0,1,1,1-1A.94.94,0,0,1,924.1,121.68Zm3,10a1,1,0,1,1,1-1A.94.94,0,0,1,927.1,131.68Zm8-9a2,2,0,1,1,2-2A2,2,0,0,1,935.1,122.68Zm10,5a1,1,0,1,1,1-1A.94.94,0,0,1,945.1,127.68Z" transform="translate(-562.72 -5.19)"/></g><g id="Text"><text class="cls-9" transform="translate(56.4 32.91)">Enterprise root account</text><text class="cls-10" transform="translate(82.49 311.41)">Business unit access group</text><text class="cls-11" transform="translate(41.28 162.03)">Security and <tspan x="2.37" y="16">Compliance </tspan><tspan x="18.95" y="32">Center</tspan></text><text class="cls-10" transform="translate(82.69 248.49)">Trusted profile for centralized admin account</text><text class="cls-11" transform="translate(189.01 161.98)">Cloud Object <tspan x="16.47" y="16">Storage</tspan></text><text class="cls-11" transform="translate(353.88 161.98)">Event <tspan x="-22.99" y="16">Notifications</tspan></text></g></svg>