<svg xmlns="http://www.w3.org/2000/svg" width="460.0493" height="348.5439" viewBox="0 0 460.0493 348.5439"><defs><style>.cls-1{fill:#eef4fb;stroke:#eef5fb;}.cls-1,.cls-2,.cls-3,.cls-5,.cls-7,.cls-8{stroke-miterlimit:10;}.cls-2,.cls-3,.cls-6{fill:#fff;}.cls-2,.cls-3,.cls-5,.cls-8{stroke:#3553a4;}.cls-2,.cls-5{fill-rule:evenodd;}.cls-4,.cls-7,.cls-8{fill:#3553a4;}.cls-5{fill:none;}.cls-7{stroke:#4267b1;}.cls-9{font-size:16px;font-family:IBMPlexSans-SemiBold, IBM Plex Sans;font-weight:600;}.cls-10,.cls-11,.cls-9{fill:#010101;}.cls-10,.cls-11{font-size:14px;}.cls-10{font-family:IBMPlexSans-Italic, IBM Plex Sans;font-style:italic;}.cls-11{font-family:IBMPlexSans, IBM Plex Sans;}</style></defs><g id="Background"><rect class="cls-1" x="0.5119" y="0.5" width="459.0374" height="347.5439"/><polyline class="cls-2" points="32.159 273.655 431.962 273.655 431.962 325.57"/><rect class="cls-3" x="312.3966" y="67.2111" width="118.5456" height="141.4067"/><rect class="cls-3" x="170.1682" y="67.2111" width="118.5456" height="141.4067"/><rect class="cls-3" x="27.9399" y="67.2111" width="118.5456" height="141.4067"/><rect class="cls-4" y="0.5" width="48" height="48"/><polygon class="cls-3" points="27.737 281.655 422.549 281.938 423.433 329.655 27.737 329.655 27.737 281.655"/><polyline class="cls-5" points="29.237 277.655 427.881 277.655 427.881 327.901"/><rect class="cls-3" x="27.3303" y="281.6554" width="48" height="48"/><rect class="cls-6" x="16.1632" y="17.0799" width="1.6534" height="3.3067"/><rect class="cls-6" x="16.1632" y="22.0399" width="1.6534" height="3.3067"/><rect class="cls-6" x="21.1233" y="17.0799" width="1.6534" height="3.3067"/><rect class="cls-6" x="21.1233" y="22.0399" width="1.6534" height="3.3067"/><rect class="cls-6" x="16.1632" y="27" width="1.6534" height="3.3067"/><rect class="cls-6" x="21.1233" y="27" width="1.6534" height="3.3067"/><path class="cls-6" d="M597.0656,27.2317a1.6533,1.6533,0,0,0-1.6534-1.6533h-4.96V18.9649a1.6534,1.6534,0,0,0-1.6534-1.6533H575.572a1.6533,1.6533,0,0,0-1.6534,1.6533V40.4586h23.147ZM575.572,18.9649h13.2268v19.84H575.572Zm14.88,19.84V27.2317h4.96V38.8052Z" transform="translate(-562.7155 -5.1918)"/><rect class="cls-7" x="58.0231" y="91.2576" width="48" height="48"/><path id="_Path_" data-name="&lt;Path&gt;" class="cls-6" d="M659.3069,122.4494v5.5a3.9337,3.9337,0,0,1-2.3,3.5l-1.7.8-1.7-.8a3.8251,3.8251,0,0,1-2.3-3.5v-5.5h8m2-2h-12v7.5a5.9235,5.9235,0,0,0,3.4,5.3l2.6,1.2,2.6-1.2a5.8149,5.8149,0,0,0,3.4-5.3v-7.5Z" transform="translate(-562.7155 -5.1918)"/><path class="cls-6" d="M645.3069,129.4494h-8.5a7.5074,7.5074,0,0,1-1.3-14.9,9.99,9.99,0,0,1,19.8,1.9h-2a8.0269,8.0269,0,0,0-16-.9v.9h-.9a5.4759,5.4759,0,0,0-5.1,5.5,5.5488,5.5488,0,0,0,5.5,5.5h8.5Z" transform="translate(-562.7155 -5.1918)"/><rect class="cls-8" x="0.5119" y="48.5" width="3" height="299.5439"/><path class="cls-4" d="M604.8856,313.8472h-2v-2a3.0033,3.0033,0,0,1,3-3h5v2h-5a1.001,1.001,0,0,0-1,1Z" transform="translate(-562.7155 -5.1918)"/><path class="cls-4" d="M608.8856,307.8472a4,4,0,1,1,4-4A4,4,0,0,1,608.8856,307.8472Zm0-6a2,2,0,1,0,2,2A2,2,0,0,0,608.8856,301.8472Z" transform="translate(-562.7155 -5.1918)"/><path class="cls-4" d="M616.8856,314.8472a4,4,0,1,1,4-4A4,4,0,0,1,616.8856,314.8472Zm0-6a2,2,0,1,0,2,2A2,2,0,0,0,616.8856,308.8472Z" transform="translate(-562.7155 -5.1918)"/><path class="cls-4" d="M622.8856,320.8472h-2v-2a1.0011,1.0011,0,0,0-1-1h-6a1.001,1.001,0,0,0-1,1v2h-2v-2a3.0033,3.0033,0,0,1,3-3h6a3.0033,3.0033,0,0,1,3,3Z" transform="translate(-562.7155 -5.1918)"/><path class="cls-4" d="M604.8856,324.8472h-4a2.0021,2.0021,0,0,1-2-2v-24a2.002,2.002,0,0,1,2-2h4v2h-4v24h4Z" transform="translate(-562.7155 -5.1918)"/><path class="cls-4" d="M624.8856,324.8472h-4v-2h4v-24h-4v-2h4a2.0021,2.0021,0,0,1,2,2v24A2.0022,2.0022,0,0,1,624.8856,324.8472Z" transform="translate(-562.7155 -5.1918)"/><polygon class="cls-3" points="27.94 218.807 431.059 219.09 431.962 266.807 27.94 266.807 27.94 218.807"/><rect class="cls-3" x="27.5335" y="218.8068" width="48" height="48"/><path class="cls-4" d="M611.1842,258.2533H600.9719V239.4908h24.51v9.3812h2.0424v-9.3812a1.9646,1.9646,0,0,0-2.0424-1.8763h-24.51a1.9646,1.9646,0,0,0-2.0424,1.8763v18.7625a1.9646,1.9646,0,0,0,2.0424,1.8762h10.2123Z" transform="translate(-562.7155 -5.1918)"/><polygon class="cls-4" points="56.639 252.677 53.994 250.247 52.554 251.57 56.639 255.322 64.808 247.817 63.369 246.495 56.639 252.677"/><rect class="cls-4" x="43.8006" y="243.7694" width="6.7107" height="0.9827"/><rect class="cls-4" x="43.8006" y="240.8213" width="6.7107" height="0.9827"/><path class="cls-4" d="M609.8714,255.84l-3.4537-1.6179a5.3462,5.3462,0,0,1-3.257-4.77V243.065a1.0584,1.0584,0,0,1,1.1185-.9827h11.1844a1.0583,1.0583,0,0,1,1.1184.9827v6.3875a5.3462,5.3462,0,0,1-3.257,4.7694Zm-5.5922-12.7749v6.3875a4.3743,4.3743,0,0,0,2.665,3.9024l2.9272,1.3713,2.9272-1.3713a4.3744,4.3744,0,0,0,2.665-3.9024V243.065Z" transform="translate(-562.7155 -5.1918)"/><rect class="cls-7" x="206.7036" y="91.2576" width="48" height="48"/><rect class="cls-7" x="348.3842" y="91.4861" width="48" height="48"/><path class="cls-6" d="M805.9135,124.4494h-2v2h2v6h-24v-6h10v-2h-10a2.0024,2.0024,0,0,0-2,2v6a2.0023,2.0023,0,0,0,2,2h24a2.0023,2.0023,0,0,0,2-2v-6A2.0024,2.0024,0,0,0,805.9135,124.4494Z" transform="translate(-562.7155 -5.1918)"/><circle class="cls-6" cx="222.198" cy="124.2576" r="1"/><path class="cls-6" d="M807.9135,112.4494h-8v6h-6v8h8v-6h6Zm-8,12h-4v-4h4Zm6-6h-4v-4h4Z" transform="translate(-562.7155 -5.1918)"/><path class="cls-6" d="M795.9135,114.4494h-8v-8h8Zm-6-2h4v-4h-4Z" transform="translate(-562.7155 -5.1918)"/><path class="cls-6" d="M945.1,123.6779a3.1571,3.1571,0,0,0-1.9.7l-4.3-2.6a4.2528,4.2528,0,0,0,.2-1.1,3.5949,3.5949,0,0,0-.2-1.1l4.3-2.6a3.1571,3.1571,0,0,0,1.9.7,3,3,0,1,0-3-3,1.2683,1.2683,0,0,0,.1.6l-4.3,2.6a3.6313,3.6313,0,0,0-2.8-1.2,2.9344,2.9344,0,0,0-1.6.4l-3.8-4.8a4.1926,4.1926,0,0,0,.4-1.6,3,3,0,1,0-3,3,3.553,3.553,0,0,0,1-.2l3.8,4.8a6.11,6.11,0,0,0-.7,1.4h-4.3a2.9129,2.9129,0,0,0-2.8-2,3,3,0,0,0,0,6,2.9129,2.9129,0,0,0,2.8-2h4.3a3.6942,3.6942,0,0,0,.7,1.4l-3.8,4.8a3.553,3.553,0,0,0-1-.2,3,3,0,1,0,3,3,3.0218,3.0218,0,0,0-.5-1.6l3.8-4.8a4.707,4.707,0,0,0,1.6.4,3.6313,3.6313,0,0,0,2.8-1.2l4.3,2.6c0,.2-.1.4-.1.6a3,3,0,1,0,6,0A2.8648,2.8648,0,0,0,945.1,123.6779Zm0-10a1,1,0,1,1-1,1A.9448.9448,0,0,1,945.1,113.6779Zm-19-3a1,1,0,1,1,1,1A.9448.9448,0,0,1,926.1,110.6779Zm-2,11a1,1,0,1,1,1-1A.9448.9448,0,0,1,924.1,121.6779Zm3,10a1,1,0,1,1,1-1A.9448.9448,0,0,1,927.1,131.6779Zm8-9a2,2,0,1,1,2-2A2.0059,2.0059,0,0,1,935.1,122.6779Zm10,5a1,1,0,1,1,1-1A.9448.9448,0,0,1,945.1,127.6779Z" transform="translate(-562.7155 -5.1918)"/></g><g id="Text"><text class="cls-9" transform="translate(56.4032 32.9122)">Enterprise root account</text><text class="cls-10" transform="translate(82.4867 311.4108)">Business unit access group</text><text class="cls-11" transform="translate(42.9217 162.0255)">Security and <tspan x="1.9321" y="16">Compliance </tspan><tspan x="18.0669" y="32">Center</tspan></text><text class="cls-10" transform="translate(82.6898 248.486)">Trusted profile for centralized admin account</text><text class="cls-11" transform="translate(190.2582 161.9838)">Cloud Object <tspan x="16.1558" y="16">Storage</tspan></text><text class="cls-11" transform="translate(354.5838 161.9838)">Event <tspan x="-22.0146" y="16">Notifications</tspan></text></g></svg>