<svg width="3112" height="1315" xmlns="http://www.w3.org/2000/svg" xmlns:xlink="http://www.w3.org/1999/xlink" xml:space="preserve" overflow="hidden"><defs><clipPath id="clip0"><rect x="183" y="802" width="3112" height="1315"/></clipPath></defs><g clip-path="url(#clip0)" transform="translate(-183 -802)"><rect x="801" y="1008" width="2494" height="1106" fill="#F2F2F2" fill-opacity="1"/><text fill="#7F7F7F" fill-opacity="1" font-family="IBM Plex Sans Condensed,IBM Plex Sans Condensed_MSFontService,sans-serif" font-style="normal" font-variant="normal" font-weight="400" font-stretch="condensed" font-size="46" text-anchor="start" direction="ltr" writing-mode="lr-tb" unicode-bidi="normal" text-decoration="none" transform="matrix(1 0 0 1 834.049 1067)">Enterprise Root Account</text><rect x="1085.5" y="1391.5" width="582" height="147" stroke="#7F7F7F" stroke-width="4.58333" stroke-linecap="butt" stroke-linejoin="miter" stroke-miterlimit="8" stroke-opacity="1" fill="#FFFFFF" fill-opacity="1"/><text fill="#7F7F7F" fill-opacity="1" font-family="IBM Plex Sans Condensed,IBM Plex Sans Condensed_MSFontService,sans-serif" font-style="normal" font-variant="normal" font-weight="400" font-stretch="condensed" font-size="46" text-anchor="start" direction="ltr" writing-mode="lr-tb" unicode-bidi="normal" text-decoration="none" transform="matrix(1 0 0 1 1338.42 1480)">SCC</text><text fill="#7F7F7F" fill-opacity="1" font-family="IBM Plex Sans Condensed,IBM Plex Sans Condensed_MSFontService,sans-serif" font-style="normal" font-variant="normal" font-weight="400" font-stretch="condensed" font-size="50" text-anchor="start" direction="ltr" writing-mode="lr-tb" unicode-bidi="normal" text-decoration="none" transform="matrix(1 0 0 1 1990.5 870)">SCC must be in root to scan all of enterprise</text><path d="M0.0164884-1.14571 13.6551-0.949436 27.3032-0.36402 40.9373 0.604088 54.5585 1.94944 81.6896 5.74221 108.666 10.9676 135.428 17.575 161.921 25.5148 188.092 34.7375 213.888 45.1938 239.257 56.834 264.145 69.609 288.499 83.4693 312.265 98.3656 335.392 114.249 357.825 131.069 379.512 148.778 400.4 167.326 420.435 186.664 439.564 206.743 457.734 227.513 474.892 248.926 490.985 270.933 505.959 293.484 519.761 316.53 532.338 340.023 543.636 363.913 553.602 388.151 562.181 412.688 569.319 437.467 572.335 449.947 574.968 462.462 577.215 475.016 579.068 487.601 580.522 500.22 581.552 515.156 579.265 515.313 578.238 500.404 578.243 500.456 576.794 487.882 576.798 487.917 574.95 475.367 574.956 475.402 572.715 462.883 572.722 462.917 570.096 450.435 570.103 450.468 567.097 438.029 567.11 438.077 559.988 413.353 560.007 413.414 551.448 388.936 551.47 388.994 541.528 364.812 541.552 364.866 530.279 341.028 530.304 341.079 517.754 317.636 517.781 317.684 504.007 294.684 504.035 294.729 489.09 272.222 489.12 272.265 473.057 250.3 473.088 250.34 455.961 228.966 455.993 229.004 437.855 208.27 437.888 208.306 418.792 188.262 418.826 188.296 398.825 168.992 398.86 169.024 378.008 150.508 378.044 150.538 356.394 132.859 356.431 132.889 334.036 116.096 334.075 116.124 310.988 100.268 311.028 100.295 287.302 85.424 287.344 85.4489 263.033 71.6129 263.076 71.6365 238.233 58.8843 238.278 58.9064 212.956 47.2874 213.004 47.3079 187.256 36.8713 187.305 36.8901 161.185 27.6853 161.237 27.7022 134.797 19.7783 134.851 19.7931 108.145 13.1994 108.202 13.2119 81.2833 7.99777 81.3426 8.00765 54.2642 4.22224 54.3102 4.22773 40.7278 2.88621 40.7592 2.88888 27.1569 1.92303 27.1889 1.92485 13.5732 1.34083 13.6058 1.34176-0.0164884 1.14571ZM593.977 510.139 581.267 538.135 566.497 511.169Z" fill="#7F7F7F" fill-rule="nonzero" fill-opacity="1" transform="matrix(-1 1.22465e-16 1.22465e-16 1 1957.27 853)"/><text fill="#7F7F7F" fill-opacity="1" font-family="IBM Plex Sans Condensed,IBM Plex Sans Condensed_MSFontService,sans-serif" font-style="normal" font-variant="normal" font-weight="400" font-stretch="condensed" font-size="50" text-anchor="start" direction="ltr" writing-mode="lr-tb" unicode-bidi="normal" text-decoration="none" transform="matrix(1 0 0 1 217.258 1100)">Access groups for BU </text><text fill="#7F7F7F" fill-opacity="1" font-family="IBM Plex Sans Condensed,IBM Plex Sans Condensed_MSFontService,sans-serif" font-style="normal" font-variant="normal" font-weight="400" font-stretch="condensed" font-size="50" text-anchor="start" direction="ltr" writing-mode="lr-tb" unicode-bidi="normal" text-decoration="none" transform="matrix(1 0 0 1 217.258 1160)">compliance users </text><text fill="#7F7F7F" fill-opacity="1" font-family="IBM Plex Sans Condensed,IBM Plex Sans Condensed_MSFontService,sans-serif" font-style="normal" font-variant="normal" font-weight="400" font-stretch="condensed" font-size="50" text-anchor="start" direction="ltr" writing-mode="lr-tb" unicode-bidi="normal" text-decoration="none" transform="matrix(1 0 0 1 587.935 1160)">–</text><text fill="#7F7F7F" fill-opacity="1" font-family="IBM Plex Sans Condensed,IBM Plex Sans Condensed_MSFontService,sans-serif" font-style="normal" font-variant="normal" font-weight="400" font-stretch="condensed" font-size="50" text-anchor="start" direction="ltr" writing-mode="lr-tb" unicode-bidi="normal" text-decoration="none" transform="matrix(1 0 0 1 217.258 1221)">provide access SCC </text><text fill="#7F7F7F" fill-opacity="1" font-family="IBM Plex Sans Condensed,IBM Plex Sans Condensed_MSFontService,sans-serif" font-style="normal" font-variant="normal" font-weight="400" font-stretch="condensed" font-size="50" text-anchor="start" direction="ltr" writing-mode="lr-tb" unicode-bidi="normal" text-decoration="none" transform="matrix(1 0 0 1 217.258 1281)">reports</text><path d="M0.0221816-1.14562 11.7748-0.918064 23.5431-0.238925 35.299 0.884135 47.0367 2.44388 58.7504 4.43307 70.4343 6.84445 82.0827 9.67079 93.6897 12.9049 105.25 16.5394 116.757 20.5672 128.205 24.981 139.597 29.7769 162.143 40.466 184.371 52.5877 206.228 66.0807 227.668 80.8876 248.647 96.951 269.119 114.214 289.037 132.619 308.357 152.108 327.034 172.626 345.02 194.115 362.272 216.517 378.742 239.777 394.386 263.836 409.157 288.637 423.011 314.125 435.901 340.242 447.781 366.93 458.605 394.134 468.328 421.795 476.904 449.858 484.287 478.265 490.431 506.958 495.289 535.882 498.817 564.979 500.967 594.192 501.124 600.526 498.833 600.583 498.677 594.277 498.679 594.333 496.533 565.174 496.538 565.228 493.017 536.184 493.025 536.236 488.175 507.363 488.184 507.413 482.051 478.769 482.063 478.817 474.692 450.458 474.706 450.504 466.144 422.488 466.158 422.533 456.451 394.916 456.467 394.959 445.66 367.799 445.678 367.841 433.816 341.195 433.836 341.236 420.966 315.16 420.987 315.2 407.155 289.752 407.177 289.791 392.429 265.028 392.452 265.066 376.833 241.045 376.859 241.082 360.415 217.86 360.442 217.897 343.219 195.532 343.248 195.568 325.292 174.115 325.323 174.151 306.679 153.669 306.713 153.705 287.427 134.25 287.464 134.285 267.583 115.915 267.622 115.949 247.191 98.7203 247.233 98.7541 226.297 82.7242 226.343 82.7573 204.95 67.9831 204.999 68.0153 183.193 54.5539 183.246 54.5849 161.074 42.4935 161.132 42.5229 138.639 31.8585 138.685 31.8792 127.332 27.0999 127.365 27.113 115.949 22.7119 115.983 22.7243 104.51 18.7085 104.545 18.72 93.0203 15.0967 93.0564 15.1074 81.4862 11.8836 81.5235 11.8933 69.9132 9.07616 69.9518 9.08482 58.307 6.68152 58.3468 6.689 46.6735 4.70666 46.7144 4.71285 35.0181 3.15862 35.0601 3.16341 23.3466 2.0444 23.3895 2.04769 11.6646 1.37106 11.7085 1.37275-0.0221816 1.14562ZM513.611 595.631 500.548 623.464 486.119 596.314Z" fill="#7F7F7F" fill-rule="nonzero" fill-opacity="1" transform="matrix(1.83697e-16 1 1 -1.83697e-16 436 1313)"/><rect x="1059.5" y="1761.5" width="528" height="106" stroke="#7F7F7F" stroke-width="4.58333" stroke-linecap="butt" stroke-linejoin="miter" stroke-miterlimit="8" stroke-opacity="1" fill="#F2F2F2" fill-opacity="1"/><text fill="#7F7F7F" fill-opacity="1" font-family="IBM Plex Sans Condensed,IBM Plex Sans Condensed_MSFontService,sans-serif" font-style="normal" font-variant="normal" font-weight="400" font-stretch="condensed" font-size="46" text-anchor="start" direction="ltr" writing-mode="lr-tb" unicode-bidi="normal" text-decoration="none" transform="matrix(1 0 0 1 1125.91 1829)">App 1 Trusted Profile</text><rect x="1081.5" y="1727.5" width="543" height="106" stroke="#7F7F7F" stroke-width="4.58333" stroke-linecap="butt" stroke-linejoin="miter" stroke-miterlimit="8" stroke-opacity="1" fill="#F2F2F2" fill-opacity="1"/><text fill="#7F7F7F" fill-opacity="1" font-family="IBM Plex Sans Condensed,IBM Plex Sans Condensed_MSFontService,sans-serif" font-style="normal" font-variant="normal" font-weight="400" font-stretch="condensed" font-size="46" text-anchor="start" direction="ltr" writing-mode="lr-tb" unicode-bidi="normal" text-decoration="none" transform="matrix(1 0 0 1 1155.37 1796)">App 1 Trusted Profile</text><rect x="1103.5" y="1694.5" width="547" height="106" stroke="#7F7F7F" stroke-width="4.58333" stroke-linecap="butt" stroke-linejoin="miter" stroke-miterlimit="8" stroke-opacity="1" fill="#F2F2F2" fill-opacity="1"/><text fill="#7F7F7F" fill-opacity="1" font-family="IBM Plex Sans Condensed,IBM Plex Sans Condensed_MSFontService,sans-serif" font-style="normal" font-variant="normal" font-weight="400" font-stretch="condensed" font-size="46" text-anchor="start" direction="ltr" writing-mode="lr-tb" unicode-bidi="normal" text-decoration="none" transform="matrix(1 0 0 1 1195.77 1762)">BU</text><text fill="#7F7F7F" fill-opacity="1" font-family="IBM Plex Sans Condensed,IBM Plex Sans Condensed_MSFontService,sans-serif" font-style="normal" font-variant="normal" font-weight="400" font-stretch="condensed" font-size="46" text-anchor="start" direction="ltr" writing-mode="lr-tb" unicode-bidi="normal" text-decoration="none" transform="matrix(1 0 0 1 1250.77 1762)">-</text><text fill="#7F7F7F" fill-opacity="1" font-family="IBM Plex Sans Condensed,IBM Plex Sans Condensed_MSFontService,sans-serif" font-style="normal" font-variant="normal" font-weight="400" font-stretch="condensed" font-size="46" text-anchor="start" direction="ltr" writing-mode="lr-tb" unicode-bidi="normal" text-decoration="none" transform="matrix(1 0 0 1 1267.38 1762)">1 Access Group</text><rect x="1792.5" y="1391.5" width="582" height="147" stroke="#7F7F7F" stroke-width="4.58333" stroke-linecap="butt" stroke-linejoin="miter" stroke-miterlimit="8" stroke-opacity="1" fill="#FFFFFF" fill-opacity="1"/><text fill="#7F7F7F" fill-opacity="1" font-family="IBM Plex Sans Condensed,IBM Plex Sans Condensed_MSFontService,sans-serif" font-style="normal" font-variant="normal" font-weight="400" font-stretch="condensed" font-size="46" text-anchor="start" direction="ltr" writing-mode="lr-tb" unicode-bidi="normal" text-decoration="none" transform="matrix(1 0 0 1 1931.03 1480)">SCC COS Bucket</text><rect x="2448.5" y="1391.5" width="582" height="147" stroke="#7F7F7F" stroke-width="4.58333" stroke-linecap="butt" stroke-linejoin="miter" stroke-miterlimit="8" stroke-opacity="1" fill="#FFFFFF" fill-opacity="1"/><text fill="#7F7F7F" fill-opacity="1" font-family="IBM Plex Sans Condensed,IBM Plex Sans Condensed_MSFontService,sans-serif" font-style="normal" font-variant="normal" font-weight="400" font-stretch="condensed" font-size="46" text-anchor="start" direction="ltr" writing-mode="lr-tb" unicode-bidi="normal" text-decoration="none" transform="matrix(1 0 0 1 2521.42 1480)">SCC Event Notifications</text><rect x="2600.5" y="1694.5" width="547" height="106" stroke="#7F7F7F" stroke-width="4.58333" stroke-linecap="butt" stroke-linejoin="miter" stroke-miterlimit="8" stroke-opacity="1" fill="#F2F2F2" fill-opacity="1"/><text fill="#7F7F7F" fill-opacity="1" font-family="IBM Plex Sans Condensed,IBM Plex Sans Condensed_MSFontService,sans-serif" font-style="normal" font-variant="normal" font-weight="400" font-stretch="condensed" font-size="46" text-anchor="start" direction="ltr" writing-mode="lr-tb" unicode-bidi="normal" text-decoration="none" transform="matrix(1 0 0 1 2639.41 1735)">Trusted Profile for Admin </text><text fill="#7F7F7F" fill-opacity="1" font-family="IBM Plex Sans Condensed,IBM Plex Sans Condensed_MSFontService,sans-serif" font-style="normal" font-variant="normal" font-weight="400" font-stretch="condensed" font-size="46" text-anchor="start" direction="ltr" writing-mode="lr-tb" unicode-bidi="normal" text-decoration="none" transform="matrix(1 0 0 1 2834.77 1790)">Hub</text></g></svg>