<svg xmlns="http://www.w3.org/2000/svg" width="539.0532" height="417.3912" viewBox="0 0 539.0532 417.3912"><defs><style>.cls-1,.cls-9{fill:#eef4fb;}.cls-1{stroke:#eef5fb;}.cls-1,.cls-11,.cls-12,.cls-3,.cls-5,.cls-6,.cls-7,.cls-8,.cls-9{stroke-miterlimit:10;}.cls-12,.cls-2,.cls-3{fill:#3553a4;}.cls-11,.cls-3,.cls-5,.cls-6,.cls-7,.cls-8,.cls-9{stroke:#3553a4;}.cls-4,.cls-5{fill:#fff;}.cls-10,.cls-11,.cls-6,.cls-7,.cls-8{fill:none;}.cls-7{stroke-dasharray:4.0407 4.0407;}.cls-8{stroke-dasharray:4 4;}.cls-11{fill-rule:evenodd;}.cls-12{stroke:#4267b1;}.cls-13{font-size:16px;font-family:IBMPlexSans-SemiBold, IBM Plex Sans;font-weight:600;}.cls-13,.cls-14{fill:#010101;}.cls-14{font-size:14px;font-family:IBMPlexSans, IBM Plex Sans;}</style></defs><g id="Background"><rect class="cls-1" x="0.5119" y="0.5" width="538.0413" height="416.3912"/><rect class="cls-2" y="0.5" width="48" height="48"/><rect class="cls-3" x="0.5119" y="48.5" width="3" height="368.3912"/><path class="cls-4" d="M537.3952,29.83h10.971v2.0355h-10.971Zm0,5.0889h12.9657v2.0356H537.3952Z" transform="translate(-521.3741 -6.3854)"/><path class="cls-4" d="M557.3425,19.6522H533.4058a2.0154,2.0154,0,0,0-1.9947,2.0355V42.0434a2.0154,2.0154,0,0,0,1.9947,2.0355h23.9367a2.0154,2.0154,0,0,0,1.9947-2.0355V21.6877A2.0154,2.0154,0,0,0,557.3425,19.6522Zm0,2.0355v2.0356H533.4058V21.6877ZM533.4058,42.0434V25.7589h23.9367V42.0434Z" transform="translate(-521.3741 -6.3854)"/><rect class="cls-5" x="57.9691" y="220.0129" width="309.4136" height="176.1676"/><rect class="cls-4" x="74.6793" y="278.5903" width="282.8062" height="48.0003"/><polyline class="cls-6" points="74.691 280.655 74.692 278.655 76.692 278.654"/><line class="cls-7" x1="80.7329" y1="278.652" x2="353.4782" y2="278.5277"/><polyline class="cls-6" points="355.498 278.527 357.498 278.526 357.497 280.526"/><line class="cls-8" x1="357.4953" y1="284.5259" x2="357.4749" y2="322.5262"/><polyline class="cls-6" points="357.474 324.526 357.473 326.526 355.473 326.527"/><line class="cls-7" x1="351.432" y1="326.5289" x2="78.6868" y2="326.6532"/><polyline class="cls-6" points="76.667 326.654 74.667 326.655 74.667 324.655"/><line class="cls-8" x1="74.6697" y1="320.655" x2="74.6901" y2="282.6547"/><rect class="cls-4" x="74.6491" y="334.9884" width="282.8062" height="48.0003"/><polyline class="cls-6" points="74.661 337.053 74.662 335.053 76.662 335.052"/><line class="cls-7" x1="80.7026" y1="335.0501" x2="353.4479" y2="334.9258"/><polyline class="cls-6" points="355.468 334.925 357.468 334.924 357.467 336.924"/><line class="cls-8" x1="357.465" y1="340.924" x2="357.4446" y2="378.9243"/><polyline class="cls-6" points="357.443 380.924 357.442 382.924 355.442 382.925"/><line class="cls-7" x1="351.4017" y1="382.927" x2="78.6565" y2="383.0513"/><polyline class="cls-6" points="76.636 383.052 74.636 383.053 74.637 381.053"/><line class="cls-8" x1="74.6394" y1="377.0531" x2="74.6598" y2="339.0528"/><rect class="cls-9" x="73.3137" y="278.653" width="48" height="48"/><rect class="cls-9" x="73.3137" y="335.0508" width="48" height="48"/><rect class="cls-2" x="57.8909" y="220.0129" width="48" height="48"/><path class="cls-4" d="M610.481,257.7917l-13.4141-13.4141v-6.5859h-8v8h6.5859l13.4141,13.4141v6.5859h8v-8Zm-15.4141-14h-4v-4h4Zm20,20h-4v-4h4Z" transform="translate(-521.3741 -6.3854)"/><path class="cls-4" d="M617.0669,241.7917a3.9915,3.9915,0,0,0-7.8579-1h-9.1421v2h9.1421a3.9945,3.9945,0,0,0,2.8579,2.8579v9.1421h2V245.65A3.9963,3.9963,0,0,0,617.0669,241.7917Zm-4,2a2,2,0,1,1,2-2A2,2,0,0,1,613.0669,243.7917Z" transform="translate(-521.3741 -6.3854)"/><path class="cls-4" d="M606.0669,260.7917h-9.1421a3.9945,3.9945,0,0,0-2.8579-2.8579v-9.1421h-2v9.1421a3.9915,3.9915,0,1,0,4.8579,4.8579h9.1421Zm-13,3a2,2,0,1,1,2-2A2,2,0,0,1,593.0669,263.7917Z" transform="translate(-521.3741 -6.3854)"/><path class="cls-2" d="M617.5011,295.4831a8,8,0,1,0,8,8A8,8,0,0,0,617.5011,295.4831Zm5.91,7h-2.4376a15.2479,15.2479,0,0,0-.7917-4.36A6.0089,6.0089,0,0,1,623.4111,302.4831Zm-5.888,6.999h-.0076c-.3813-.1206-1.3091-1.8213-1.479-4.999h2.9292C618.7963,307.6594,617.8722,309.36,617.5231,309.4821Zm-1.4866-6.999c.1694-3.1763,1.0935-4.877,1.4426-4.999h.0076c.3813.1206,1.3091,1.8213,1.479,4.999Zm-1.2161-4.36a15.2444,15.2444,0,0,0-.7917,4.36h-2.4376A6.0084,6.0084,0,0,1,614.82,298.1231Zm-3.2293,6.36h2.4373a15.245,15.245,0,0,0,.7917,4.36A6.0086,6.0086,0,0,1,611.5911,304.4831Zm8.59,4.36a15.2459,15.2459,0,0,0,.7924-4.36h2.4376a6.0092,6.0092,0,0,1-3.2293,4.36Z" transform="translate(-521.3741 -6.3854)"/><path class="cls-2" d="M629.5011,323.4831h-24a2.0021,2.0021,0,0,1-2-2v-6a2.002,2.002,0,0,1,2-2h24a2.0021,2.0021,0,0,1,2,2v6A2.0021,2.0021,0,0,1,629.5011,323.4831Zm-24-8v6h24v-6Z" transform="translate(-521.3741 -6.3854)"/><circle class="cls-2" cx="87.1269" cy="312.0977" r="1"/><path id="_Path_" data-name=" Path " class="cls-2" d="M621.5011,376.4362h-13a2.0059,2.0059,0,0,1-2-2v-13h2v13h13Z" transform="translate(-521.3741 -6.3854)"/><path id="_Compound_Path_" data-name=" Compound Path " class="cls-2" d="M624.9011,371.4362l-4-4a3.606,3.606,0,0,0,.6-2,4.0118,4.0118,0,0,0-4-4,3.6049,3.6049,0,0,0-2,.6l-4-4v-6.6h-8v8h6.6l4,4a3.6047,3.6047,0,0,0-.6,2,4.0118,4.0118,0,0,0,4,4,3.6068,3.6068,0,0,0,2-.6l4,4v6.6h8v-8Zm-15.4-14h-4v-4h4Zm8,10a2,2,0,1,1,2-2A2,2,0,0,1,617.5011,367.4362Zm12,10h-4v-4h4Z" transform="translate(-521.3741 -6.3854)"/><path id="_Path_2" data-name=" Path 2" class="cls-2" d="M626.5011,369.4362h2v-13a2.0059,2.0059,0,0,0-2-2h-13v2h13Z" transform="translate(-521.3741 -6.3854)"/><rect id="_Transparent_Rectangle_" data-name=" Transparent Rectangle " class="cls-10" x="80.1269" y="343.0508" width="32" height="32"/><polygon class="cls-5" points="59.247 69.781 279.447 70.064 279.94 117.781 59.247 117.781 59.247 69.781"/><rect class="cls-3" x="58.8403" y="69.781" width="48" height="48"/><polygon class="cls-5" points="290.236 70.228 510.437 70.51 510.93 118.228 290.236 118.228 290.236 70.228"/><rect class="cls-3" x="289.8297" y="70.2276" width="48" height="48"/><path class="cls-4" d="M614.1144,105.5129l3.5-3.5a1.9332,1.9332,0,0,0,.0667-2.7332q-.0326-.0342-.0667-.0668l-5.3-5.3,1.4-1.4a.901.901,0,0,0,.5.1,2,2,0,1,0-2-2,.9007.9007,0,0,0,.1.5l-6.1,6.1a3.6333,3.6333,0,0,0-4,0l-3.3-3.3,5.3-5.3,3.5,3.5,1.4-1.4-3.5-3.5a1.9334,1.9334,0,0,0-2.7333-.0667q-.0342.0326-.0667.0667l-5.3,5.3-1.4-1.4a.9007.9007,0,0,0,.1-.5,2,2,0,1,0-2,2,.901.901,0,0,0,.5-.1l6.1,6.1a3.6333,3.6333,0,0,0,0,4l-3.3,3.3-5.3-5.3,3.5-3.5-1.4-1.4-3.5,3.5a1.9333,1.9333,0,0,0-.0667,2.7333q.0326.0342.0667.0667l5.3,5.3-1.4,1.4a.9027.9027,0,0,0-.5-.1,2,2,0,1,0,2,2,.901.901,0,0,0-.1-.5l6.1-6.1a3.633,3.633,0,0,0,4,0l3.3,3.3-5.3,5.3-3.5-3.5-1.4,1.4,3.5,3.5a1.9334,1.9334,0,0,0,2.7333.0668q.0342-.0325.0667-.0668l5.3-5.3,1.4,1.4c0,.2-.1.3-.1.5a2,2,0,1,0,2-2,.9027.9027,0,0,0-.5.1l-6.1-6.1a3.6333,3.6333,0,0,0,0-4l3.3-3.3,5.3,5.3-3.5,3.5Zm-9.9-2.9a2,2,0,1,1,2-2A2,2,0,0,1,604.2144,102.6129Z" transform="translate(-521.3741 -6.3854)"/><path class="cls-4" d="M835.0372,97.613a2.9129,2.9129,0,0,0,2.8,2,3,3,0,0,0,0-6,2.9129,2.9129,0,0,0-2.8,2h-12.2a2.0059,2.0059,0,0,0-2,2v6h-3v2h3v6a2.0059,2.0059,0,0,0,2,2h14a2.0059,2.0059,0,0,0,2-2v-4h-2v4h-14v-14Zm2.8-2a1,1,0,1,1-1,1A.9448.9448,0,0,1,837.8372,95.613Z" transform="translate(-521.3741 -6.3854)"/><path class="cls-4" d="M846.8372,95.613v-6a2.0059,2.0059,0,0,0-2-2h-14a2.0059,2.0059,0,0,0-2,2v4h2v-4h14v14h-12.2a2.9129,2.9129,0,0,0-2.8-2,3,3,0,0,0,0,6,2.9129,2.9129,0,0,0,2.8-2h12.2a2.0059,2.0059,0,0,0,2-2v-6h3v-2Zm-17,10a1,1,0,1,1,1-1A.9448.9448,0,0,1,829.8372,105.613Z" transform="translate(-521.3741 -6.3854)"/><rect id="_Transparent_Rectangle_2" data-name="&lt;Transparent Rectangle&gt;" class="cls-10" x="296.4631" y="78.2276" width="32" height="32"/><polygon class="cls-5" points="59.184 145.947 500.454 146.23 501.442 193.947 59.184 193.947 59.184 145.947"/><rect class="cls-3" x="58.7775" y="145.9469" width="48" height="48"/><path class="cls-4" d="M611.6914,188.5327l-1.83-.8715a4.4423,4.4423,0,0,1-2.5272-3.9215v-5.6645h8.7146V183.74a4.2922,4.2922,0,0,1-2.5273,3.9215Zm-2.6144-8.7146V183.74a2.6242,2.6242,0,0,0,1.4815,2.3529l1.1329.5229,1.1329-.5229a2.7267,2.7267,0,0,0,1.4814-2.3529v-3.9216Z" transform="translate(-521.3741 -6.3854)"/><circle class="cls-4" cx="87.7029" cy="164.7182" r="1.7429"/><path class="cls-4" d="M608.2055,164.1319a7.81,7.81,0,0,0-7.8431,7.8431,6.4992,6.4992,0,0,0,.3486,2.2658l-9.0632,9.0632v5.2287h5.2288l8.7146-8.7146-1.22-1.22-2.44,2.44-1.22-1.22-1.22,1.22,1.22,1.22-1.3943,1.3943-1.22-1.22-1.22,1.22,1.22,1.22-1.9172,1.9172h-2.7886v-2.7887l8.54-8.54.6972-.6971-.2614-1.0458a6.0971,6.0971,0,1,1,11.9389-1.7429,5.951,5.951,0,0,1-1.1329,3.4858h2.0044a7.8612,7.8612,0,0,0,.7843-3.4858A7.6831,7.6831,0,0,0,608.2055,164.1319Z" transform="translate(-521.3741 -6.3854)"/><polyline class="cls-11" points="61.232 141.345 505.806 141.345 505.806 192.796"/><polyline class="cls-11" points="65.133 136.345 510.365 136.345 510.365 191.519"/><rect class="cls-5" x="383.862" y="220.0129" width="125.7322" height="176.1676"/><rect class="cls-12" x="421.3374" y="245.4114" width="48" height="48"/><path class="cls-4" d="M958.7115,263.7967v4h-4v-4Zm2-2h-8v8h8Zm8,2v4h-4v-4Zm2-2h-8v8h8Zm8,2v4h-4v-4Zm2-2h-8v8h8Zm-22,12v4h-4v-4Zm2-2h-8v8h8Zm8,2v4h-4v-4Zm2-2h-8v8h8Zm8,2v4h-4v-4Zm2-2h-8v8h8Zm-22,12v4h-4v-4Zm2-2h-8v8h8Zm8,2v4h-4v-4Zm2-2h-8v8h8Zm8,2v4h-4v-4Zm2-2h-8v8h8Z" transform="translate(-521.3741 -6.3854)"/></g><g id="Text"><text class="cls-13" transform="translate(56.4032 32.912)">Network and services hub account</text><text class="cls-14" transform="translate(113.9681 248.3724)">VPC - Tools</text><text class="cls-14" transform="translate(127.0526 307.0596)">Custom DNS resolver</text><text class="cls-14" transform="translate(127.0531 363.4573)">Shared services VPE</text><text class="cls-14" transform="translate(113.9965 99.0282)">Transit Gateway</text><text class="cls-14" transform="translate(344.9865 99.3597)">Direct Link</text><text class="cls-14" transform="translate(113.934 175.1551)">Hyper Protect Crypto Services</text><text class="cls-14" transform="translate(423.0848 321.0604)">Shared <tspan x="-7.5532" y="16">customer </tspan><tspan x="-16.0303" y="32">applications </tspan><tspan x="-8.1621" y="48">(optional)</tspan></text></g></svg>