<svg xmlns="http://www.w3.org/2000/svg" viewBox="0 0 539.05 417.39"><defs><style>.cls-1,.cls-9{fill:#eef4fb;}.cls-1{stroke:#eef5fb;}.cls-1,.cls-11,.cls-12,.cls-3,.cls-5,.cls-6,.cls-7,.cls-8,.cls-9{stroke-miterlimit:10;}.cls-12,.cls-2,.cls-3{fill:#3553a4;}.cls-11,.cls-3,.cls-5,.cls-6,.cls-7,.cls-8,.cls-9{stroke:#3553a4;}.cls-4,.cls-5{fill:#fff;}.cls-10,.cls-11,.cls-6,.cls-7,.cls-8{fill:none;}.cls-7{stroke-dasharray:4.04 4.04;}.cls-8{stroke-dasharray:4 4;}.cls-11{fill-rule:evenodd;}.cls-12{stroke:#4267b1;}.cls-13{font-size:16px;}.cls-13,.cls-17{fill:#010101;font-family:IBMPlexSans-SemiBold, IBM Plex Sans;font-weight:600;}.cls-14{letter-spacing:-0.01em;}.cls-15{letter-spacing:0.01em;}.cls-16{letter-spacing:-0.01em;}.cls-17{font-size:14px;}.cls-18{letter-spacing:-0.06em;}.cls-19{letter-spacing:-0.01em;}.cls-20{letter-spacing:0em;}.cls-21{letter-spacing:0em;}.cls-22{letter-spacing:-0.01em;}.cls-23{letter-spacing:-0.01em;}.cls-24{letter-spacing:0.01em;}.cls-25{letter-spacing:-0.04em;}.cls-26{letter-spacing:-0.01em;}.cls-27{letter-spacing:-0.01em;}.cls-28{letter-spacing:-0.01em;}.cls-29{letter-spacing:-0.01em;}.cls-30{letter-spacing:0em;}.cls-31{letter-spacing:-0.01em;}</style></defs><g id="Background"><rect class="cls-1" x="0.51" y="0.5" width="538.04" height="416.39"/><rect class="cls-2" y="0.5" width="48" height="48"/><rect class="cls-3" x="0.51" y="48.5" width="3" height="368.39"/><path class="cls-4" d="M537.4,29.83h11v2h-11Zm0,5.09h13v2h-13Z" transform="translate(-521.37 -6.39)"/><path class="cls-4" d="M557.34,19.65H533.41a2,2,0,0,0-2,2V42a2,2,0,0,0,2,2h23.93a2,2,0,0,0,2-2V21.69A2,2,0,0,0,557.34,19.65Zm0,2v2H533.41v-2ZM533.41,42V25.76h23.93V42Z" transform="translate(-521.37 -6.39)"/><rect class="cls-5" x="57.97" y="220.01" width="309.41" height="176.17"/><rect class="cls-4" x="74.68" y="278.59" width="282.81" height="48"/><polyline class="cls-6" points="74.69 280.65 74.69 278.65 76.69 278.65"/><line class="cls-7" x1="80.73" y1="278.65" x2="353.48" y2="278.53"/><polyline class="cls-6" points="355.5 278.53 357.5 278.53 357.5 280.53"/><line class="cls-8" x1="357.5" y1="284.53" x2="357.47" y2="322.53"/><polyline class="cls-6" points="357.47 324.53 357.47 326.53 355.47 326.53"/><line class="cls-7" x1="351.43" y1="326.53" x2="78.69" y2="326.65"/><polyline class="cls-6" points="76.67 326.65 74.67 326.65 74.67 324.65"/><line class="cls-8" x1="74.67" y1="320.66" x2="74.69" y2="282.65"/><rect class="cls-4" x="74.65" y="334.99" width="282.81" height="48"/><polyline class="cls-6" points="74.66 337.05 74.66 335.05 76.66 335.05"/><line class="cls-7" x1="80.7" y1="335.05" x2="353.45" y2="334.93"/><polyline class="cls-6" points="355.47 334.93 357.47 334.92 357.47 336.92"/><line class="cls-8" x1="357.46" y1="340.92" x2="357.44" y2="378.92"/><polyline class="cls-6" points="357.44 380.92 357.44 382.92 355.44 382.93"/><line class="cls-7" x1="351.4" y1="382.93" x2="78.66" y2="383.05"/><polyline class="cls-6" points="76.64 383.05 74.64 383.05 74.64 381.05"/><line class="cls-8" x1="74.64" y1="377.05" x2="74.66" y2="339.05"/><rect class="cls-9" x="73.31" y="278.65" width="48" height="48"/><rect class="cls-9" x="73.31" y="335.05" width="48" height="48"/><rect class="cls-2" x="57.89" y="220.01" width="48" height="48"/><path class="cls-4" d="M610.48,257.79l-13.41-13.41v-6.59h-8v8h6.58l13.42,13.42v6.58h8v-8Zm-15.41-14h-4v-4h4Zm20,20h-4v-4h4Z" transform="translate(-521.37 -6.39)"/><path class="cls-4" d="M617.07,241.79a4,4,0,0,0-7.86-1h-9.14v2h9.14a4,4,0,0,0,2.86,2.86v9.14h2v-9.14A4,4,0,0,0,617.07,241.79Zm-4,2a2,2,0,1,1,2-2A2,2,0,0,1,613.07,243.79Z" transform="translate(-521.37 -6.39)"/><path class="cls-4" d="M606.07,260.79h-9.15a4,4,0,0,0-2.85-2.86v-9.14h-2v9.14a4,4,0,1,0,4.85,4.86h9.15Zm-13,3a2,2,0,1,1,2-2A2,2,0,0,1,593.07,263.79Z" transform="translate(-521.37 -6.39)"/><path class="cls-2" d="M617.5,295.48a8,8,0,1,0,8,8A8,8,0,0,0,617.5,295.48Zm5.91,7H621a15.11,15.11,0,0,0-.79-4.36A6,6,0,0,1,623.41,302.48Zm-5.89,7h0c-.39-.12-1.31-1.82-1.48-5H619C618.8,307.66,617.87,309.36,617.52,309.48Zm-1.48-7c.17-3.17,1.09-4.87,1.44-5h0c.38.12,1.31,1.83,1.48,5Zm-1.22-4.36a15.45,15.45,0,0,0-.79,4.36h-2.44A6,6,0,0,1,614.82,298.12Zm-3.23,6.36H614a15.32,15.32,0,0,0,.79,4.36A6,6,0,0,1,611.59,304.48Zm8.59,4.36a15,15,0,0,0,.79-4.36h2.44a6,6,0,0,1-3.23,4.36Z" transform="translate(-521.37 -6.39)"/><path class="cls-2" d="M629.5,323.48h-24a2,2,0,0,1-2-2v-6a2,2,0,0,1,2-2h24a2,2,0,0,1,2,2v6A2,2,0,0,1,629.5,323.48Zm-24-8v6h24v-6Z" transform="translate(-521.37 -6.39)"/><circle class="cls-2" cx="87.13" cy="312.1" r="1"/><path id="_Path_" data-name=" Path " class="cls-2" d="M621.5,376.44h-13a2,2,0,0,1-2-2v-13h2v13h13Z" transform="translate(-521.37 -6.39)"/><path id="_Compound_Path_" data-name=" Compound Path " class="cls-2" d="M624.9,371.44l-4-4a3.66,3.66,0,0,0,.6-2,4,4,0,0,0-4-4,3.48,3.48,0,0,0-2,.6l-4-4v-6.6h-8v8h6.6l4,4a3.61,3.61,0,0,0-.6,2,4,4,0,0,0,4,4,3.64,3.64,0,0,0,2-.6l4,4v6.6h8v-8Zm-15.4-14h-4v-4h4Zm8,10a2,2,0,1,1,2-2A2,2,0,0,1,617.5,367.44Zm12,10h-4v-4h4Z" transform="translate(-521.37 -6.39)"/><path id="_Path_2" data-name=" Path 2" class="cls-2" d="M626.5,369.44h2v-13a2,2,0,0,0-2-2h-13v2h13Z" transform="translate(-521.37 -6.39)"/><rect id="_Transparent_Rectangle_" data-name=" Transparent Rectangle " class="cls-10" x="80.13" y="343.05" width="32" height="32"/><polygon class="cls-5" points="59.25 69.78 279.45 70.06 279.94 117.78 59.25 117.78 59.25 69.78"/><rect class="cls-3" x="58.84" y="69.78" width="48" height="48"/><polygon class="cls-5" points="290.24 70.23 510.44 70.51 510.93 118.23 290.24 118.23 290.24 70.23"/><rect class="cls-3" x="289.83" y="70.23" width="48" height="48"/><path class="cls-4" d="M614.11,105.51l3.5-3.5a1.92,1.92,0,0,0,.07-2.73l-.07-.07-5.3-5.3,1.4-1.4a.89.89,0,0,0,.5.1,2,2,0,1,0-2-2,.94.94,0,0,0,.1.5l-6.1,6.1a3.63,3.63,0,0,0-4,0l-3.3-3.3,5.3-5.3,3.5,3.5,1.4-1.4-3.5-3.5a1.93,1.93,0,0,0-2.73-.06l-.07.06-5.3,5.3-1.4-1.4a.78.78,0,0,0,.1-.5,2,2,0,1,0-2,2,.85.85,0,0,0,.5-.1l6.1,6.1a3.63,3.63,0,0,0,0,4l-3.3,3.3-5.3-5.3,3.5-3.5-1.4-1.4-3.5,3.5a1.94,1.94,0,0,0-.06,2.74l.06.06,5.3,5.3-1.4,1.4a.94.94,0,0,0-.5-.1,2,2,0,1,0,2,2,.81.81,0,0,0-.1-.5l6.1-6.1a3.63,3.63,0,0,0,4,0l3.3,3.3-5.3,5.3-3.5-3.5-1.4,1.4,3.5,3.5a1.93,1.93,0,0,0,2.74.07l.06-.07,5.3-5.3,1.4,1.4c0,.2-.1.3-.1.5a2,2,0,1,0,2-2,1,1,0,0,0-.5.1l-6.1-6.1a3.63,3.63,0,0,0,0-4l3.3-3.3,5.3,5.3-3.5,3.5Zm-9.9-2.9a2,2,0,1,1,2-2A2,2,0,0,1,604.21,102.61Z" transform="translate(-521.37 -6.39)"/><path class="cls-4" d="M835,97.61a2.91,2.91,0,0,0,2.8,2,3,3,0,0,0,0-6,2.91,2.91,0,0,0-2.8,2h-12.2a2,2,0,0,0-2,2v6h-3v2h3v6a2,2,0,0,0,2,2h14a2,2,0,0,0,2-2v-4h-2v4h-14v-14Zm2.8-2a1,1,0,1,1-1,1A.94.94,0,0,1,837.84,95.61Z" transform="translate(-521.37 -6.39)"/><path class="cls-4" d="M846.84,95.61v-6a2,2,0,0,0-2-2h-14a2,2,0,0,0-2,2v4h2v-4h14v14h-12.2a2.91,2.91,0,0,0-2.8-2,3,3,0,0,0,0,6,2.91,2.91,0,0,0,2.8-2h12.2a2,2,0,0,0,2-2v-6h3v-2Zm-17,10a1,1,0,1,1,1-1A.94.94,0,0,1,829.84,105.61Z" transform="translate(-521.37 -6.39)"/><rect id="_Transparent_Rectangle_2" data-name="&lt;Transparent Rectangle&gt;" class="cls-10" x="296.46" y="78.23" width="32" height="32"/><polygon class="cls-5" points="59.18 145.95 500.45 146.23 501.44 193.95 59.18 193.95 59.18 145.95"/><rect class="cls-3" x="58.78" y="145.95" width="48" height="48"/><path class="cls-4" d="M611.69,188.53l-1.83-.87a4.44,4.44,0,0,1-2.53-3.92v-5.66h8.72v5.66a4.29,4.29,0,0,1-2.53,3.92Zm-2.61-8.71v3.92a2.61,2.61,0,0,0,1.48,2.35l1.13.53,1.13-.53a2.71,2.71,0,0,0,1.49-2.35v-3.92Z" transform="translate(-521.37 -6.39)"/><circle class="cls-4" cx="87.7" cy="164.72" r="1.74"/><path class="cls-4" d="M608.21,164.13a7.82,7.82,0,0,0-7.85,7.85,6.53,6.53,0,0,0,.35,2.26l-9.06,9.06v5.23h5.23l8.71-8.71-1.22-1.22L601.93,181l-1.22-1.22L599.49,181l1.22,1.22-1.39,1.39-1.22-1.22-1.22,1.22,1.22,1.22-1.92,1.92h-2.79V184l8.54-8.54.7-.7-.26-1a5.83,5.83,0,0,1-.26-1.74,6.1,6.1,0,1,1,12.2,0,5.94,5.94,0,0,1-1.14,3.48h2A7.86,7.86,0,0,0,616,172,7.69,7.69,0,0,0,608.21,164.13Z" transform="translate(-521.37 -6.39)"/><polyline class="cls-11" points="61.23 141.34 505.81 141.34 505.81 192.8"/><polyline class="cls-11" points="65.13 136.34 510.37 136.34 510.37 191.52"/><rect class="cls-5" x="383.86" y="220.01" width="125.73" height="176.17"/><rect class="cls-12" x="421.34" y="245.41" width="48" height="48"/><path class="cls-4" d="M958.71,263.8v4h-4v-4Zm2-2h-8v8h8Zm8,2v4h-4v-4Zm2-2h-8v8h8Zm8,2v4h-4v-4Zm2-2h-8v8h8Zm-22,12v4h-4v-4Zm2-2h-8v8h8Zm8,2v4h-4v-4Zm2-2h-8v8h8Zm8,2v4h-4v-4Zm2-2h-8v8h8Zm-22,12v4h-4v-4Zm2-2h-8v8h8Zm8,2v4h-4v-4Zm2-2h-8v8h8Zm8,2v4h-4v-4Zm2-2h-8v8h8Z" transform="translate(-521.37 -6.39)"/></g><g id="Text"><text class="cls-13" transform="translate(56.4 32.91)">Net<tspan class="cls-14" x="26.42" y="0">w</tspan><tspan x="39.38" y="0">ork and se</tspan><tspan class="cls-15" x="116.08" y="0">r</tspan><tspan x="122.5" y="0">vi</tspan><tspan class="cls-16" x="135.29" y="0">c</tspan><tspan x="143.42" y="0">es hub a</tspan><tspan class="cls-16" x="205.25" y="0">cc</tspan><tspan x="221.5" y="0">ount</tspan></text><text class="cls-17" transform="translate(113.97 248.37)">VPC - <tspan class="cls-18" x="39.13" y="0">T</tspan><tspan x="46.34" y="0">ools</tspan></text><text class="cls-17" transform="translate(127.05 307.06)">Cu<tspan class="cls-19" x="17.22" y="0">s</tspan><tspan class="cls-20" x="24.09" y="0">t</tspan><tspan x="29.27" y="0">om DNS </tspan><tspan class="cls-21" x="84.46" y="0">r</tspan><tspan x="89.89" y="0">eso</tspan><tspan class="cls-22" x="112.57" y="0">l</tspan><tspan class="cls-23" x="116.59" y="0">v</tspan><tspan x="123.81" y="0">er</tspan></text><text class="cls-17" transform="translate(127.05 363.46)">Sha<tspan class="cls-21" x="24.61" y="0">r</tspan><tspan x="30.04" y="0">ed se</tspan><tspan class="cls-24" x="64.36" y="0">r</tspan><tspan x="69.97" y="0">vi</tspan><tspan class="cls-21" x="81.17" y="0">c</tspan><tspan x="88.28" y="0">es VPE</tspan></text><text class="cls-17" transform="translate(114 99.03)"><tspan class="cls-25">T</tspan><tspan class="cls-26" x="7.49" y="0">r</tspan><tspan x="12.84" y="0">ansit G</tspan><tspan class="cls-20" x="58.25" y="0">at</tspan><tspan class="cls-27" x="71.2" y="0">e</tspan><tspan class="cls-28" x="78.94" y="0">w</tspan><tspan class="cls-19" x="90.23" y="0">a</tspan><tspan x="97.94" y="0">y</tspan></text><text class="cls-17" transform="translate(344.99 99.36)">Di<tspan class="cls-21" x="13.51" y="0">r</tspan><tspan x="18.94" y="0">ect Link</tspan></text><text class="cls-17" transform="translate(113.93 175.16)">Hyper <tspan class="cls-29" x="42.42" y="0">P</tspan><tspan class="cls-21" x="51.25" y="0">r</tspan><tspan class="cls-30" x="56.69" y="0">ot</tspan><tspan x="69.69" y="0">ect C</tspan><tspan class="cls-24" x="102.21" y="0">r</tspan><tspan x="107.83" y="0">y</tspan><tspan class="cls-31" x="115.16" y="0">p</tspan><tspan class="cls-30" x="123.48" y="0">t</tspan><tspan x="128.66" y="0">o Se</tspan><tspan class="cls-24" x="156.21" y="0">r</tspan><tspan x="161.82" y="0">vi</tspan><tspan class="cls-21" x="173.02" y="0">c</tspan><tspan x="180.13" y="0">es</tspan></text><text class="cls-17" transform="translate(422.21 321.06)">Sha<tspan class="cls-21" x="24.61" y="0">r</tspan><tspan x="30.04" y="0">ed</tspan><tspan x="-7.42" y="16">cu</tspan><tspan class="cls-19" x="7.99" y="16">s</tspan><tspan class="cls-20" x="14.87" y="16">t</tspan><tspan x="20.05" y="16">omer</tspan><tspan x="-16.75" y="32">applic</tspan><tspan class="cls-20" x="23.04" y="32">a</tspan><tspan x="30.81" y="32">tions</tspan><tspan x="-8.27" y="48">(o</tspan><tspan class="cls-31" x="4.33" y="48">p</tspan><tspan x="12.65" y="48">tional)</tspan></text></g></svg>