<svg width="4084" height="1668" xmlns="http://www.w3.org/2000/svg" xmlns:xlink="http://www.w3.org/1999/xlink" xml:space="preserve" overflow="hidden"><defs><clipPath id="clip0"><rect x="233" y="499" width="4084" height="1668"/></clipPath></defs><g clip-path="url(#clip0)" transform="translate(-233 -499)"><text fill="#000000" fill-opacity="1" font-family="IBM Plex Sans,IBM Plex Sans_MSFontService,sans-serif" font-style="normal" font-variant="normal" font-weight="400" font-stretch="normal" font-size="50" text-anchor="start" direction="ltr" writing-mode="lr-tb" unicode-bidi="normal" text-decoration="none" transform="matrix(1 0 0 1 3374.87 663)">Enterprise</text><text fill="#7F7F7F" fill-opacity="1" font-family="IBM Plex Sans Condensed,IBM Plex Sans Condensed_MSFontService,sans-serif" font-style="normal" font-variant="normal" font-weight="400" font-stretch="condensed" font-size="37" text-anchor="start" direction="ltr" writing-mode="lr-tb" unicode-bidi="normal" text-decoration="none" transform="matrix(1 0 0 1 3307.26 713)">300 accounts/enterprise</text><text fill="#000000" fill-opacity="1" font-family="IBM Plex Sans,IBM Plex Sans_MSFontService,sans-serif" font-style="normal" font-variant="normal" font-weight="400" font-stretch="normal" font-size="50" text-anchor="start" direction="ltr" writing-mode="lr-tb" unicode-bidi="normal" text-decoration="none" transform="matrix(1 0 0 1 3323.31 947)">Account Group</text><text fill="#7F7F7F" fill-opacity="1" font-family="IBM Plex Sans Condensed,IBM Plex Sans Condensed_MSFontService,sans-serif" font-style="normal" font-variant="normal" font-weight="400" font-stretch="condensed" font-size="37" text-anchor="start" direction="ltr" writing-mode="lr-tb" unicode-bidi="normal" text-decoration="none" transform="matrix(1 0 0 1 3327.32 997)">Max 25 BU/Enterprise</text><text fill="#7F7F7F" fill-opacity="1" font-family="IBM Plex Sans Condensed,IBM Plex Sans Condensed_MSFontService,sans-serif" font-style="normal" font-variant="normal" font-weight="400" font-stretch="condensed" font-size="37" text-anchor="start" direction="ltr" writing-mode="lr-tb" unicode-bidi="normal" text-decoration="none" transform="matrix(1 0 0 1 3351.68 1041)">BUs may co</text><text fill="#7F7F7F" fill-opacity="1" font-family="IBM Plex Sans Condensed,IBM Plex Sans Condensed_MSFontService,sans-serif" font-style="normal" font-variant="normal" font-weight="400" font-stretch="condensed" font-size="37" text-anchor="start" direction="ltr" writing-mode="lr-tb" unicode-bidi="normal" text-decoration="none" transform="matrix(1 0 0 1 3525.84 1041)">-</text><text fill="#7F7F7F" fill-opacity="1" font-family="IBM Plex Sans Condensed,IBM Plex Sans Condensed_MSFontService,sans-serif" font-style="normal" font-variant="normal" font-weight="400" font-stretch="condensed" font-size="37" text-anchor="start" direction="ltr" writing-mode="lr-tb" unicode-bidi="normal" text-decoration="none" transform="matrix(1 0 0 1 3539.02 1041)">reside</text><text fill="#000000" fill-opacity="1" font-family="IBM Plex Sans,IBM Plex Sans_MSFontService,sans-serif" font-style="normal" font-variant="normal" font-weight="400" font-stretch="normal" font-size="50" text-anchor="start" direction="ltr" writing-mode="lr-tb" unicode-bidi="normal" text-decoration="none" transform="matrix(1 0 0 1 3323.31 1248)">Account Group</text><text fill="#7F7F7F" fill-opacity="1" font-family="IBM Plex Sans Condensed,IBM Plex Sans Condensed_MSFontService,sans-serif" font-style="normal" font-variant="normal" font-weight="400" font-stretch="condensed" font-size="37" text-anchor="start" direction="ltr" writing-mode="lr-tb" unicode-bidi="normal" text-decoration="none" transform="matrix(1 0 0 1 3423.29 1298)">ave</text><text fill="#7F7F7F" fill-opacity="1" font-family="IBM Plex Sans Condensed,IBM Plex Sans Condensed_MSFontService,sans-serif" font-style="normal" font-variant="normal" font-weight="400" font-stretch="condensed" font-size="37" text-anchor="start" direction="ltr" writing-mode="lr-tb" unicode-bidi="normal" text-decoration="none" transform="matrix(1 0 0 1 3483.45 1298)">4/BU</text><text fill="#7F7F7F" fill-opacity="1" font-family="IBM Plex Sans Condensed,IBM Plex Sans Condensed_MSFontService,sans-serif" font-style="normal" font-variant="normal" font-weight="400" font-stretch="condensed" font-size="37" text-anchor="start" direction="ltr" writing-mode="lr-tb" unicode-bidi="normal" text-decoration="none" transform="matrix(1 0 0 1 3389.76 1342)">layer optional</text><text fill="#000000" fill-opacity="1" font-family="IBM Plex Sans,IBM Plex Sans_MSFontService,sans-serif" font-style="normal" font-variant="normal" font-weight="400" font-stretch="normal" font-size="50" text-anchor="start" direction="ltr" writing-mode="lr-tb" unicode-bidi="normal" text-decoration="none" transform="matrix(1 0 0 1 3398.92 1555)">Account</text><text fill="#7F7F7F" fill-opacity="1" font-family="IBM Plex Sans Condensed,IBM Plex Sans Condensed_MSFontService,sans-serif" font-style="normal" font-variant="normal" font-weight="400" font-stretch="condensed" font-size="37" text-anchor="start" direction="ltr" writing-mode="lr-tb" unicode-bidi="normal" text-decoration="none" transform="matrix(1 0 0 1 3337.34 1605)">Max 50 accounts/BU</text><text fill="#7F7F7F" fill-opacity="1" font-family="IBM Plex Sans Condensed,IBM Plex Sans Condensed_MSFontService,sans-serif" font-style="normal" font-variant="normal" font-weight="400" font-stretch="condensed" font-size="37" text-anchor="start" direction="ltr" writing-mode="lr-tb" unicode-bidi="normal" text-decoration="none" transform="matrix(1 0 0 1 3431.58 1649)">ave</text><text fill="#7F7F7F" fill-opacity="1" font-family="IBM Plex Sans Condensed,IBM Plex Sans Condensed_MSFontService,sans-serif" font-style="normal" font-variant="normal" font-weight="400" font-stretch="condensed" font-size="37" text-anchor="start" direction="ltr" writing-mode="lr-tb" unicode-bidi="normal" text-decoration="none" transform="matrix(1 0 0 1 3491.73 1649)">~10</text><text fill="#000000" fill-opacity="1" font-family="IBM Plex Sans,IBM Plex Sans_MSFontService,sans-serif" font-style="normal" font-variant="normal" font-weight="400" font-stretch="normal" font-size="50" text-anchor="start" direction="ltr" writing-mode="lr-tb" unicode-bidi="normal" text-decoration="none" transform="matrix(1 0 0 1 3357.98 1861)">Namespace</text><text fill="#7F7F7F" fill-opacity="1" font-family="IBM Plex Sans Condensed,IBM Plex Sans Condensed_MSFontService,sans-serif" font-style="normal" font-variant="normal" font-weight="400" font-stretch="condensed" font-size="37" text-anchor="start" direction="ltr" writing-mode="lr-tb" unicode-bidi="normal" text-decoration="none" transform="matrix(1 0 0 1 3339.07 1907)">1</text><text fill="#7F7F7F" fill-opacity="1" font-family="IBM Plex Sans Condensed,IBM Plex Sans Condensed_MSFontService,sans-serif" font-style="normal" font-variant="normal" font-weight="400" font-stretch="condensed" font-size="37" text-anchor="start" direction="ltr" writing-mode="lr-tb" unicode-bidi="normal" text-decoration="none" transform="matrix(1 0 0 1 3359.13 1907)">-</text><text fill="#7F7F7F" fill-opacity="1" font-family="IBM Plex Sans Condensed,IBM Plex Sans Condensed_MSFontService,sans-serif" font-style="normal" font-variant="normal" font-weight="400" font-stretch="condensed" font-size="37" text-anchor="start" direction="ltr" writing-mode="lr-tb" unicode-bidi="normal" text-decoration="none" transform="matrix(1 0 0 1 3372.3 1907)">100 apps/account</text><text fill="#7F7F7F" fill-opacity="1" font-family="IBM Plex Sans Condensed,IBM Plex Sans Condensed_MSFontService,sans-serif" font-style="normal" font-variant="normal" font-weight="400" font-stretch="condensed" font-size="37" text-anchor="start" direction="ltr" writing-mode="lr-tb" unicode-bidi="normal" text-decoration="none" transform="matrix(1 0 0 1 3325.6 1951)">ave</text><text fill="#7F7F7F" fill-opacity="1" font-family="IBM Plex Sans Condensed,IBM Plex Sans Condensed_MSFontService,sans-serif" font-style="normal" font-variant="normal" font-weight="400" font-stretch="condensed" font-size="37" text-anchor="start" direction="ltr" writing-mode="lr-tb" unicode-bidi="normal" text-decoration="none" transform="matrix(1 0 0 1 3385.75 1951)">~20 apps/account</text><path d="M3494.79 779.5 3494.79 860.848 3490.21 860.848 3490.21 779.5ZM3506.25 856.265 3492.5 883.765 3478.75 856.265Z" fill="#697077" fill-rule="nonzero" fill-opacity="1"/><path d="M2.29167-6.83453e-06 2.29196 98.0931-2.29137 98.0931-2.29167 6.83453e-06ZM13.7503 93.5097 0.000360892 121.01-13.7497 93.5098Z" fill="#697077" fill-rule="nonzero" fill-opacity="1" transform="matrix(-1 0 0 1 3492.5 1063.5)"/><path d="M3494.79 1369.5 3494.79 1467.59 3490.21 1467.59 3490.21 1369.5ZM3506.25 1463.01 3492.5 1490.51 3478.75 1463.01Z" fill="#697077" fill-rule="nonzero" fill-opacity="1"/><path d="M3494.79 1676.5 3494.79 1773.6 3490.21 1773.6 3490.21 1676.5ZM3506.25 1769.02 3492.5 1796.52 3478.75 1769.02Z" fill="#697077" fill-rule="nonzero" fill-opacity="1"/><rect x="1425" y="560" width="483" height="218" fill="#F2F2F2" fill-opacity="1"/><text fill="#000000" fill-opacity="1" font-family="IBM Plex Sans Condensed,IBM Plex Sans Condensed_MSFontService,sans-serif" font-style="normal" font-variant="normal" font-weight="400" font-stretch="condensed" font-size="50" text-anchor="start" direction="ltr" writing-mode="lr-tb" unicode-bidi="normal" text-decoration="none" transform="matrix(1 0 0 1 1515.94 687)">Dev Enterprise</text><rect x="797" y="861" width="483" height="218" fill="#F2F2F2" fill-opacity="1"/><text fill="#000000" fill-opacity="1" font-family="IBM Plex Sans Condensed,IBM Plex Sans Condensed_MSFontService,sans-serif" font-style="normal" font-variant="normal" font-weight="400" font-stretch="condensed" font-size="50" text-anchor="start" direction="ltr" writing-mode="lr-tb" unicode-bidi="normal" text-decoration="none" transform="matrix(1 0 0 1 945.813 958)">Business </text><text fill="#000000" fill-opacity="1" font-family="IBM Plex Sans Condensed,IBM Plex Sans Condensed_MSFontService,sans-serif" font-style="normal" font-variant="normal" font-weight="400" font-stretch="condensed" font-size="50" text-anchor="start" direction="ltr" writing-mode="lr-tb" unicode-bidi="normal" text-decoration="none" transform="matrix(1 0 0 1 977.025 1018)">Unit 1</text><rect x="1343" y="864" width="483" height="218" fill="#F2F2F2" fill-opacity="1"/><text fill="#000000" fill-opacity="1" font-family="IBM Plex Sans Condensed,IBM Plex Sans Condensed_MSFontService,sans-serif" font-style="normal" font-variant="normal" font-weight="400" font-stretch="condensed" font-size="50" text-anchor="start" direction="ltr" writing-mode="lr-tb" unicode-bidi="normal" text-decoration="none" transform="matrix(1 0 0 1 1492.03 960)">Business </text><text fill="#000000" fill-opacity="1" font-family="IBM Plex Sans Condensed,IBM Plex Sans Condensed_MSFontService,sans-serif" font-style="normal" font-variant="normal" font-weight="400" font-stretch="condensed" font-size="50" text-anchor="start" direction="ltr" writing-mode="lr-tb" unicode-bidi="normal" text-decoration="none" transform="matrix(1 0 0 1 1523.25 1020)">Unit 2</text><rect x="2106" y="864" width="482" height="218" fill="#F2F2F2" fill-opacity="1"/><text fill="#000000" fill-opacity="1" font-family="IBM Plex Sans Condensed,IBM Plex Sans Condensed_MSFontService,sans-serif" font-style="normal" font-variant="normal" font-weight="400" font-stretch="condensed" font-size="50" text-anchor="start" direction="ltr" writing-mode="lr-tb" unicode-bidi="normal" text-decoration="none" transform="matrix(1 0 0 1 2254.52 960)">Business </text><text fill="#000000" fill-opacity="1" font-family="IBM Plex Sans Condensed,IBM Plex Sans Condensed_MSFontService,sans-serif" font-style="normal" font-variant="normal" font-weight="400" font-stretch="condensed" font-size="50" text-anchor="start" direction="ltr" writing-mode="lr-tb" unicode-bidi="normal" text-decoration="none" transform="matrix(1 0 0 1 2271.98 1020)">Unit 25</text><rect x="529" y="1167" width="483" height="218" fill="#F2F2F2" fill-opacity="1"/><text fill="#000000" fill-opacity="1" font-family="IBM Plex Sans Condensed,IBM Plex Sans Condensed_MSFontService,sans-serif" font-style="normal" font-variant="normal" font-weight="400" font-stretch="condensed" font-size="50" text-anchor="start" direction="ltr" writing-mode="lr-tb" unicode-bidi="normal" text-decoration="none" transform="matrix(1 0 0 1 663.886 1294)">Portfolio 1</text><rect x="1062" y="1167" width="483" height="218" fill="#F2F2F2" fill-opacity="1"/><text fill="#000000" fill-opacity="1" font-family="IBM Plex Sans Condensed,IBM Plex Sans Condensed_MSFontService,sans-serif" font-style="normal" font-variant="normal" font-weight="400" font-stretch="condensed" font-size="50" text-anchor="start" direction="ltr" writing-mode="lr-tb" unicode-bidi="normal" text-decoration="none" transform="matrix(1 0 0 1 1196.71 1294)">Portfolio 2</text><rect x="2287" y="1167" width="483" height="218" fill="#F2F2F2" fill-opacity="1"/><text fill="#000000" fill-opacity="1" font-family="IBM Plex Sans Condensed,IBM Plex Sans Condensed_MSFontService,sans-serif" font-style="normal" font-variant="normal" font-weight="400" font-stretch="condensed" font-size="50" text-anchor="start" direction="ltr" writing-mode="lr-tb" unicode-bidi="normal" text-decoration="none" transform="matrix(1 0 0 1 2394.58 1294)">Portfolio 200</text><rect x="371" y="1468" width="483" height="218" fill="#F2F2F2" fill-opacity="1"/><text fill="#000000" fill-opacity="1" font-family="IBM Plex Sans Condensed,IBM Plex Sans Condensed_MSFontService,sans-serif" font-style="normal" font-variant="normal" font-weight="400" font-stretch="condensed" font-size="50" text-anchor="start" direction="ltr" writing-mode="lr-tb" unicode-bidi="normal" text-decoration="none" transform="matrix(1 0 0 1 495.919 1595)">Workload </text><text fill="#000000" fill-opacity="1" font-family="IBM Plex Sans Condensed,IBM Plex Sans Condensed_MSFontService,sans-serif" font-style="normal" font-variant="normal" font-weight="400" font-stretch="condensed" font-size="50" text-anchor="start" direction="ltr" writing-mode="lr-tb" unicode-bidi="normal" text-decoration="none" transform="matrix(1 0 0 1 702.169 1595)">1</text><rect x="901" y="1471" width="483" height="218" fill="#F2F2F2" fill-opacity="1"/><text fill="#000000" fill-opacity="1" font-family="IBM Plex Sans Condensed,IBM Plex Sans Condensed_MSFontService,sans-serif" font-style="normal" font-variant="normal" font-weight="400" font-stretch="condensed" font-size="50" text-anchor="start" direction="ltr" writing-mode="lr-tb" unicode-bidi="normal" text-decoration="none" transform="matrix(1 0 0 1 1025.86 1598)">Workload 2</text><rect x="2520" y="1471" width="483" height="218" fill="#F2F2F2" fill-opacity="1"/><text fill="#000000" fill-opacity="1" font-family="IBM Plex Sans Condensed,IBM Plex Sans Condensed_MSFontService,sans-serif" font-style="normal" font-variant="normal" font-weight="400" font-stretch="condensed" font-size="50" text-anchor="start" direction="ltr" writing-mode="lr-tb" unicode-bidi="normal" text-decoration="none" transform="matrix(1 0 0 1 2617.27 1598)">Workload 250</text><rect x="235" y="1776" width="483" height="218" fill="#F2F2F2" fill-opacity="1"/><text fill="#000000" fill-opacity="1" font-family="IBM Plex Sans Condensed,IBM Plex Sans Condensed_MSFontService,sans-serif" font-style="normal" font-variant="normal" font-weight="400" font-stretch="condensed" font-size="50" text-anchor="start" direction="ltr" writing-mode="lr-tb" unicode-bidi="normal" text-decoration="none" transform="matrix(1 0 0 1 341.595 1902)">Application 1</text><rect x="782" y="1777" width="483" height="218" fill="#F2F2F2" fill-opacity="1"/><text fill="#000000" fill-opacity="1" font-family="IBM Plex Sans Condensed,IBM Plex Sans Condensed_MSFontService,sans-serif" font-style="normal" font-variant="normal" font-weight="400" font-stretch="condensed" font-size="50" text-anchor="start" direction="ltr" writing-mode="lr-tb" unicode-bidi="normal" text-decoration="none" transform="matrix(1 0 0 1 888.434 1904)">Application 2</text><rect x="2666" y="1777" width="483" height="218" fill="#F2F2F2" fill-opacity="1"/><text fill="#000000" fill-opacity="1" font-family="IBM Plex Sans Condensed,IBM Plex Sans Condensed_MSFontService,sans-serif" font-style="normal" font-variant="normal" font-weight="400" font-stretch="condensed" font-size="50" text-anchor="start" direction="ltr" writing-mode="lr-tb" unicode-bidi="normal" text-decoration="none" transform="matrix(1 0 0 1 2730.85 1904)">Application 5000</text><path d="M1870.5 962.042 1870.52 962.042C1876.85 962.042 1881.98 967.172 1881.98 973.5 1881.98 979.828 1876.85 984.958 1870.52 984.958L1870.5 984.958C1864.17 984.958 1859.04 979.828 1859.04 973.5 1859.04 967.172 1864.17 962.042 1870.5 962.042ZM1916.36 962.042 1916.38 962.042C1922.71 962.042 1927.84 967.172 1927.84 973.5 1927.84 979.828 1922.71 984.958 1916.38 984.958L1916.36 984.958C1910.03 984.958 1904.9 979.828 1904.9 973.5 1904.9 967.172 1910.03 962.042 1916.36 962.042ZM1962.21 962.042 1962.24 962.042C1968.56 962.042 1973.69 967.172 1973.69 973.5 1973.69 979.828 1968.56 984.958 1962.24 984.958L1962.21 984.958C1955.88 984.958 1950.75 979.828 1950.75 973.5 1950.75 967.172 1955.88 962.042 1962.21 962.042ZM2008.07 962.042 2008.09 962.042C2014.42 962.042 2019.55 967.172 2019.55 973.5 2019.55 979.828 2014.42 984.959 2008.09 984.959L2008.07 984.959C2001.74 984.959 1996.61 979.828 1996.61 973.5 1996.61 967.172 2001.74 962.042 2008.07 962.042ZM2053.92 962.042 2053.95 962.042C2060.28 962.042 2065.41 967.172 2065.41 973.5 2065.41 979.829 2060.28 984.959 2053.95 984.959L2053.92 984.959C2047.6 984.959 2042.47 979.829 2042.47 973.5 2042.47 967.172 2047.6 962.042 2053.92 962.042Z" fill="#D9D9D9" fill-rule="nonzero" fill-opacity="1"/><path d="M1585.5 1265.04 1585.52 1265.04C1591.85 1265.04 1596.98 1270.17 1596.98 1276.5 1596.98 1282.83 1591.85 1287.96 1585.52 1287.96L1585.5 1287.96C1579.17 1287.96 1574.04 1282.83 1574.04 1276.5 1574.04 1270.17 1579.17 1265.04 1585.5 1265.04ZM1631.36 1265.04 1631.38 1265.04C1637.71 1265.04 1642.84 1270.17 1642.84 1276.5 1642.84 1282.83 1637.71 1287.96 1631.38 1287.96L1631.36 1287.96C1625.03 1287.96 1619.9 1282.83 1619.9 1276.5 1619.9 1270.17 1625.03 1265.04 1631.36 1265.04ZM1677.21 1265.04 1677.24 1265.04C1683.56 1265.04 1688.69 1270.17 1688.69 1276.5 1688.69 1282.83 1683.56 1287.96 1677.24 1287.96L1677.21 1287.96C1670.88 1287.96 1665.75 1282.83 1665.75 1276.5 1665.75 1270.17 1670.88 1265.04 1677.21 1265.04ZM1723.07 1265.04 1723.09 1265.04C1729.42 1265.04 1734.55 1270.17 1734.55 1276.5 1734.55 1282.83 1729.42 1287.96 1723.09 1287.96L1723.07 1287.96C1716.74 1287.96 1711.61 1282.83 1711.61 1276.5 1711.61 1270.17 1716.74 1265.04 1723.07 1265.04ZM1768.92 1265.04 1768.95 1265.04C1775.28 1265.04 1780.41 1270.17 1780.41 1276.5 1780.41 1282.83 1775.28 1287.96 1768.95 1287.96L1768.92 1287.96C1762.6 1287.96 1757.47 1282.83 1757.47 1276.5 1757.47 1270.17 1762.6 1265.04 1768.92 1265.04ZM1814.78 1265.04 1814.8 1265.04C1821.13 1265.04 1826.26 1270.17 1826.26 1276.5 1826.26 1282.83 1821.13 1287.96 1814.8 1287.96L1814.78 1287.96C1808.45 1287.96 1803.32 1282.83 1803.32 1276.5 1803.32 1270.17 1808.45 1265.04 1814.78 1265.04ZM1860.64 1265.04 1860.66 1265.04C1866.99 1265.04 1872.12 1270.17 1872.12 1276.5 1872.12 1282.83 1866.99 1287.96 1860.66 1287.96L1860.64 1287.96C1854.31 1287.96 1849.18 1282.83 1849.18 1276.5 1849.18 1270.17 1854.31 1265.04 1860.64 1265.04ZM1906.49 1265.04 1906.52 1265.04C1912.84 1265.04 1917.97 1270.17 1917.97 1276.5 1917.97 1282.83 1912.84 1287.96 1906.52 1287.96L1906.49 1287.96C1900.17 1287.96 1895.04 1282.83 1895.04 1276.5 1895.04 1270.17 1900.17 1265.04 1906.49 1265.04ZM1952.35 1265.04 1952.37 1265.04C1958.7 1265.04 1963.83 1270.17 1963.83 1276.5 1963.83 1282.83 1958.7 1287.96 1952.37 1287.96L1952.35 1287.96C1946.02 1287.96 1940.89 1282.83 1940.89 1276.5 1940.89 1270.17 1946.02 1265.04 1952.35 1265.04ZM1998.21 1265.04 1998.23 1265.04C2004.56 1265.04 2009.69 1270.17 2009.69 1276.5 2009.69 1282.83 2004.56 1287.96 1998.23 1287.96L1998.21 1287.96C1991.88 1287.96 1986.75 1282.83 1986.75 1276.5 1986.75 1270.17 1991.88 1265.04 1998.21 1265.04ZM2044.06 1265.04 2044.09 1265.04C2050.41 1265.04 2055.54 1270.17 2055.54 1276.5 2055.54 1282.83 2050.41 1287.96 2044.09 1287.96L2044.06 1287.96C2037.73 1287.96 2032.6 1282.83 2032.6 1276.5 2032.6 1270.17 2037.73 1265.04 2044.06 1265.04ZM2089.92 1265.04 2089.94 1265.04C2096.27 1265.04 2101.4 1270.17 2101.4 1276.5 2101.4 1282.83 2096.27 1287.96 2089.94 1287.96L2089.92 1287.96C2083.59 1287.96 2078.46 1282.83 2078.46 1276.5 2078.46 1270.17 2083.59 1265.04 2089.92 1265.04ZM2135.77 1265.04 2135.8 1265.04C2142.13 1265.04 2147.26 1270.17 2147.26 1276.5 2147.26 1282.83 2142.13 1287.96 2135.8 1287.96L2135.77 1287.96C2129.45 1287.96 2124.32 1282.83 2124.32 1276.5 2124.32 1270.17 2129.45 1265.04 2135.77 1265.04ZM2181.63 1265.04 2181.65 1265.04C2187.98 1265.04 2193.11 1270.17 2193.11 1276.5 2193.11 1282.83 2187.98 1287.96 2181.65 1287.96L2181.63 1287.96C2175.3 1287.96 2170.17 1282.83 2170.17 1276.5 2170.17 1270.17 2175.3 1265.04 2181.63 1265.04ZM2227.49 1265.04 2227.51 1265.04C2233.84 1265.04 2238.97 1270.17 2238.97 1276.5 2238.97 1282.83 2233.84 1287.96 2227.51 1287.96L2227.49 1287.96C2221.16 1287.96 2216.03 1282.83 2216.03 1276.5 2216.03 1270.17 2221.16 1265.04 2227.49 1265.04Z" fill="#D9D9D9" fill-rule="nonzero" fill-opacity="1"/><path d="M1426.5 1566.04 1426.52 1566.04C1432.85 1566.04 1437.98 1571.17 1437.98 1577.5 1437.98 1583.83 1432.85 1588.96 1426.52 1588.96L1426.5 1588.96C1420.17 1588.96 1415.04 1583.83 1415.04 1577.5 1415.04 1571.17 1420.17 1566.04 1426.5 1566.04ZM1472.36 1566.04 1472.38 1566.04C1478.71 1566.04 1483.84 1571.17 1483.84 1577.5 1483.84 1583.83 1478.71 1588.96 1472.38 1588.96L1472.36 1588.96C1466.03 1588.96 1460.9 1583.83 1460.9 1577.5 1460.9 1571.17 1466.03 1566.04 1472.36 1566.04ZM1518.21 1566.04 1518.24 1566.04C1524.56 1566.04 1529.69 1571.17 1529.69 1577.5 1529.69 1583.83 1524.56 1588.96 1518.24 1588.96L1518.21 1588.96C1511.88 1588.96 1506.75 1583.83 1506.75 1577.5 1506.75 1571.17 1511.88 1566.04 1518.21 1566.04ZM1564.07 1566.04 1564.09 1566.04C1570.42 1566.04 1575.55 1571.17 1575.55 1577.5 1575.55 1583.83 1570.42 1588.96 1564.09 1588.96L1564.07 1588.96C1557.74 1588.96 1552.61 1583.83 1552.61 1577.5 1552.61 1571.17 1557.74 1566.04 1564.07 1566.04ZM1609.93 1566.04 1609.95 1566.04C1616.28 1566.04 1621.41 1571.17 1621.41 1577.5 1621.41 1583.83 1616.28 1588.96 1609.95 1588.96L1609.93 1588.96C1603.6 1588.96 1598.47 1583.83 1598.47 1577.5 1598.47 1571.17 1603.6 1566.04 1609.93 1566.04ZM1655.78 1566.04 1655.8 1566.04C1662.13 1566.04 1667.26 1571.17 1667.26 1577.5 1667.26 1583.83 1662.13 1588.96 1655.8 1588.96L1655.78 1588.96C1649.45 1588.96 1644.32 1583.83 1644.32 1577.5 1644.32 1571.17 1649.45 1566.04 1655.78 1566.04ZM1701.64 1566.04 1701.66 1566.04C1707.99 1566.04 1713.12 1571.17 1713.12 1577.5 1713.12 1583.83 1707.99 1588.96 1701.66 1588.96L1701.64 1588.96C1695.31 1588.96 1690.18 1583.83 1690.18 1577.5 1690.18 1571.17 1695.31 1566.04 1701.64 1566.04ZM1747.49 1566.04 1747.52 1566.04C1753.85 1566.04 1758.98 1571.17 1758.98 1577.5 1758.98 1583.83 1753.85 1588.96 1747.52 1588.96L1747.49 1588.96C1741.17 1588.96 1736.04 1583.83 1736.04 1577.5 1736.04 1571.17 1741.17 1566.04 1747.49 1566.04ZM1793.35 1566.04 1793.37 1566.04C1799.7 1566.04 1804.83 1571.17 1804.83 1577.5 1804.83 1583.83 1799.7 1588.96 1793.37 1588.96L1793.35 1588.96C1787.02 1588.96 1781.89 1583.83 1781.89 1577.5 1781.89 1571.17 1787.02 1566.04 1793.35 1566.04ZM1839.21 1566.04 1839.23 1566.04C1845.56 1566.04 1850.69 1571.17 1850.69 1577.5 1850.69 1583.83 1845.56 1588.96 1839.23 1588.96L1839.21 1588.96C1832.88 1588.96 1827.75 1583.83 1827.75 1577.5 1827.75 1571.17 1832.88 1566.04 1839.21 1566.04ZM1885.06 1566.04 1885.09 1566.04C1891.41 1566.04 1896.54 1571.17 1896.54 1577.5 1896.54 1583.83 1891.41 1588.96 1885.09 1588.96L1885.06 1588.96C1878.73 1588.96 1873.6 1583.83 1873.6 1577.5 1873.6 1571.17 1878.73 1566.04 1885.06 1566.04ZM1930.92 1566.04 1930.94 1566.04C1937.27 1566.04 1942.4 1571.17 1942.4 1577.5 1942.4 1583.83 1937.27 1588.96 1930.94 1588.96L1930.92 1588.96C1924.59 1588.96 1919.46 1583.83 1919.46 1577.5 1919.46 1571.17 1924.59 1566.04 1930.92 1566.04ZM1976.78 1566.04 1976.8 1566.04C1983.13 1566.04 1988.26 1571.17 1988.26 1577.5 1988.26 1583.83 1983.13 1588.96 1976.8 1588.96L1976.78 1588.96C1970.45 1588.96 1965.32 1583.83 1965.32 1577.5 1965.32 1571.17 1970.45 1566.04 1976.78 1566.04ZM2022.63 1566.04 2022.65 1566.04C2028.98 1566.04 2034.11 1571.17 2034.11 1577.5 2034.11 1583.83 2028.98 1588.96 2022.65 1588.96L2022.63 1588.96C2016.3 1588.96 2011.17 1583.83 2011.17 1577.5 2011.17 1571.17 2016.3 1566.04 2022.63 1566.04ZM2068.49 1566.04 2068.51 1566.04C2074.84 1566.04 2079.97 1571.17 2079.97 1577.5 2079.97 1583.83 2074.84 1588.96 2068.51 1588.96L2068.49 1588.96C2062.16 1588.96 2057.03 1583.83 2057.03 1577.5 2057.03 1571.17 2062.16 1566.04 2068.49 1566.04ZM2114.34 1566.04 2114.37 1566.04C2120.7 1566.04 2125.83 1571.17 2125.83 1577.5 2125.83 1583.83 2120.7 1588.96 2114.37 1588.96L2114.34 1588.96C2108.02 1588.96 2102.89 1583.83 2102.89 1577.5 2102.89 1571.17 2108.02 1566.04 2114.34 1566.04ZM2160.2 1566.04 2160.22 1566.04C2166.55 1566.04 2171.68 1571.17 2171.68 1577.5 2171.68 1583.83 2166.55 1588.96 2160.22 1588.96L2160.2 1588.96C2153.87 1588.96 2148.74 1583.83 2148.74 1577.5 2148.74 1571.17 2153.87 1566.04 2160.2 1566.04ZM2206.06 1566.04 2206.08 1566.04C2212.41 1566.04 2217.54 1571.17 2217.54 1577.5 2217.54 1583.83 2212.41 1588.96 2206.08 1588.96L2206.06 1588.96C2199.73 1588.96 2194.6 1583.83 2194.6 1577.5 2194.6 1571.17 2199.73 1566.04 2206.06 1566.04ZM2251.91 1566.04 2251.94 1566.04C2258.26 1566.04 2263.39 1571.17 2263.39 1577.5 2263.39 1583.83 2258.26 1588.96 2251.94 1588.96L2251.91 1588.96C2245.58 1588.96 2240.45 1583.83 2240.45 1577.5 2240.45 1571.17 2245.58 1566.04 2251.91 1566.04ZM2297.77 1566.04 2297.79 1566.04C2304.12 1566.04 2309.25 1571.17 2309.25 1577.5 2309.25 1583.83 2304.12 1588.96 2297.79 1588.96L2297.77 1588.96C2291.44 1588.96 2286.31 1583.83 2286.31 1577.5 2286.31 1571.17 2291.44 1566.04 2297.77 1566.04ZM2343.62 1566.04 2343.65 1566.04C2349.98 1566.04 2355.11 1571.17 2355.11 1577.5 2355.11 1583.83 2349.98 1588.96 2343.65 1588.96L2343.62 1588.96C2337.3 1588.96 2332.17 1583.83 2332.17 1577.5 2332.17 1571.17 2337.3 1566.04 2343.62 1566.04ZM2389.48 1566.04 2389.5 1566.04C2395.83 1566.04 2400.96 1571.17 2400.96 1577.5 2400.96 1583.83 2395.83 1588.96 2389.5 1588.96L2389.48 1588.96C2383.15 1588.96 2378.02 1583.83 2378.02 1577.5 2378.02 1571.17 2383.15 1566.04 2389.48 1566.04ZM2435.34 1566.04 2435.36 1566.04C2441.69 1566.04 2446.82 1571.17 2446.82 1577.5 2446.82 1583.83 2441.69 1588.96 2435.36 1588.96L2435.34 1588.96C2429.01 1588.96 2423.88 1583.83 2423.88 1577.5 2423.88 1571.17 2429.01 1566.04 2435.34 1566.04Z" fill="#D9D9D9" fill-rule="nonzero" fill-opacity="1"/><path d="M1302.5 1874.04 1302.52 1874.04C1308.85 1874.04 1313.98 1879.17 1313.98 1885.5 1313.98 1891.83 1308.85 1896.96 1302.52 1896.96L1302.5 1896.96C1296.17 1896.96 1291.04 1891.83 1291.04 1885.5 1291.04 1879.17 1296.17 1874.04 1302.5 1874.04ZM1348.36 1874.04 1348.38 1874.04C1354.71 1874.04 1359.84 1879.17 1359.84 1885.5 1359.84 1891.83 1354.71 1896.96 1348.38 1896.96L1348.36 1896.96C1342.03 1896.96 1336.9 1891.83 1336.9 1885.5 1336.9 1879.17 1342.03 1874.04 1348.36 1874.04ZM1394.21 1874.04 1394.24 1874.04C1400.56 1874.04 1405.69 1879.17 1405.69 1885.5 1405.69 1891.83 1400.56 1896.96 1394.24 1896.96L1394.21 1896.96C1387.88 1896.96 1382.75 1891.83 1382.75 1885.5 1382.75 1879.17 1387.88 1874.04 1394.21 1874.04ZM1440.07 1874.04 1440.09 1874.04C1446.42 1874.04 1451.55 1879.17 1451.55 1885.5 1451.55 1891.83 1446.42 1896.96 1440.09 1896.96L1440.07 1896.96C1433.74 1896.96 1428.61 1891.83 1428.61 1885.5 1428.61 1879.17 1433.74 1874.04 1440.07 1874.04ZM1485.93 1874.04 1485.95 1874.04C1492.28 1874.04 1497.41 1879.17 1497.41 1885.5 1497.41 1891.83 1492.28 1896.96 1485.95 1896.96L1485.93 1896.96C1479.6 1896.96 1474.47 1891.83 1474.47 1885.5 1474.47 1879.17 1479.6 1874.04 1485.93 1874.04ZM1531.78 1874.04 1531.8 1874.04C1538.13 1874.04 1543.26 1879.17 1543.26 1885.5 1543.26 1891.83 1538.13 1896.96 1531.8 1896.96L1531.78 1896.96C1525.45 1896.96 1520.32 1891.83 1520.32 1885.5 1520.32 1879.17 1525.45 1874.04 1531.78 1874.04ZM1577.64 1874.04 1577.66 1874.04C1583.99 1874.04 1589.12 1879.17 1589.12 1885.5 1589.12 1891.83 1583.99 1896.96 1577.66 1896.96L1577.64 1896.96C1571.31 1896.96 1566.18 1891.83 1566.18 1885.5 1566.18 1879.17 1571.31 1874.04 1577.64 1874.04ZM1623.49 1874.04 1623.52 1874.04C1629.84 1874.04 1634.97 1879.17 1634.97 1885.5 1634.97 1891.83 1629.84 1896.96 1623.52 1896.96L1623.49 1896.96C1617.17 1896.96 1612.04 1891.83 1612.04 1885.5 1612.04 1879.17 1617.17 1874.04 1623.49 1874.04ZM1669.35 1874.04 1669.37 1874.04C1675.7 1874.04 1680.83 1879.17 1680.83 1885.5 1680.83 1891.83 1675.7 1896.96 1669.37 1896.96L1669.35 1896.96C1663.02 1896.96 1657.89 1891.83 1657.89 1885.5 1657.89 1879.17 1663.02 1874.04 1669.35 1874.04ZM1715.21 1874.04 1715.23 1874.04C1721.56 1874.04 1726.69 1879.17 1726.69 1885.5 1726.69 1891.83 1721.56 1896.96 1715.23 1896.96L1715.21 1896.96C1708.88 1896.96 1703.75 1891.83 1703.75 1885.5 1703.75 1879.17 1708.88 1874.04 1715.21 1874.04ZM1761.06 1874.04 1761.09 1874.04C1767.41 1874.04 1772.54 1879.17 1772.54 1885.5 1772.54 1891.83 1767.41 1896.96 1761.09 1896.96L1761.06 1896.96C1754.73 1896.96 1749.6 1891.83 1749.6 1885.5 1749.6 1879.17 1754.73 1874.04 1761.06 1874.04ZM1806.92 1874.04 1806.94 1874.04C1813.27 1874.04 1818.4 1879.17 1818.4 1885.5 1818.4 1891.83 1813.27 1896.96 1806.94 1896.96L1806.92 1896.96C1800.59 1896.96 1795.46 1891.83 1795.46 1885.5 1795.46 1879.17 1800.59 1874.04 1806.92 1874.04ZM1852.78 1874.04 1852.8 1874.04C1859.13 1874.04 1864.26 1879.17 1864.26 1885.5 1864.26 1891.83 1859.13 1896.96 1852.8 1896.96L1852.78 1896.96C1846.45 1896.96 1841.32 1891.83 1841.32 1885.5 1841.32 1879.17 1846.45 1874.04 1852.78 1874.04ZM1898.63 1874.04 1898.65 1874.04C1904.98 1874.04 1910.11 1879.17 1910.11 1885.5 1910.11 1891.83 1904.98 1896.96 1898.65 1896.96L1898.63 1896.96C1892.3 1896.96 1887.17 1891.83 1887.17 1885.5 1887.17 1879.17 1892.3 1874.04 1898.63 1874.04ZM1944.49 1874.04 1944.51 1874.04C1950.84 1874.04 1955.97 1879.17 1955.97 1885.5 1955.97 1891.83 1950.84 1896.96 1944.51 1896.96L1944.49 1896.96C1938.16 1896.96 1933.03 1891.83 1933.03 1885.5 1933.03 1879.17 1938.16 1874.04 1944.49 1874.04ZM1990.34 1874.04 1990.37 1874.04C1996.69 1874.04 2001.82 1879.17 2001.82 1885.5 2001.82 1891.83 1996.69 1896.96 1990.37 1896.96L1990.34 1896.96C1984.02 1896.96 1978.89 1891.83 1978.89 1885.5 1978.89 1879.17 1984.02 1874.04 1990.34 1874.04ZM2036.2 1874.04 2036.22 1874.04C2042.55 1874.04 2047.68 1879.17 2047.68 1885.5 2047.68 1891.83 2042.55 1896.96 2036.22 1896.96L2036.2 1896.96C2029.87 1896.96 2024.74 1891.83 2024.74 1885.5 2024.74 1879.17 2029.87 1874.04 2036.2 1874.04ZM2082.06 1874.04 2082.08 1874.04C2088.41 1874.04 2093.54 1879.17 2093.54 1885.5 2093.54 1891.83 2088.41 1896.96 2082.08 1896.96L2082.06 1896.96C2075.73 1896.96 2070.6 1891.83 2070.6 1885.5 2070.6 1879.17 2075.73 1874.04 2082.06 1874.04ZM2127.91 1874.04 2127.94 1874.04C2134.26 1874.04 2139.39 1879.17 2139.39 1885.5 2139.39 1891.83 2134.26 1896.96 2127.94 1896.96L2127.91 1896.96C2121.58 1896.96 2116.45 1891.83 2116.45 1885.5 2116.45 1879.17 2121.58 1874.04 2127.91 1874.04ZM2173.77 1874.04 2173.79 1874.04C2180.12 1874.04 2185.25 1879.17 2185.25 1885.5 2185.25 1891.83 2180.12 1896.96 2173.79 1896.96L2173.77 1896.96C2167.44 1896.96 2162.31 1891.83 2162.31 1885.5 2162.31 1879.17 2167.44 1874.04 2173.77 1874.04ZM2219.62 1874.04 2219.65 1874.04C2225.98 1874.04 2231.11 1879.17 2231.11 1885.5 2231.11 1891.83 2225.98 1896.96 2219.65 1896.96L2219.62 1896.96C2213.3 1896.96 2208.17 1891.83 2208.17 1885.5 2208.17 1879.17 2213.3 1874.04 2219.62 1874.04ZM2265.48 1874.04 2265.5 1874.04C2271.83 1874.04 2276.96 1879.17 2276.96 1885.5 2276.96 1891.83 2271.83 1896.96 2265.5 1896.96L2265.48 1896.96C2259.15 1896.96 2254.02 1891.83 2254.02 1885.5 2254.02 1879.17 2259.15 1874.04 2265.48 1874.04ZM2311.34 1874.04 2311.36 1874.04C2317.69 1874.04 2322.82 1879.17 2322.82 1885.5 2322.82 1891.83 2317.69 1896.96 2311.36 1896.96L2311.34 1896.96C2305.01 1896.96 2299.88 1891.83 2299.88 1885.5 2299.88 1879.17 2305.01 1874.04 2311.34 1874.04ZM2357.19 1874.04 2357.22 1874.04C2363.54 1874.04 2368.68 1879.17 2368.68 1885.5 2368.68 1891.83 2363.54 1896.96 2357.22 1896.96L2357.19 1896.96C2350.87 1896.96 2345.74 1891.83 2345.74 1885.5 2345.74 1879.17 2350.87 1874.04 2357.19 1874.04ZM2403.05 1874.04 2403.07 1874.04C2409.4 1874.04 2414.53 1879.17 2414.53 1885.5 2414.53 1891.83 2409.4 1896.96 2403.07 1896.96L2403.05 1896.96C2396.72 1896.96 2391.59 1891.83 2391.59 1885.5 2391.59 1879.17 2396.72 1874.04 2403.05 1874.04ZM2448.91 1874.04 2448.93 1874.04C2455.26 1874.04 2460.39 1879.17 2460.39 1885.5 2460.39 1891.83 2455.26 1896.96 2448.93 1896.96L2448.91 1896.96C2442.58 1896.96 2437.45 1891.83 2437.45 1885.5 2437.45 1879.17 2442.58 1874.04 2448.91 1874.04ZM2494.76 1874.04 2494.79 1874.04C2501.11 1874.04 2506.24 1879.17 2506.24 1885.5 2506.24 1891.83 2501.11 1896.96 2494.79 1896.96L2494.76 1896.96C2488.43 1896.96 2483.3 1891.83 2483.3 1885.5 2483.3 1879.17 2488.43 1874.04 2494.76 1874.04ZM2540.62 1874.04 2540.64 1874.04C2546.97 1874.04 2552.1 1879.17 2552.1 1885.5 2552.1 1891.83 2546.97 1896.96 2540.64 1896.96L2540.62 1896.96C2534.29 1896.96 2529.16 1891.83 2529.16 1885.5 2529.16 1879.17 2534.29 1874.04 2540.62 1874.04ZM2586.48 1874.04 2586.5 1874.04C2592.83 1874.04 2597.96 1879.17 2597.96 1885.5 2597.96 1891.83 2592.83 1896.96 2586.5 1896.96L2586.48 1896.96C2580.15 1896.96 2575.02 1891.83 2575.02 1885.5 2575.02 1879.17 2580.15 1874.04 2586.48 1874.04ZM2632.33 1874.04 2632.35 1874.04C2638.68 1874.04 2643.81 1879.17 2643.81 1885.5 2643.81 1891.83 2638.68 1896.96 2632.35 1896.96L2632.33 1896.96C2626 1896.96 2620.87 1891.83 2620.87 1885.5 2620.87 1879.17 2626 1874.04 2632.33 1874.04Z" fill="#D9D9D9" fill-rule="nonzero" fill-opacity="1"/><text fill="#000000" fill-opacity="1" font-family="IBM Plex Sans,IBM Plex Sans_MSFontService,sans-serif" font-style="normal" font-variant="normal" font-weight="400" font-stretch="normal" font-size="50" text-anchor="start" direction="ltr" writing-mode="lr-tb" unicode-bidi="normal" text-decoration="none" transform="matrix(1 0 0 1 1349.54 2121)">Max 300 accounts/enterprise </text><text fill="#000000" fill-opacity="1" font-family="IBM Plex Sans,IBM Plex Sans_MSFontService,sans-serif" font-style="normal" font-variant="normal" font-weight="400" font-stretch="normal" font-size="50" text-anchor="start" direction="ltr" writing-mode="lr-tb" unicode-bidi="normal" text-decoration="none" transform="matrix(1 0 0 1 2026.73 2121)">–</text><text fill="#000000" fill-opacity="1" font-family="IBM Plex Sans,IBM Plex Sans_MSFontService,sans-serif" font-style="normal" font-variant="normal" font-weight="400" font-stretch="normal" font-size="50" text-anchor="start" direction="ltr" writing-mode="lr-tb" unicode-bidi="normal" text-decoration="none" transform="matrix(1 0 0 1 2068.56 2121)">x2 with dev and prod</text><path d="M3975.33 1143.16 4012.29 1143.16 4033.85 1179.46 4034.73 1179.46 4055.63 1143.16 4089.95 1143.16 4051.67 1201.02 4090.17 1258.66 4053.21 1258.66 4030.99 1221.04 4030.11 1221.04 4008.77 1258.66 3974.89 1258.66 4012.95 1199.92ZM4162.18 1102.46C4195.4 1102.46 4214.54 1122.04 4214.54 1148.66 4214.54 1175.06 4195.62 1191.12 4173.62 1208.5L4145.02 1230.94 4217.62 1230.94 4217.62 1258.66 4108.94 1258.66 4108.94 1228.52 4156.24 1188.04C4173.4 1173.3 4179.34 1164.72 4179.34 1151.74L4179.34 1148.66C4179.34 1137 4169 1131.06 4159.1 1131.06 4144.58 1131.06 4137.54 1140.96 4134.46 1152.62L4105.64 1141.62C4112.46 1120.28 4130.28 1102.46 4162.18 1102.46Z" stroke="#7F7F7F" stroke-width="5" stroke-linecap="butt" stroke-linejoin="round" stroke-miterlimit="10" stroke-opacity="1" fill="#FEFEFE" fill-rule="evenodd" fill-opacity="1"/><text fill="#000000" fill-opacity="0" font-family="Arial,Arial_MSFontService,sans-serif" font-size="156.2" direction="ltr" writing-mode="lr-tb" x="3974.89" y="1239.14">x2</text><text fill="#000000" fill-opacity="1" font-family="IBM Plex Sans,IBM Plex Sans_MSFontService,sans-serif" font-style="normal" font-variant="normal" font-weight="400" font-stretch="normal" font-size="50" text-anchor="start" direction="ltr" writing-mode="lr-tb" unicode-bidi="normal" text-decoration="none" transform="matrix(1 0 0 1 3961.36 1344)">Enterprises</text><text fill="#7F7F7F" fill-opacity="1" font-family="IBM Plex Sans Condensed,IBM Plex Sans Condensed_MSFontService,sans-serif" font-style="normal" font-variant="normal" font-weight="400" font-stretch="condensed" font-size="37" text-anchor="start" direction="ltr" writing-mode="lr-tb" unicode-bidi="normal" text-decoration="none" transform="matrix(1 0 0 1 3963.08 1394)">1 Dev and 1 Prod</text><path d="M3771 502C3796.96 502 3818 505.507 3818 509.833L3818 1322.17C3818 1326.49 3839.04 1330 3865 1330 3839.04 1330 3818 1333.51 3818 1337.83L3818 2150.17C3818 2154.49 3796.96 2158 3771 2158" stroke="#7F7F7F" stroke-width="2.29167" stroke-linecap="butt" stroke-linejoin="miter" stroke-miterlimit="8" stroke-opacity="1" fill="none" fill-rule="evenodd"/></g></svg>