<svg xmlns="http://www.w3.org/2000/svg" width="985.7461" height="445.45" viewBox="0 0 985.7461 445.45"><defs><style>.cls-1{fill:#e0e0e0;}.cls-2,.cls-6{fill:#a9a8a9;}.cls-3,.cls-4,.cls-5,.cls-7,.cls-8{fill:none;stroke-width:5px;}.cls-3,.cls-4,.cls-5,.cls-6,.cls-7,.cls-8{stroke:#a7a9ac;stroke-miterlimit:10;}.cls-4{stroke-dasharray:11.5089 11.5089;}.cls-5{stroke-dasharray:12.2023 12.2023;}.cls-6{stroke-width:2px;}.cls-7{stroke-dasharray:11.8112 11.8112;}.cls-8{stroke-dasharray:12.1647 12.1647;}.cls-11,.cls-9{font-size:12px;}.cls-10,.cls-12,.cls-9{fill:#231f20;}.cls-11,.cls-12,.cls-9{font-family:IBMPlexSans, IBM Plex Sans;}.cls-10,.cls-13,.cls-14{font-size:14px;}.cls-10,.cls-13{font-family:IBMPlexSans-Medium, IBM Plex Sans;font-weight:500;}.cls-11{font-weight:400;}.cls-12{font-size:60px;}</style></defs><g id="Object"><rect class="cls-1" x="310.3506" y="4.0127" width="130.4748" height="58.6901"/><rect class="cls-1" x="436.3602" y="92.0789" width="125.9456" height="57.9815"/><rect class="cls-2" x="366.8158" y="124.3924" width="69.5444"/><polyline class="cls-3" points="430.36 124.392 436.36 124.392 430.36 124.392"/><line class="cls-4" x1="418.8513" y1="124.3924" x2="378.5703" y2="124.3924"/><polyline class="cls-3" points="372.816 124.392 366.816 124.392 372.816 124.392"/><line class="cls-4" x1="384.3247" y1="124.3924" x2="424.6057" y2="124.3924"/><rect class="cls-2" x="277.5302" y="383.3573" width="243.8444"/><polyline class="cls-3" points="515.375 383.357 521.375 383.357 515.375 383.357"/><line class="cls-5" x1="503.1722" y1="383.3573" x2="289.6313" y2="383.3573"/><polyline class="cls-3" points="283.53 383.357 277.53 383.357 283.53 383.357"/><line class="cls-5" x1="295.7325" y1="383.3573" x2="509.2734" y2="383.3573"/><rect class="cls-6" x="862.4417" y="1.1094" width="0.5051" height="429.0086"/><rect class="cls-6" x="839.2195" y="1" width="24.2424"/><rect class="cls-6" x="839.2195" y="430.118" width="24.2424"/><rect class="cls-2" x="323.5302" y="208.4988" width="141.9236"/><polyline class="cls-3" points="459.454 208.499 465.454 208.499 465.454 208.499 459.454 208.499"/><line class="cls-7" x1="447.6426" y1="208.4988" x2="335.4358" y2="208.4988"/><polyline class="cls-3" points="329.53 208.499 323.53 208.499 323.53 208.499 329.53 208.499"/><line class="cls-7" x1="341.3414" y1="208.4988" x2="453.5482" y2="208.4988"/><rect class="cls-2" x="316.5302" y="295.9179" width="194.4698"/><polyline class="cls-3" points="505 295.918 511 295.918 511 295.918 505 295.918"/><line class="cls-8" x1="492.8354" y1="295.918" x2="328.6125" y2="295.918"/><polyline class="cls-3" points="322.53 295.918 316.53 295.918 316.53 295.918 322.53 295.918"/><line class="cls-8" x1="334.6948" y1="295.9179" x2="498.9177" y2="295.9179"/><rect class="cls-1" x="465.4538" y="178.498" width="125.9456" height="57.9815"/><rect class="cls-1" x="487.7304" y="267.583" width="130.4748" height="58.6901"/><rect class="cls-1" x="521.3746" y="353.0021" width="130.4748" height="58.6901"/><rect class="cls-1" x="227.777" y="91.7246" width="130.4748" height="58.6901"/><rect class="cls-1" x="205.3847" y="179.1538" width="130.4748" height="58.6901"/><rect class="cls-1" x="179.8618" y="266.5729" width="130.4748" height="58.6901"/><rect class="cls-1" x="141.9849" y="354.1503" width="130.4748" height="58.6901"/><rect class="cls-1" y="354.0122" width="130.4748" height="58.6901"/><rect class="cls-1" x="37.1935" y="265.6004" width="130.4748" height="58.6901"/><rect class="cls-1" x="64.6445" y="179.1538" width="130.4748" height="58.6901"/><rect class="cls-1" x="87.5885" y="91.7246" width="130.4748" height="58.6901"/></g><g id="Text"><text class="cls-9" transform="translate(347.4703 38.766)">Enterprise</text><text class="cls-9" transform="translate(109.4311 125.7256)">Business Unit 1</text><text class="cls-9" transform="translate(248.4283 126.3318)">Business Unit 2</text><text class="cls-9" transform="translate(97.5905 212.5951)">Portfolio 1</text><text class="cls-9" transform="translate(244.6782 213.8386)">Portfolio 2</text><text class="cls-9" transform="translate(68.7623 301.6445)">Workload 1</text><text class="cls-9" transform="translate(215.6492 301.6443)">Workload 2</text><text class="cls-9" transform="translate(23.958 389.4742)">Application 1</text><text class="cls-9" transform="translate(179.3849 388.1083)">Application 2</text><text class="cls-9" transform="translate(455.9772 125.5817)">Business Unit 25</text><text class="cls-9" transform="translate(489.1463 214.5844)">Portfolio 200</text><text class="cls-9" transform="translate(521.4724 303.8253)">Workload 250</text><text class="cls-9" transform="translate(545.3991 388.1087)">Application 500</text><text class="cls-10" transform="translate(726.2166 28.5579)">Enterprise <tspan class="cls-11"><tspan x="-31.6387" y="14.3999">300 accounts/enterprise</tspan></tspan></text><text class="cls-10" transform="translate(714.5953 101.2161)">Account group<tspan class="cls-11"><tspan x="-16.0947" y="14.3999">Max 250 BU/enterprise</tspan><tspan x="-7.9824" y="28.7998">BUs might co-reside</tspan></tspan></text><text class="cls-10" transform="translate(714.5958 193.038)">Account group<tspan class="cls-11"><tspan x="9.3809" y="14.3999">Average 4/BU</tspan><tspan x="9.8496" y="28.7998">layer optional</tspan></tspan></text><text class="cls-10" transform="translate(734.8396 283.5689)">Account<tspan class="cls-11"><tspan x="-29.4805" y="14.3999">Max 50 accounts/BU</tspan><tspan x="-7.7793" y="28.7998">Average ~10</tspan></tspan></text><text class="cls-10" transform="translate(723.4232 373.243)">Namespace<tspan class="cls-11"><tspan x="-17.3018" y="14.3999">1-100 apps/account</tspan><tspan x="-34.6836" y="28.7998">Average ~20 apps/account</tspan></tspan></text><text class="cls-12" transform="translate(881.8815 198.9847)">x2<tspan class="cls-13"><tspan x="0" y="16.7998">Enterprises</tspan></tspan><tspan class="cls-14"><tspan x="0" y="33.6001">1 nonproduction</tspan><tspan x="0" y="50.3999">1 production</tspan></tspan></text><text class="cls-9" transform="translate(201.7771 442.5097)">Max 300 accounts/enterprise –x2 with nonproduction and production</text></g></svg>