<svg xmlns="http://www.w3.org/2000/svg" width="985.6768" height="445.45" viewBox="0 0 985.6768 445.45"><defs><style>.cls-1{fill:#e0e0e0;}.cls-2,.cls-6{fill:#a9a8a9;}.cls-3,.cls-4,.cls-5,.cls-7,.cls-8{fill:none;stroke-width:5px;}.cls-3,.cls-4,.cls-5,.cls-6,.cls-7,.cls-8{stroke:#a7a9ac;stroke-miterlimit:10;}.cls-4{stroke-dasharray:11.5089 11.5089;}.cls-5{stroke-dasharray:12.2023 12.2023;}.cls-6{stroke-width:2px;}.cls-7{stroke-dasharray:11.8112 11.8112;}.cls-8{stroke-dasharray:12.1647 12.1647;}.cls-18,.cls-21,.cls-9{font-size:12px;}.cls-18,.cls-19,.cls-35,.cls-9{fill:#231f20;}.cls-18,.cls-21,.cls-35,.cls-9{font-family:IBMPlexSans, IBM Plex Sans;}.cls-10{letter-spacing:-0.004em;}.cls-11{letter-spacing:0em;}.cls-12{letter-spacing:-0.006em;}.cls-13{letter-spacing:-0.02em;}.cls-14{letter-spacing:0.004em;}.cls-15{letter-spacing:-0.01em;}.cls-16{letter-spacing:-0.004em;}.cls-17,.cls-18{letter-spacing:-0.015em;}.cls-19,.cls-36,.cls-38{font-size:14px;}.cls-19,.cls-36{font-family:IBMPlexSans-Medium, IBM Plex Sans;font-weight:500;}.cls-20{letter-spacing:-0.004em;}.cls-21{font-weight:400;}.cls-22{letter-spacing:-0.015em;}.cls-23{letter-spacing:-0.0059em;}.cls-24{letter-spacing:-0.005em;}.cls-25{letter-spacing:-0.0199em;}.cls-26{letter-spacing:0.01em;}.cls-27{letter-spacing:-0.005em;}.cls-28{letter-spacing:-0.0081em;}.cls-29{letter-spacing:-0.0001em;}.cls-30{letter-spacing:-0.0059em;}.cls-31{letter-spacing:-0.005em;}.cls-32{letter-spacing:0.0001em;}.cls-33{letter-spacing:-0.0001em;}.cls-34{letter-spacing:-0.0099em;}.cls-35{font-size:60px;}.cls-37{letter-spacing:-0.004em;}.cls-39{letter-spacing:-0.005em;}.cls-40{letter-spacing:-0.035em;}</style></defs><g id="Object"><rect class="cls-1" x="310.3506" y="4.0127" width="130.4748" height="58.6901"/><rect class="cls-1" x="436.3602" y="92.0789" width="125.9456" height="57.9815"/><rect class="cls-2" x="366.8158" y="124.3924" width="69.5444"/><polyline class="cls-3" points="430.36 124.392 436.36 124.392 430.36 124.392"/><line class="cls-4" x1="418.8513" y1="124.3924" x2="378.5703" y2="124.3924"/><polyline class="cls-3" points="372.816 124.392 366.816 124.392 372.816 124.392"/><line class="cls-4" x1="384.3247" y1="124.3924" x2="424.6057" y2="124.3924"/><rect class="cls-2" x="277.5302" y="383.3573" width="243.8444"/><polyline class="cls-3" points="515.375 383.357 521.375 383.357 515.375 383.357"/><line class="cls-5" x1="503.1722" y1="383.3573" x2="289.6313" y2="383.3573"/><polyline class="cls-3" points="283.53 383.357 277.53 383.357 283.53 383.357"/><line class="cls-5" x1="295.7325" y1="383.3573" x2="509.2734" y2="383.3573"/><rect class="cls-6" x="862.4417" y="1.1094" width="0.5051" height="429.0086"/><rect class="cls-6" x="839.2195" y="1" width="24.2424"/><rect class="cls-6" x="839.2195" y="430.118" width="24.2424"/><rect class="cls-2" x="323.5302" y="208.4988" width="141.9236"/><polyline class="cls-3" points="459.454 208.499 465.454 208.499 465.454 208.499 459.454 208.499"/><line class="cls-7" x1="447.6426" y1="208.4988" x2="335.4358" y2="208.4988"/><polyline class="cls-3" points="329.53 208.499 323.53 208.499 323.53 208.499 329.53 208.499"/><line class="cls-7" x1="341.3414" y1="208.4988" x2="453.5482" y2="208.4988"/><rect class="cls-2" x="316.5302" y="295.9179" width="194.4698"/><polyline class="cls-3" points="505 295.918 511 295.918 511 295.918 505 295.918"/><line class="cls-8" x1="492.8354" y1="295.918" x2="328.6125" y2="295.918"/><polyline class="cls-3" points="322.53 295.918 316.53 295.918 316.53 295.918 322.53 295.918"/><line class="cls-8" x1="334.6948" y1="295.9179" x2="498.9177" y2="295.9179"/><rect class="cls-1" x="465.4538" y="178.498" width="125.9456" height="57.9815"/><rect class="cls-1" x="487.7304" y="267.583" width="130.4748" height="58.6901"/><rect class="cls-1" x="521.3746" y="353.0021" width="130.4748" height="58.6901"/><rect class="cls-1" x="227.777" y="91.7246" width="130.4748" height="58.6901"/><rect class="cls-1" x="205.3847" y="179.1538" width="130.4748" height="58.6901"/><rect class="cls-1" x="179.8618" y="266.5729" width="130.4748" height="58.6901"/><rect class="cls-1" x="141.9849" y="354.1503" width="130.4748" height="58.6901"/><rect class="cls-1" y="354.0122" width="130.4748" height="58.6901"/><rect class="cls-1" x="37.1935" y="265.6004" width="130.4748" height="58.6901"/><rect class="cls-1" x="64.6445" y="179.1538" width="130.4748" height="58.6901"/><rect class="cls-1" x="87.5885" y="91.7246" width="130.4748" height="58.6901"/></g><g id="Text"><text class="cls-9" transform="translate(347.4703 38.766)">En<tspan class="cls-10" x="13.812" y="0">t</tspan><tspan class="cls-11" x="17.9756" y="0">erprise</tspan></text><text class="cls-9" transform="translate(109.4311 125.7256)">Busine<tspan class="cls-12" x="36.8999" y="0">s</tspan><tspan x="42.6719" y="0">s Unit 1</tspan></text><text class="cls-9" transform="translate(248.4283 126.3318)">Busine<tspan class="cls-12" x="36.8999" y="0">s</tspan><tspan x="42.6719" y="0">s Unit 2</tspan></text><text class="cls-9" transform="translate(97.5905 212.5951)"><tspan class="cls-13">P</tspan><tspan class="cls-11" x="7.0317" y="0">o</tspan><tspan class="cls-14" x="13.752" y="0">r</tspan><tspan class="cls-15" x="18.2036" y="0">t</tspan><tspan class="cls-16" x="22.2959" y="0">f</tspan><tspan x="26.1357" y="0">olio 1</tspan></text><text class="cls-9" transform="translate(244.6782 213.8386)"><tspan class="cls-13">P</tspan><tspan class="cls-11" x="7.0317" y="0">o</tspan><tspan class="cls-14" x="13.752" y="0">r</tspan><tspan class="cls-15" x="18.2036" y="0">t</tspan><tspan class="cls-16" x="22.2959" y="0">f</tspan><tspan x="26.1357" y="0">olio 2</tspan></text><text class="cls-9" transform="translate(68.7623 301.6445)"><tspan class="cls-17">W</tspan><tspan x="10.5117" y="0">orkload 1</tspan></text><text class="cls-18" transform="translate(215.6492 301.6443)">W<tspan class="cls-11" x="10.5117" y="0">orkload 2</tspan></text><text class="cls-9" transform="translate(23.958 389.4742)">Application 1</text><text class="cls-9" transform="translate(179.3849 388.1083)">Application 2</text><text class="cls-9" transform="translate(455.9772 125.5817)">Busine<tspan class="cls-12" x="36.8999" y="0">s</tspan><tspan x="42.6719" y="0">s Unit 25</tspan></text><text class="cls-9" transform="translate(489.1463 214.5844)"><tspan class="cls-13">P</tspan><tspan class="cls-11" x="7.0317" y="0">o</tspan><tspan class="cls-14" x="13.752" y="0">r</tspan><tspan class="cls-15" x="18.2036" y="0">t</tspan><tspan class="cls-16" x="22.2959" y="0">f</tspan><tspan x="26.1357" y="0">olio 200</tspan></text><text class="cls-18" transform="translate(521.4724 303.8253)">W<tspan class="cls-11" x="10.5117" y="0">orkload 250</tspan></text><text class="cls-9" transform="translate(545.3991 388.1087)">Application 500</text><text class="cls-19" transform="translate(727.8963 28.5579)">En<tspan class="cls-20" x="16.4219" y="0">t</tspan><tspan x="21.4756" y="0">erprise</tspan><tspan class="cls-21"><tspan x="-33.1328" y="14.3999">300 a</tspan><tspan class="cls-12" x="-2.293" y="14.3999">cc</tspan><tspan x="9.6348" y="14.3999">ounts</tspan><tspan class="cls-22" x="40.042" y="14.3999">/</tspan><tspan x="44.458" y="14.3999">en</tspan><tspan class="cls-16" x="57.8623" y="14.3999">t</tspan><tspan x="62.0264" y="14.3999">erprise</tspan></tspan></text><text class="cls-19" transform="translate(714.7144 101.2161)">A<tspan class="cls-23" x="9.2676" y="0">cc</tspan><tspan x="23.3799" y="0">ount g</tspan><tspan class="cls-24" x="63.4473" y="0">r</tspan><tspan x="68.7393" y="0">oup</tspan><tspan class="cls-21"><tspan x="-15.9795" y="14.3999">Max 250 B</tspan><tspan class="cls-25" x="41.3555" y="14.3999">U</tspan><tspan class="cls-22" x="49.252" y="14.3999">/</tspan><tspan x="53.668" y="14.3999">en</tspan><tspan class="cls-16" x="67.0713" y="14.3999">t</tspan><tspan x="71.2354" y="14.3999">erprise</tspan><tspan x="-8.0957" y="28.7998">BUs might </tspan><tspan class="cls-12" x="50.2236" y="28.7998">c</tspan><tspan class="cls-26" x="56.1875" y="28.7998">o</tspan><tspan x="63.0273" y="28.7998">-</tspan><tspan class="cls-27" x="67.8154" y="28.7998">r</tspan><tspan x="72.1592" y="28.7998">eside</tspan></tspan></text><text class="cls-19" transform="translate(714.7149 193.038)">A<tspan class="cls-23" x="9.2676" y="0">cc</tspan><tspan x="23.3799" y="0">ount g</tspan><tspan class="cls-24" x="63.4473" y="0">r</tspan><tspan x="68.7393" y="0">oup</tspan><tspan class="cls-21"><tspan class="cls-13" x="9.4902" y="14.3999">A</tspan><tspan class="cls-28" x="16.9424" y="14.3999">v</tspan><tspan x="22.75" y="14.3999">e</tspan><tspan class="cls-16" x="29.3379" y="14.3999">r</tspan><tspan class="cls-29" x="33.6943" y="14.3999">a</tspan><tspan class="cls-30" x="40.1016" y="14.3999">g</tspan><tspan x="46.3662" y="14.3999">e 4/BU</tspan><tspan x="9.8262" y="28.7998">l</tspan><tspan class="cls-31" x="13.0898" y="28.7998">ay</tspan><tspan x="25.3662" y="28.7998">er o</tspan><tspan class="cls-12" x="45.9102" y="28.7998">p</tspan><tspan x="52.7979" y="28.7998">tional</tspan></tspan></text><text class="cls-19" transform="translate(734.9236 283.5689)">A<tspan class="cls-23" x="9.2676" y="0">cc</tspan><tspan x="23.3799" y="0">ount</tspan><tspan class="cls-21"><tspan x="-29.4932" y="14.3999">Max 50 a</tspan><tspan class="cls-12" x="19.2139" y="14.3999">cc</tspan><tspan class="cls-32" x="31.1416" y="14.3999">ounts/BU</tspan><tspan class="cls-13" x="-7.6348" y="28.7998">A</tspan><tspan class="cls-28" x="-0.1826" y="28.7998">v</tspan><tspan x="5.625" y="28.7998">e</tspan><tspan class="cls-16" x="12.2129" y="28.7998">r</tspan><tspan class="cls-29" x="16.5693" y="28.7998">a</tspan><tspan class="cls-30" x="22.9766" y="28.7998">g</tspan><tspan x="29.2412" y="28.7998">e ~10</tspan></tspan></text><text class="cls-19" transform="translate(723.4652 373.243)">Namespa<tspan class="cls-23" x="60.7031" y="0">c</tspan><tspan class="cls-33" x="67.7598" y="0">e</tspan><tspan class="cls-21"><tspan x="-17.2119" y="14.3999">1-100 apps</tspan><tspan class="cls-34" x="45.3789" y="14.3999">/</tspan><tspan class="cls-29" x="49.8555" y="14.3999">a</tspan><tspan class="cls-12" x="56.2627" y="14.3999">cc</tspan><tspan class="cls-32" x="68.1904" y="14.3999">ount</tspan><tspan class="cls-25" x="-34.3662" y="28.7998">A</tspan><tspan class="cls-28" x="-26.9141" y="28.7998">v</tspan><tspan x="-21.1064" y="28.7998">e</tspan><tspan class="cls-16" x="-14.5186" y="28.7998">r</tspan><tspan class="cls-29" x="-10.1621" y="28.7998">a</tspan><tspan class="cls-30" x="-3.7549" y="28.7998">g</tspan><tspan x="2.5098" y="28.7998">e ~20 apps</tspan><tspan class="cls-34" x="62.5322" y="28.7998">/</tspan><tspan x="67.0088" y="28.7998">a</tspan><tspan class="cls-12" x="73.417" y="28.7998">cc</tspan><tspan x="85.3447" y="28.7998">ount</tspan></tspan></text><text class="cls-35" transform="translate(881.8815 198.9847)">x2<tspan class="cls-36"><tspan x="0" y="16.7998">En</tspan><tspan class="cls-37" x="16.4219" y="16.7998">t</tspan><tspan x="21.4756" y="16.7998">erprises</tspan></tspan><tspan class="cls-38"><tspan x="0" y="33.6001">1 nonp</tspan><tspan class="cls-39" x="43.5674" y="33.6001">r</tspan><tspan x="48.6357" y="33.6001">oduction</tspan><tspan x="0" y="50.3999">1 p</tspan><tspan class="cls-39" x="19.8232" y="50.3999">r</tspan><tspan x="24.8916" y="50.3999">oduction</tspan></tspan></text><text class="cls-9" transform="translate(201.777 442.5097)">Max 300 a<tspan class="cls-12" x="55.9072" y="0">cc</tspan><tspan class="cls-11" x="67.835" y="0">ounts</tspan><tspan class="cls-22" x="98.2427" y="0">/</tspan><tspan x="102.6587" y="0">en</tspan><tspan class="cls-16" x="116.0625" y="0">t</tspan><tspan x="120.2266" y="0">erprise </tspan><tspan class="cls-40" x="160.8462" y="0">–</tspan><tspan x="167.4819" y="0">x2 with nonp</tspan><tspan class="cls-31" x="236.9849" y="0">r</tspan><tspan x="241.3296" y="0">oduction and p</tspan><tspan class="cls-31" x="321.4155" y="0">r</tspan><tspan x="325.7603" y="0">oduction</tspan></text></g></svg>